<?xml version="1.0" encoding="utf-8"?>
<!-- Generator: Adobe Illustrator 19.2.1, SVG Export Plug-In . SVG Version: 6.00 Build 0)  -->
<!DOCTYPE svg PUBLIC "-//W3C//DTD SVG 1.0//EN" "http://www.w3.org/TR/2001/REC-SVG-20010904/DTD/svg10.dtd">
<svg version="1.0" id="Layer_1" xmlns="http://www.w3.org/2000/svg" xmlns:xlink="http://www.w3.org/1999/xlink" x="0px" y="0px"
	 width="2048px" height="2048px" viewBox="0 0 2048 2048" enable-background="new 0 0 2048 2048" xml:space="preserve">
<polygon fill="#212121" points="768,2048 768,1533.9 1280,1536 1279.5,2048 "/>
<polygon fill="#212121" points="2048,64 0,64 0,89 115.5,89 115.5,331 140.5,331 140.5,89 371.5,89 371.5,331 396.5,331 396.5,89 
	627.5,89 627.5,331 652.5,331 652.5,89 883.5,89 883.5,331 908.5,331 908.5,89 1139.5,89 1139.5,331 1164.5,331 1164.5,89 
	1395.5,89 1395.5,331 1420.5,331 1420.5,89 1651.5,89 1651.5,331 1676.5,331 1676.5,89 1907.5,89 1907.5,331 1932.5,331 1932.5,89 
	2048,89 "/>
<g>
	<rect y="619.5" fill="#212121" width="2048" height="41"/>
</g>
<g>
	<rect y="779.5" fill="#212121" width="2048" height="41"/>
</g>
</svg>
