<?xml version="1.0" encoding="utf-8"?>
<!-- Generator: Adobe Illustrator 19.2.1, SVG Export Plug-In . SVG Version: 6.00 Build 0)  -->
<svg version="1.0" id="FlowerDesign" xmlns="http://www.w3.org/2000/svg" xmlns:xlink="http://www.w3.org/1999/xlink" x="0px"
	 y="0px" width="2048px" height="2048px" viewBox="0 0 2048 2048" enable-background="new 0 0 2048 2048" xml:space="preserve">
<g>
	<path id="XMLID_12_" fill="#FFFFFF" d="M1348.8,1152.1c-2.6-3.3-4.4-5.1-4.7-5.3l-1.3-1.3l-146.3-60.4c6.7-19.1,10.4-39.6,10.4-61
		c0-21.6-3.7-42.3-10.6-61.5l146.4-60.9l1.3-1.3c0.2-0.2,2-2,4.5-5.2c1.8-2.2,3.9-5.1,6.3-8.5c-4.1-0.8-7.6-1.3-10.5-1.6
		c-4.3-0.5-6.9-0.5-7.3-0.5h-1.9l-146.1,60.8c-18-37.8-48.7-68.5-86.5-86.6l60.4-146.3v-1.9c0-0.3,0-2.9-0.5-7.1
		c-0.3-2.8-0.8-6.4-1.6-10.5c-3.5,2.3-6.3,4.5-8.6,6.3c-3.3,2.6-5.1,4.4-5.3,4.7l-1.3,1.3l-60.4,146.3
		c-19.3-6.9-40.1-10.7-61.8-10.7c-21.4,0-41.9,3.7-60.9,10.4L902,705.2l-1.3-1.3c-0.2-0.2-2-2-5.2-4.5c-2.2-1.8-5.1-4-8.5-6.3
		c-0.8,4.1-1.3,7.6-1.6,10.5c-0.5,4.3-0.5,6.9-0.5,7.3v1.9l60.5,145.6c-38.1,18-68.9,48.7-87.1,86.7l-145.6-60.1h-1.9
		c-0.3,0-2.9,0-7.1,0.5c-2.8,0.3-6.4,0.8-10.5,1.6c2.3,3.5,4.5,6.3,6.3,8.6c2.6,3.3,4.4,5.1,4.7,5.3l1.3,1.3l145.5,60
		c-6.9,19.3-10.7,40.1-10.7,61.8c0,21.6,3.7,42.3,10.6,61.5L705.6,1146l-1.3,1.3c-0.2,0.2-2,2-4.5,5.2c-1.8,2.2-3.9,5.1-6.3,8.5
		c4.1,0.8,7.6,1.3,10.5,1.6c4.3,0.5,6.9,0.5,7.3,0.5h1.9l145.1-60.3c18.2,38.1,49.1,68.9,87.2,86.9l-60,145.5v1.9
		c0,0.3,0,2.9,0.5,7.1c0.3,2.8,0.8,6.4,1.6,10.5c3.5-2.3,6.3-4.5,8.6-6.3c3.2-2.6,5.1-4.4,5.3-4.7l1.3-1.3l60.1-145.6
		c19.1,6.7,39.6,10.4,61,10.4c21.8,0,42.7-3.8,62-10.8l60.7,145.9l1.3,1.3c0.2,0.2,2,2,5.2,4.5c2.2,1.8,5.1,4,8.5,6.3
		c0.8-4.1,1.3-7.6,1.6-10.5c0.5-4.3,0.5-6.9,0.5-7.3v-1.9l-60.6-145.6c37.8-18.2,68.5-49,86.4-86.9l144.5,59.6l1.7,0.7h1.9
		c0.3,0,2.9,0,7.1-0.5c2.8-0.3,6.4-0.8,10.5-1.6C1352.8,1157.1,1350.6,1154.3,1348.8,1152.1z"/>
	<rect id="XMLID_5_" x="1526.6" y="569.4" fill="#FFFFFF" width="170" height="909.1"/>
	<rect id="XMLID_4_" x="353.1" y="569.4" fill="#FFFFFF" width="170" height="909.1"/>
	<polyline id="XMLID_3_" fill="#FFFFFF" points="2048,1478.6 1963,1478.6 1963,569.4 2048,569.4 	"/>
	<polyline id="XMLID_1_" fill="#FFFFFF" points="0,569 85,569 85,1478.2 0,1478.2 	"/>
</g>
</svg>
