<?xml version="1.0" encoding="utf-8"?>
<!-- Generator: Adobe Illustrator 19.2.1, SVG Export Plug-In . SVG Version: 6.00 Build 0)  -->
<svg version="1.0" id="FlowerDesign" xmlns="http://www.w3.org/2000/svg" xmlns:xlink="http://www.w3.org/1999/xlink" x="0px"
	 y="0px" width="2048px" height="2048px" viewBox="0 0 2048 2048" enable-background="new 0 0 2048 2048" xml:space="preserve">
<g>
	<path fill="#FFFFFF" d="M569.4,569.4v909.1h909.1V569.4H569.4z M1348.8,1152.1c-0.8-1-1.5-1.9-2.2-2.6
		C1347.3,1150.2,1348,1151.1,1348.8,1152.1c1.8,2.2,4,5.1,6.3,8.5c-4.1,0.8-7.6,1.3-10.5,1.6c-1,0.1-2,0.2-2.8,0.3
		c0.8-0.1,1.8-0.1,2.8-0.3c16.1,22.2,48.1,83.9-24.8,156.9c-73.1,73.1-134.8,41-156.8,25c0.1-1.1,0.2-2,0.3-2.9
		c-0.1,0.9-0.2,1.8-0.3,2.9c-0.3,2.8-0.8,6.4-1.6,10.5c-3.5-2.3-6.3-4.5-8.5-6.3c-0.8-0.6-1.5-1.2-2.1-1.8c0.6,0.5,1.3,1.1,2.1,1.8
		c-4.3,27.2-25.5,93.2-128.4,93.2c-103.1,0-124.2-66.1-128.5-93l0,0c-2.2,1.8-5.1,4-8.6,6.3c-0.8-4.1-1.3-7.6-1.6-10.5
		c-22.2,16.1-83.9,48.1-156.9-24.8c-73.1-73.1-41-134.8-25-156.8c1.6,0.2,3,0.3,4.1,0.4c-1.1-0.1-2.5-0.2-4.1-0.4
		c-2.8-0.3-6.4-0.8-10.5-1.6c2.3-3.5,4.5-6.3,6.3-8.5c-27.2-4.3-93.2-25.5-93.2-128.4c0-103.1,66-124.2,93-128.5
		c-1.8-2.2-3.9-5.1-6.3-8.6c4.1-0.8,7.7-1.3,10.5-1.6c-16.1-22.2-48.1-83.9,24.8-156.9c73.1-73.1,134.8-41,156.8-25
		c0.3-2.8,0.8-6.4,1.6-10.5c3.5,2.3,6.3,4.5,8.5,6.3c4.3-27.2,25.5-93.2,128.4-93.2c103.1,0,124.2,66.1,128.5,93
		c2.2-1.8,5.1-4,8.6-6.3c0.8,4.1,1.3,7.6,1.6,10.5c22.2-16.1,83.9-48.1,156.9,24.8c73.1,73.1,41,134.8,25,156.8
		c2.8,0.3,6.4,0.8,10.5,1.6c-2.3,3.5-4.5,6.3-6.3,8.5l0,0c27.2,4.3,93.2,25.5,93.2,128.4C1441.9,1126.7,1375.8,1147.8,1348.8,1152.1
		z"/>
	<rect id="XMLID_10_" x="134" y="569.4" fill="#FFFFFF" width="170" height="909.1"/>
	<rect id="XMLID_11_" x="1744.8" y="569" fill="#FFFFFF" width="170" height="909.1"/>
</g>
</svg>
