<?xml version="1.0" encoding="iso-8859-1"?>
<!-- Generator: Adobe Illustrator 19.2.1, SVG Export Plug-In . SVG Version: 6.00 Build 0)  -->
<svg version="1.0" id="Surfaces" xmlns="http://www.w3.org/2000/svg" xmlns:xlink="http://www.w3.org/1999/xlink" x="0px" y="0px"
	 width="2048px" height="2048px" viewBox="0 0 2048 2048" enable-background="new 0 0 2048 2048" xml:space="preserve">
<path fill="#FFFFFF" d="M1112.2,16.7h-165c-39.8,0-79.7,0-119.5,0.1c-1.8,0-3.5,1.2-5.2,1.9c-20.6,25.7-41.2,51.3-61.8,77
	c-13,16.2-25.8,32.6-38.8,48.8c-1.1,1.2-2.8,2.3-3.2,3.7c-17.3,73.3-34.6,146.7-51.6,220.1c-1.2,5.1-3,6.4-8.1,6.4
	c-217.3-0.1-659-0.1-659-0.1V2048h1119.2V23.7C1119.2,16.7,1119.2,16.7,1112.2,16.7z M1060.9,243.7l-53.7,5.2
	c-16.6,35.9-82.6,24.7-83.4,57.1c-0.7,25.9,0,58.9,16.4,85.6c8.7,2.6,17.9,5.3,28.2,8.3l21-7.4c-0.1-5.6,1.2-11.9-0.8-17.3
	c-1.4-3.8-7.2-6.4-14.1-12.1c-0.4,11.8,5.7,22.2-17,25.9c-4-1.7-7.6-4.1-12.1-12c-6.2-7.9-4.2-11.6-3.6-20.1l24.6-8.6
	c7.5,3,16.2,6.5,28.4,11.3c3.6,9.4,8.4,21.9,12.5,32.7c-23,29.6-53.8,18.5-76,4.8c-11.3-7-18-15.7-21.8-40.5
	c-7-22.8-7-27.2-8.4-43.7c-1.2-13.9-13.4-22.5-17.2-25.8c-30.5-4.4-48.3-10.7-59.1-25.5c-7.2-9.7-38.1-13.2-52.7-11.8v-22.3
	c22.9-7.1,57.2-8.4,78-20c28.6-15.9,61.5-23.9,97.6-12.5c21.3,6.8,44.2,10.3,62.9,24.6l51.5,5.4
	C1080.6,225.3,1060.9,243.7,1060.9,243.7z M882.1,141.8c40.7-8.9,76.7-3.1,120.4,13.9c12.3,4.8,24.5,9.6,40.1,15.7
	c20.4,3.2,14.9,19.1-7.1,19.1c0.2,3.8-3.5,7.3-11.6,7.5c-13.7,0.3-58.7-27-68-31.3c-9.3-4.3-37.7-4-50.7-3.4
	c-13,0.7-68.7,32-76,34.7c-7.4,2.7-40,5.3-45.7,5c-5.7-0.3-4.3-2-4.3-4.3c0-1,0.7-3.1,2.5-5.5c-4.6,1.1-8.2,2-9.9,2.6
	c-1.1-3.8-2.1-7.1-3.5-11.8C787.3,166.4,854.2,147.9,882.1,141.8z M761.6,462.5h20.6c0.8,0,1.5-0.7,1.5-1.5c0-0.6,0-1.2,0-1.8
	c0-2.2,0-4.6,0-7.2c0-2.5,0.1-3.2,0.2-6c0.2-5.6,0.4-7.5,0.3-13.4c0-5.9-0.2-9.9-0.4-15.4c-0.1-2.8-0.1-5.5-0.1-8c0-2.5,0-5,0.1-7.2
	c0.1-4.4,0.2-8.2,0.4-10.8c0.2-2.6,0.3-4.1,0.3-4.1c0.1-0.9,0.9-1.6,1.8-1.5c0.8,0.1,1.4,0.7,1.5,1.5c0,0,0.1,1.5,0.3,4.1
	c0.2,2.6,0.3,6.3,0.4,10.8c0,2.2,0.1,4.6,0,7.2c0,2.6-0.1,5.2-0.1,8c-0.1,5.6-0.4,9.5-0.4,15.4c0,5.9,0.2,7.9,0.3,13.4
	c0.1,2.8,0.1,3.5,0.2,6c0.1,2.5,0,5,0,7.2c0,0.6,0,1.3,0,1.9c0,0.8,0.7,1.5,1.5,1.5h20.7c2.2,0,3.8,2.1,3.2,4.3
	c-0.7,2.5-2.2,5.7-5.6,9c-8.8,8.4-12.5,9.8-21.8,9.8c-12.5,0-17.2-2.9-22.7-7.8c-3.3-2.9-4.8-7.9-5.5-11.4
	C757.9,464.4,759.5,462.5,761.6,462.5z M1086.5,888.8c-0.8,0-1.7-0.2-2.9-0.8c-11.3-5.4-14.4-58.9-24.4-58.9c-0.3,0-0.6,0-0.9,0.1
	c-19.4,5.8-19.1,71.4-19.3,77.5c-2.5,74.6-0.7,338.4-3.2,413.1c-1.4,39.2-2.7,78.4-4,117.6c-0.5,14.5,51.6,13.6,43.5,28.5
	c-1.5,2.8-3.9,3.4-6.4,3.4c-1.7,0-3.5-0.3-5.2-0.3c-1.3,0-2.5,0.2-3.5,0.8c-2.3,1.6-5.5,14.2-6.7,16.4c-4,7.4-11.3,23.4-21.9,23.4
	c-0.8,0-1.6-0.1-2.4-0.3c-4,118.5-8.1,237-12.1,355.4c-0.3,8.5-3.5,22.9-0.5,31.3c3.4,9.7,11.4,11.7,12,23.3
	c0.4,6.7-1.2,21.3-4.4,27c-1.3,2.2,0.8,5.2-1.2,5.2c-0.5,0-1.1-0.2-2.1-0.5c-3.8-1.4-4.1-9-4.5-12.1c-0.3-3.4,2.3-24.9-5.6-24.9
	c-0.8,0-1.7,0.2-2.8,0.7c-6.9,3.2-1.9,16.9-1.2,22.1c0.7,5.4,2,15.8-2,15.8c-0.7,0-1.5-0.3-2.6-1c-4.7-3.1-9.8-23.7-10-29.2
	c-0.3-12.1,9-17.2,11.9-28.2c2.7-10.2,1.4-22.8,1.7-33.2c2.4-69.9,4.7-139.8,7.1-209.6c1.2-34,2.3-67.9,3.5-101.8
	c0.2-7.8,6.1-36.6,1.4-43.4c-2.3-3.3-19.1-6.9-23.7-9.3c-7.1-3.7-13.6-8-19.9-13.1c-16.4-13.2-31.1-29-46.2-43.7
	c-28.5-27.7-56.8-56.3-80.1-88.6c-12-16.6-22.9-33.7-32.9-51.5c-8.8-15.9-8.2-43.6-10-61.4c-3.7-35.7-4.7-71.6-5.2-107.5
	c-10.8,27.5-29.7,48.6-31.4,79.2c-1.9,33.8,6.5,67.2,1.8,101c-2.6,19-8.5,36.4-9.3,55.4c-0.7,17.2,2.4,33.4,5.1,51
	c7.6,48.6,11.2,97.6,17.3,146.3c2.8,22.5,5,45.2,8.7,67.5c2.5,15.2,8.9,29.8,10.7,45.1c2.9,23.3-2.1,47.9,1.6,71
	c6,38.5,22.2,76.7,30.6,115c6.3,28.4,6.3,83.2,30.8,103.7c14.9,12.4,40.3,19,57.9,27.6c15,7.4,30,16.1,46.2,20.6
	c4.1,1.2,8.1,1.4,12,1.4c3.4,0,6.8-0.2,10.2-0.2c1.8,0,3.7,0.1,5.6,0.2c9.5,0.9,30.4,0.8,21.2,13.6c-4.1,5.8-12.8,7.3-20.2,7.3
	c-2.1,0-4.1-0.1-5.9-0.3c-2.5-0.2-5-0.3-7.5-0.3c-11.3,0-22.5,2.1-34.1,2.1H951c-25.7,0-49.2-11.6-74.4-11.6c-0.5,0-1.1,0-1.6,0
	c-15.3,0.3-31.6,6.8-47.4,6.8c-4.8,0-9.6-0.6-14.3-2.2c-24.9-8.4-8.3-43.9-10.1-62.8c-3.1-31.8-24.9-63-40.7-89.8
	c-23.1-39.2-35.8-76.6-39.5-122.1c-2-23.7-5.5-46.7-13.6-69.1c-2.5-7-6.4-23.2-12.4-27.8c-2.8-2.1-7.3-3-12.3-3.3h-0.1
	c-0.1,0-0.3,0-0.4,0c-1.1-0.1-2.3-0.1-3.5-0.1c-8.5,0-18,1.3-24.2,1.3c-13.2,0-19.8,44.5-24.3,54.8c-3.9,9-11.8,14.8-16,23.6
	c-6,12.6-7.5,27.4-9.9,40.9c-7.7,43.5-15.2,87.1-22.6,130.6c-2.3,13.3-7.5,33.4,3.5,44.2c7.5,7.3,22.2,11.8,31.5,16.8
	c11.9,6.4,23.6,13.1,35.1,20.2c11.5,7,21.8,14.1,35.6,15.3c1.7,0.2,3.5,0.2,5.2,0.2c5.2,0,10.4-0.5,15.6-0.5c2.7,0,5.4,0.1,8.1,0.6
	c7.7,1.2,15.2,3.4,23,3.4c0.8,0,1.5,0,2.3-0.1c1.8,25-38.5,19.6-53.8,21.1c-3.7,0.4-7.4,0.5-11,0.5c-28.6,0-55.5-10.4-84-10.4
	c-1.3,0-2.6,0-3.9,0.1c-13.2,0.4-35,8.1-52.6,8.1c-7.1,0-13.6-1.3-18.4-4.8c-16.2-11.8,0.7-47.3,2.9-62.7
	c4.5-31.6-1.9-64.9-4.2-96.5c-2.4-32.3-0.8-64.4,4.4-96.4c5.1-30.9,17-60,26-89.8c10.3-34,12.5-70.5,17.3-105.6l8.6-104.4
	c1.8-12-3.2-21.1-4.6-33c-3.2-26.6,3.5-54.3,10.4-79.8c4-14.8,8.1-29.6,11.2-44.7c1.4-6.6,2.8-13.3,3.6-20c0.4-3.8,1-7.5,1.3-11.3
	c0.3-3.3,4.7-3.8,4.6-5.4c-4.7-51-11.7-100.6-28.5-149.1c-3.5,45.3-9.7,90.2-17.8,134.8c-2.4,13.1-6.6,26.9-5.2,40.4
	c1.6,15.4,3.8,30.2,2.7,45.7c-1.4,22.4-4.8,44.6-8.3,66.8c-3.4,21.1-11.8,49.7-7.1,70.5c2.6,11.4,8.8,21.3,9.6,33.3
	c0.6,8.8,5.6,49.7-0.9,50.9c-0.3,0.1-0.6,0.1-1,0.1c-4.5,0-8.1-5.8-9.2-9.5c-3.9,10.4-7.2,20.1-16.1,27.2c8.3,0,16.2-2.2,23.8-5.4
	c1.1,3.2,4,20.7-1,20.7c-0.2,0-0.4,0-0.6-0.1c-4.3-1-11.1-3.6-16.2-3.6c-3.5,0-6.3,1.2-6.7,5c-1.5,12.5-0.8,25.1,0.4,37.5
	c1.2,12.7,8.4,25.9-8.1,25.9c-14.7,0-8.2-12.5-7-23.6c1.2-10.8,4.5-27.6,0.7-38.1c-1.9-5-3.6-6.6-5.7-6.6c-3.1,0-6.8,3.5-12.2,3.5
	c-1.1,0-2.4-0.2-3.7-0.6c-6.8-2.1-6.1-12.5-3.2-20.3c7.7,3.2,15.5,5.4,23.9,5.4c-14.9-11.5-21.2-40.5-21.2-58.6
	c0-17.9,4.9-35.3,5.5-53.2c0.7-20.1-0.5-39.9-1.6-60c-4.6-83,7.5-164.4,18.5-246.5c0.7-5.1,1.4-10.2,2-15.3l10-87l0.7-6.4
	C504.5,1004.5,503,893.5,624,851.5c0,0,4.4-17.4,31.6-17.4c3.2,0,6.8,0.2,10.7,0.8c-2.4-1.1-4.7-2-7-2.7c-2.8-0.9-5.9-1.5-7.2-1.5
	c-3.8-0.1-7.6-0.3-11.5-0.5c-5.7-0.2-11.6-0.5-17.7-0.5c-2.1,0-4.2,0-6.4,0.1c-8.4,0.2-17,1.3-25.9,2.3c-4.3,0.4-8.8,0.8-13.4,0.8
	c-4.8,0-9.8-0.4-14.7-1.6c-2.4-0.6-4.6-1.2-7.1-2.3l-1.4-0.6l-1.8-0.9c-1.3-0.6-2.1-1.2-3.1-1.8c-3.9-2.4-7.1-5.1-10-7.7
	c-5.9-5.2-10.7-10.3-15.3-14.8c-4.5-4.5-8.8-8.4-12.9-11.4c-4-3-7.7-5.2-11-6.5s-5.9-1.9-7.8-2.1c-1.9-0.2-2.8-0.2-2.8-0.2
	c-1.3,0-2.3-1-2.3-2.3c0-1.2,0.9-2.1,2-2.3c0,0,1.2-0.2,3.4-0.2c0.3,0,0.7,0,1.1,0c2.1,0,5,0.3,8.4,1.1c4,1,8.6,2.8,13.5,5.5
	c4.9,2.7,10.1,6.1,15.4,10c5.4,3.9,11,8.2,16.8,12.2c3,2,6,3.8,9,5.2c0.7,0.2,1.6,0.7,2.1,0.8l0.9,0.3l1.4,0.4
	c1.2,0.3,3,0.7,4.5,0.8c1.4,0.2,2.9,0.2,4.4,0.2c5.4,0,11.2-1,17.4-2.4c8-1.8,16.3-4.4,25.1-7c8.7-2.6,17.9-4.9,27.4-5.6
	c2.4-0.2,4.6-0.3,7.1-0.3c2.6,0,4.7,0.1,6.7,0.3c7.1,0.6,12,2.4,16.8,4.5c7.9,3.7,14.2,8,19.8,12.4c3.9-5.5,8.9-10.8,15.1-15.4
	c3.2-2.2,6.7-4.3,10.4-6c1.9-0.8,3.8-1.6,5.8-2.3c1.9-0.8,3.9-1.5,6-1.8c4.2-1,8.2-2,12.5-2.3l6.9-0.7c1.9,0.1,3.4,0,5.5,0.2
	c5.2,0.3,9.6,1.2,13.7,2.7c4.2,1.4,7.8,3.5,11.1,5.5c6.5,4.2,11.8,8.5,16.8,11.5c5,3,9.7,4.6,14.6,4.7l0.1,0c0,0,0.1,0,0.1,0h0.6
	l1.1-0.1l2.2-0.1c1.3-0.1,2.5-0.3,3.8-0.4c2.5-0.4,5.1-0.9,7.6-1.5c9.8-2.5,17.7-6.2,23.1-9c2.7-1.3,4.8-2.5,6.2-3.4
	c1.4-0.8,2.1-1.3,2.1-1.3l0.1,0c0.4-0.2,0.7-0.3,1.1-0.3c0.7,0,1.4,0.4,1.8,1c0.6,0.9,0.4,2.1-0.4,2.7c0,0-0.7,0.6-2,1.7
	c-1.3,1.1-3.3,2.6-5.9,4.4c-5.1,3.7-12.7,8.7-23,13.2c-2.6,1.1-5.4,2.1-8.3,3c-1.6,0.4-3.1,0.8-4.8,1.2l-2.2,0.4l-1.1,0.2l-0.6,0.1
	l-0.1,0h-0.1l-0.3,0l-0.4,0c-1.4,0.2-2.9,0.3-4.3,0.3c-6,0-12.3-1.6-17.8-4c-6.9-3-12.7-6.8-18.4-9.3c-2.8-1.2-5.6-2.3-8.2-2.7
	c-1.7-0.4-3.5-0.5-5-0.5c-0.8,0-1.6,0-2.2,0c-1.3,0.2-3.2,0.5-4.8,0.8h0.2l-0.1,0.1l-0.2,0.1l-0.5,0.2l-1,0.4l-2,0.8
	c-1.3,0.6-2.7,0.8-3.9,1.8l-3.6,2.2c-1.2,0.7-2.3,1.6-3.4,2.5c-1.1,0.9-2.2,1.8-3.3,2.5c-2,1.9-4.1,3.8-6.1,5.5
	c-2.5,2.4-5.1,4.6-7.6,6.9c18.7,5,35.3,14.9,35.3,14.9c15.4,6.5,12.3,17.5,21.5,26.8c17.8,18,75.6,52.3,80.6,63.5
	c4.8,10.7,3.2,21.7-7.4,28.7c-4.6,3-23.1,31.8-23.1,31.8s-58.4-38.2-85.5-38.2c-4.8,0-8.6,1.2-10.9,4c-7.6,9.2-16.1,18.3-9.8,27.2
	c0.9,1.2,3.3,2.2,6.6,3c0,0,0.1,0,0.1,0c0,0,0.1,0,0.1,0c0,0,0,0,0,0h0c9.9,2.3,27.5,3,36,5.9c4,1.4,15.6,5.5,22.5,7.9
	c1.6,0.5,2.9,1,3.9,1.3c4.7,1.6,9.6,3.2,14.5,5c23.2,8.4,46.7,19.7,55.5,43.9c12.4,34.2,6.7,75.7,10.9,111.5
	c2.7,23,4.3,46.1,5.9,69.1c0.9,12.6,0.7,22.6,6.9,33.8c7.8,14.1,19.2,26.4,27.7,40.2c11.6,18.8,21.6,38.4,32.3,57.6
	c10.6,19,22.1,37.9,36.3,54.5c6.3,7.4,10.4,12.9,19.3,14.9c1.5,0.4,5.6,0.5,10.1,0.5c6.3,0,13.3-0.4,14-1.1
	c4.7-4.9,1.2-35.3,1.4-41.7c1.1-33.2,2.3-66.3,3.4-99.6c2.5-72.8,0.6-334.6,3.1-407.4c0.5-13.9,0.7-27.9,1.5-41.7
	c0.6-11.3,21.2-23.2,21-33.3c-0.1-9.8-23.6-57.5-73.7-93.9c-59.5-43.3-138.2-51.1-136.6-61c0.2-1.4,2.1-2,5.3-2
	c22.4,0,108.9,30.7,141.2,53.9c35.5,25.5,84.7,83.9,89.4,94.8c4.6,10.8,4.2,22.7,5.5,34.2C1082.7,848,1096.8,888.8,1086.5,888.8z
	 M1094.1,473.4c-2.6,9.2-9.2,13.6-15.4,17.1c0,0,0,0,0,0c1.5,1.4,1.6,3.8,0.3,5.4c-4.1,5.1-8.3,10.3-13.1,16.3l-1.6,2
	c-0.7,0.8-1.6,1.4-2.7,1.5l-6.3,0.7c-0.2,1-0.5,2.3-0.8,4.2c-0.3,1.9-2,3.3-3.9,3.3c-4.7,0.1-7.5,0.2-11.6,0.3c-0.7,1.5-1.3,3-2,4.5
	c-1.5,3.4-2.8,6.6-4.2,8.7c-0.7,1.2-2,1.8-3.4,1.8h-0.5c-2.1,0-4.3,0.8-6.6,1.6l-0.2,0.1c-2.6,0.9-5,1.8-7.5,1.8
	c-5.5,0-8.3-4.3-9.6-6.8c-1.1,0.9-2.3,2.1-3.4,3.2c0,0,0,0,0,0l-0.5,0.5c-2.5,2.7-5.4,5.7-9.3,5.7h-0.2c-1.2,0-2.4-0.3-3.5-0.9
	c0,0,0,0,0,0c-0.9-0.5-1.8-1.1-2.6-2c-0.2,0.2-0.5,0.5-0.8,0.6c-0.4,0.3-0.9,0.6-1.4,0.9c-2.2,1.5-4.1,2.7-6.1,2.8
	c-0.2,0-0.4,0-0.6,0c-2.3,0-4.5-1.2-6.4-2.3l-0.2-0.1c-0.4-0.2-0.9-0.5-1.4-0.8c-1.6,3.5-4,6.9-8.4,6.9c-1.8,0-3.5-0.6-5-1.2l-0.1,0
	c-1.2-0.4-2.4-0.9-3.4-0.9c-0.5,0-1.2,0.1-2.1,1c-0.3,0.3-0.6,0.5-1,0.7c-0.2,0.5-0.6,1-1,1.3c-4.6,4-10.3,4.4-15.3,4.4
	c-0.7,0-1.3,0-1.9,0h-1.9c-2.1,0-4.3,0-6.4,0.5c-7.3,1.4-13.5,2.8-19.5,4.2c-0.3,0.1-0.6,0.1-0.9,0.1c-0.2,0-0.4,0-0.6-0.1
	c-0.4,0.3-0.9,0.5-1.4,0.7c-5.5,1.3-10.8,2.7-17.1,4.4l-1.6,0.4l-8.7,2.3c-0.3,0.1-0.7,0.1-1,0.1c-0.1,0-0.1,0-0.2,0
	c-0.3,0.2-0.7,0.4-1,0.6c-1.5,0.5-2.9,1.1-4.3,1.6c-4.2,1.7-8.6,3.5-13,3.5c-1.5,0-2.8-0.2-4.1-0.6v0.9c0,1.5-0.9,2.9-2.2,3.6
	c-0.6,0.3-1.2,0.4-1.8,0.4c-0.9,0-1.7-0.3-2.4-0.8c-0.7-0.5-1.5-1.2-2.4-1.9l-1.4-1.1c-0.1-0.1-0.3-0.2-0.4-0.3
	c-0.1,0-0.2,0.1-0.2,0.1c-0.5,0.2-0.9,0.4-1.3,0.7c-0.3,0.2-0.6,0.3-0.9,0.5c-2.9,1.5-5.9,3.1-9.2,3.5c-1.7,0.2-3.5,0.5-5.2,0.7
	l-1.2,0.2l-0.5,3.2c-0.2,1.7-1.5,3-3.2,3.3c-0.2,0-0.5,0.1-0.7,0.1c-1.4,0-2.8-0.8-3.5-2l-1.8-3.1c-3.4,0.5-6.6,0.8-9.6,1.1
	c-0.1,0-0.2,0-0.4,0c-0.4,0-0.7-0.1-1.1-0.2l-0.9,1.2l-11.1,14.6c-0.8,1-1.9,1.6-3.2,1.6H784c-1.3,0-2.5-0.7-3.2-1.8l-10-14.8
	l-0.6-1c-0.3,0.1-0.6,0.1-0.9,0.1h-0.2c-0.1,0-0.2,0-0.3,0c-6.4-0.5-12.4-1.5-17.6-2.3c-0.4-0.1-0.8-0.2-1.1-0.3l-1,1c0,0,0,0-0.1,0
	l-6.2,5.8c-0.8,0.7-1.7,1.1-2.7,1.1c-0.5,0-1.1-0.1-1.6-0.3c-1.5-0.6-2.4-2.1-2.4-3.7v-6.7c-0.1,0-0.1,0-0.2-0.1
	c-1.2-0.5-2.3-1.1-3.4-1.7l-0.5-0.3c0,0,0,0-0.1,0c-2.9-1.6-5.9-3.2-8.7-3.2c-0.1,0-0.2,0-0.2,0h-0.1c-0.2,0-0.5,0-0.7-0.1
	c-0.3,0.1-0.6,0.3-0.9,0.3c-0.2,0-0.5,0.1-0.8,0.3c-0.1,0-0.3,0.1-0.4,0.1c0,0,0,0,0,0c-0.4,0.2-0.8,0.3-1.4,0.5
	c-0.4,0.1-0.7,0.2-1,0.2c-0.1,0-0.1,0-0.2,0c-0.8,0.2-1.7,0.2-2.5,0.2c-0.7,0-1.5,0-2.3-0.2c-0.5,0-1.1-0.1-1.6-0.3
	c-0.3,0-0.6-0.1-0.8-0.2c-0.7-0.1-1.1-0.3-1.6-0.4c-2.4-0.7-4.8-1.6-6.8-2.5c-0.4-0.2-0.8-0.3-1.2-0.5c-1-0.4-2-0.8-3-1.1
	c-0.4-0.1-0.7-0.3-1.1-0.6c-0.1,0-0.1,0-0.2,0c-0.3,0-0.7,0-1-0.1l-8.7-2.3l-1.6-0.4c-6.2-1.6-11.6-3.1-17-4.4
	c-0.5-0.1-1-0.3-1.4-0.7c-0.2,0-0.4,0.1-0.6,0.1c-0.3,0-0.6,0-0.9-0.1c-6.1-1.5-12.3-2.8-19.5-4.2c-2.1-0.4-4.3-0.5-6.4-0.5
	c-0.6,0-1.2,0-1.8,0c-0.7,0-1.3,0-2,0c-5,0-10.7-0.3-15.3-4.4c-0.4-0.4-0.7-0.8-0.9-1.3c-0.3-0.2-0.7-0.4-1-0.6c-1-0.9-1.6-1-2.2-1
	c-1,0-2.2,0.5-3.4,0.9l0,0c-1.6,0.6-3.2,1.2-5,1.2c-4.4,0-6.8-3.4-8.4-6.9c-0.5,0.2-1,0.6-1.5,0.8l-0.1,0c-2,1.1-4.2,2.4-6.4,2.4
	c-0.2,0-0.4,0-0.6,0c-2.1-0.2-4.1-1.5-6-2.8l-0.1,0c-0.1,0-0.1-0.1-0.2-0.1c-0.4-0.3-0.8-0.5-1.2-0.8c-0.3-0.2-0.5-0.4-0.8-0.6
	c-0.9,0.9-1.8,1.5-2.7,2c-1.1,0.6-2.3,0.9-3.5,0.9c-2,0-3.9-0.8-6-2.4c-1.3-1-2.5-2.3-3.7-3.5l-0.2-0.3c0,0,0,0,0,0
	c-1.1-1.2-2.2-2.4-3.4-3.2c-1.3,2.6-4,6.8-9.6,6.8c-2.5,0-5-0.9-7.5-1.8l-0.1,0c-2.3-0.8-4.5-1.6-6.6-1.6h-0.3c-0.1,0-0.1,0-0.2,0
	c-1.4,0-2.7-0.7-3.4-1.9c-1.3-2.1-2.7-5.3-4.2-8.6l-0.6-1.3c-0.5-1.1-0.9-2.2-1.4-3.2c-4.5-0.1-7.2-0.2-11.6-0.3
	c-1.9,0-3.5-1.4-3.9-3.3c-0.3-1.8-0.6-3-0.8-4.2l-6.3-0.7c-1.1-0.1-2-0.6-2.7-1.5l-4.3-5.4c-3.6-4.5-7.1-8.8-10.4-13
	c-1.3-1.6-1.2-4,0.3-5.4c0,0,0,0,0,0c-5.6-3.2-11.1-6.8-14.2-13.8c-0.6-1.2-0.4-2.7,0.3-3.8c-0.1-0.2-0.1-0.4-0.2-0.5
	c-0.1-0.2-0.1-0.4-0.2-0.6c-0.1-0.3-0.2-0.8-0.3-1.3c-0.5-2.5-0.2-4.6,0.8-6.1c0,0,0,0,0,0c1.7-2.5,5-3.2,7.8-3.5c0.1,0,0.2,0,0.4,0
	h0.1c0.3,0,0.9,0,2.1,0c7.1,0,26.5,0.9,45.3,1.7c12.7,0.6,25.8,1.1,34.1,1.4h0.1c0.2,0,0.4,0,0.6,0c0.2,0,0.5,0,0.7,0
	c0.2,0,0.5,0,0.7,0c0.2,0,0.4,0,0.5,0h0.1c1.8,0,3.2,0.1,4.3,0.1c4.9,0,16.3-0.5,26.7-0.9c2.2-0.1,4.5-0.2,6.8-0.3
	c3.2-0.1,6.4-0.3,9.7-0.4c2.3-0.1,4.6-0.2,7-0.3c1.9-0.1,3.8-0.2,5.7-0.2c14.3-0.6,26.6-1.1,31.9-1.1h0.5c2.7,0,8.5,0,15.8,0h14.4
	c18.5,0,41.5,0,53,0c4.9,0,9.4,2.8,11.5,7.2c1.6,3.4,3.3,6.4,5.1,9.1c2.6,3.9,5.5,7.2,8.4,9.7c0,0,0.1,0.1,0.1,0.1
	c1.3,1.1,2.7,2.1,4.1,3c0,0,0,0,0.1,0c0.6,0.4,1.2,0.7,1.8,1c0.1,0,0.1,0.1,0.2,0.1c0.3,0.1,1.5,0.7,1.7,0.8c0,0,0,0,0.1,0
	c0.9,0.3,2.6,0.9,3.3,1c0.1,0,0.2,0,0.3,0.1c0.1,0,0.4,0.1,0.7,0.1l0.1,0l0.3,0c0.2,0,0.4,0.1,0.6,0.1c0.1,0,0.1,0,0.1,0l0.1,0
	c0.3,0,0.6,0.1,0.7,0.1c0.2,0,0.5,0,0.7,0.1h0.1c0.1,0,0.2,0,0.2,0h0.3c0.1,0,0.3,0,0.4,0h0.4c1.7,0,3.4-0.2,5.1-0.7
	c0,0,0.1,0,0.1,0c0.6-0.1,1-0.3,1.5-0.4c0.1,0,0.1,0,0.2-0.1c0.3-0.1,0.6-0.2,0.8-0.3c0.1,0,0.2-0.1,0.3-0.1
	c0.3-0.1,0.5-0.2,0.7-0.3c0.2-0.1,0.4-0.2,0.7-0.3c1.1-0.5,2.2-1,3.4-1.7c0.1-0.1,0.2-0.2,0.4-0.2c0.4-0.2,0.9-0.5,1.4-0.9
	c0,0,0.1,0,0.1-0.1c0.6-0.4,1.2-0.9,1.9-1.4c3.7-2.8,7.3-6.5,10.7-10.9c1.8-2.3,3.5-4.8,5.2-7.3c0-0.1,0.1-0.1,0.1-0.2
	c0.1-0.1,0.2-0.3,0.2-0.4l0-0.1c0.1-0.1,0.1-0.2,0.2-0.3c0.1-0.2,0.2-0.4,0.3-0.5c0.1-0.2,0.2-0.4,0.3-0.5c2.2-3.7,6.1-6,10.4-6.2
	c10.3-0.3,30.4-0.9,50-0.9c16,0,28.5,0.4,37.1,1.2c3,0.3,6.7,0.5,11,0.7c10.9,0.5,23.3,0.6,31.7,0.6c11.9,0,25.5-0.2,38.2-0.6
	c16.4-0.4,29.7-1.1,34.8-1.9c7.1-1,22-2,35.7-2c11.5,0,19.1,0.7,22.8,2.1c2,0.8,3,2.9,2.4,4.9c-0.5,1.8-1.3,3.3-2.2,4.6
	c1.1,0.1,2.1,0.7,2.8,1.5C1094.2,471,1094.4,472.2,1094.1,473.4z"/>
<g>
	<path fill="#FFFFFF" d="M1915.6,336.3v1702.1h-151V336.3h0V136h0.1V7.2h150.9V136c0,0,0,0,0,0L1915.6,336.3L1915.6,336.3z"/>
	<path fill="#FFFFFF" d="M2006.7,114.1v267h-0.1v1657.3h-89.3V381.2c0,0,0,0,0,0v-267h0.1V7.4h89.3L2006.7,114.1L2006.7,114.1z"/>
	<polygon fill="#FFFFFF" points="2041.1,7.3 2041.1,166.7 2041,166.7 2041,360.9 2040.9,360.9 2040.9,2038.6 2008.3,2038.6 
		2008.3,324.6 2008.3,324.6 2008.3,166.7 2008.1,166.7 2008.1,7.3 	"/>
</g>
<g id="XMLID_610_">
	<g>
		<path fill="#FFFFFF" d="M908,276.5c-71-3.2-58.9-38.7-83.3-40.5c8.6-10,14.9-12.2,28-17.3c12.1-4.7,22.2-13.7,38.4-13.1
			c-14,7.5-22.4,21.5-21,35.3C872.4,261.8,881.2,272.8,908,276.5z"/>
		<path fill="#FFFFFF" d="M914.8,211.1c0,0-29,6.4-27.9,25.8c1.1,19.3,14.5,25.8,27.9,25.8c13.4,0,30.1-2.9,34.6-25.8
			C953.8,214,929.3,213,914.8,211.1z M933.7,236.9c-1.2,7.4-5.5,12-15.3,12c-9.8,0-15.9-3.7-15.9-12c0-8.3,15.9-12.9,15.9-12.9
			C928.7,225.8,934.9,229.5,933.7,236.9z"/>
		<path fill="#FFFFFF" d="M963.9,238.3c0.7-15.3-8.7-25.7-21.1-31.7c23,5.7,45,13.1,64.5,25.1c-22.6,21.5-48.1,38.9-78,43.6
			C947.8,270.7,963,256.9,963.9,238.3z"/>
	</g>
</g>
<g>
	<g>
		<path fill-rule="evenodd" clip-rule="evenodd" fill="#FFFFFF" d="M914.1,474.3l159.9,14.4l1.2-0.7c6.5-3.7,12.7-7.2,15-15.6h-46.8
			c-19.3,0.7-40.1,1.5-48.9,1.9c-5.7,0.2-17.6,0.3-31.3,0.3C947.3,474.5,928.7,474.4,914.1,474.3z"/>
		<path fill-rule="evenodd" clip-rule="evenodd" fill="#FFFFFF" d="M850,474.4l187.5,46c5.3-0.2,8.1-0.3,13.1-0.3
			c0.4-2.3,0.7-3.7,1-5v-0.1l-10.2-2.1l-186.1-38.6C853.5,474.4,851.8,474.4,850,474.4z"/>
		<path fill-rule="evenodd" clip-rule="evenodd" fill="#FFFFFF" d="M829.3,475.8l157.1,62.7c0.5,0.1,1,0.2,1.4,0.6
			c0.1,0.1,0.2,0.2,0.3,0.3c0.7,0.8,1.3,1.3,2,1.6c0.6,0.3,1.1,0.5,1.7,0.5c2.4,0.1,4.7-2.5,7-4.9c1.4-1.5,2.8-3,4.3-4.1l-169.2-58
			c0,0,0,0-0.1,0h-0.9C831.7,474.5,830.3,475,829.3,475.8z"/>
		<path fill-rule="evenodd" clip-rule="evenodd" fill="#FFFFFF" d="M823.7,484.6l78.2,72.1c6.3-1.5,12.6-2.8,19.7-4.2
			c2.3-0.5,4.7-0.5,7.1-0.5h1.9c5.4,0.1,10.6,0.1,14.6-3.4l-118.5-69.1C826,480.9,825,482.7,823.7,484.6z"/>
		<path fill-rule="evenodd" clip-rule="evenodd" fill="#FFFFFF" d="M822.8,506.1c2.7,3.6,5.4,7.4,8,11.1c0.4,0.6,0.9,1.3,1.3,1.9
			c1,1.4,1.9,2.8,2.8,4.1c0.5,0.7,0.9,1.4,1.4,2c4.1,6.2,7.6,11.9,9.5,16.1c0.3,0.8,0.6,1.5,0.9,2.2c0.4,1.2,0.6,2.2,0.6,3v22.3
			c0.6,0.2,1.2,0.3,1.8,0.6c4.5,1.9,9.8-0.2,15.4-2.5c1.5-0.6,3-1.2,4.5-1.7l-45.8-62.9C823.2,503.6,823,504.9,822.8,506.1z"/>
		<path fill="#FFFFFF" d="M819.2,576.1c2.3-0.3,4.6-0.7,6.8-1c2.6-0.3,5.2-1.7,8-3.1c0.8-0.4,1.5-0.8,2.3-1.2
			c-0.5-0.4-0.9-0.7-1.3-1.1c-0.9-0.7-1.7-1.4-2.5-2.1c-0.3-0.3-0.6-0.5-0.9-0.7c-1.4-1.2-2.7-2.3-3.9-3.3c-0.4-0.3-0.7-0.7-1.1-1
			c-0.8-0.7-1.5-1.4-2.2-2l-0.3-0.3c-0.1-0.1-0.2-0.2-0.3-0.3c-0.8-0.8-1.4-1.5-2-2.2L819.2,576.1z"/>
		<path fill="#FFFFFF" d="M800.4,578.6c3-0.3,6-0.6,9.4-1.1l-6.3-11.3l0.8,7.3L800.4,578.6z"/>
		<path fill-rule="evenodd" clip-rule="evenodd" fill="#FFFFFF" d="M751.9,576c5.5,0.9,11.1,1.8,17.3,2.3h0.2l-7.1-10.6l9.6-32.6
			c-0.5-0.2-0.9-0.4-1.3-0.6l-9.6,33L751.9,576z"/>
		<path fill-rule="evenodd" clip-rule="evenodd" fill="#FFFFFF" d="M478.5,474.3c2.8,6.4,8.3,9.5,14,12.8l1.3,0.7l9.9-0.9l104.1-9.4
			c-1.1,0-2.2,0-3.3,0c-4.6,0-8.3-0.1-10.9-0.2c-13.9-0.6-86.3-3.2-98.3-3.2c-6,0-10.3,0.9-13.3,0.9
			C480.5,475.1,479.4,474.9,478.5,474.3z"/>
		<path fill-rule="evenodd" clip-rule="evenodd" fill="#FFFFFF" d="M516.1,514.1L516.1,514.1c0.3,1.4,0.6,2.7,1,5
			c5,0.1,7.9,0.2,13.2,0.3l180.3-44.3c-2.1,0-4.1-0.1-6.2-0.1h0c0,0,0,0,0,0L516.1,514.1z"/>
		<path fill-rule="evenodd" clip-rule="evenodd" fill="#FFFFFF" d="M564.5,531.6c1.5,1.1,2.9,2.6,4.3,4c1.2,1.2,2.3,2.5,3.5,3.4
			c1.2,0.9,2.4,1.5,3.5,1.5c0.6,0,1.1-0.2,1.7-0.5c0.7-0.3,1.3-0.9,2.1-1.6c0.1-0.1,0.2-0.2,0.3-0.2c0.4-0.4,0.9-0.6,1.5-0.6
			l154.9-61.8c-2.4-0.1-5.2-0.2-8.3-0.3h0l0,0L564.5,531.6z"/>
		<path fill-rule="evenodd" clip-rule="evenodd" fill="#FFFFFF" d="M622.5,547.6c3.9,3.5,9.1,3.5,14.6,3.4c3,0,6.1-0.1,9.1,0.5
			c7.1,1.4,13.4,2.7,19.7,4.2l80.5-74.2c-0.3-0.7-0.6-1.3-0.9-1.9c-0.5-1-1.2-1.9-2.1-2.5l-120.7,70.3L622.5,547.6z"/>
		<path fill-rule="evenodd" clip-rule="evenodd" fill="#FFFFFF" d="M698.8,564.4c1.5,0.5,2.9,1.1,4.4,1.7c2.1,0.9,4.3,1.7,6.5,2.4
			c0.4,0.1,0.8,0.2,1.3,0.4c0.2,0.1,0.5,0.1,0.8,0.2c0.4,0.1,0.8,0.2,1.2,0.2c1.4,0.2,2.6,0.2,3.8,0c0.2-0.1,0.5-0.1,0.8-0.2
			c0.3-0.1,0.6-0.2,0.9-0.3l0.2-0.2h0.3c0.5-0.2,1-0.4,1.4-0.5v-5l-4.1,1.4l4.1-18.8c0-0.8,0.2-1.8,0.7-3l0-0.1l1.5-6.8l5.1-5.5
			c6.2-10,15.5-22.7,22.3-31.6v0c0.4-2.2,1.6-5.1,2.6-7.8c-0.1-0.1-0.1-0.1-0.2-0.2L698.8,564.4z"/>
		<path fill="#FFFFFF" d="M491.8,492.6c4.6,5.7,9.2,11.5,14.7,18.4l8,0.9L692,475.1c-6.3,0-11.9,0.2-15.9,0.4
			c-7.2,0.5-19.3,1-32.2,1.4h0l-149.8,13.5l-0.4,0.4C493.1,491.3,492.5,491.9,491.8,492.6z"/>
		<path fill="#FFFFFF" d="M532.2,521.7c0.7,1.5,1.4,3.1,2.1,4.7c1.4,3.2,2.7,6.3,3.9,8.1c3-0.1,5.8,0.9,8.6,1.9
			c5.4,2,9.4,3.4,12.7-4.1c0.2-0.4,0.4-0.9,0.6-1.3l0.2-0.6l160.3-54.9h-0.1c0,0,0,0,0,0s0,0,0,0l-92.2,22.7L532.2,521.7z"/>
		<path fill="#FFFFFF" d="M585,538.9c0.5,0.3,1,0.6,1.4,1c1.5,1,3.1,2.1,4.3,2.2c1.2,0.1,3.2-1,4.7-1.9c2-1.1,3.7-2.1,5.1-1.6
			c0.5,0.2,1.1,0.5,1.4,1.4c2.9,7.2,5.3,6.2,8.9,4.8c1.5-0.6,3.1-1.2,4.9-1.2c1.6,0,3.2,0.5,4.9,2.1l103.6-60.4l10.8-6.3L585,538.9z
			"/>
		<path fill="#FFFFFF" d="M668.7,556.5c6,1.4,11.7,3,18.7,4.8l8.7,2.3h0l54.5-75c-1.2-1.6-2.3-3.2-3.1-4.7L668.7,556.5z"/>
		<path fill="#FFFFFF" d="M722.9,562v5.5c3.9-0.1,7.5,1.8,11,3.7c1.3,0.7,2.5,1.3,3.7,1.9V557l0.1-0.2l-0.5,0.2L722.9,562z"/>
		<path fill="#FFFFFF" d="M738.9,517.9l10.5-11.4l1.8-2c-0.1-0.4-0.1-0.8-0.1-1.1c-0.1-0.7-0.1-1.3-0.1-2l-0.3,0.3
			C746.3,507.6,742.3,513,738.9,517.9z"/>
		<path fill="#FFFFFF" d="M823.3,548.3l-0.9,5.8v0.1c0,0.1,0.1,0.1,0.1,0.2c0.1,0.2,0.2,0.3,0.2,0.4c0,0,0,0.1,0.1,0.1
			c0.1,0.2,0.2,0.4,0.3,0.5c1.2,1.8,5,5.8,16.4,14.9c0.2,0.2,0.4,0.3,0.6,0.5h0c0.4,0.3,0.7,0.6,1.1,0.9c1.5,1.1,2.7,2.1,3.7,2.9
			v-27.9c0-4.5-10.5-20.4-22.7-37.1c-1.4,5.8-4.1,11.1-7.8,15.5L823.3,548.3z"/>
		<path fill="#FFFFFF" d="M765,567.3l8.3,12.4l0.9,1.3l9.9,14.8l11.1-14.5l0.9-1.2l5.5-7.1l-1.3-12.3l-2.9-5.2L796,537
			c-3,0.8-6.2,1.3-9.5,1.3c-4.3,0-8.5-0.8-12.3-2.2L765,567.3z"/>
		<path fill="#FFFFFF" d="M798.4,536.2l1.3,18.1v0l1.4,2.5l1.6,2.9l5.8,10.3l0.8,1.3l0.4,0.7l3.5,6.2l0.7,1.2l1.8,3.1l0.5-3.5
			l0.2-1.3h0l0.6-3.8l0.5-3.6l0.8-5.3l1.6-10.7c0,0,0,0,0,0l0.4-2.6l0.3-2.1l0,0.1l0.1-0.6l0.1-0.7l-1.8-4.7l-0.1-0.3l-5.6-14.5
			l0-0.1l-0.7-1.8c-0.3,0.3-0.6,0.6-0.9,0.9c-3.3,3.2-7.2,5.8-11.5,7.6c-0.4,0.2-0.8,0.3-1.2,0.5
			C798.7,536.1,798.6,536.2,798.4,536.2z"/>
		<path fill="#FFFFFF" d="M740.2,557.7v25.9l6.2-5.8l1.1-1.1l11.2-10.5l9.5-32.9c-3.7-2.2-7-5.1-9.8-8.4l-12.3,22v0l0,0.1l-3.7,8.2
			l-1,0.4h0L740.2,557.7z"/>
		<path fill="#FFFFFF" d="M719.7,560.5l0.7-0.2l1.3-0.5l1.3-0.4l16.7-5.9l0.5-0.2l0.4-0.2v0l3-6.7l0-0.1l11.8-26
			c-2.1-3.5-3.7-7.4-4.6-11.5l-21.2,23.1l-4.1,4.5c-0.2,0.4-0.5,0.8-0.7,1.2l-1.2,5.7l-0.6,2.6l-1.3,5.8l-1.3,5.8L719.7,560.5z"/>
		<path fill="#FFFFFF" d="M867.6,474.3l185.7,38.5l8-0.9c5.5-6.9,10.1-12.7,14.7-18.4c-0.7-0.7-1.3-1.2-1.9-1.8l-0.5-0.5l-189-17
			c-0.1,0-0.1,0-0.1,0h0C879.8,474.2,873.8,474.3,867.6,474.3z"/>
		<path fill="#FFFFFF" d="M847,476.3l159.9,54.8l0.6,0.2l0.2,0.6c0.2,0.5,0.4,0.9,0.6,1.3c3.3,7.6,7.3,6.1,12.7,4.1
			c2.6-0.9,5.3-1.9,8.1-1.9h0.5c1.2-1.8,2.5-4.9,3.9-8.1c0.7-1.6,1.4-3.1,2.1-4.7L847,476.3z"/>
		<path fill="#FFFFFF" d="M832.7,480l114.4,66.6c3.5-3.3,7-2,9.8-0.9c3.6,1.4,6,2.3,8.9-4.8c0.3-0.9,0.9-1.2,1.4-1.4
			c0.3-0.1,0.5-0.1,0.8-0.1c1.3,0,2.7,0.8,4.3,1.8c1.6,0.9,3.5,2,4.8,1.9c1.1-0.1,2.8-1.2,4.2-2.2c0.5-0.3,1-0.6,1.4-0.9L832.7,480z
			"/>
		<path fill="#FFFFFF" d="M819.9,489.6c0.1,0.2,0.2,0.4,0.2,0.5c1,2.4,2.2,5.1,2.8,7.4l20.3,27.9l28.4,39l8.7-2.3
			c7-1.9,12.8-3.4,18.7-4.8l-76.8-70.7c-0.6,0.8-1.2,1.6-1.9,2.4C820.2,489.2,820.1,489.4,819.9,489.6z"/>
		<path fill-rule="evenodd" clip-rule="evenodd" fill="#FFFFFF" d="M752.2,500.2c0,1,0.1,2,0.1,3c0.1,0.6,0.1,1.1,0.2,1.7
			c0.1,0.6,0.2,1.1,0.3,1.6c0.7,3.9,2,7.6,3.8,11c0.2,0.5,0.5,0.9,0.8,1.3c0.3,0.5,0.5,0.9,0.8,1.3c0.3,0.4,0.5,0.8,0.8,1.2
			c0.3,0.4,0.6,0.7,0.8,1.1c2.6,3.3,5.7,6.1,9.2,8.3c0.4,0.3,0.7,0.5,1.1,0.7c0.4,0.2,0.8,0.4,1.1,0.6c0.4,0.2,0.9,0.4,1.3,0.6
			c0.4,0.2,0.8,0.4,1.2,0.5c0.4,0.2,0.8,0.3,1.2,0.5c3.6,1.4,7.5,2.1,11.6,2.1c3.2,0,6.4-0.5,9.4-1.3c0.4-0.1,0.8-0.3,1.2-0.4
			c0.1,0,0.2-0.1,0.4-0.1c0.3-0.1,0.6-0.2,0.9-0.3c0.1-0.1,0.3-0.1,0.4-0.2c0.4-0.2,0.8-0.3,1.2-0.5c4.1-1.8,7.9-4.5,11-7.8
			c0.3-0.2,0.5-0.5,0.7-0.7c0.1-0.1,0.3-0.3,0.4-0.4c0.2-0.2,0.4-0.5,0.6-0.7c0.2-0.2,0.3-0.3,0.4-0.5c0.2-0.2,0.4-0.4,0.5-0.7
			c3.4-4.4,5.8-9.7,6.9-15.5c0.1-0.6,0.2-1.2,0.3-1.8c0.1-0.6,0.2-1.2,0.2-1.9c0.1-1,0.1-1.9,0.1-2.9c0-0.5-0.1-1-0.2-1.6
			c0,0,0,0,0,0c-0.2-1.1-0.7-2.4-1.2-3.7c-0.4-1.1-0.9-2.2-1.3-3.2c-0.2,0.2-0.4,0.4-0.6,0.6c-0.3,0.3-0.6,0.6-0.9,0.9v0
			c-0.7,0.6-1.4,1.3-2.1,1.9c-0.3,0.3-0.7,0.5-1,0.8c-0.3,0.3-0.7,0.5-1,0.8c-1.8,1.3-3.7,2.6-5.8,3.7c-0.4,0.2-0.8,0.4-1.2,0.6
			c-0.1,0.1-0.3,0.2-0.4,0.2c-0.3,0.1-0.5,0.3-0.8,0.4c-0.1,0.1-0.3,0.1-0.4,0.2c-0.4,0.2-0.8,0.4-1.2,0.5c-2,0.8-4.1,1.5-6.3,2
			c-0.1,0.1-0.3,0.1-0.4,0.1c-0.3,0.1-0.6,0.2-0.9,0.2c-0.1,0.1-0.3,0.1-0.4,0.1c-0.3,0.1-0.6,0.1-0.8,0.2c-0.1,0.1-0.3,0.1-0.4,0.1
			c-2.4,0.4-5,0.7-7.7,0.7h-0.7c-1.1,0-2.2,0-3.2-0.1h0c-0.4,0-0.9-0.1-1.3-0.1c-0.4,0-0.9-0.1-1.3-0.1c-0.1,0-0.2,0-0.3,0v0
			c-0.4-0.1-0.9-0.1-1.3-0.2c-0.4-0.1-0.8-0.1-1.2-0.2h0c-2.1-0.4-4.1-0.9-5.9-1.5c-0.4-0.1-0.8-0.3-1.2-0.4
			c-0.4-0.1-0.8-0.3-1.2-0.5c-0.5-0.2-1.1-0.4-1.6-0.7c-0.4-0.2-0.8-0.3-1.2-0.5c-0.4-0.2-0.7-0.4-1.1-0.6c-1.3-0.7-2.6-1.5-3.8-2.3
			c-0.4-0.3-0.7-0.5-1-0.8c-0.4-0.2-0.7-0.5-1-0.8c-0.8-0.7-1.6-1.3-2.4-2c-0.3-0.3-0.6-0.6-0.9-0.9c-0.3-0.3-0.6-0.5-0.8-0.8
			c-0.5,1.2-0.9,2.4-1.3,3.6c-0.4,1.2-0.7,2.3-0.8,3.2C752.3,499.9,752.2,500.1,752.2,500.2z"/>
		<path fill="#FFFFFF" d="M478.4,468.9c0.1,0.4,0.2,0.8,0.3,1.2c0,0,0,0,0,0.1c0.2,0.5,0.3,0.9,0.5,1.3c0.5,0.9,1.3,1.1,2.8,1.1
			c1.1,0,2.5-0.2,4.2-0.3c2.5-0.3,5.5-0.6,9.2-0.6c11.9,0,84.3,2.5,98.4,3.2c2.4,0.1,6,0.2,10.8,0.2c10.6,0,25.4-0.3,39.2-0.7h0.3
			c9.2-0.3,18-0.6,24.8-1h0.2c2.6-0.1,5-0.3,6.9-0.4c3.8-0.3,9.2-0.4,16.1-0.4h2.3c3.1,0,6.3,0,9.6,0.1h0.1c0,0,0,0,0.1,0
			c1.9,0,3.8,0.1,5.8,0.1c0,0,0,0,0.1,0c1.9,0,3.7,0.1,5.6,0.1h0c0,0,0,0,0.1,0h0c1.5,0,3,0.1,4.4,0.1c0,0,0,0,0,0h0
			c1.6,0,3.2,0.1,4.8,0.1h0c0.8,0,1.6,0,2.4,0.1h0c0.8,0,1.5,0,2.3,0.1c0.4,0,0.8,0,1.3,0.1h0.1c1.2,0,2.4,0.1,3.5,0.1h0.1
			c1.9,0.1,3.6,0.1,5.3,0.2c0.6,0,1.2,0.1,1.7,0.2h0c0.6,0.1,1.1,0.3,1.6,0.6c0.1,0,0.1,0.1,0.2,0.1c0.4,0.2,0.7,0.4,1.1,0.7
			c0.1,0,0.2,0.1,0.3,0.2c0.3,0.2,0.6,0.4,0.8,0.7c0.8,0.8,1.5,1.7,2,2.8c0.1,0.2,0.2,0.4,0.3,0.7v0l0.3,0.4l-0.1,0.1c0,0,0,0,0,0
			c0.2,0.4,0.4,0.8,0.6,1.2c0.2,0.4,0.4,0.7,0.6,1.1c0,0,0,0,0,0c0.8,1.3,1.7,2.8,2.8,4.3c0,0,0,0,0,0c0.3,0.4,0.5,0.7,0.8,1.1
			c0.2,0.2,0.3,0.4,0.5,0.6c0.1,0.1,0.2,0.3,0.3,0.4c0.1,0.1,0.2,0.2,0.3,0.3c0.1,0.1,0.2,0.3,0.4,0.4c0.3,0.4,0.6,0.7,0.9,1.1
			c0.1,0.2,0.3,0.3,0.4,0.5l0.9,0.9c0.3,0.3,0.6,0.6,0.9,0.9c0.8,0.8,1.6,1.5,2.5,2.1c0.3,0.3,0.7,0.5,1,0.8c0.3,0.3,0.7,0.5,1,0.8
			c0.1,0.1,0.3,0.2,0.4,0.3c0.9,0.6,1.8,1.1,2.7,1.6c0.4,0.2,0.7,0.4,1.1,0.6c0.4,0.2,0.8,0.4,1.2,0.6c0.6,0.3,1.2,0.5,1.8,0.7
			c0.4,0.2,0.8,0.3,1.2,0.5c0.4,0.2,0.8,0.3,1.2,0.4c1.7,0.6,3.5,1,5.4,1.3l0.1-0.2c0.4,0.2,0.8,0.3,1.2,0.4
			c0.2,0.1,0.3,0.1,0.5,0.1c0.3,0.1,0.5,0.1,0.8,0.1h0c0.1,0,0.2,0,0.2,0c0.4,0.1,0.8,0.1,1.3,0.1c0.4,0.1,0.8,0.1,1.3,0.1h0
			c0.9,0.1,1.7,0.1,2.6,0.1h0.6c2.7,0,5.2-0.3,7.6-0.7c0.1,0,0.2,0,0.3-0.1c0.3-0.1,0.6-0.1,1-0.2c0.1,0,0.2-0.1,0.3-0.1
			c0.3-0.1,0.6-0.2,0.9-0.2c0.1,0,0.2-0.1,0.3-0.1c2-0.5,3.9-1.1,5.7-1.9l-0.1-0.2c0.4-0.2,0.8-0.3,1.2-0.5c0.2-0.1,0.5-0.2,0.7-0.3
			c0.2-0.1,0.4-0.2,0.5-0.2c0.2-0.1,0.5-0.2,0.7-0.3c0.4-0.2,0.8-0.4,1.2-0.6c1.8-0.9,3.4-2,4.8-3.1c0.3-0.3,0.7-0.5,1-0.8
			c0.3-0.3,0.7-0.6,1-0.8c0,0,0,0,0,0c0.7-0.6,1.4-1.3,2.1-2l0.2,0.2c0.3-0.3,0.6-0.6,0.9-0.9c0.3-0.3,0.6-0.6,0.9-0.9l-0.2-0.3v0
			c0.1-0.1,0.1-0.1,0.2-0.2c0.1,0.1,0.1,0.2,0.2,0.3c0.3-0.4,0.7-0.7,0.9-1.1c0.2-0.2,0.4-0.4,0.5-0.6c0.1-0.2,0.3-0.3,0.4-0.5
			c0.6-0.7,1.1-1.3,1.6-2c0,0,0,0,0,0c0.3-0.4,0.5-0.7,0.7-1c0.3-0.3,0.5-0.7,0.7-1c0,0,0,0,0,0c1-1.5,1.9-3,2.7-4.6v0
			c0.2-0.4,0.4-0.7,0.6-1.1c0,0,0,0,0.1-0.1v0c0.2-0.4,0.4-0.7,0.6-1c0,0,0.1-0.1,0.1-0.1c0.3-0.4,0.5-0.7,0.8-1
			c0.7-0.8,1.6-1.5,2.6-2c0.5-0.3,1-0.5,1.5-0.6c0.1-0.1,0.3-0.1,0.4-0.1c0.6-0.2,1.2-0.2,1.9-0.2h1.3l-0.9-0.3l1.2,0.3
			c1.5,0,3.2,0,5.1,0c0,0,0,0,0.1,0h3.5c0,0,0,0,0.1,0c1.6,0,3.3,0,5.1,0h1c2,0,4,0,6.1,0c0.7,0,1.3,0,2,0h0.2c4.4,0,8.9,0,13.2-0.1
			c5,0,9.7,0,13.6-0.1h6.6c3.4,0,10.4,0.1,19.1,0.1c15,0.1,35.6,0.2,53,0.2c15.7,0,26.2-0.1,31.2-0.3c1.2-0.1,2.7-0.1,4.4-0.2
			c2.9-0.1,6.5-0.2,10.4-0.4c0.2,0,0.4,0,0.6,0c9.7-0.4,21.9-0.8,33.5-1.3c18.5-0.7,35.6-1.3,39.3-1.3c3.9,0,5.5-3.7,6.2-5.9
			c-1.8-0.7-7-1.9-21.4-1.9c-13.5,0-28.2,1-35.2,2c-5.4,0.8-19,1.5-35.3,1.9c-12.1,0.4-25.6,0.6-38.3,0.6c-9.4,0-21.5-0.1-31.9-0.6
			c-4.1-0.2-7.9-0.4-11.2-0.7c-8.4-0.8-20.7-1.2-36.7-1.2c-20.6,0-41.7,0.7-49.9,0.9c-2.9,0.1-5.6,1.7-7.1,4.3
			c-0.3,0.4-0.5,0.8-0.8,1.3c0,0,0,0,0,0c-0.1,0.1-0.2,0.3-0.3,0.4c0,0-0.1,0.1-0.1,0.1c-1.4,2.1-3.2,4.8-5.5,7.7
			c-3.7,4.7-7.6,8.6-11.4,11.6c-0.7,0.6-1.5,1.1-2.2,1.6c-0.6,0.4-1.2,0.8-1.8,1.2c0,0,0,0,0,0c-1.4,0.9-2.8,1.6-4.3,2.2h0l0,0
			c0,0-0.1,0.1-0.1,0.1c-0.4,0.2-0.8,0.4-1.2,0.5c-0.4,0.2-0.8,0.3-1.2,0.4c-0.6,0.2-1.3,0.4-1.9,0.6c-2,0.5-4.1,0.8-6.1,0.8
			c-0.3,0-0.5,0-0.8,0h0c-0.2,0-0.3,0-0.5,0c-0.3,0-0.5,0-0.8-0.1c-0.4,0-0.8-0.1-1.3-0.1h0c-0.4-0.1-0.8-0.1-1.2-0.2
			c-0.4-0.1-0.8-0.2-1.2-0.3c-1.3-0.3-2.5-0.7-3.8-1.2h0c-0.4-0.1-0.8-0.3-1.2-0.5c-0.4-0.2-0.8-0.4-1.1-0.6
			c-0.8-0.4-1.5-0.8-2.3-1.2c-1.6-1-3.2-2.1-4.8-3.4c0,0,0,0,0,0c-3.2-2.8-6.3-6.3-9.2-10.5c-1.9-2.8-3.7-6-5.4-9.6
			c-1.4-3-4.5-4.9-7.9-4.9c-11.5,0-34,0-53,0h-14.4c-7.4,0-13.1,0-15.9,0h-0.4c-5.3,0-17.8,0.5-31.8,1.1c-4.1,0.2-8.4,0.4-12.6,0.6
			c-5.7,0.3-11.2,0.5-16.4,0.7c-12.2,0.5-22.3,0.9-26.9,0.9c-1.1,0-2.6,0-4.4-0.1c-0.4,0-0.9,0-1.3,0c-0.4,0-0.9,0-1.4-0.1
			c-8.2-0.3-20.9-0.8-34.1-1.4c-18.8-0.8-38.1-1.7-45.1-1.7c-1.5,0-2,0.1-2.1,0.1c-2.7,0.3-4.3,0.9-4.9,1.8
			C478.1,466.5,478.2,467.8,478.4,468.9z"/>
	</g>
</g>
<g>
	<path fill="#FFFFFF" d="M1011.8,2025.8c-2.2,2.1-7,3.3-13.1,3.3c-1.7,0-3.4-0.1-5.1-0.3c-2.6-0.3-5.4-0.4-8.3-0.4
		c-6,0-11.9,0.5-17.6,1.1c-5.7,0.5-11,1-16.5,1H951c-12,0-23.5-2.7-35.7-5.6c-12.4-2.9-25.2-6-38.7-6c-0.6,0-1.2,0-1.8,0
		c-8.1,0.2-16.3,1.9-24.2,3.5c-8.1,1.7-15.7,3.3-23,3.3c-4.4,0-8.2-0.6-11.7-1.8c-4.9-1.7-7.3-4.7-8.1-10.5
		c-0.9-6.6,0.4-15.1,1.6-23.3c1.2-8,2.4-15.6,1.7-22.2c-2.9-29-19.7-56.6-34.5-81.1c-2.5-4.2-4.9-8.1-7.2-12
		c-23.1-39.1-34.9-75.8-38.5-118.7c-1.7-19.6-4.8-45.5-14.1-71.2c-0.5-1.3-1-3.1-1.7-5.1c-3-9.7-6-18.3-10.6-23.7
		c29.6-0.5,69.4-1.1,83.9-1.3l1.1,0c2.3,7.8,4.4,15.2,5.3,22.8c1.3,10.5,0.9,21.2,0.5,32.6c-0.5,12.7-0.9,25.8,1.1,38.7
		c3.5,22.4,10.4,44.8,17,66.4c4.9,16.1,10.1,32.8,13.6,49.1c1.5,6.9,2.7,15.7,3.9,25c3.9,29.4,8.8,65.9,29.6,83.2
		c10.8,9,25.6,14.8,40,20.5c7,2.8,13.7,5.4,19.4,8.2c2.9,1.4,5.9,2.9,8.7,4.4c12.3,6.3,25.1,12.8,38.9,16.7
		c5.5,1.5,10.4,1.7,14.2,1.7c1.8,0,3.6,0,5.3-0.1c1.7-0.1,3.3-0.1,4.9-0.1c1.9,0,3.4,0.1,4.9,0.2c1.1,0.1,2.2,0.2,3.5,0.3
		C1002.9,2024.6,1008.4,2024.9,1011.8,2025.8z"/>
	<path fill="#FFFFFF" d="M733,2015.3c-6.2,5-22.4,5.2-32.3,5.3c-4.5,0.1-8.4,0.1-11.6,0.4c-3.3,0.3-6.6,0.5-10.2,0.5
		c-13.6,0-26.7-2.5-40.6-5.1c-14-2.6-28.4-5.3-43.4-5.3c-1.4,0-2.8,0-4.2,0.1c-6.6,0.2-14.5,1.9-22.9,3.7
		c-10.1,2.2-20.5,4.4-29.4,4.4c-6.1,0-10.7-1.1-13.7-3.2c-7.6-5.5-1.8-25.7,2.1-39.1c1.8-6.2,3.3-11.5,4-16
		c3.5-24.1,0.8-48.8-1.7-72.7c-0.9-8.8-1.8-17.1-2.4-25.5c-2.3-31.1-0.8-62.9,4.3-94.5c3.5-21.2,10.5-42.2,17.3-62.5
		c2.9-8.6,5.8-17.4,8.5-26.3c2.1-6.9,3.9-13.9,5.4-20.9c0.3,0.1,0.6,0.1,0.8,0.1h0.1l80.3-1.3c-6.9,9-10.9,24.6-14.6,39
		c-1.4,5.6-2.8,10.9-3.8,13.1c-1.6,3.7-4.2,6.9-7.1,10.4c-3,3.7-6.3,7.8-8.8,12.9c-5.5,11.4-7.5,23.9-9.4,35.9
		c-0.4,2.4-0.8,4.8-1.1,7c-8,45.5-16,91.6-22.7,130.7c-0.2,1.4-0.5,2.9-0.8,4.4c-2.7,14.5-6.3,34.3,6.6,46.9
		c6.1,6,15.4,10,23.6,13.6c3.6,1.6,7,3.1,9.8,4.5c11.9,6.4,23.6,13.1,34.7,19.9c1,0.6,2,1.2,3,1.8c10.6,6.6,21.6,13.3,36,14.6
		c1.8,0.2,3.8,0.2,5.9,0.2c2.8,0,5.5-0.1,8.2-0.3c2.6-0.1,5-0.2,7.4-0.2c2.7,0,4.9,0.2,6.9,0.5c2.3,0.4,4.6,0.8,7,1.3
		C727,2014.3,730,2014.9,733,2015.3z"/>
	<path fill="#FFFFFF" d="M787.3,1646.9c-16.1,0.2-58.2,0.9-87.4,1.4c-5.6,0.1-10.8,0.2-15.3,0.3c-1.2-0.1-2.6-0.1-3.9-0.1
		c-3,0-6.1,0.2-9.1,0.3h-0.1l-107.9,1.7c2.2-11.7,3.9-23.5,5.3-35.2l212.8,1.9c0.7,5.2,1.5,10.5,2.4,15.7
		C785,1637.7,786.1,1642.4,787.3,1646.9z"/>
	<path fill="#FFFFFF" d="M511.3,1575.1c-0.8,0-1.5-0.1-2.3-0.4c-7.1-2.3-10.9-18.2-11.5-24.3c2.8,1.9,6.1,2.4,9.6,2.4
		c3.7,0,7.7-0.6,11.3-0.6c2.5,0,4.9,0.3,7,1.2C525.7,1559.1,519.9,1575.1,511.3,1575.1z"/>
	<path fill="#FFFFFF" d="M541.3,1546.9l-4.5-15.1l-5.9,15.5l-2.3-1c-2.9-1.3-6.2-1.9-10.3-1.9c-2.1,0-4.2,0.2-6.1,0.3
		c-1.8,0.1-3.6,0.3-5.1,0.3c-2.5,0-4.1-0.3-5.1-1l-10.2-7.1c-0.5-3.9-0.7-7.7-0.7-11.3c0-8.9,1.3-17.8,2.7-27.1
		c0.4-3,0.9-6.1,1.3-9.2c3.9,0.8,10.9,2,16,2c5.7,0,15.7-1.7,19.9-2.4c1,3.3,2.2,6.4,3.3,9.4c2.3,6,4.4,11.7,4.8,17.7
		c0.1,1.4,0.3,3.4,0.5,6c0.5,5.9,1.4,14.9,1.7,23C541.2,1545.5,541.3,1546.2,541.3,1546.9z"/>
	<path fill="#FFFFFF" d="M544.8,1344.1c-1.4,21.6-4.6,43.6-7.9,64.3c-6.1,0.7-17.6,1.7-23.5,1.2c-5.5-0.4-13.8-1.8-18.7-2.6
		c-2-42.2,0.3-84.6,4.5-126.6c12.4,5.5,34.2,4.1,43.2,3.2c-0.6,5.3-0.9,10.7-0.3,16.2c0.3,2.5,0.5,5,0.8,7.5
		C544.3,1319.9,545.6,1331.8,544.8,1344.1z"/>
	<path fill="#FFFFFF" d="M780.2,1604.8l-209.7-1.7c0.1-1.3,0.3-2.6,0.4-3.8c1-8.8,2.1-17.9,3.3-26.7l0-0.2l0-0.2l8.6-104.1
		c1.3-9.1-0.5-16.5-2.3-23.7c-0.9-3.8-1.8-7.4-2.3-11.2c-0.1-0.5-0.1-0.9-0.2-1.4l178.7-21.5c0.1,0.5,0.2,1,0.2,1.5
		c0.4,2.5,0.8,5,1.2,7.5c4.7,30.2,8,61.1,11.1,91.1c1.9,18,3.8,36.6,6.1,54.9c0.8,6.2,1.5,12.5,2.2,18.6
		C778.5,1590.7,779.3,1597.8,780.2,1604.8z"/>
	<path fill="#FFFFFF" d="M564.2,1132.7c-0.6,7.7-1.4,15.4-2.2,23.1c-6.2,0.2-17.4,0.5-24.4-0.2c-6.8-0.7-16.6-3.5-22.1-5.3l2.5-22.1
		c4.2,1.3,11.5,3.2,20.2,4.1C548,1133.4,558.6,1133.1,564.2,1132.7z"/>
	<path fill="#FFFFFF" d="M561,1165c-3.1,27.2-7.1,55.2-12.3,84.5c-5.5,0.3-16.9,0.8-24.7-0.2c-7.6-0.9-16.5-3.3-20.9-4.5
		c2.5-20.8,5.3-41.4,8.1-61.9c0.7-5.4,1.5-10.8,2.2-16.2c0.4-2.8,0.7-5.6,1.1-8.4c5.1,2.2,13.8,5.3,23.6,6.3
		C548.5,1165.8,556.8,1165.4,561,1165z"/>
	<path fill="#FFFFFF" d="M1061,1461.3c-1.9,0.3-3.6,0.9-5.1,1.9l-0.1,0l0,0c-3.4,2.3-5,6.4-7.9,15.3c-0.5,1.4-1.1,3.3-1.4,4
		c-0.4,0.8-0.8,1.6-1.3,2.5c-2.4,4.6-8.8,16.7-13.5,16.7c-0.2,0-0.4,0-0.6-0.1l-8.5-1.9c-3.3-2.7-8.6-4.5-16.8-7
		c-2.8-0.9-6.6-2.1-7.8-2.7c-6.5-3.4-12.6-7.4-18.6-12.2c-11.9-9.6-23.1-20.8-34-31.6c-3.8-3.8-7.8-7.8-11.7-11.6
		c-26-25.2-55.6-54.9-79.2-87.5c-11.8-16.2-22.4-32.8-32.4-50.7c-5.9-10.6-7.1-29.3-8-44.2c-0.3-5-0.6-9.8-1.1-14.1
		c-1.3-12.4-2.2-24.8-2.9-37.5c5.9,0.7,16.8,1.9,25.8,1.9c9.7,0,21.2-1.3,26.9-2c1.1,13.5,2.1,26.6,2.9,38.9
		c0.1,1.6,0.2,3.1,0.3,4.6c0.6,10.9,1.3,21.1,7.6,32.5c4.6,8.2,10.2,15.8,15.7,23.2c4.4,5.9,8.6,11.5,12.2,17.3
		c7.8,12.6,15.1,26,22.1,38.9c3.3,6.1,6.7,12.3,10.1,18.4c9.7,17.4,21.7,37.6,37.1,55.8l1.2,1.4c5.9,7,11.5,13.7,22.5,16.1
		c2.1,0.5,6.1,0.7,11.8,0.7c15.5,0,17.7-1.5,19.5-3.3c1.9,3.1,5.1,5.7,9.6,7.9c5,2.4,11.2,4.2,17.3,6
		C1055.1,1459.4,1058.2,1460.3,1061,1461.3z"/>
	<path fill="#FFFFFF" d="M763.6,1294.8l-154.1-21.7c0-0.3,0-0.6,0-0.9c-0.5-5.6-1.1-11.3-1.7-17.2l155.1,12.6
		C763.5,1276.8,763.9,1285.8,763.6,1294.8z"/>
	<path fill="#FFFFFF" d="M762.2,1258L607,1247.6c-1.1-9.5-2.3-19.3-3.7-29.2l156.9,2.2c0,11.9,0.9,23.7,1.8,35.2
		C762,1256.6,762.1,1257.3,762.2,1258z"/>
	<path fill="#FFFFFF" d="M856.8,1099.3h-49.4l-0.1-8.5l-14.8,37.6c-3.5,9-8.1,17.5-12.5,25.7c-4.7,8.7-9.4,17.5-13,27l-170.6-2.1
		c-4-19.2-9.1-38.7-15.8-57.9l-12.6-36.3l-0.8,10.3l-44.8-4.2l3.8-33.1l0.2-1.5l-0.1-0.5c0.6-4.8,1.1-9,1.4-10.6
		c1-5,10.8-32.9,29.3-39c5-1.6,10.4-3,16.4-4.1c5.1,14.3,23,63.2,34.9,77.4c14,16.7,45.3,32.7,76,34c30.7,1.3,52.7-3.3,76.7-16.7
		c16.7-9.3,31.1-50.7,38.4-75.2c21.5,7.8,42.6,18.1,50.2,39C853.8,1072.7,855.8,1085.8,856.8,1099.3z"/>
	<path fill="#FFFFFF" d="M847.2,940.8c-0.3-0.5-2.2-3.2-12.1-10.9c-7.1-5.5-15.9-11.7-25.3-18.3c-16.2-11.5-33-23.3-41.6-32
		c-4.6-4.7-6.9-9.7-8.6-13.7c-2.4-5.4-3.8-8.6-10.3-11.4l-0.5-0.2l-0.5-0.3c-0.1-0.1-8.6-5.1-19.9-9.5c-1.7-0.7-3.5-1.4-5.4-2
		c-3.2-1.1-6.6-1.9-10-2.2c-1.5-0.2-3.1-0.2-4.6-0.2h-20.9c-2.2,0-4.5,0.2-6.7,0.5l-15.4,2.3c-3.4-0.5-6.6-0.7-9.6-0.7
		c-20.4,0-23.9,11.2-23.9,11.3l-1.1,4.2l-0.3,0.1c0.1,3.6,1.5,9,5.3,18.9c6.7,17.3,2,15.7,0,16.7c-1,0.5-2.5-1-4.1-3.9
		c0.5,5.5,1.5,20.7-0.2,26.6c-1.5,5.4-9.8,50.3-14,73.3c-0.7,3.8-1.3,6.9-1.7,9.2c-4,0.1-7.8,0.2-11.5,0.5c-2.6,0.1-5.1,0.3-7.5,0.5
		c4.1,16.1,19.7,71,46.9,82.9c32,14,38,10.7,45.3,10.7s58-6,64.7-18.7c5.7-10.8,19.5-35.9,27.2-58.9c-4-1.4-9.5-3.3-14.1-4.9
		c-3.7-1.3-6.9-2.4-8.7-3c-3.6-1.3-10.2-2.2-16.5-2.9c0,0-0.1,0-0.1,0c-0.7-0.1-1.4-0.2-2.1-0.3c-15.7-1.9-24-3.2-27.9-8.7
		c-0.7-1-1.5-2.2-2.1-3.5c-1.9-4.2-2.7-9.9,0.5-17c2.4-5.2,6.3-10,10.2-14.6c0.5-0.6,1-1.2,1.5-1.8c3.8-4.6,9.6-7,17.1-7
		c12.6,0,31.6,6.8,56.7,20.1c10.8,5.8,20.4,11.5,26.4,15.2c1.6-2.4,3.6-5.3,5.6-8.3c2.8-4.1,5-7.2,6.9-9.7c-0.1,0-0.2-0.1-0.3-0.1
		l0,0c0,0-0.6-0.3-1.5-1c-0.5-0.3-1-0.7-1.7-1.2c-0.6-0.5-1.4-1-2.1-1.6c-0.8-0.6-1.6-1.3-2.4-2c-0.9-0.7-1.7-1.5-2.6-2.4
		c-0.9-0.8-1.7-1.8-2.6-2.7c-0.9-1-1.8-1.9-2.6-2.9c-0.9-1-1.8-1.9-2.7-2.8c-0.9-1-1.7-1.9-2.6-2.7c-0.8-0.9-1.7-1.7-2.5-2.4
		c-0.8-0.8-1.6-1.4-2.4-2c-0.7-0.6-1.5-1.1-2.1-1.6c-0.3-0.2-0.6-0.5-0.9-0.7c-0.3-0.2-0.5-0.4-0.8-0.5c-0.9-0.6-1.5-0.9-1.5-0.9
		l-0.1,0c-0.8-0.4-1-1.4-0.6-2.2c0.5-0.8,1.4-1,2.2-0.6c0,0,0,0,0.1,0.1c0,0,0.6,0.4,1.6,1s2.4,1.5,4.1,2.6c0.8,0.6,1.8,1.1,2.7,1.8
		c0.9,0.7,2,1.3,3,2c2.1,1.3,4.4,2.7,6.6,4.2c2.2,1.5,4.4,3,6.3,4.5c1,0.8,1.9,1.6,2.7,2.4c0.8,0.8,1.6,1.5,2.3,2.3
		c0.7,0.7,1.3,1.4,1.8,2c0.5,0.6,1,1.2,1.3,1.6c0.4,0.6,0.7,1,0.9,1.3c2.6-3.1,3.9-4.2,5-4.9C850.9,954.1,849.7,946.4,847.2,940.8z
		 M761.9,885.1c-0.2,0.2-0.7,0.7-1.6,1.1c-0.5,0.2-1,0.4-1.6,0.6s-1.3,0.3-2,0.4c-0.7,0.1-1.5,0.1-2.3,0.1c-0.8,0-1.7-0.1-2.5-0.3
		l-0.6-0.1c-0.3-0.1-0.5-0.1-0.7-0.2c-0.5-0.1-0.9-0.3-1.4-0.5c-0.9-0.4-1.7-0.8-2.6-1.2c-0.8-0.4-1.7-0.9-2.4-1.3
		c-0.8-0.5-1.5-1-2.2-1.4c-1.4-0.9-2.7-1.8-3.9-2.5c-2.2-1.5-3.7-2.4-3.7-2.4c-0.6-0.4-0.8-1.2-0.4-1.8c0.4-0.6,1.2-0.8,1.8-0.4
		c0,0,0,0,0.1,0c0,0,0.1,0.1,0.2,0.2c0.1,0.1,0.4,0.3,0.7,0.5c0.3,0.2,0.7,0.4,1.1,0.7c0.5,0.2,1,0.6,1.5,0.9c1.1,0.6,2.5,1.2,4,1.8
		c0.8,0.2,1.5,0.5,2.4,0.7c0.8,0.2,1.6,0.4,2.4,0.6c0.8,0.2,1.6,0.3,2.4,0.4c0.4,0,0.8,0,1.1,0.1c0.4,0,0.8,0.1,1.1,0.1
		c0.9,0.1,1.5,0.2,2.2,0.4c0.7,0.1,1.3,0.3,1.9,0.4c1.1,0.3,2,0.5,2.7,0.6c0.3,0.1,0.5,0.1,0.6,0.2c0.1,0,0.1,0.1,0,0.2
		c0.6-0.5,1.5-0.4,2,0.2C762.6,883.7,762.5,884.6,761.9,885.1z"/>
	<path fill="#FFFFFF" d="M755.2,1399.7l-177.7,18.9c0.2-17.5,4.1-35.6,8.6-53.1l166.8,11v0C753.2,1384.2,754.1,1391.9,755.2,1399.7z
		"/>
	<path fill="#FFFFFF" d="M763.3,1192.7c-1.4,5.5-2.4,11.3-2.8,17.5c0,0.1,0,0.1,0,0.2l-158.9-2.6c-1-6.1-2-12.2-3.2-18.3
		L763.3,1192.7z"/>
	<path fill="#FFFFFF" d="M547.5,1256.4c0,0.2-0.1,0.5-0.1,0.8c-0.5,2.9-1.1,5.8-1.8,8.9c-0.5,2.5-1.1,5.1-1.6,7.7
		c-5.9,0.3-16.8,0.7-24,0.3c-6.9-0.4-15-3-19.7-4.6c0.6-5.5,1.2-11,1.9-16.5c4.8,1.1,13.6,3,20.2,3.5
		C529.5,1256.8,541.7,1256.6,547.5,1256.4z"/>
	<path fill="#FFFFFF" d="M862,1190c-5.3,0.9-16.6,2.7-26,2.7c-8.9,0-20.4-0.7-26.3-1.1c-0.2-4.7-0.4-9.4-0.6-14.2
		c7,0.7,21.4,1.8,29.3,1.6c7.3-0.2,17-1.2,22.4-1.8C861.1,1181.4,861.6,1185.7,862,1190z"/>
	<path fill="#FFFFFF" d="M857.9,1124.6c-13.6,2-41.6-0.5-50.1-1.3l-0.2-12.2h49.9C857.7,1115.6,857.8,1120.1,857.9,1124.6z"/>
	<path fill="#FFFFFF" d="M566.5,1104.1l-1.4,17.7c-6.3,0.7-18.6,1.8-25.8,0.8c-6.7-0.9-15.2-3-20.1-4.3l1.9-16.2L566.5,1104.1z"/>
	<path fill="#FFFFFF" d="M626.9,873c-5.3,2.7-23.2,12.4-40.8,30.5c-18.8,19.3-40.5,52-38.1,98.7c-3.5,1.9-6.5,4.2-8.6,6.7
		c-7.2,8.6-12.8,20.2-16.5,31.4c-1.5-8.8-2.8-19.6-2.9-31.8c-0.2-19.8,2.6-38.6,8.2-55.8c14.5-44,46.8-75.2,96.1-93
		C625,863.5,625.9,868,626.9,873z"/>
	<path fill="#FFFFFF" d="M626.6,880c-0.6,5-1.2,11.4-1.8,17.5c-1.9,1.9-12.5,12.7-22.8,28.8c-18.1,28.4-21.1,51.3-20.2,65.9
		c-9.9,1.6-19.9,4-28.1,7.4c-1.1-34.7,11.1-65.5,36.4-91.6C604.6,893.1,619.5,883.9,626.6,880z"/>
	<path fill="#FFFFFF" d="M624,907.2c-0.2,2.3-0.3,4.2-0.3,5.8c-0.3,8.2-11.4,53.7-17.1,76.6c-5.5,0.3-12,0.8-18.7,1.7
		C585.9,954.6,612.4,920.3,624,907.2z"/>
	<path fill="#FFFFFF" d="M533.7,1425.7c-3,15-6.3,31.7-5.6,46.7c-5.4,0.8-13.7,1.9-16.7,1.9c-3.4,0-10.9-2.2-14.8-3.5
		c0.6-18.4-0.4-36.7-1.4-54.5c5.1,1.1,13.7,2.8,18.2,3c4.7,0.2,15.8-0.6,21.8-1.2C534.7,1420.6,534.2,1423.1,533.7,1425.7z"/>
</g>
<g>
</g>
<g>
</g>
<g>
</g>
<g>
</g>
<g>
</g>
<g>
</g>
</svg>
