<?xml version="1.0" encoding="iso-8859-1"?>
<!-- Generator: Adobe Illustrator 19.2.1, SVG Export Plug-In . SVG Version: 6.00 Build 0)  -->
<svg version="1.0" id="Indents" xmlns="http://www.w3.org/2000/svg" xmlns:xlink="http://www.w3.org/1999/xlink" x="0px" y="0px"
	 width="2048px" height="2048px" viewBox="0 0 2048 2048" enable-background="new 0 0 2048 2048" xml:space="preserve">
<path d="M781.87,193.17c17.27-4.11,49.29-10.89,52.96-13.41c15.29-10.54,32.26-15.96,52.13-19.13c30.01-4.74,59.87-5.58,84.91,3.88
	c21.38,8.08,42.18,17.17,63.66,25.97h0.04c22-0.02,27.46-15.96,7.06-19.14c-15.58-6.09-27.86-10.89-40.12-15.68
	c-43.67-16.96-79.69-22.8-120.41-13.88c-27.92,6.12-94.76,24.65-113.6,42.2c1.37,4.66,2.37,8.02,3.48,11.8
	C773.66,195.19,777.23,194.28,781.87,193.17z"/>
<path d="M947.582,195.284c-36.128-11.466-69.046-3.438-97.625,12.451c-20.773,11.532-55.038,12.882-77.974,19.955v22.312
	c14.639-1.495,45.554,2.051,52.718,11.761c10.868,14.733,28.665,21.089,59.135,25.457c3.766,3.319,15.949,11.868,17.192,25.771
	c1.474,16.485,1.474,20.885,8.418,43.683c3.813,24.768,10.474,33.48,21.768,40.447c22.209,13.701,53.039,24.803,76.036-4.818
	c-4.133-10.825-8.918-23.286-12.513-32.73c-12.166-4.817-20.891-8.287-28.386-11.277l-24.55,8.602
	c-0.653,8.537-2.614,12.18,3.546,20.1c4.545,7.92,8.177,10.255,12.157,11.983c22.696-3.749,16.58-14.132,16.969-25.899
	c6.916,5.658,12.775,8.323,14.128,12.096c1.966,5.467,0.673,11.751,0.75,17.339l-20.981,7.351
	c-10.291-3.022-19.48-5.745-28.188-8.31c-16.344-26.653-17.033-59.745-16.357-85.595c0.846-32.363,66.806-21.178,83.426-57.09
	l53.66-5.189c0,0,19.697-18.407,1.116-18.407l-51.518-5.366C991.738,205.558,968.911,202.04,947.582,195.284z M824.701,235.98
	c8.568-9.971,14.925-12.161,28.054-17.265c12.092-4.709,22.212-13.71,38.346-13.062c-14.004,7.524-22.432,21.527-20.949,35.337
	c2.231,20.772,11.091,31.822,37.897,35.505C837.095,273.316,849.178,237.79,824.701,235.98z M914.774,262.684
	c-13.387,0-26.773-6.446-27.889-25.783c-1.115-19.337,27.889-25.782,27.889-25.782c14.502,1.841,39.057,2.894,34.582,25.782
	C944.88,259.79,928.16,262.684,914.774,262.684z M929.253,275.3c18.575-4.609,33.739-18.372,34.604-37.018
	c0.711-15.325-8.688-25.679-21.15-31.721c22.964,5.676,44.963,13.067,64.543,25.104C984.638,253.17,959.17,270.536,929.253,275.3z"
	/>
<path d="M918.373,224.01c0,0-15.87,4.604-15.87,12.891s6.083,11.971,15.87,11.971s14.1-4.604,15.29-11.971
	C934.853,229.535,928.665,225.851,918.373,224.01z"/>
<path d="M1093.42,469.95c-0.68-0.89-1.71-1.43-2.81-1.54c0.91-1.26,1.66-2.79,2.2-4.57c0.62-2.01-0.43-4.16-2.4-4.91
	c-3.69-1.4-11.37-2.11-22.84-2.11c-13.76,0-28.68,1.04-35.73,2.02c-5.11,0.72-18.46,1.43-34.83,1.87
	c-12.77,0.37-26.34,0.58-38.22,0.58c-8.44,0-20.79-0.1-31.7-0.58c-4.37-0.19-7.98-0.42-11.03-0.7c-8.64-0.79-21.13-1.18-37.11-1.18
	c-19.63,0-39.78,0.59-50.04,0.94c-4.31,0.15-8.2,2.46-10.41,6.18c-0.11,0.18-0.22,0.36-0.34,0.55c-0.1,0.17-0.21,0.35-0.33,0.54
	c-0.06,0.09-0.12,0.18-0.18,0.27l-0.03,0.06c-0.06,0.09-0.14,0.22-0.22,0.36c-0.04,0.06-0.07,0.12-0.1,0.18
	c-1.63,2.52-3.37,4.98-5.17,7.32c-3.45,4.38-7.06,8.05-10.73,10.87c-0.72,0.55-1.37,1.02-1.95,1.4c-0.04,0.03-0.08,0.05-0.12,0.08
	c-0.52,0.37-0.99,0.69-1.4,0.91c-0.13,0.08-0.26,0.16-0.38,0.24c-1.18,0.71-2.29,1.27-3.38,1.72c-0.23,0.08-0.45,0.19-0.66,0.31
	c-0.19,0.08-0.42,0.17-0.71,0.27c-0.1,0.03-0.19,0.07-0.28,0.11c-0.18,0.08-0.43,0.16-0.77,0.26c-0.07,0.02-0.15,0.05-0.22,0.07
	c-0.44,0.16-0.91,0.3-1.48,0.43c-0.03,0.01-0.06,0.02-0.09,0.02c-1.65,0.44-3.36,0.66-5.07,0.66h-0.36
	c-0.14-0.02-0.27-0.02-0.4-0.02h-0.28c-0.08-0.01-0.16-0.01-0.24-0.02h-0.1c-0.23-0.04-0.45-0.06-0.68-0.06
	c-0.17,0-0.43-0.03-0.73-0.07l-0.07-0.01c-0.04,0-0.08,0-0.13-0.01c-0.21-0.03-0.41-0.07-0.63-0.1l-0.28-0.05l-0.06-0.02
	c-0.25-0.04-0.54-0.1-0.68-0.14c-0.11-0.04-0.23-0.07-0.34-0.09c-0.7-0.16-2.36-0.7-3.31-1.03c-0.02-0.01-0.04-0.02-0.06-0.03
	c-0.25-0.09-1.42-0.6-1.71-0.75c-0.06-0.04-0.11-0.06-0.18-0.09c-0.65-0.3-1.27-0.64-1.84-0.99c-0.02-0.02-0.04-0.03-0.07-0.05
	c-1.41-0.84-2.8-1.83-4.13-2.95c-0.03-0.04-0.07-0.07-0.11-0.1c-2.96-2.52-5.8-5.78-8.44-9.7c-1.85-2.72-3.52-5.69-5.14-9.08
	c-2.06-4.38-6.58-7.23-11.5-7.23c-11.48,0.03-34.48,0.03-52.97,0.03h-14.39c-7.32,0-13.1,0-15.82-0.03h-0.47
	c-5.33,0-17.62,0.5-31.94,1.1c-1.87,0.08-3.77,0.16-5.67,0.25c-2.32,0.1-4.65,0.21-6.97,0.31c-3.29,0.14-6.53,0.28-9.68,0.42
	c-2.3,0.09-4.56,0.19-6.75,0.29c-10.47,0.43-21.85,0.88-26.73,0.88c-1.09,0-2.55-0.02-4.33-0.07h-0.11c-0.17,0-0.35-0.01-0.52-0.02
	c-0.23,0-0.47-0.01-0.71-0.01c-0.22-0.01-0.45-0.02-0.69-0.02c-0.19-0.01-0.39-0.01-0.59-0.03H565c-8.33-0.26-21.43-0.83-34.09-1.39
	c-18.76-0.84-38.16-1.71-45.3-1.71c-1.21,0-1.85,0.04-2.15,0.05h-0.07c-0.12,0.01-0.24,0.02-0.35,0.03
	c-2.73,0.3-6.07,0.98-7.77,3.48c-0.01,0.02-0.02,0.04-0.03,0.05c-1.01,1.54-1.28,3.6-0.79,6.11c0.1,0.49,0.21,0.98,0.3,1.33
	c0.05,0.2,0.11,0.4,0.18,0.59c0.06,0.19,0.13,0.37,0.19,0.55c-0.7,1.11-0.82,2.52-0.27,3.77c3.1,6.97,8.63,10.54,14.19,13.75
	c-0.01,0.02-0.02,0.03-0.04,0.04c-1.49,1.44-1.63,3.78-0.33,5.4c3.34,4.12,6.77,8.42,10.4,12.96l4.31,5.39
	c0.66,0.83,1.62,1.36,2.68,1.48l6.27,0.7c0.27,1.18,0.52,2.35,0.84,4.19c0.33,1.88,1.95,3.27,3.86,3.31
	c4.4,0.09,7.13,0.16,11.63,0.28c0.48,1.03,0.96,2.13,1.43,3.19l0.57,1.3c1.44,3.34,2.82,6.52,4.16,8.64
	c0.73,1.16,2.01,1.87,3.38,1.87c0.05,0,0.11,0,0.17-0.01h0.34c2.1,0,4.29,0.8,6.61,1.65l0.11,0.04c2.57,0.94,5,1.83,7.55,1.83
	c5.55,0,8.32-4.26,9.59-6.82c1.13,0.88,2.28,2.06,3.36,3.23c0.01,0.01,0.03,0.02,0.04,0.04l0.25,0.26c1.16,1.21,2.36,2.47,3.69,3.51
	c2.07,1.62,4.02,2.41,5.98,2.41c1.2,0,2.38-0.3,3.5-0.9c0.91-0.45,1.78-1.1,2.69-2c0.22,0.23,0.47,0.45,0.76,0.63
	c0.43,0.27,0.84,0.53,1.21,0.8c0.06,0.05,0.12,0.09,0.18,0.13l0.07,0.04c1.91,1.26,3.89,2.56,6,2.75c0.19,0.02,0.38,0.03,0.58,0.03
	c2.26,0,4.48-1.25,6.44-2.36l0.08-0.04c0.41-0.24,0.96-0.56,1.45-0.81c1.59,3.46,4.02,6.91,8.42,6.91c1.84,0,3.47-0.63,5.04-1.24
	l0.03-0.01c1.18-0.45,2.4-0.91,3.39-0.91c0.53,0,1.21,0.12,2.16,1.02c0.29,0.27,0.62,0.48,0.96,0.65c0.23,0.48,0.54,0.91,0.95,1.28
	c4.59,4.08,10.29,4.42,15.28,4.42c0.66,0,1.32-0.01,1.98-0.01c0.6-0.01,1.21-0.01,1.81-0.01c2.11,0,4.35,0.06,6.45,0.47
	c7.2,1.41,13.4,2.75,19.51,4.2c0.31,0.07,0.62,0.11,0.93,0.11c0.21,0,0.41-0.03,0.62-0.06c0.41,0.31,0.89,0.53,1.4,0.66
	c5.47,1.32,10.83,2.74,17.04,4.38l1.62,0.42l8.7,2.31c0.33,0.09,0.68,0.13,1.02,0.13c0.08,0,0.15-0.01,0.23-0.01
	c0.32,0.24,0.67,0.45,1.06,0.58c0.97,0.33,1.94,0.72,2.98,1.13c0.41,0.16,0.83,0.32,1.24,0.48c2.04,0.83,4.4,1.76,6.81,2.47
	c0.47,0.15,0.95,0.28,1.62,0.43c0.27,0.06,0.52,0.12,0.83,0.17c0.58,0.14,1.12,0.23,1.64,0.27c0.8,0.1,1.55,0.15,2.29,0.15
	c0.88,0,1.71-0.07,2.54-0.22c0.07-0.01,0.13-0.02,0.19-0.04c0.23-0.05,0.55-0.12,0.96-0.24c0.59-0.15,1.06-0.33,1.41-0.48
	c0.01,0,0.02,0,0.03-0.01c0.15-0.04,0.29-0.09,0.42-0.14c0.34-0.14,0.59-0.22,0.81-0.27c0.33-0.07,0.65-0.2,0.94-0.35
	c0.24,0.04,0.48,0.07,0.73,0.07h0.13c0.07-0.01,0.15-0.01,0.23-0.01c2.8,0,5.82,1.65,8.73,3.25c0.02,0.01,0.03,0.01,0.05,0.02
	l0.5,0.27c1.17,0.62,2.27,1.2,3.44,1.74c0.06,0.03,0.13,0.04,0.2,0.07v6.67c0,1.6,0.95,3.04,2.41,3.67
	c0.51,0.22,1.05,0.33,1.59,0.33c1,0,1.98-0.37,2.74-1.08l6.22-5.84c0.02-0.02,0.04-0.04,0.05-0.05l0.99-0.97
	c0.35,0.17,0.72,0.29,1.11,0.35c5.14,0.83,11.15,1.77,17.57,2.3c0.11,0.01,0.22,0.01,0.33,0.01h0.18c0.29,0,0.57-0.04,0.85-0.1
	l0.64,0.96l9.96,14.83c0.72,1.07,1.9,1.73,3.19,1.77h0.13c1.24,0,2.42-0.57,3.17-1.56l11.14-14.55l0.89-1.17
	c0.35,0.1,0.72,0.15,1.09,0.15c0.12,0,0.25,0,0.37-0.01c3.01-0.29,6.14-0.65,9.56-1.11l1.77,3.12c0.71,1.28,2.05,2.04,3.48,2.04
	c0.24,0,0.48-0.02,0.72-0.07c1.68-0.31,2.98-1.64,3.23-3.33l0.49-3.21l1.22-0.18c1.77-0.25,3.51-0.5,5.25-0.73
	c3.31-0.42,6.33-1.99,9.25-3.5c0.31-0.15,0.62-0.31,0.93-0.47c0.43-0.22,0.86-0.45,1.31-0.66c0.09-0.04,0.17-0.1,0.25-0.14
	c0.13,0.1,0.27,0.2,0.4,0.31l1.38,1.07c0.91,0.71,1.72,1.34,2.39,1.86c0.72,0.54,1.58,0.83,2.44,0.83c0.6,0,1.21-0.14,1.77-0.42
	c1.37-0.67,2.23-2.06,2.23-3.58v-0.89c1.31,0.39,2.69,0.59,4.14,0.59c4.37,0,8.77-1.77,13.02-3.48c1.37-0.54,2.85-1.12,4.32-1.64
	c0.38-0.14,0.72-0.35,1.04-0.58c0.07,0,0.14,0.02,0.21,0.02c0.34,0,0.68-0.04,1.02-0.13l8.71-2.31l1.58-0.42
	c6.22-1.64,11.6-3.06,17.06-4.38c0.52-0.13,1-0.36,1.41-0.66c0.21,0.03,0.41,0.06,0.62,0.06c0.31,0,0.62-0.04,0.93-0.11
	c5.97-1.43,12.17-2.76,19.51-4.2c2.06-0.41,4.27-0.46,6.36-0.46h1.93c0.63,0,1.29,0.01,1.94,0.01c4.97,0,10.66-0.34,15.27-4.38
	c0.42-0.38,0.75-0.83,0.98-1.33c0.34-0.18,0.67-0.38,0.96-0.66c0.94-0.88,1.61-1,2.15-1c0.98,0,2.2,0.46,3.38,0.9l0.07,0.03
	c1.54,0.6,3.17,1.23,5.01,1.23c4.4,0,6.83-3.45,8.42-6.92c0.48,0.25,1.02,0.56,1.42,0.79l0.18,0.11c1.92,1.08,4.11,2.32,6.38,2.32
	c0.21,0,0.41-0.01,0.61-0.03c1.97-0.18,3.84-1.34,6.07-2.84c0.47-0.32,0.91-0.6,1.35-0.88c0.28-0.18,0.53-0.39,0.76-0.63
	c0.82,0.83,1.66,1.48,2.57,1.96c0.01,0.01,0.03,0.02,0.04,0.03c1.13,0.59,2.31,0.89,3.5,0.91h0.21c3.89,0,6.78-3.03,9.32-5.69
	l0.47-0.49c0.01-0.02,0.02-0.03,0.04-0.05c1.04-1.11,2.22-2.34,3.35-3.24c1.27,2.57,4.03,6.85,9.58,6.85c2.55,0,4.98-0.89,7.55-1.83
	l0.17-0.06c2.33-0.84,4.54-1.64,6.62-1.64h0.46c1.36,0,2.63-0.69,3.37-1.84c1.34-2.1,2.72-5.29,4.18-8.66
	c0.65-1.49,1.31-3.01,1.98-4.47c4.12-0.13,6.95-0.21,11.62-0.28c1.92-0.03,3.55-1.42,3.88-3.31c0.34-1.95,0.61-3.19,0.84-4.21
	l6.26-0.67c1.06-0.12,2.03-0.65,2.7-1.49l1.63-2.05c4.8-6.02,8.95-11.22,13.07-16.33c1.3-1.61,1.16-3.95-0.34-5.39
	c-0.01-0.02-0.02-0.03-0.04-0.04c6.21-3.57,12.81-7.91,15.38-17.15C1094.42,472.24,1094.17,470.95,1093.42,469.95z M478.58,465.79
	c0.59-0.86,2.19-1.44,4.9-1.75c0.15,0,0.66-0.05,2.13-0.05c6.98,0,26.37,0.87,45.13,1.7c13.22,0.59,25.91,1.15,34.13,1.4
	c0.49,0.02,0.94,0.02,1.37,0.05c0.49,0,0.92,0.03,1.35,0.03c1.83,0.05,3.32,0.07,4.44,0.07c4.59,0,14.75-0.38,26.9-0.89
	c5.21-0.23,10.76-0.45,16.42-0.71c4.24-0.17,8.51-0.38,12.64-0.56c13.96-0.58,26.52-1.09,31.78-1.09h0.43
	c2.74,0.03,8.5,0.03,15.86,0.03h14.39c18.96,0,41.5,0,52.97-0.03c3.37,0,6.47,1.93,7.89,4.95c1.73,3.63,3.5,6.75,5.43,9.6
	c2.85,4.21,5.92,7.74,9.17,10.5c0,0.03,0.02,0.03,0.02,0.03c1.55,1.32,3.15,2.46,4.77,3.42c0.74,0.46,1.5,0.87,2.26,1.22
	c0.19,0.11,0.39,0.2,0.58,0.29c0.02,0.01,0.03,0.01,0.05,0.02c0.17,0.08,0.35,0.16,0.53,0.23c0.07,0.03,0.14,0.06,0.2,0.09
	c0.1,0.04,0.2,0.08,0.29,0.12c0.15,0.07,0.29,0.12,0.4,0.17c0.09,0.04,0.17,0.07,0.26,0.1h0.03c0.06,0.03,0.13,0.05,0.19,0.08
	c0.07,0.03,0.14,0.05,0.21,0.07c0.07,0.02,0.14,0.04,0.23,0.07c0.09,0.04,0.2,0.08,0.31,0.11c0.01,0.01,0.01,0.01,0.02,0.01
	c0.11,0.04,0.23,0.08,0.36,0.12c0.01,0,0.03,0.01,0.04,0.01c0.59,0.2,1.28,0.41,1.86,0.57c0.18,0.05,0.35,0.09,0.53,0.13
	c0.41,0.12,0.84,0.2,1.25,0.27c0.43,0.08,0.81,0.16,1.24,0.21h0.02c0.44,0.05,0.84,0.1,1.27,0.1c0.26,0.05,0.54,0.05,0.79,0.08
	c0.15,0,0.33,0.02,0.48,0h0.03c0.25,0.02,0.48,0.02,0.76,0.02c2.03,0,4.06-0.25,6.09-0.79c0.63-0.15,1.27-0.33,1.9-0.55
	c0.44-0.13,0.84-0.26,1.25-0.44c0.43-0.15,0.83-0.3,1.24-0.5c0.05,0,0.08-0.03,0.1-0.05l0.03-0.03h0.02
	c1.45-0.58,2.87-1.32,4.29-2.18c0,0,0.03,0,0.03-0.03c0.61-0.33,1.19-0.73,1.8-1.17c0.74-0.48,1.47-1.01,2.21-1.57
	c3.88-2.99,7.71-6.85,11.44-11.6c2.24-2.89,4.09-5.61,5.46-7.74c0.03-0.05,0.05-0.1,0.08-0.13c0.07-0.15,0.17-0.3,0.25-0.43
	c0.03,0,0.03-0.02,0.03-0.02c0.3-0.48,0.55-0.92,0.81-1.32c1.52-2.59,4.19-4.16,7.13-4.27c8.15-0.27,29.26-0.93,49.9-0.93
	c16.01,0,28.37,0.4,36.75,1.16c3.32,0.31,7.13,0.54,11.21,0.71c10.41,0.46,22.44,0.59,31.88,0.59c12.72,0,26.24-0.23,38.32-0.59
	c16.25-0.43,29.85-1.14,35.28-1.9c6.96-0.96,21.65-1.98,35.18-1.98c14.39,0,19.62,1.17,21.42,1.85c-0.08,0.27-0.18,0.56-0.3,0.87
	c-0.06,0.15-0.12,0.31-0.19,0.47c-0.12,0.3-0.26,0.59-0.42,0.89c-0.04,0.09-0.09,0.17-0.14,0.26c-0.02,0.05-0.05,0.1-0.09,0.15
	c-0.11,0.21-0.24,0.41-0.39,0.61c-0.38,0.57-0.85,1.1-1.41,1.53c-0.12,0.09-0.24,0.18-0.37,0.26c-0.31,0.21-0.64,0.38-1,0.51
	c-0.14,0.06-0.29,0.11-0.45,0.15c-0.44,0.12-0.92,0.19-1.43,0.19c-3.74,0-20.84,0.59-39.34,1.27c-11.63,0.43-23.78,0.89-33.5,1.27
	c-0.21,0-0.41,0.02-0.61,0.02c-3.96,0.16-7.52,0.28-10.43,0.39c-1.7,0.07-3.18,0.12-4.42,0.17c-5.03,0.18-15.53,0.28-31.22,0.28
	c-17.41,0-37.97-0.1-52.99-0.2c-1.1,0-2.16-0.01-3.2-0.02c-1.03,0-2.03,0-3-0.01h-0.75c-0.23,0-0.45,0-0.67-0.01
	c-0.57,0.01-1.13,0-1.67,0c-4.33-0.02-7.72-0.04-9.82-0.04h-6.63c-3.88,0.03-8.57,0.05-13.57,0.05c-2.13,0.02-4.31,0.04-6.51,0.06
	c-0.58,0-1.16,0.01-1.74,0.01c-1.65,0.01-3.29,0.01-4.93,0.01h-0.15c-0.66,0.03-1.29,0.03-1.95,0.03c-2.08,0-4.11,0.02-6.12,0.02
	h-1.04c-0.55,0-1.09,0-1.62,0.01c-1.2,0.01-2.36,0.02-3.48,0.02c-0.03,0-0.03,0-0.05,0h-3.5c-0.03,0-0.03,0-0.05,0
	c-0.35,0-0.69,0.01-1.03,0.01c-1.5,0.01-2.87,0.01-4.08,0.01l-1.19-0.28l0.86,0.31h-1.31c-0.66,0-1.3,0.07-1.91,0.23
	c-0.13,0.02-0.25,0.05-0.38,0.1c-0.53,0.12-1.06,0.33-1.55,0.58c-0.99,0.48-1.85,1.14-2.59,1.95c-0.3,0.31-0.58,0.66-0.83,1.05
	c0,0.02-0.03,0.05-0.05,0.07c-0.21,0.33-0.39,0.66-0.56,1.02v0.02c-0.03,0.03-0.03,0.03-0.05,0.05c-0.18,0.38-0.36,0.76-0.59,1.12
	v0.02c-0.81,1.6-1.72,3.15-2.71,4.65c0,0.02,0,0.02-0.03,0.02c-0.23,0.36-0.45,0.72-0.71,1.05c-0.23,0.35-0.46,0.68-0.73,1.04
	c0,0,0,0,0,0.02c-0.51,0.69-1.02,1.35-1.58,2.01c-0.13,0.17-0.28,0.33-0.4,0.5c-0.16,0.18-0.31,0.38-0.51,0.56
	c-0.28,0.36-0.61,0.71-0.94,1.07c-0.08-0.13-0.1-0.23-0.15-0.33c-0.05,0.05-0.1,0.13-0.18,0.18v0.02l0.2,0.26
	c-0.28,0.3-0.58,0.63-0.89,0.93c-0.3,0.31-0.61,0.61-0.91,0.89l-0.15-0.18c-0.66,0.69-1.35,1.35-2.08,1.98c0,0.03,0,0.03-0.03,0.03
	c-0.3,0.28-0.63,0.56-0.96,0.84c-0.31,0.28-0.64,0.53-0.97,0.78c-1.44,1.12-3.04,2.16-4.85,3.1c-0.35,0.2-0.76,0.38-1.16,0.56
	c-0.21,0.1-0.43,0.2-0.66,0.3c-0.15,0.08-0.36,0.16-0.54,0.23c-0.2,0.1-0.43,0.2-0.66,0.28c-0.38,0.15-0.76,0.31-1.16,0.46
	l0.07,0.23c-1.77,0.73-3.68,1.34-5.71,1.85c-0.1,0.02-0.2,0.05-0.3,0.07c-0.31,0.08-0.61,0.16-0.94,0.23c-0.1,0-0.2,0.03-0.31,0.05
	c-0.33,0.08-0.63,0.13-0.96,0.18c-0.08,0.03-0.18,0.05-0.28,0.05c-2.36,0.43-4.87,0.69-7.56,0.71h-0.64c-0.88,0-1.72-0.02-2.58-0.07
	h-0.03c-0.43-0.03-0.86-0.05-1.27-0.1c-0.43,0-0.84-0.06-1.27-0.11c-0.07,0-0.15,0-0.23-0.02h-0.02c-0.26-0.03-0.54-0.05-0.79-0.1
	c-0.15-0.03-0.3-0.08-0.46-0.13c-0.38-0.1-0.78-0.2-1.21-0.36l-0.08,0.23c-1.85-0.3-3.63-0.73-5.36-1.29
	c-0.4-0.13-0.81-0.25-1.21-0.43c-0.41-0.13-0.82-0.28-1.22-0.46c-0.61-0.23-1.19-0.46-1.78-0.74c-0.4-0.17-0.78-0.35-1.17-0.55
	c-0.38-0.18-0.76-0.38-1.11-0.61c-0.92-0.46-1.8-0.99-2.69-1.6c-0.13-0.08-0.28-0.15-0.41-0.26c-0.35-0.22-0.71-0.48-1.04-0.76
	c-0.35-0.23-0.71-0.48-1.04-0.76c-0.86-0.66-1.7-1.37-2.51-2.13c-0.31-0.28-0.61-0.56-0.92-0.86l-0.91-0.92
	c-0.13-0.15-0.28-0.3-0.41-0.45c-0.33-0.36-0.66-0.71-0.93-1.07c-0.16-0.13-0.26-0.28-0.39-0.41c-0.07-0.1-0.17-0.2-0.25-0.3
	c-0.1-0.13-0.2-0.25-0.3-0.38c-0.18-0.2-0.33-0.41-0.51-0.64c-0.28-0.35-0.53-0.71-0.79-1.06c-0.02,0-0.02,0-0.02-0.03
	c-1.12-1.49-2.03-2.97-2.8-4.31c0-0.03-0.02-0.03-0.02-0.03c-0.2-0.4-0.41-0.76-0.61-1.11c-0.23-0.41-0.41-0.82-0.61-1.17
	c0-0.03,0-0.03,0-0.03l0.08-0.07l-0.31-0.38v-0.03c-0.1-0.25-0.23-0.46-0.33-0.68c-0.5-1.07-1.19-2.01-2.03-2.8
	c-0.23-0.25-0.51-0.45-0.78-0.66c-0.08-0.07-0.18-0.15-0.26-0.17c-0.35-0.26-0.71-0.49-1.09-0.66c-0.08-0.03-0.13-0.05-0.18-0.08
	c-0.53-0.25-1.04-0.43-1.62-0.56h-0.03c-0.07-0.02-0.14-0.03-0.21-0.04c-0.17-0.04-0.34-0.07-0.52-0.09
	c-0.07-0.01-0.14-0.02-0.21-0.03c-0.25-0.03-0.5-0.06-0.76-0.07c-0.19,0-0.39-0.01-0.59-0.01l-0.01-0.01
	c-1.49-0.04-3.07-0.09-4.7-0.13h-0.08c-1.14-0.05-2.31-0.07-3.53-0.1h-0.05c-0.43-0.02-0.83-0.05-1.27-0.05
	c-0.76-0.03-1.52-0.05-2.28-0.05h-0.02c-0.79-0.05-1.63-0.08-2.44-0.08h-0.03c-1.6-0.05-3.17-0.1-4.82-0.12h-0.02c0,0,0,0-0.03,0
	c-1.45-0.05-2.94-0.08-4.42-0.11h-0.02c-0.03,0-0.03,0-0.05,0h-0.03c-0.36-0.01-0.72-0.02-1.07-0.02c-0.01-0.01-0.02,0-0.02,0
	c-0.01-0.01-0.02,0-0.02,0c-0.01-0.01-0.02-0.01-0.03,0c-0.24,0-0.48,0-0.71-0.01l-0.01-0.01c-1.25-0.02-2.49-0.04-3.75-0.06
	c-0.02,0-0.02,0-0.05,0c-1.95-0.05-3.85-0.07-5.76-0.1c-0.02,0-0.02,0-0.05,0h-0.1c-2.35-0.01-4.68-0.03-6.94-0.04
	c-0.67-0.01-1.33-0.01-1.99-0.01h-3.05c-6.9,0.03-12.33,0.18-16.14,0.43c-1.96,0.13-4.29,0.28-6.93,0.41h-0.15
	c-6.85,0.35-15.64,0.68-24.85,0.96h-0.3c-7.41,0.23-15.08,0.42-22.24,0.54c-1.85,0.03-3.67,0.06-5.43,0.09
	c-0.57,0.01-1.13,0.01-1.69,0.02c-0.4,0-0.78,0.01-1.17,0.01c-0.39,0-0.77,0.01-1.15,0.01c-0.39,0-0.77,0.01-1.14,0.01
	c-2.25,0.02-4.38,0.03-6.37,0.03c-4.75,0-8.37-0.07-10.79-0.17c-14.18-0.64-86.51-3.18-98.44-3.18c-3.66,0-6.7,0.31-9.16,0.56
	c-1.65,0.15-3.05,0.31-4.19,0.31c-1.5,0-2.24-0.16-2.77-1.07c-0.14-0.3-0.28-0.68-0.42-1.15c-0.01-0.04-0.03-0.08-0.04-0.12
	c-0.02-0.02-0.02-0.02-0.02-0.05c-0.1-0.38-0.2-0.81-0.28-1.22C478.15,467.77,478.1,466.53,478.58,465.79z M820.75,500.24
	c0,0.96-0.02,1.92-0.13,2.89c-0.02,0.63-0.1,1.27-0.2,1.88c-0.05,0.61-0.15,1.19-0.25,1.77c-1.04,5.79-3.43,11.07-6.86,15.51
	c-0.15,0.23-0.33,0.43-0.5,0.66c-0.13,0.15-0.26,0.33-0.41,0.48c-0.18,0.23-0.38,0.48-0.58,0.69c-0.1,0.12-0.23,0.25-0.36,0.38
	c-0.2,0.25-0.4,0.48-0.66,0.71c-3.09,3.27-6.83,5.94-10.96,7.76c-0.41,0.16-0.81,0.33-1.25,0.49c-0.1,0.05-0.22,0.1-0.35,0.15
	c-0.28,0.1-0.56,0.2-0.86,0.3c-0.13,0.05-0.23,0.11-0.36,0.13c-0.38,0.13-0.79,0.25-1.17,0.38c-2.97,0.86-6.11,1.35-9.36,1.35
	c-4.09,0-7.97-0.74-11.6-2.11c-0.41-0.15-0.79-0.3-1.17-0.46c-0.4-0.17-0.81-0.35-1.19-0.53c-0.43-0.2-0.86-0.41-1.3-0.63
	c-0.38-0.21-0.76-0.41-1.14-0.61c-0.38-0.23-0.73-0.43-1.11-0.69c-3.53-2.16-6.63-4.97-9.19-8.27c-0.28-0.36-0.56-0.74-0.84-1.09
	c-0.25-0.38-0.53-0.77-0.79-1.17c-0.27-0.43-0.55-0.86-0.81-1.32c-0.28-0.43-0.53-0.89-0.76-1.35c-1.85-3.37-3.15-7.08-3.81-11.01
	c-0.1-0.53-0.2-1.07-0.25-1.63c-0.08-0.55-0.13-1.11-0.18-1.67c-0.07-0.99-0.12-1.98-0.12-2.99c0-0.18,0.02-0.39,0.05-0.61
	c0.1-0.87,0.4-1.98,0.83-3.2c0.38-1.14,0.84-2.39,1.32-3.58c0.26,0.28,0.54,0.56,0.82,0.81c0.3,0.31,0.6,0.59,0.91,0.86
	c0.74,0.69,1.52,1.35,2.36,2.01c0.33,0.25,0.66,0.53,1.02,0.76c0.32,0.25,0.68,0.51,1.04,0.76c1.16,0.81,2.43,1.6,3.78,2.29
	c0.38,0.23,0.73,0.4,1.11,0.58c0.38,0.2,0.77,0.38,1.17,0.53c0.53,0.28,1.07,0.51,1.6,0.69c0.38,0.2,0.79,0.35,1.19,0.48
	c0.38,0.15,0.79,0.31,1.2,0.43c1.85,0.61,3.83,1.14,5.91,1.52h0.02c0.41,0.06,0.84,0.13,1.25,0.18c0.4,0.08,0.84,0.13,1.27,0.18
	v0.03c0.1,0,0.2,0.02,0.33,0.02c0.4,0.05,0.83,0.1,1.27,0.13c0.4,0.05,0.83,0.07,1.27,0.1h0.02c1.04,0.08,2.13,0.1,3.22,0.1h0.66
	c2.74-0.02,5.31-0.28,7.74-0.71c0.13,0,0.26-0.03,0.39-0.08c0.27-0.02,0.55-0.07,0.83-0.15c0.15,0,0.28-0.02,0.41-0.07
	c0.3-0.06,0.58-0.11,0.86-0.21c0.15,0,0.28-0.02,0.41-0.07c2.26-0.51,4.36-1.2,6.32-2.03c0.4-0.13,0.78-0.31,1.16-0.49
	c0.13-0.05,0.26-0.1,0.39-0.17c0.27-0.11,0.53-0.23,0.78-0.36c0.13-0.05,0.26-0.1,0.38-0.2c0.41-0.18,0.79-0.36,1.17-0.56
	c2.11-1.09,4.01-2.34,5.76-3.65c0.33-0.26,0.69-0.51,0.99-0.77c0.36-0.28,0.69-0.53,1.02-0.81c0.71-0.61,1.42-1.24,2.08-1.88v-0.02
	c0.3-0.26,0.61-0.56,0.91-0.86c0.2-0.21,0.41-0.41,0.58-0.61c0.46,1.04,0.92,2.15,1.35,3.24c0.51,1.3,0.94,2.59,1.17,3.74
	c0,0.02,0,0.02,0,0.02C820.67,499.19,820.75,499.75,820.75,500.24z M487.61,484.16c-0.29-0.19-0.58-0.38-0.87-0.58
	c-0.28-0.19-0.56-0.39-0.84-0.59c-0.28-0.19-0.55-0.4-0.82-0.61c-0.4-0.31-0.8-0.63-1.18-0.96c-0.24-0.2-0.47-0.41-0.7-0.62
	c-0.14-0.13-0.29-0.27-0.43-0.41c-0.23-0.22-0.46-0.46-0.68-0.7c-0.03-0.02-0.05-0.04-0.05-0.06c-0.1-0.09-0.19-0.19-0.27-0.29
	c-0.03-0.03-0.06-0.06-0.08-0.09c-0.07-0.06-0.13-0.14-0.18-0.21c-0.04-0.03-0.06-0.06-0.08-0.09c-0.07-0.07-0.13-0.15-0.18-0.22
	c-0.13-0.14-0.24-0.28-0.34-0.42c-0.22-0.27-0.43-0.55-0.62-0.84c-0.03-0.03-0.04-0.04-0.05-0.07c-0.05-0.06-0.09-0.12-0.12-0.18
	c-0.03-0.03-0.05-0.05-0.05-0.08c-0.02-0.01-0.02-0.01-0.01-0.02c-0.19-0.26-0.36-0.53-0.51-0.8c-0.38-0.63-0.73-1.29-1.04-2
	c0.88,0.59,2,0.76,3.4,0.76c3.02,0,7.31-0.86,13.35-0.86c12.05,0,84.38,2.54,98.32,3.17c2.56,0.13,6.32,0.18,10.91,0.18
	c1.07,0,2.16,0,3.3-0.02l-104.06,9.36l-9.94,0.89l-1.27-0.71c-0.13-0.08-0.27-0.15-0.4-0.23c-0.58-0.33-1.16-0.66-1.73-1
	C489.45,485.31,488.52,484.74,487.61,484.16z M514.49,511.88l-1.56-0.17L506.5,511c-5.48-6.86-10.13-12.69-14.72-18.38
	c0.35-0.33,0.67-0.65,0.97-0.96c0.31-0.32,0.61-0.62,0.91-0.92l0.4-0.4l117-10.52l10.62-0.96l22.23-2h0.02
	c12.87-0.38,24.95-0.89,32.16-1.37c4.08-0.28,9.67-0.41,15.94-0.43L514.49,511.88z M530.31,519.5c-0.48-0.01-0.94-0.03-1.39-0.04
	c-0.28-0.01-0.55-0.01-0.81-0.02c-0.39-0.01-0.77-0.02-1.14-0.03c-3.41-0.1-6-0.16-9.86-0.24c-0.05-0.29-0.1-0.56-0.15-0.82
	c-0.12-0.65-0.23-1.22-0.34-1.74c-0.02-0.1-0.04-0.2-0.06-0.3c-0.16-0.79-0.32-1.46-0.47-2.12v-0.05l179.46-37.21l1.94-0.4
	l6.84-1.42c0.03,0,0.03,0,0.03,0h0.03c2.08,0.02,4.16,0.08,6.21,0.1L530.31,519.5z M560.82,530.16l-0.57,0.2l-0.2,0.56
	c-0.18,0.48-0.35,0.91-0.56,1.34c-0.22,0.51-0.45,0.98-0.68,1.4c-0.07,0.15-0.15,0.29-0.23,0.42c-0.09,0.16-0.18,0.32-0.28,0.47
	c-0.22,0.35-0.44,0.67-0.66,0.96c-0.25,0.33-0.51,0.62-0.78,0.87c-0.14,0.13-0.27,0.25-0.4,0.36c-0.27,0.22-0.54,0.41-0.82,0.56
	c-0.28,0.16-0.57,0.28-0.86,0.38c-0.15,0.05-0.29,0.09-0.44,0.13c-0.64,0.16-1.32,0.19-2.03,0.12c-0.05,0-0.11-0.01-0.17-0.02
	c-0.19-0.01-0.38-0.04-0.58-0.08c-1.46-0.24-3.04-0.82-4.76-1.45c-0.33-0.12-0.65-0.24-0.98-0.36c-0.32-0.12-0.65-0.24-0.98-0.35
	c-0.66-0.22-1.32-0.43-1.99-0.62c-0.04-0.01-0.08-0.02-0.13-0.03h-0.01c-0.12-0.03-0.24-0.07-0.36-0.1
	c-0.34-0.09-0.68-0.16-1.02-0.22c-0.1-0.02-0.21-0.04-0.32-0.06c-0.39-0.07-0.79-0.12-1.19-0.15c-0.14-0.01-0.29-0.02-0.44-0.03
	c-0.11,0-0.22-0.01-0.33-0.01c-0.28-0.01-0.56-0.01-0.85,0c-1.17-1.86-2.49-4.9-3.88-8.12c-0.23-0.51-0.45-1.02-0.68-1.53
	c-0.26-0.6-0.53-1.22-0.8-1.81h0.01c-0.2-0.45-0.41-0.89-0.61-1.33l95.93-23.58l92.23-22.67c0.02,0,0.02,0,0.02,0s0,0,0.03,0h0.08
	L560.82,530.16z M581.34,537.64c-0.05,0.01-0.1,0.01-0.15,0.03c-0.07,0-0.13,0.01-0.19,0.03c-0.06,0.02-0.12,0.03-0.18,0.05
	c-0.12,0.03-0.23,0.07-0.34,0.12c-0.22,0.1-0.43,0.22-0.61,0.38c-0.07,0.05-0.17,0.16-0.25,0.23c-0.71,0.76-1.37,1.32-2.06,1.65
	c-0.56,0.31-1.11,0.46-1.67,0.46c-1.14,0-2.34-0.64-3.5-1.55c-1.2-0.94-2.36-2.18-3.53-3.4c-0.57-0.61-1.15-1.22-1.74-1.8
	c-0.16-0.16-0.33-0.32-0.49-0.47c-0.04-0.04-0.08-0.08-0.12-0.12c-0.21-0.19-0.43-0.39-0.64-0.58c-0.44-0.39-0.88-0.75-1.33-1.07
	l163.32-55.98l0.03-0.03h0.02c3.15,0.1,5.94,0.2,8.33,0.26L581.34,537.64z M619.56,544.84l-0.01,0.01
	c-0.65-0.45-1.29-0.76-1.93-0.96c-0.16-0.05-0.32-0.09-0.48-0.12c-0.07-0.02-0.13-0.04-0.19-0.04c-0.04-0.01-0.07-0.02-0.11-0.02
	c-0.16-0.03-0.31-0.05-0.46-0.06c-0.04-0.01-0.08-0.01-0.12-0.01c-0.01-0.01-0.01,0-0.01,0c-0.02-0.01-0.04-0.01-0.05-0.01
	c-0.16-0.02-0.32-0.02-0.47-0.02c-1.75,0-3.4,0.63-4.87,1.19c-0.33,0.13-0.66,0.26-0.97,0.37c-0.31,0.12-0.62,0.22-0.91,0.31
	c-0.78,0.23-1.51,0.35-2.2,0.25c-0.09-0.01-0.18-0.02-0.26-0.05c-0.21-0.03-0.4-0.1-0.6-0.19c-0.21-0.09-0.42-0.2-0.62-0.35
	c-0.07-0.04-0.13-0.09-0.2-0.15c-0.16-0.12-0.33-0.27-0.49-0.44c-0.11-0.11-0.22-0.23-0.33-0.36c-0.22-0.26-0.43-0.55-0.65-0.89
	c-0.22-0.34-0.44-0.72-0.66-1.14c-0.12-0.21-0.23-0.43-0.34-0.67c-0.22-0.46-0.45-0.98-0.68-1.54c-0.33-0.86-0.94-1.21-1.39-1.39
	c-1.45-0.48-3.15,0.48-5.13,1.62c-1.57,0.89-3.53,2.01-4.75,1.88c-0.22-0.02-0.45-0.07-0.7-0.16c-0.04-0.01-0.08-0.02-0.12-0.04
	c-0.12-0.04-0.25-0.09-0.38-0.15c-0.17-0.08-0.35-0.16-0.53-0.25c-0.1-0.05-0.19-0.1-0.28-0.15c-0.73-0.4-1.49-0.91-2.22-1.39
	c-0.01-0.01-0.02-0.01-0.03-0.02c-0.48-0.35-0.96-0.66-1.45-0.96l150.05-59.87l-10.79,6.29l-103.6,60.36
	C620.28,545.38,619.92,545.09,619.56,544.84z M665.76,555.74c-0.31-0.07-0.61-0.15-0.92-0.22v0.01c-0.75-0.18-1.5-0.35-2.25-0.53
	c-0.75-0.17-1.5-0.34-2.26-0.51c-4.53-1.02-9.17-1.99-14.24-2.99c-2.97-0.58-6.07-0.56-9.06-0.53c-1.25,0.01-2.48,0.02-3.69-0.01
	c-0.32-0.01-0.64-0.02-0.96-0.04c-1.13-0.05-2.23-0.15-3.3-0.34c-0.26-0.04-0.52-0.09-0.78-0.15c-0.69-0.15-1.37-0.34-2.02-0.59
	c-0.22-0.08-0.45-0.17-0.66-0.27c-0.2-0.08-0.39-0.17-0.58-0.27c-0.01,0.01-0.02-0.01-0.02-0.01c-0.05-0.01-0.1-0.04-0.15-0.08
	c-0.01,0.01-0.03,0-0.04-0.02c-0.15-0.06-0.3-0.15-0.45-0.24l-0.01-0.01c-0.07-0.03-0.14-0.07-0.2-0.12
	c-0.01,0.01-0.02-0.01-0.02-0.01c-0.15-0.08-0.29-0.17-0.43-0.27c-0.43-0.28-0.85-0.61-1.26-0.97l0.13-0.08l116.38-67.79l4.35-2.54
	c0.89,0.61,1.6,1.48,2.05,2.49c0.28,0.59,0.59,1.22,0.92,1.91L665.76,555.74z M696.19,563.58h-0.03l-1.22-0.32l-7.48-1.99
	c-6.36-1.67-11.66-3.08-17.03-4.4c-0.57-0.14-1.13-0.28-1.7-0.42l78.85-72.61c0.86,1.47,1.9,3.07,3.15,4.72L696.19,563.58z
	 M720.35,567.95c-0.45,0.1-0.89,0.24-1.38,0.44c-0.01,0-0.03,0-0.04,0.01h-0.28l-0.23,0.18c-0.3,0.13-0.58,0.23-0.91,0.31
	c-0.33,0.1-0.56,0.15-0.79,0.2c-0.6,0.1-1.22,0.16-1.86,0.16c-0.61,0-1.23-0.05-1.9-0.13c-0.4-0.03-0.81-0.11-1.21-0.21
	c-0.31-0.05-0.54-0.1-0.77-0.15c-0.55-0.13-0.94-0.23-1.32-0.36c-2.18-0.63-4.39-1.49-6.52-2.36c-0.98-0.37-1.97-0.77-2.96-1.14
	c-0.47-0.19-0.95-0.36-1.43-0.53l53.63-73.75c0.05,0.05,0.1,0.12,0.15,0.17c-1.07,2.69-2.23,5.56-2.64,7.8v0.02
	c-4.39,5.79-9.83,13.14-14.82,20.32c-0.9,1.29-1.78,2.58-2.64,3.85c-1.74,2.57-3.38,5.07-4.85,7.43l-5.07,5.53l-1.48,6.75
	l-0.02,0.05c-0.43,1.2-0.64,2.19-0.66,3.02l-3.8,17.37l1.07,0.95l2.73-0.96V567.95z M751.2,504.47l-1.78,1.96l-10.51,11.44
	c3.43-4.87,7.39-10.27,11.81-16.16l0.25-0.33c0.02,0.66,0.08,1.29,0.13,1.95C751.12,503.71,751.15,504.09,751.2,504.47z
	 M737.63,557.01v16.19c-0.49-0.22-0.97-0.46-1.46-0.72c-0.37-0.18-0.74-0.38-1.12-0.58c-0.38-0.19-0.76-0.4-1.15-0.6
	c-0.28-0.15-0.55-0.3-0.83-0.46c-0.15-0.07-0.29-0.15-0.44-0.23c-0.45-0.25-0.91-0.49-1.37-0.71c-0.35-0.18-0.7-0.35-1.05-0.51
	c-0.22-0.11-0.44-0.21-0.66-0.3c-0.3-0.13-0.6-0.26-0.9-0.38c-0.4-0.15-0.8-0.3-1.2-0.43c-0.01-0.01-0.03-0.02-0.05-0.02
	c-0.19-0.06-0.37-0.11-0.56-0.16c-0.21-0.06-0.41-0.11-0.62-0.16c-0.2-0.05-0.41-0.1-0.62-0.13c-0.41-0.08-0.83-0.14-1.25-0.18
	v-0.02c-0.48-0.04-0.97-0.06-1.46-0.04v-5.54l14.34-5.02l0.5-0.2L737.63,557.01z M740.07,553.3l-0.46,0.16l-16.72,5.88l-1.27,0.44
	l-1.27,0.45l-0.66,0.23l0.66-3.02l1.27-5.79l1.27-5.78l0.58-2.62l1.24-5.68c0.21-0.38,0.44-0.79,0.66-1.19l4.12-4.47l6.03-6.57
	l3.19-3.48l11.94-13.02c0.92,4.16,2.51,8.04,4.65,11.55l-0.73,1.62l-3.73,8.24l-7.29,16.15l-0.03,0.05l-3.02,6.68v0.02L740.07,553.3
	z M747.93,576.25l-0.42,0.4l-1.12,1.09l-6.22,5.84v-25.91l1.17-2.13h0.02l1.02-0.36l3.73-8.25l0.02-0.05v-0.02l8.28-14.8l3.27-5.84
	l0.76-1.37c2.77,3.38,6.07,6.22,9.8,8.43l-9.52,32.89L747.93,576.25z M769.18,578.3c-3.62-0.3-7.08-0.72-10.44-1.21
	c-1.7-0.24-3.37-0.5-5.03-0.76c-0.6-0.1-1.19-0.19-1.79-0.29l9.04-8.5l9.56-33.02c0.41,0.23,0.84,0.43,1.3,0.61l-9.57,32.56
	l7.11,10.61H769.18z M796.21,579.98l-0.94,1.24l-11.14,14.54l-9.95-14.82l-0.86-1.29l-0.14-0.21l-8.14-12.15l9.14-31.17
	c3.83,1.42,7.99,2.18,12.31,2.18c3.3,0,6.5-0.45,9.54-1.29l1.4,18.43l2.89,5.15l1.35,12.26L796.21,579.98z M808.25,577.75
	c-1.02,0.13-2,0.25-2.97,0.37c-0.02,0-0.04,0-0.06,0.01c-0.15,0.01-0.29,0.03-0.43,0.05c-0.32,0.03-0.64,0.07-0.95,0.1
	c-0.14,0.02-0.27,0.03-0.4,0.04c-0.34,0.04-0.68,0.08-1.01,0.11c-0.67,0.07-1.34,0.14-2.01,0.2l3.88-5.07l-0.81-7.29l6.32,11.27
	C809.28,577.61,808.76,577.68,808.25,577.75z M818.24,565.13l-0.81,5.31l-0.54,3.6l-0.56,3.83h-0.02l-0.13,0.93l-0.05,0.37
	l-0.53,3.5l-1.78-3.15l-0.29-0.52l-0.37-0.67l-3.47-6.22l-0.39-0.69l-0.76-1.34l-5.76-10.33l-1.6-2.87l-1.39-2.48v-0.03l-1.35-18.12
	c0.15-0.05,0.31-0.13,0.46-0.18c0.43-0.15,0.84-0.3,1.22-0.48c4.29-1.75,8.19-4.34,11.49-7.56c0.31-0.28,0.59-0.56,0.87-0.87
	l0.71,1.8l0.02,0.13l5.61,14.54l0.1,0.31l1.81,4.67l-0.11,0.66l-0.07,0.56l-0.03-0.05l-0.3,2.08l-0.41,2.59c0,0.02,0,0.02,0,0.02
	L818.24,565.13z M834.82,571.64c-0.29,0.15-0.58,0.3-0.87,0.44c-2.74,1.43-5.36,2.77-7.97,3.1c-1.77,0.24-3.53,0.5-5.32,0.75
	c-0.5,0.08-1,0.15-1.51,0.22l2.72-18.18c0.53,0.64,1.19,1.35,1.98,2.16c0.1,0.08,0.2,0.18,0.3,0.31l0.31,0.3
	c0.66,0.61,1.37,1.29,2.15,2.01c0.36,0.33,0.71,0.65,1.09,0.98c1.17,1.05,2.44,2.14,3.86,3.33c0.28,0.23,0.56,0.48,0.87,0.74
	c0.78,0.63,1.64,1.34,2.51,2.05c0.43,0.33,0.86,0.69,1.32,1.07C835.77,571.16,835.29,571.4,834.82,571.64z M844.86,574.45
	c-0.99-0.77-2.26-1.76-3.73-2.9c-0.28-0.23-0.58-0.45-0.88-0.7c-0.07-0.05-0.14-0.1-0.21-0.16h-0.03c-0.17-0.15-0.35-0.31-0.55-0.46
	c-11.4-9.06-15.21-13.09-16.37-14.87c-0.08-0.13-0.18-0.28-0.31-0.48c-0.02-0.03-0.02-0.08-0.05-0.1c-0.05-0.13-0.13-0.28-0.2-0.44
	c-0.03-0.07-0.05-0.1-0.08-0.17v-0.05l0.86-5.82l-8.93-23.27c3.68-4.42,6.4-9.69,7.79-15.53c12.18,16.62,22.69,32.51,22.69,37.05
	V574.45z M867.59,565.78c-1.03,0.37-2.05,0.77-3.06,1.18c-0.51,0.2-1.01,0.41-1.51,0.61c-1.32,0.51-2.62,1.01-3.89,1.42
	c-0.21,0.07-0.42,0.14-0.63,0.2c-0.27,0.08-0.53,0.16-0.79,0.23c-0.26,0.08-0.52,0.14-0.78,0.2c-0.16,0.04-0.32,0.08-0.49,0.12
	c-0.35,0.08-0.7,0.15-1.05,0.2c-0.2,0.04-0.4,0.07-0.6,0.09c-0.22,0.03-0.44,0.05-0.66,0.07c-0.14,0.01-0.27,0.02-0.4,0.03
	c-1.59,0.09-3.12-0.11-4.58-0.71c-0.1-0.04-0.19-0.07-0.29-0.11v-0.01c-0.48-0.19-0.98-0.33-1.46-0.46v-22.29
	c0-0.78-0.23-1.8-0.64-2.99c-0.25-0.69-0.55-1.42-0.88-2.21c-1.91-4.19-5.36-9.9-9.47-16.09c-0.43-0.66-0.89-1.35-1.37-2.03
	c-0.91-1.35-1.88-2.74-2.84-4.14c-0.43-0.63-0.89-1.27-1.32-1.9c-2.64-3.73-5.38-7.51-8.05-11.09c0.2-1.25,0.33-2.51,0.41-3.78
	L869,565.26C868.53,565.43,868.06,565.6,867.59,565.78z M897.31,557.76c-2.77,0.68-5.52,1.39-8.4,2.14
	c-0.61,0.16-1.23,0.32-1.85,0.48c-0.57,0.15-1.14,0.3-1.72,0.45c-1.62,0.43-3.29,0.87-5.05,1.33l-7.48,1.99l-1.22,0.32l-28.4-39.01
	l-20.28-27.94c-0.59-2.36-1.73-5.03-2.77-7.44c-0.07-0.17-0.15-0.35-0.23-0.53c0.16-0.15,0.31-0.33,0.43-0.48
	c0.69-0.81,1.32-1.63,1.91-2.41l76.77,70.68L897.31,557.76z M944.03,549.44l-0.01,0.01c-0.16,0.11-0.33,0.21-0.49,0.3
	c-0.06,0.05-0.12,0.08-0.19,0.11c-0.18,0.11-0.37,0.22-0.56,0.3c-0.19,0.1-0.38,0.19-0.57,0.27c-0.05,0.03-0.09,0.05-0.14,0.06
	c-0.2,0.09-0.4,0.17-0.6,0.24c-0.11,0.05-0.22,0.09-0.34,0.12c-0.11,0.04-0.23,0.07-0.34,0.11c-0.02,0.02-0.04,0.02-0.07,0.02
	c-0.15,0.06-0.31,0.1-0.48,0.14c-0.04,0.02-0.09,0.03-0.14,0.04c-0.23,0.06-0.46,0.12-0.7,0.17c-0.47,0.1-0.95,0.19-1.44,0.25
	c-0.24,0.04-0.48,0.07-0.73,0.09c-0.08,0.01-0.17,0.02-0.26,0.03c-0.04,0-0.07,0.01-0.11,0.01c-0.12,0.01-0.25,0.02-0.37,0.03
	c-0.25,0.02-0.5,0.04-0.75,0.05c-0.26,0.02-0.51,0.03-0.76,0.04c-0.26,0.01-0.51,0.02-0.77,0.02c-1.15,0.03-2.31,0.02-3.49,0.01
	h-1.93c-2.38,0-4.8,0.07-7.13,0.53c-0.84,0.17-1.68,0.33-2.5,0.5c-0.83,0.16-1.64,0.33-2.44,0.49c-2.62,0.54-5.15,1.07-7.63,1.62
	c-0.8,0.17-1.59,0.35-2.38,0.53c-0.64,0.15-1.27,0.29-1.91,0.44c-0.46,0.11-0.93,0.21-1.39,0.32c-0.17,0.04-0.34,0.08-0.51,0.12
	c-0.3,0.08-0.61,0.15-0.91,0.22l-78.24-72.08c1.26-1.88,2.28-3.63,3.04-5.13l1.26,0.74l0.74,0.43l116.5,67.89
	C944.88,548.84,944.46,549.16,944.03,549.44z M981.33,540.77c-0.02,0.01-0.03,0.02-0.05,0.03c-0.22,0.15-0.44,0.3-0.67,0.45
	c-0.13,0.09-0.27,0.17-0.4,0.26c-0.02,0.01-0.05,0.03-0.07,0.04c-0.01,0.01-0.01,0.01-0.02,0.01c-0.14,0.1-0.27,0.18-0.4,0.25
	c-0.08,0.06-0.15,0.1-0.22,0.13c-0.13,0.09-0.26,0.17-0.39,0.23c-0.28,0.16-0.55,0.3-0.81,0.41c-0.01,0.01-0.02,0.01-0.03,0.02
	c-0.05,0.02-0.09,0.04-0.14,0.06c-0.11,0.05-0.21,0.08-0.31,0.12c-0.01,0-0.03,0.01-0.05,0.02c-0.24,0.08-0.47,0.13-0.68,0.15
	c-0.67,0.07-1.52-0.21-2.41-0.62c-0.2-0.1-0.4-0.19-0.59-0.29c-0.6-0.31-1.21-0.65-1.77-0.97c-1.63-0.94-3.05-1.75-4.32-1.75
	c-0.28,0-0.56,0.05-0.81,0.13c-0.46,0.17-1.06,0.53-1.4,1.39c-2.91,7.16-5.3,6.25-8.9,4.85c-0.37-0.14-0.75-0.29-1.14-0.42
	c-0.39-0.14-0.79-0.27-1.2-0.39c-0.22-0.06-0.45-0.11-0.68-0.16c-0.03-0.01-0.05-0.02-0.07-0.02c-0.05-0.01-0.09-0.02-0.14-0.03
	c-0.07-0.02-0.14-0.03-0.22-0.04c-0.05-0.01-0.09-0.02-0.13-0.02c-0.06-0.01-0.13-0.02-0.19-0.03c-0.7-0.1-1.42-0.12-2.16,0
	c-0.11,0.02-0.23,0.05-0.35,0.07h-0.01c-0.16,0.03-0.31,0.07-0.47,0.13c-0.16,0.05-0.32,0.1-0.49,0.17
	c-0.07,0.03-0.14,0.06-0.22,0.09c-0.09,0.03-0.17,0.07-0.26,0.12c-0.32,0.15-0.65,0.34-0.97,0.57c-0.36,0.24-0.71,0.53-1.07,0.87
	l-114.39-66.64l150.04,59.87C982.29,540.13,981.81,540.44,981.33,540.77z M1001.86,533.57c-0.26,0.23-0.51,0.46-0.76,0.7
	c-0.75,0.71-1.49,1.49-2.21,2.26c-0.43,0.45-0.86,0.9-1.29,1.34c-0.14,0.15-0.29,0.29-0.43,0.44c-0.14,0.15-0.28,0.29-0.42,0.42
	l-0.06,0.06c-0.12,0.12-0.25,0.24-0.37,0.35c-0.66,0.62-1.32,1.17-1.99,1.57c-0.1,0.07-0.2,0.12-0.3,0.17
	c-0.04,0.04-0.08,0.06-0.12,0.07c-0.06,0.03-0.11,0.06-0.17,0.09c-0.15,0.07-0.29,0.14-0.44,0.19c-0.29,0.11-0.58,0.18-0.87,0.22
	c-0.19,0.03-0.38,0.04-0.57,0.03c-0.58,0-1.14-0.16-1.73-0.46c-0.66-0.36-1.32-0.89-2-1.65c-0.1-0.1-0.2-0.2-0.31-0.25
	c-0.09-0.08-0.18-0.15-0.28-0.21c-0.04-0.03-0.08-0.06-0.12-0.07c-0.06-0.04-0.12-0.07-0.18-0.09h-0.01
	c-0.1-0.05-0.21-0.09-0.33-0.12c-0.11-0.03-0.22-0.05-0.34-0.07v-0.01c-0.05-0.01-0.1-0.01-0.16-0.02l-157.12-62.68
	c1.06-0.87,2.38-1.35,3.81-1.38h0.86c0.02,0,0.02,0,0.05,0l4.16,1.43l5.1,1.75l159.94,54.82
	C1002.75,532.8,1002.3,533.17,1001.86,533.57z M1034.91,523.9c-0.49,1.11-0.99,2.22-1.48,3.34c-1.39,3.22-2.71,6.27-3.88,8.09h-0.46
	c-2.84,0-5.53,0.99-8.15,1.93c-0.29,0.1-0.57,0.21-0.85,0.31c-0.56,0.21-1.1,0.4-1.63,0.57c-0.56,0.18-1.1,0.33-1.62,0.46
	c-0.19,0.04-0.38,0.07-0.56,0.11c-0.86,0.15-1.67,0.2-2.44,0.08c-0.3-0.04-0.6-0.11-0.88-0.21c-0.3-0.1-0.59-0.23-0.86-0.38
	c-0.05-0.03-0.09-0.06-0.13-0.09c-0.38-0.22-0.74-0.49-1.09-0.84c-0.06-0.06-0.13-0.12-0.19-0.19c-0.06-0.06-0.13-0.13-0.2-0.21
	c-0.1-0.12-0.21-0.24-0.31-0.38c-0.08-0.09-0.16-0.19-0.23-0.3c-0.09-0.12-0.18-0.25-0.27-0.38c-0.11-0.17-0.22-0.34-0.33-0.52
	c-0.25-0.41-0.49-0.86-0.73-1.36c-0.12-0.25-0.24-0.51-0.36-0.78c-0.21-0.43-0.39-0.86-0.56-1.34l-0.23-0.56l-0.52-0.17l-0.04-0.01
	l-159.92-54.82l188.52,46.29c-0.21,0.45-0.41,0.9-0.61,1.36H1034.91z M1051.65,515.11c-0.1,0.44-0.2,0.88-0.31,1.36
	c-0.05,0.23-0.1,0.48-0.15,0.74c-0.02,0.1-0.04,0.2-0.06,0.3c-0.05,0.21-0.09,0.43-0.14,0.65c-0.04,0.23-0.09,0.46-0.13,0.71
	c-0.03,0.12-0.05,0.25-0.07,0.38c-0.02,0.09-0.04,0.18-0.05,0.27c-0.01,0.04-0.02,0.09-0.02,0.14c-0.03,0.14-0.06,0.28-0.08,0.42
	c-1.29,0.02-2.44,0.04-3.52,0.06c-0.01,0-0.02,0-0.05,0.01h-0.21c-0.93,0.02-1.81,0.04-2.7,0.06c-0.05,0-0.1,0.01-0.15,0.01h-0.22
	c-0.16,0-0.32,0.01-0.47,0.01c-0.22,0.01-0.45,0.01-0.67,0.02c-0.29,0.01-0.58,0.01-0.87,0.02c-0.01,0-0.01,0.01-0.01,0.01
	c-0.01-0.01-0.02,0-0.02,0h-0.15c-0.38,0.01-0.77,0.02-1.17,0.04c-0.25,0.01-0.51,0.02-0.78,0.02c-0.26,0.01-0.53,0.02-0.81,0.03
	c-0.43,0.01-0.88,0.02-1.35,0.04l-187.45-46.04c1.72,0,3.48,0,5.28-0.02l7,1.45l1.72,0.36l177.39,36.76l10.22,2.14V515.11z
	 M1061.25,511.91l-6.44,0.69l-1.58,0.17L867.58,474.3c6.21-0.03,12.18-0.05,16.92-0.05h0.03c0.02-0.03,0.05-0.03,0.1,0l16.36,1.47
	h0.08l9.74,0.88l162.85,14.63l0.46,0.45c0.29,0.3,0.58,0.59,0.88,0.89c0.31,0.3,0.62,0.61,0.97,0.94
	C1071.37,499.19,1066.73,505.03,1061.25,511.91z M1089.71,473.99c-0.07,0.21-0.15,0.41-0.24,0.61c-0.09,0.24-0.18,0.47-0.29,0.69
	c-0.1,0.23-0.2,0.45-0.31,0.67c-0.2,0.4-0.41,0.8-0.64,1.17c-0.01,0.03-0.03,0.06-0.05,0.09c-0.21,0.37-0.44,0.72-0.68,1.07
	c-0.25,0.37-0.52,0.73-0.8,1.08c-0.08,0.11-0.17,0.21-0.25,0.31c-0.69,0.84-1.45,1.61-2.25,2.32c-0.2,0.18-0.4,0.36-0.61,0.52
	c-0.03,0.03-0.05,0.06-0.08,0.06c-0.18,0.17-0.36,0.31-0.54,0.45c-0.19,0.16-0.39,0.31-0.6,0.46c-0.1,0.08-0.2,0.16-0.31,0.23
	c-2,1.48-4.2,2.75-6.45,4.03c-0.13,0.08-0.27,0.15-0.4,0.23l-1.25,0.73L914.1,474.35c14.62,0.05,33.19,0.15,49.18,0.15
	c13.76,0,25.61-0.08,31.32-0.28c8.76-0.33,29.57-1.14,48.86-1.85h46.77C1090.07,472.93,1089.9,473.47,1089.71,473.99z"/>
<path d="M1076.47,807.16c-4.66-10.92-53.86-69.33-89.36-94.82c-32.33-23.22-118.86-53.88-141.24-53.88c-3.21,0-5.09,0.63-5.32,2
	c-1.64,9.9,77.08,17.69,136.55,60.99c50.06,36.41,73.55,84.11,73.66,93.87c0.11,10.12-20.46,21.96-21.05,33.28
	c-0.76,13.87-0.94,27.82-1.45,41.73c-2.48,72.79-0.55,334.67-3.06,407.42c-1.13,33.21-2.26,66.38-3.39,99.55
	c-0.25,6.45,3.31,36.82-1.42,41.73c-0.73,0.75-7.66,1.13-14,1.13c-4.42,0-8.54-0.18-10.07-0.54c-8.88-1.97-13-7.43-19.3-14.86
	c-14.12-16.64-25.63-35.47-36.26-54.51c-10.75-19.23-20.76-38.85-32.34-57.61c-8.56-13.8-19.92-26.18-27.74-40.23
	c-6.23-11.14-6.01-21.12-6.89-33.76c-1.6-23.05-3.24-46.13-5.9-69.11c-4.15-35.75,1.57-77.27-10.85-111.46
	c-8.81-24.29-32.26-35.57-55.48-43.95c-4.9-1.77-9.8-3.41-14.54-5.02c-0.97-0.32-2.29-0.78-3.85-1.32
	c-6.98-2.41-18.54-6.48-22.55-7.86c-8.48-2.92-26.08-3.68-35.99-5.94h-0.01c-0.01-0.01-0.02-0.01-0.02-0.01
	c-0.04-0.01-0.08-0.01-0.12-0.02c-0.03,0-0.06-0.01-0.09-0.02c-3.29-0.77-5.69-1.72-6.58-2.97c-6.37-8.81,2.19-17.97,9.75-27.16
	c2.33-2.83,6.14-4.04,10.95-4.04C765.58,959.77,824,998,824,998s18.47-28.86,23.06-31.84c10.6-6.96,12.25-17.96,7.44-28.66
	c-5.06-11.26-62.82-45.53-80.62-63.52c-9.25-9.36-6.12-20.32-21.52-26.84c0,0-16.61-9.9-35.29-14.85c2.55-2.26,5.1-4.52,7.61-6.88
	c2.04-1.75,4.08-3.57,6.12-5.5c1.09-0.8,2.19-1.64,3.28-2.55c1.09-0.95,2.18-1.86,3.42-2.51l3.64-2.22c1.2-0.91,2.59-1.13,3.9-1.75
	l2.04-0.8l1.02-0.37l0.51-0.22l0.25-0.07l0.15-0.07h-0.22c1.6-0.29,3.46-0.62,4.77-0.77c0.65-0.02,1.4-0.05,2.22-0.05
	c1.52,0,3.26,0.1,4.99,0.53c2.62,0.43,5.39,1.53,8.19,2.69c5.72,2.51,11.58,6.3,18.43,9.29c5.46,2.42,11.76,4.05,17.76,4.05
	c1.47,0,2.92-0.1,4.34-0.3l0.36-0.04l0.29-0.04h0.08l0.14-0.03l0.55-0.11l1.13-0.22l2.18-0.44c1.64-0.4,3.21-0.83,4.77-1.23
	c2.99-0.91,5.76-1.9,8.34-2.99c10.31-4.41,17.88-9.47,23.01-13.15c2.59-1.82,4.56-3.38,5.87-4.44c1.31-1.09,2.04-1.71,2.04-1.71
	c0.8-0.65,1.01-1.82,0.43-2.73c-0.38-0.64-1.07-1.01-1.79-1.01c-0.38,0-0.77,0.1-1.12,0.32l-0.11,0.03c0,0-0.73,0.48-2.11,1.28
	c-1.39,0.84-3.46,2.04-6.19,3.39c-5.39,2.76-13.33,6.44-23.09,8.95c-2.44,0.62-5.02,1.13-7.57,1.53c-1.28,0.11-2.51,0.26-3.83,0.4
	l-2.22,0.08l-1.13,0.07h-0.61c0,0-0.04,0-0.08,0l-0.14-0.04c-4.95-0.11-9.69-1.75-14.64-4.73c-5.03-2.99-10.27-7.36-16.79-11.51
	c-3.35-2-6.92-4.08-11.1-5.5c-4.04-1.53-8.45-2.4-13.66-2.69c-2.11-0.15-3.64-0.07-5.5-0.18l-6.91,0.69
	c-4.26,0.22-8.31,1.27-12.46,2.26c-2.11,0.4-4.08,1.09-6.01,1.85c-1.96,0.7-3.86,1.5-5.79,2.3c-3.67,1.74-7.17,3.82-10.41,6.04
	c-6.12,4.59-11.18,9.87-15.07,15.4c-5.61-4.4-11.95-8.7-19.81-12.38c-4.7-2.04-9.65-3.89-16.75-4.47c-2.08-0.15-4.12-0.26-6.74-0.26
	c-2.51,0-4.77,0.07-7.14,0.26c-9.43,0.72-18.64,3.05-27.38,5.64c-8.74,2.55-17.08,5.24-25.05,6.99c-6.15,1.39-12.02,2.36-17.38,2.36
	c-1.52,0-3-0.08-4.43-0.25c-1.53-0.14-3.31-0.51-4.55-0.8l-1.42-0.44l-0.91-0.32c-0.55-0.15-1.42-0.59-2.12-0.84
	c-2.98-1.38-6-3.24-8.95-5.21c-5.87-3.97-11.44-8.34-16.83-12.2c-5.35-3.93-10.52-7.39-15.43-10.05c-4.92-2.65-9.54-4.51-13.55-5.49
	c-3.39-0.81-6.29-1.09-8.43-1.09c-0.38,0-0.74,0.01-1.07,0.03c-2.22,0.07-3.39,0.25-3.39,0.25c-1.09,0.15-1.97,1.1-1.97,2.26
	c0,1.28,1.02,2.3,2.3,2.3c0,0,0.98,0,2.84,0.21c1.85,0.19,4.55,0.77,7.79,2.08s6.95,3.5,10.96,6.52c4.04,3.02,8.3,6.88,12.85,11.39
	c4.63,4.48,9.47,9.62,15.33,14.83c2.95,2.62,6.16,5.27,10.02,7.71c1.02,0.62,1.85,1.21,3.13,1.83l1.82,0.91l1.35,0.61
	c2.55,1.02,4.69,1.68,7.13,2.26c4.93,1.16,9.87,1.57,14.71,1.57c4.57,0,9.05-0.36,13.37-0.8c8.92-0.99,17.51-2.01,25.92-2.26
	c2.16-0.08,4.29-0.11,6.4-0.11c6.09,0,12,0.27,17.71,0.51c3.86,0.18,7.68,0.36,11.51,0.51c1.27,0.04,4.33,0.62,7.17,1.53
	c2.29,0.76,4.66,1.67,7.03,2.73c-3.93-0.55-7.5-0.8-10.74-0.8c-27.25,0-31.65,17.39-31.65,17.39c-121,42-119.5,153-105.75,205.5
	l-0.74,6.43l-10.03,87c-0.69,5.09-1.38,10.19-2.04,15.29c-11.03,82.11-23.16,163.49-18.53,246.48c1.09,20.02,2.29,39.91,1.56,59.97
	c-0.58,17.88-5.46,35.32-5.46,53.2c0,18.06,6.26,47.08,21.16,58.59c-8.34-0.04-16.17-2.26-23.85-5.43
	c-2.88,7.79-3.64,18.21,3.17,20.28c1.31,0.4,2.53,0.56,3.68,0.56c5.36,0,9.06-3.55,12.18-3.55c2.05,0,3.84,1.52,5.69,6.56
	c3.82,10.49,0.48,27.27-0.73,38.09c-1.23,11.1-7.72,23.56,6.99,23.56c16.5,0,9.33-13.18,8.09-25.86c-1.24-12.41-1.9-25.08-0.4-37.54
	c0.46-3.8,3.18-5.02,6.73-5.02c5.09,0,11.9,2.52,16.21,3.57c0.21,0.05,0.41,0.07,0.6,0.07c5.01,0,2.19-17.56,1.04-20.72
	c-7.61,3.21-15.48,5.39-23.78,5.43c8.92-7.1,12.16-16.83,16.09-27.24c1.09,3.64,4.66,9.48,9.17,9.48c0.32,0,0.63-0.03,0.96-0.09
	c6.55-1.16,1.56-42.13,0.94-50.9c-0.8-12.02-7.06-21.92-9.61-33.28c-4.62-20.76,3.75-49.38,7.14-70.5
	c3.53-22.14,6.88-44.38,8.3-66.78c1.02-15.51-1.13-30.22-2.73-45.66c-1.39-13.51,2.77-27.24,5.17-40.38
	c8.08-44.64,14.27-89.58,17.77-134.84c16.82,48.58,23.81,98.13,28.55,149.15c0.14,1.64-4.27,2.07-4.56,5.42
	c-0.32,3.79-0.83,7.54-1.27,11.29c-0.8,6.7-2.22,13.4-3.64,19.99c-3.1,15.04-7.21,29.9-11.25,44.68
	c-6.92,25.49-13.69,53.2-10.45,79.78c1.42,11.94,6.44,21.08,4.62,33.03l-8.63,104.39c-4.84,35.07-6.99,71.63-17.3,105.6
	c-9.06,29.82-20.97,58.92-26.03,89.83c-5.17,31.97-6.74,64.09-4.37,96.38c2.29,31.54,8.74,64.86,4.22,96.46
	c-2.18,15.44-19.11,50.87-2.87,62.7c4.85,3.53,11.28,4.79,18.41,4.79c17.56,0,39.38-7.66,52.59-8.1c1.31-0.04,2.62-0.07,3.92-0.07
	c28.5,0,55.38,10.41,83.96,10.41c3.63,0,7.29-0.17,10.98-0.54c15.26-1.53,55.53,3.89,53.75-21.09c-0.76,0.05-1.51,0.07-2.27,0.07
	c-7.81,0-15.33-2.26-23.04-3.45c-2.72-0.42-5.43-0.56-8.13-0.56c-5.19,0-10.36,0.51-15.55,0.51c-1.73,0-3.46-0.06-5.19-0.21
	c-13.77-1.24-24.07-8.3-35.58-15.33c-11.51-7.1-23.19-13.8-35.1-20.17c-9.29-4.99-24.07-9.47-31.53-16.79
	c-11.04-10.81-5.76-30.95-3.5-44.24c7.46-43.58,14.97-87.13,22.65-130.65c2.33-13.47,3.86-28.33,9.87-40.89
	c4.22-8.81,12.12-14.6,15.98-23.59c4.48-10.38,11.14-54.84,24.32-54.84c6.2,0,15.65-1.26,24.18-1.26c1.18,0,2.35,0.02,3.48,0.08
	c0.13,0.01,0.26,0.02,0.4,0.02h0.07c5.03,0.29,9.45,1.21,12.29,3.34c6.05,4.59,9.91,20.79,12.42,27.79
	c8.12,22.43,11.62,45.48,13.62,69.14c3.75,45.52,16.46,82.95,39.54,122.13c15.77,26.73,37.54,57.94,40.68,89.76
	c1.85,18.9-14.79,54.4,10.15,62.81c4.69,1.59,9.47,2.2,14.29,2.2c15.8,0,32.1-6.54,47.36-6.82c0.54-0.01,1.07-0.02,1.61-0.02
	c25.14,0,48.68,11.52,74.35,11.56h0.24c11.57,0,22.78-2.1,34.1-2.1c2.49,0,4.99,0.1,7.5,0.35c1.78,0.18,3.77,0.31,5.86,0.31
	c7.47,0,16.12-1.55,20.24-7.3c9.18-12.78-11.72-12.71-21.19-13.58c-1.9-0.17-3.77-0.23-5.61-0.23c-3.47,0-6.85,0.2-10.24,0.2
	c-3.92,0-7.86-0.27-12-1.43c-16.21-4.51-31.28-13.14-46.25-20.57c-17.55-8.67-42.93-15.22-57.86-27.64
	c-24.54-20.5-24.5-75.3-30.8-103.74c-8.41-38.3-24.54-76.57-30.59-115.03c-3.64-23.08,1.28-47.62-1.57-70.96
	c-1.82-15.3-8.26-29.83-10.74-45.05c-3.67-22.32-5.9-45-8.66-67.47c-6.01-48.72-9.69-97.69-17.26-146.27
	c-2.7-17.55-5.87-33.79-5.14-50.98c0.8-19.01,6.67-36.41,9.29-55.42c4.66-33.82-3.75-67.14-1.82-100.97
	c1.75-30.59,20.61-51.71,31.42-79.23c0.58,35.83,1.6,71.8,5.25,107.45c1.85,17.88,1.23,45.52,10.05,61.43
	c9.97,17.84,20.86,34.95,32.88,51.52c23.34,32.26,51.63,60.85,80.14,88.56c15.11,14.71,29.79,30.48,46.24,43.73
	c6.27,5.06,12.79,9.39,19.92,13.11c4.59,2.4,21.41,6.04,23.67,9.32c4.7,6.74-1.2,35.58-1.42,43.37c-1.2,33.93-2.33,67.87-3.5,101.84
	c-2.36,69.88-4.73,139.72-7.1,209.63c-0.36,10.42,0.99,22.94-1.74,33.17c-2.95,10.93-12.24,16.1-11.95,28.15
	c0.15,5.5,5.32,26.11,9.98,29.2c1.03,0.69,1.88,0.99,2.57,0.99c4.04,0,2.76-10.39,2.02-15.77c-0.69-5.17-5.65-18.9,1.24-22.07
	c1.04-0.48,1.97-0.71,2.78-0.71c7.97,0,5.33,21.48,5.63,24.86c0.33,3.13,0.73,10.74,4.48,12.12c0.99,0.36,1.67,0.51,2.13,0.51
	c2,0-0.09-2.92,1.18-5.17c3.24-5.79,4.81-20.32,4.44-27.05c-0.65-11.62-8.66-13.62-12.05-23.31c-2.91-8.41,0.29-22.87,0.55-31.35
	c4.04-118.45,8.08-236.94,12.09-355.42c0.81,0.18,1.6,0.26,2.38,0.26c10.6,0,17.83-15.99,21.87-23.42c1.23-2.22,4.4-14.86,6.7-16.42
	c0.97-0.65,2.17-0.83,3.47-0.83c1.64,0,3.45,0.29,5.19,0.29c2.49,0,4.84-0.59,6.37-3.43c8.05-14.93-43.98-14.02-43.51-28.52
	c1.35-39.18,2.66-78.36,4.01-117.57c2.51-74.68,0.65-338.46,3.2-413.1c0.22-6.12-0.07-71.7,19.3-77.49
	c0.29-0.09,0.58-0.13,0.86-0.13c9.98,0,13.11,53.55,24.41,58.9c1.11,0.52,2.05,0.77,2.85,0.77c10.29,0-3.82-40.73-4.56-47.45
	C1080.65,829.85,1081.05,817.94,1076.47,807.16z M487.17,1591.37c-0.25,0-0.51-0.02-0.77-0.07c-0.13-0.48-0.21-1.22-0.19-2.17
	c1.53,0.46,3.04,0.86,4.52,1.21C489.42,1590.92,488.25,1591.37,487.17,1591.37z M537.3,1589.27c0.01,0.1,0.02,0.21,0.02,0.31
	c-0.18-0.05-0.37-0.1-0.56-0.16C536.94,1589.37,537.12,1589.32,537.3,1589.27z M1010.94,1906.27c-1.13,0-2.27,0.16-3.42,0.46
	c0.97-1.6,1.91-3.32,2.74-5.21c0.87,1.88,1.85,3.5,2.84,4.95C1012.4,1906.34,1011.67,1906.27,1010.94,1906.27z M631.57,889.38
	c1.56,2.99,3.12,4.44,4.1,3.95c2-1,6.66,0.67,0-16.66c-3.82-9.93-5.22-15.29-5.28-18.92l0.31-0.11l1.06-4.18
	c0.02-0.11,3.44-11.35,23.89-11.35c2.99,0,6.22,0.24,9.62,0.72l15.39-2.31c2.22-0.33,4.47-0.5,6.72-0.5h20.91
	c1.55,0,3.09,0.08,4.62,0.24c3.42,0.34,6.79,1.07,10.03,2.2c1.85,0.64,3.65,1.32,5.39,2.01c11.34,4.47,19.82,9.48,19.93,9.55
	l0.47,0.28l0.51,0.21c6.49,2.75,7.93,6,10.32,11.4c1.78,4.01,3.99,9.01,8.63,13.7c8.63,8.72,25.41,20.55,41.64,32
	c9.37,6.61,18.22,12.85,25.29,18.31c9.95,7.68,11.81,10.39,12.11,10.91c2.47,5.54,3.67,13.24-4.53,18.62c-1.08,0.7-2.43,1.78-5,4.87
	c-0.18-0.25-0.48-0.7-0.92-1.27c-0.36-0.47-0.8-1.02-1.32-1.64c-0.53-0.61-1.13-1.3-1.82-2.02c-0.67-0.72-1.43-1.48-2.26-2.26
	c-0.81-0.79-1.71-1.58-2.66-2.37c-1.94-1.55-4.16-3.02-6.34-4.54c-2.18-1.52-4.46-2.91-6.58-4.23c-1.03-0.69-2.06-1.32-3-1.97
	c-0.94-0.64-1.87-1.21-2.69-1.77c-1.66-1.1-3.06-2.01-4.06-2.63s-1.56-0.99-1.56-0.99c-0.02-0.02-0.05-0.03-0.07-0.05
	c-0.76-0.45-1.74-0.21-2.2,0.55c-0.45,0.76-0.21,1.75,0.55,2.2l0.07,0.04c0,0,0.55,0.33,1.48,0.94c0.23,0.15,0.49,0.32,0.77,0.5
	c0.27,0.2,0.56,0.42,0.87,0.66c0.62,0.48,1.35,0.97,2.09,1.61c0.74,0.62,1.55,1.27,2.37,2.03c0.83,0.74,1.7,1.53,2.55,2.41
	c0.85,0.88,1.73,1.78,2.59,2.73c0.86,0.96,1.78,1.88,2.66,2.84c0.89,0.94,1.78,1.9,2.64,2.85c0.87,0.94,1.72,1.87,2.59,2.72
	c0.88,0.84,1.73,1.65,2.59,2.36c0.83,0.74,1.64,1.41,2.41,2.01c0.75,0.62,1.48,1.15,2.11,1.63c0.64,0.47,1.21,0.87,1.69,1.18
	c0.95,0.64,1.54,0.96,1.54,0.96l0.01,0.01c0.1,0.05,0.2,0.1,0.3,0.15c-1.85,2.49-4.11,5.66-6.89,9.72c-2.05,2.99-3.99,5.9-5.61,8.34
	c-6.05-3.73-15.6-9.44-26.44-15.2c-25.04-13.3-44.1-20.05-56.65-20.05c-7.58,0-13.34,2.34-17.13,6.96
	c-0.49,0.59-0.98,1.19-1.48,1.78c-3.83,4.62-7.8,9.4-10.16,14.62c-3.2,7.06-2.39,12.79-0.48,16.98c0.6,1.33,1.32,2.5,2.05,3.52
	c3.9,5.48,12.28,6.74,27.94,8.66c0.7,0.09,1.41,0.18,2.13,0.27c0.03,0,0.07,0,0.11,0.01c6.28,0.78,12.9,1.67,16.53,2.93
	c1.77,0.61,5.03,1.75,8.71,3.04c4.67,1.63,10.17,3.55,14.12,4.92c-7.63,22.95-21.51,48.1-27.18,58.87C747,1087,696.33,1093,689,1093
	s-13.33,3.33-45.33-10.67c-27.24-11.92-42.88-66.82-46.94-82.9c2.45-0.19,4.96-0.35,7.54-0.48c3.69-0.2,7.52-0.35,11.49-0.45
	c0.41-2.3,0.99-5.47,1.67-9.22c4.18-22.95,12.43-67.85,13.96-73.28C633.06,910.05,632.02,894.89,631.57,889.38z M581.91,992.16
	c-9.87,1.58-19.92,3.95-28.12,7.35c-1.12-34.7,11.12-65.49,36.41-91.58c14.39-14.86,29.32-24.03,36.44-27.96
	c-0.55,5-1.24,11.43-1.81,17.5c-1.93,1.91-12.49,12.66-22.75,28.77C583.97,954.66,581.02,977.55,581.91,992.16z M623.99,907.17
	c-0.16,2.26-0.28,4.25-0.33,5.83c-0.26,8.17-11.36,53.7-17.05,76.56c-5.51,0.28-11.98,0.83-18.74,1.72
	C585.85,954.64,612.38,920.34,623.99,907.17z M528.19,952.82c14.49-43.98,46.83-75.24,96.15-92.96c0.63,3.65,1.6,8.17,2.52,13.19
	c-5.3,2.68-23.21,12.44-40.82,30.54c-18.77,19.31-40.47,52.04-38.13,98.73c-3.51,1.95-6.45,4.16-8.58,6.68
	c-7.24,8.57-12.76,20.2-16.49,31.4c-1.53-8.85-2.76-19.63-2.88-31.83C519.76,988.76,522.53,970,528.19,952.82z M511.3,1656.03
	c-0.63,0-1.12-0.04-1.48-0.08c0.05-1.72,0.66-4.7,1.1-6.81c0.39-1.9,0.79-3.86,1.09-5.87c0.27,1.61,0.58,3.18,0.87,4.63
	c0.5,2.51,1.21,6.14,1.13,7.9C513.51,1655.91,512.65,1656.03,511.3,1656.03z M511.57,1597.17c-0.71-1.58-1.74-3.49-3.22-5.16
	l3.64-0.02l2.48,0.01C513.07,1593.53,512.13,1595.32,511.57,1597.17z M511.28,1575.13c-0.76,0-1.54-0.12-2.34-0.39
	c-7.07-2.33-10.93-18.17-11.55-24.32c2.79,1.94,6.13,2.44,9.64,2.44c3.74,0,7.67-0.57,11.29-0.57c2.52,0,4.9,0.28,6.97,1.23
	C525.72,1559.14,519.94,1575.13,511.28,1575.13z M538.97,1515.77c0.1,1.39,0.29,3.41,0.53,5.97c0.55,5.93,1.39,14.9,1.72,23.04
	c0.02,0.72,0.05,1.42,0.07,2.09l-4.53-15.13l-5.87,15.54l-2.27-1.04c-2.91-1.33-6.18-1.95-10.3-1.95c-2.1,0-4.16,0.16-6.15,0.31
	c-1.83,0.13-3.56,0.26-5.14,0.26c-2.47,0-4.08-0.32-5.06-1l-10.23-7.14c-0.48-3.9-0.73-7.73-0.73-11.35c0-8.92,1.3-17.75,2.67-27.1
	c0.45-3.02,0.9-6.08,1.3-9.18c3.93,0.79,10.91,2.02,15.95,2.02c5.7,0,15.67-1.65,19.95-2.41c0.99,3.26,2.15,6.35,3.29,9.38
	C536.43,1504.09,538.57,1509.77,538.97,1515.77z M528.09,1472.41c-5.37,0.78-13.67,1.92-16.74,1.92c-3.37,0-10.89-2.25-14.83-3.51
	c0.58-18.36-0.4-36.73-1.38-54.53c5.09,1.09,13.68,2.82,18.19,3.04c4.73,0.24,15.79-0.64,21.83-1.17c-0.47,2.45-0.98,4.98-1.5,7.58
	C530.67,1440.78,527.36,1457.4,528.09,1472.41z M544.79,1344.15c-1.37,21.63-4.65,43.58-7.94,64.29c-6.14,0.65-17.6,1.7-23.52,1.23
	c-5.55-0.45-13.8-1.8-18.68-2.65c-2.02-42.23,0.32-84.61,4.52-126.6c12.43,5.48,34.21,4.05,43.23,3.15
	c-0.65,5.32-0.88,10.74-0.31,16.25c0.26,2.5,0.54,4.99,0.81,7.47C544.29,1319.9,545.6,1331.82,544.79,1344.15z M547.35,1257.17
	c-0.53,2.9-1.14,5.8-1.79,8.87c-0.54,2.54-1.08,5.11-1.58,7.69c-5.88,0.3-16.75,0.74-23.98,0.27c-6.85-0.44-14.99-2.97-19.68-4.62
	c0.59-5.52,1.21-11.02,1.86-16.52c4.79,1.12,13.57,3.01,20.21,3.47c7.16,0.5,19.34,0.25,25.09,0.09
	C547.44,1256.67,547.4,1256.92,547.35,1257.17z M548.71,1249.55c-5.54,0.31-16.91,0.76-24.71-0.22c-7.63-0.95-16.46-3.27-20.87-4.51
	c2.5-20.78,5.3-41.42,8.06-61.88c0.73-5.39,1.46-10.77,2.19-16.2c0.36-2.79,0.73-5.6,1.1-8.39c5.12,2.17,13.81,5.27,23.59,6.32
	c10.48,1.12,18.69,0.73,22.95,0.36C557.95,1192.28,553.87,1220.25,548.71,1249.55z M562.02,1155.86c-6.19,0.23-17.4,0.51-24.35-0.19
	c-6.83-0.68-16.62-3.54-22.13-5.29l2.54-22.06c4.18,1.29,11.45,3.21,20.25,4.12c9.67,0.99,20.27,0.62,25.9,0.29
	C563.58,1140.4,562.84,1148.1,562.02,1155.86z M565.11,1121.83c-6.33,0.7-18.59,1.8-25.78,0.84c-6.71-0.9-15.23-3-20.1-4.28
	l1.86-16.15l45.39,1.9L565.11,1121.83z M598.42,1189.43l164.84,3.23c-1.43,5.51-2.41,11.31-2.76,17.46c0,0.06-0.01,0.11-0.01,0.17
	l-158.85-2.55C600.67,1201.68,599.6,1195.57,598.42,1189.43z M762.16,1258.02L607,1247.57c-1.06-9.51-2.28-19.27-3.73-29.21
	l156.93,2.25c-0.04,11.93,0.88,23.73,1.79,35.23C762.05,1256.57,762.1,1257.3,762.16,1258.02z M586.15,1365.38l166.83,10.99v0.01
	c0.24,7.87,1.12,15.53,2.24,23.28l-177.67,18.86C577.75,1401.01,581.6,1382.93,586.15,1365.38z M628.66,1696.3
	c-1.44,5.59-2.81,10.87-3.78,13.11c-1.57,3.65-4.24,6.94-7.07,10.41c-2.97,3.66-6.34,7.8-8.78,12.89
	c-5.46,11.42-7.45,23.88-9.38,35.93c-0.39,2.44-0.76,4.75-1.15,7.02c-8.02,45.45-15.96,91.57-22.66,130.7
	c-0.23,1.4-0.51,2.87-0.79,4.4c-2.66,14.46-6.31,34.27,6.57,46.9c6.1,5.97,15.39,10.01,23.58,13.58c3.62,1.58,7.04,3.07,9.78,4.54
	c11.92,6.38,23.59,13.09,34.71,19.95c1.01,0.62,2.02,1.24,3.02,1.85c10.61,6.55,21.59,13.32,36.03,14.62
	c1.84,0.16,3.76,0.24,5.89,0.24c2.79,0,5.52-0.14,8.16-0.27c2.57-0.12,4.99-0.24,7.39-0.24c2.66,0,4.86,0.15,6.9,0.46
	c2.31,0.36,4.61,0.82,7.05,1.31c2.91,0.59,5.86,1.18,8.91,1.61c-6.24,5-22.44,5.17-32.33,5.27c-4.5,0.05-8.39,0.09-11.65,0.42
	c-3.32,0.34-6.64,0.5-10.17,0.5c-13.55,0-26.67-2.46-40.56-5.07c-13.97-2.62-28.42-5.34-43.4-5.34c-1.41,0-2.82,0.03-4.18,0.08
	c-6.57,0.21-14.52,1.91-22.94,3.72c-10.06,2.15-20.46,4.37-29.39,4.37c-6.12,0-10.73-1.1-13.7-3.25c-7.59-5.53-1.75-25.73,2.12-39.1
	c1.79-6.19,3.33-11.54,3.96-16.01c3.45-24.1,0.81-48.8-1.73-72.69c-0.94-8.81-1.82-17.14-2.43-25.48
	c-2.28-31.06-0.83-62.86,4.28-94.51c3.48-21.23,10.5-42.23,17.29-62.53c2.86-8.57,5.82-17.43,8.51-26.27
	c2.09-6.9,3.85-13.89,5.37-20.95c0.27,0.06,0.55,0.09,0.83,0.09h0.06l80.33-1.29C636.44,1666.27,632.39,1681.92,628.66,1696.3z
	 M789.59,1654.92c2.26,7.84,4.4,15.25,5.29,22.78c1.28,10.48,0.9,21.22,0.49,32.58c-0.45,12.69-0.91,25.8,1.12,38.67
	c3.52,22.38,10.39,44.77,17.03,66.43c4.95,16.13,10.08,32.82,13.65,49.08c1.52,6.86,2.69,15.65,3.94,24.96
	c3.93,29.35,8.82,65.88,29.56,83.2c10.81,8.99,25.65,14.82,40.01,20.46c7.05,2.77,13.72,5.39,19.41,8.2
	c2.89,1.43,5.86,2.95,8.74,4.42c12.34,6.32,25.11,12.84,38.9,16.69c5.46,1.53,10.43,1.72,14.16,1.72c1.81,0,3.58-0.05,5.3-0.1
	c1.7-0.05,3.32-0.1,4.94-0.1c1.86,0,3.41,0.06,4.88,0.19c1.08,0.1,2.25,0.19,3.49,0.28c2.43,0.18,7.91,0.57,11.31,1.38
	c-2.18,2.05-6.97,3.26-13.12,3.26c-1.66,0-3.36-0.09-5.08-0.27c-2.64-0.26-5.35-0.39-8.28-0.39c-6,0-11.9,0.55-17.61,1.08
	c-5.68,0.52-11.04,1.02-16.49,1.02H951c-11.96-0.02-23.49-2.73-35.69-5.61c-12.4-2.93-25.22-5.95-38.67-5.95
	c-0.59,0-1.18,0.01-1.75,0.02c-8.15,0.15-16.33,1.86-24.23,3.52c-8.06,1.7-15.67,3.3-22.99,3.3c-4.36,0-8.2-0.58-11.73-1.78
	c-4.94-1.66-7.29-4.71-8.13-10.51c-0.94-6.55,0.37-15.06,1.64-23.28c1.23-8.01,2.39-15.57,1.74-22.22
	c-2.85-28.96-19.68-56.63-34.52-81.05c-2.54-4.16-4.93-8.1-7.22-11.99c-23.07-39.14-34.93-75.75-38.47-118.74
	c-1.66-19.65-4.76-45.5-14.06-71.18c-0.47-1.31-1.02-3.06-1.66-5.09c-3.05-9.73-6.01-18.32-10.63-23.67
	c29.55-0.48,69.42-1.08,83.87-1.29L789.59,1654.92z M699.9,1648.31c-5.59,0.09-10.75,0.18-15.26,0.26c-1.24-0.07-2.55-0.1-3.91-0.1
	c-3,0-6.1,0.15-9.08,0.34h-0.06l-107.89,1.74c2.23-11.69,3.89-23.5,5.35-35.22l212.78,1.94c0.72,5.25,1.5,10.5,2.36,15.71
	c0.77,4.76,1.9,9.42,3.14,13.97C771.26,1647.2,729.1,1647.83,699.9,1648.31z M769.37,1510.26c1.89,18,3.85,36.63,6.11,54.94
	c0.76,6.17,1.49,12.48,2.2,18.58c0.81,6.94,1.63,13.98,2.51,21.05l-209.67-1.7c0.15-1.28,0.3-2.55,0.45-3.83
	c1.03-8.8,2.1-17.9,3.32-26.7l0.03-0.22l0.01-0.22l8.61-104.13c1.32-9.06-0.54-16.51-2.34-23.71c-0.94-3.78-1.83-7.35-2.29-11.21
	c-0.06-0.47-0.11-0.93-0.16-1.4l178.69-21.5c0.07,0.49,0.15,0.98,0.23,1.48c0.4,2.47,0.79,4.96,1.18,7.49
	C762.96,1449.37,766.22,1480.32,769.37,1510.26z M763.65,1294.78l-154.11-21.66c0-0.31-0.01-0.62-0.04-0.94
	c-0.52-5.61-1.08-11.33-1.69-17.16l155.06,12.59C763.52,1276.81,763.93,1285.81,763.65,1294.78z M807.25,1090.78l-14.78,37.64
	c-3.52,8.95-8.08,17.47-12.48,25.71c-4.65,8.67-9.37,17.5-13.02,27.05l-170.61-2.1c-4.02-19.2-9.14-38.68-15.81-57.93l-12.58-36.31
	l-0.8,10.35l-44.78-4.21l3.81-33.06l0.17-1.49l-0.12-0.46c0.56-4.82,1.09-8.98,1.42-10.64c1-5,10.78-32.92,29.33-39
	c4.97-1.63,10.42-2.97,16.39-4.06c5.08,14.27,23.03,63.21,34.94,77.4c14,16.66,45.34,32.66,76,34C715,1115,737,1110.33,761,1097
	c16.68-9.26,31.1-50.72,38.35-75.16c21.49,7.8,42.59,18.08,50.17,38.97c4.32,11.88,6.32,25,7.32,38.51h-49.45L807.25,1090.78z
	 M807.58,1111.06h49.9c0.18,4.51,0.29,9.04,0.38,13.55c-13.63,2.05-41.65-0.47-50.08-1.31L807.58,1111.06z M809.07,1177.39
	c6.99,0.65,21.38,1.85,29.26,1.61c7.33-0.23,17.01-1.23,22.36-1.83c0.46,4.27,0.89,8.55,1.28,12.81
	c-5.31,0.93-16.64,2.69-25.97,2.69c-8.93,0-20.35-0.67-26.31-1.06C809.46,1186.93,809.25,1182.19,809.07,1177.39z M1035.51,1452.78
	c5,2.44,11.23,4.23,17.26,5.97c2.37,0.68,5.44,1.56,8.28,2.51c-1.92,0.3-3.62,0.94-5.12,1.94l-0.05,0.03l-0.05,0.04
	c-3.39,2.31-5.02,6.44-7.92,15.32c-0.46,1.43-1.09,3.35-1.36,3.99c-0.4,0.75-0.84,1.58-1.31,2.46c-2.39,4.56-8.76,16.68-13.47,16.68
	c-0.21,0-0.42-0.02-0.64-0.07l-8.48-1.9c-3.27-2.74-8.65-4.51-16.79-7.04c-2.81-0.88-6.65-2.07-7.77-2.66
	c-6.51-3.39-12.59-7.39-18.6-12.24c-11.88-9.57-23.11-20.78-33.96-31.63c-3.83-3.82-7.78-7.77-11.72-11.61
	c-25.97-25.23-55.64-54.88-79.25-87.51c-11.77-16.23-22.36-32.83-32.36-50.71c-5.88-10.62-7.06-29.26-8.01-44.23
	c-0.32-5.05-0.63-9.82-1.08-14.13c-1.27-12.41-2.22-24.81-2.95-37.53c5.95,0.72,16.75,1.87,25.84,1.87c9.66,0,21.25-1.3,26.9-2.01
	c1.15,13.48,2.06,26.65,2.91,38.89c0.11,1.58,0.2,3.13,0.29,4.64c0.65,10.87,1.27,21.14,7.59,32.45
	c4.58,8.24,10.25,15.84,15.73,23.2c4.4,5.9,8.56,11.48,12.19,17.35c7.8,12.62,15.05,25.97,22.06,38.87
	c3.28,6.05,6.68,12.3,10.1,18.43c9.7,17.37,21.7,37.58,37.15,55.78l1.17,1.38c5.93,7.04,11.53,13.68,22.47,16.11
	c2.14,0.49,6.12,0.74,11.83,0.74c15.53,0,17.71-1.5,19.5-3.31C1027.78,1447.92,1031,1450.58,1035.51,1452.78z"/>
<path d="M734.267,877.386c0,0,1.499,0.971,3.747,2.427c1.129,0.729,2.447,1.579,3.859,2.49c0.706,0.475,1.445,0.957,2.22,1.43
	c0.764,0.492,1.594,0.904,2.424,1.339c0.851,0.396,1.706,0.815,2.597,1.177c0.433,0.195,0.899,0.354,1.356,0.495
	c0.247,0.075,0.418,0.141,0.726,0.211l0.604,0.138c0.763,0.149,1.699,0.253,2.502,0.265c0.813,0.022,1.593-0.011,2.327-0.103
	c0.728-0.083,1.415-0.234,2.023-0.401c0.612-0.179,1.147-0.381,1.6-0.615c0.9-0.436,1.427-0.977,1.626-1.142
	c0.606-0.485,0.704-1.369,0.219-1.976c-0.485-0.606-1.369-0.704-1.976-0.219c0.094-0.076,0.111-0.13-0.006-0.181
	c-0.107-0.054-0.319-0.103-0.622-0.179c-0.646-0.157-1.57-0.381-2.678-0.649c-0.574-0.133-1.208-0.277-1.886-0.415
	c-0.688-0.15-1.321-0.253-2.171-0.374c-0.367-0.034-0.741-0.07-1.118-0.105c-0.364-0.039-0.741-0.025-1.129-0.082
	c-0.774-0.064-1.576-0.195-2.376-0.364c-0.803-0.181-1.605-0.386-2.411-0.592c-0.806-0.198-1.594-0.444-2.356-0.69
	c-1.511-0.523-2.869-1.166-4.008-1.759c-0.575-0.288-1.076-0.598-1.53-0.855c-0.453-0.26-0.839-0.499-1.147-0.71
	c-0.308-0.207-0.558-0.369-0.709-0.484c-0.159-0.118-0.243-0.181-0.243-0.181c-0.021-0.016-0.048-0.035-0.071-0.049
	c-0.595-0.385-1.389-0.215-1.774,0.379C733.503,876.206,733.673,877,734.267,877.386z"/>
<path d="M763.75,477.84c5.5,4.87,10.25,7.77,22.74,7.77c9.26,0,13.01-1.39,21.76-9.81c3.433-3.305,4.973-6.567,5.651-9.034
	c0.59-2.145-0.994-4.266-3.219-4.266h-20.705c-0.841,0-1.521-0.679-1.518-1.52c0.003-0.604,0.005-1.225,0.01-1.86
	c0.01-2.23,0.05-4.64,0-7.19c-0.01-2.55-0.08-3.24-0.16-6.02c-0.18-5.56-0.36-7.5-0.34-13.43c0.03-5.94,0.24-9.87,0.39-15.44
	c0.08-2.78,0.14-5.47,0.14-8.02c0.01-2.55-0.02-4.96-0.05-7.18c-0.09-4.45-0.24-8.16-0.41-10.76c-0.15-2.6-0.29-4.08-0.29-4.08
	c-0.07-0.79-0.7-1.44-1.51-1.51c-0.93-0.09-1.74,0.59-1.83,1.51c0,0-0.13,1.48-0.29,4.08c-0.16,2.6-0.32,6.31-0.4,10.76
	c-0.03,2.22-0.07,4.63-0.06,7.18c0.01,2.55,0.07,5.24,0.14,8.02c0.16,5.57,0.37,9.5,0.4,15.44c0.02,5.93-0.17,7.87-0.34,13.43
	c-0.08,2.78-0.15,3.47-0.17,6.02c-0.04,2.55-0.01,4.96,0,7.19c0.005,0.633,0.011,1.251,0.016,1.853
	c0.008,0.843-0.674,1.527-1.518,1.527h-20.613c-2.103,0-3.689,1.912-3.287,3.977C758.969,469.971,760.475,474.938,763.75,477.84z"/>
<g>
</g>
<g>
</g>
<g>
</g>
<g>
</g>
<g>
</g>
<g>
</g>
</svg>
