<?xml version="1.0" encoding="iso-8859-1"?>
<!-- Generator: Adobe Illustrator 19.2.1, SVG Export Plug-In . SVG Version: 6.00 Build 0)  -->
<svg version="1.0" id="Paint" xmlns="http://www.w3.org/2000/svg" xmlns:xlink="http://www.w3.org/1999/xlink" x="0px" y="0px"
	 width="2048px" height="2048px" viewBox="0 0 2048 2048" enable-background="new 0 0 2048 2048" xml:space="preserve">
<path fill="#FFFFFF" d="M1035.6,190.5c0.2,3.8-3.5,7.3-11.6,7.5c-13.7,0.3-58.7-27-68-31.3c-9.3-4.3-37.7-4-50.7-3.4
	c-13,0.7-68.7,32-76,34.7c-7.4,2.7-40,5.3-45.7,5c-5.7-0.3-4.3-2-4.3-4.3c0-1,0.7-3.1,2.5-5.5c17.3-4.1,49.3-10.9,53-13.4
	c15.3-10.5,32.3-16,52.1-19.1c30-4.7,59.9-5.6,84.9,3.9C993.2,172.6,1014,181.7,1035.6,190.5L1035.6,190.5z"/>
<path fill-rule="evenodd" clip-rule="evenodd" fill="#FFFFFF" d="M914.1,474.3l159.9,14.4l1.2-0.7c6.5-3.7,12.7-7.2,15-15.6h-46.8
	c-19.3,0.7-40.1,1.5-48.9,1.9c-5.7,0.2-17.6,0.3-31.3,0.3C947.3,474.5,928.7,474.4,914.1,474.3z"/>
<path fill-rule="evenodd" clip-rule="evenodd" fill="#FFFFFF" d="M850,474.4l187.5,46c5.3-0.2,8.1-0.3,13.1-0.3c0.4-2.3,0.7-3.7,1-5
	v-0.1l-10.2-2.1l-186.1-38.6C853.5,474.4,851.8,474.4,850,474.4z"/>
<path fill-rule="evenodd" clip-rule="evenodd" fill="#FFFFFF" d="M829.3,475.8l157.1,62.7c0.5,0.1,1,0.2,1.4,0.6
	c0.1,0.1,0.2,0.2,0.3,0.3c0.7,0.8,1.3,1.3,2,1.6c0.6,0.3,1.1,0.5,1.7,0.5c2.4,0.1,4.7-2.5,7-4.9c1.4-1.5,2.8-3,4.3-4.1l-169.2-58
	c0,0,0,0-0.1,0h-0.9C831.7,474.5,830.3,475,829.3,475.8z"/>
<path fill-rule="evenodd" clip-rule="evenodd" fill="#FFFFFF" d="M823.7,484.6l78.2,72.1c6.3-1.5,12.6-2.8,19.7-4.2
	c2.3-0.5,4.7-0.5,7.1-0.5h1.9c5.4,0.1,10.6,0.1,14.6-3.4l-118.5-69.1C826,480.9,825,482.7,823.7,484.6z"/>
<path fill-rule="evenodd" clip-rule="evenodd" fill="#FFFFFF" d="M478.5,474.3c2.8,6.4,8.3,9.5,14,12.8l1.3,0.7l9.9-0.9l104.1-9.4
	c-1.1,0-2.2,0-3.3,0c-4.6,0-8.3-0.1-10.9-0.2c-13.9-0.6-86.3-3.2-98.3-3.2c-6,0-10.3,0.9-13.3,0.9
	C480.5,475.1,479.4,474.9,478.5,474.3z"/>
<path fill-rule="evenodd" clip-rule="evenodd" fill="#FFFFFF" d="M516.1,514.1L516.1,514.1c0.3,1.4,0.6,2.7,1,5
	c5,0.1,7.9,0.2,13.2,0.3l180.3-44.3c-2.1,0-4.1-0.1-6.2-0.1h0c0,0,0,0,0,0L516.1,514.1z"/>
<path fill-rule="evenodd" clip-rule="evenodd" fill="#FFFFFF" d="M564.5,531.6c1.5,1.1,2.9,2.6,4.3,4c1.2,1.2,2.3,2.5,3.5,3.4
	c1.2,0.9,2.4,1.5,3.5,1.5c0.6,0,1.1-0.2,1.7-0.5c0.7-0.3,1.3-0.9,2.1-1.6c0.1-0.1,0.2-0.2,0.3-0.2c0.4-0.4,0.9-0.6,1.5-0.6
	l154.9-61.8c-2.4-0.1-5.2-0.2-8.3-0.3h0l0,0L564.5,531.6z"/>
<path fill-rule="evenodd" clip-rule="evenodd" fill="#FFFFFF" d="M622.5,547.6c3.9,3.5,9.1,3.5,14.6,3.4c3,0,6.1-0.1,9.1,0.5
	c7.1,1.4,13.4,2.7,19.7,4.2l80.5-74.2c-0.3-0.7-0.6-1.3-0.9-1.9c-0.5-1-1.2-1.9-2.1-2.5l-120.7,70.3L622.5,547.6z"/>
<path fill="#FFFFFF" d="M491.8,492.6c4.6,5.7,9.2,11.5,14.7,18.4l8,0.9L692,475.1c-6.3,0-11.9,0.2-15.9,0.4
	c-7.2,0.5-19.3,1-32.2,1.4h0l-149.8,13.5l-0.4,0.4C493.1,491.3,492.5,491.9,491.8,492.6z"/>
<path fill="#FFFFFF" d="M532.2,521.7c0.7,1.5,1.4,3.1,2.1,4.7c1.4,3.2,2.7,6.3,3.9,8.1c3-0.1,5.8,0.9,8.6,1.9
	c5.4,2,9.4,3.4,12.7-4.1c0.2-0.4,0.4-0.9,0.6-1.3l0.2-0.6l160.3-54.9h-0.1c0,0,0,0,0,0s0,0,0,0l-92.2,22.7L532.2,521.7z"/>
<path fill="#FFFFFF" d="M585,538.9c0.5,0.3,1,0.6,1.4,1c1.5,1,3.1,2.1,4.3,2.2c1.2,0.1,3.2-1,4.7-1.9c2-1.1,3.7-2.1,5.1-1.6
	c0.5,0.2,1.1,0.5,1.4,1.4c2.9,7.2,5.3,6.2,8.9,4.8c1.5-0.6,3.1-1.2,4.9-1.2c1.6,0,3.2,0.5,4.9,2.1l103.6-60.4l10.8-6.3L585,538.9z"
	/>
<path fill="#FFFFFF" d="M668.7,556.5c6,1.4,11.7,3,18.7,4.8l8.7,2.3h0l54.5-75c-1.2-1.6-2.3-3.2-3.1-4.7L668.7,556.5z"/>
<path fill="#FFFFFF" d="M823.3,548.3l-0.9,5.8v0.1c0,0.1,0.1,0.1,0.1,0.2c0.1,0.2,0.2,0.3,0.2,0.4c0,0,0,0.1,0.1,0.1
	c0.1,0.2,0.2,0.4,0.3,0.5c1.2,1.8,5,5.8,16.4,14.9c0.2,0.2,0.4,0.3,0.6,0.5h0c0.4,0.3,0.7,0.6,1.1,0.9c1.5,1.1,2.7,2.1,3.7,2.9
	v-27.9c0-4.5-10.5-20.4-22.7-37.1c-1.4,5.8-4.1,11.1-7.8,15.5L823.3,548.3z"/>
<path fill="#FFFFFF" d="M765,567.3l8.3,12.4l0.9,1.3l9.9,14.8l11.1-14.5l0.9-1.2l5.5-7.1l-1.3-12.3l-2.9-5.2L796,537
	c-3,0.8-6.2,1.3-9.5,1.3c-4.3,0-8.5-0.8-12.3-2.2L765,567.3z"/>
<path fill="#FFFFFF" d="M798.4,536.2l1.3,18.1v0l1.4,2.5l1.6,2.9l5.8,10.3l0.8,1.3l0.4,0.7l3.5,6.2l0.7,1.2l1.8,3.1l0.5-3.5l0.2-1.3
	h0l0.6-3.8l0.5-3.6l0.8-5.3l1.6-10.7c0,0,0,0,0,0l0.4-2.6l0.3-2.1l0,0.1l0.1-0.6l0.1-0.7l-1.8-4.7l-0.1-0.3l-5.6-14.5l0-0.1
	l-0.7-1.8c-0.3,0.3-0.6,0.6-0.9,0.9c-3.3,3.2-7.2,5.8-11.5,7.6c-0.4,0.2-0.8,0.3-1.2,0.5C798.7,536.1,798.6,536.2,798.4,536.2z"/>
<path fill="#FFFFFF" d="M740.2,557.7v25.9l6.2-5.8l1.1-1.1l11.2-10.5l9.5-32.9c-3.7-2.2-7-5.1-9.8-8.4l-12.3,22v0l0,0.1l-3.7,8.2
	l-1,0.4h0L740.2,557.7z"/>
<path fill="#FFFFFF" d="M719.7,560.5l0.7-0.2l1.3-0.5l1.3-0.4l16.7-5.9l0.5-0.2l0.4-0.2v0l3-6.7l0-0.1l11.8-26
	c-2.1-3.5-3.7-7.4-4.6-11.5l-21.2,23.1l-4.1,4.5c-0.2,0.4-0.5,0.8-0.7,1.2l-1.2,5.7l-0.6,2.6l-1.3,5.8l-1.3,5.8L719.7,560.5z"/>
<path fill="#FFFFFF" d="M867.6,474.3l185.7,38.5l8-0.9c5.5-6.9,10.1-12.7,14.7-18.4c-0.7-0.7-1.3-1.2-1.9-1.8l-0.5-0.5l-189-17
	c-0.1,0-0.1,0-0.1,0h0C879.8,474.2,873.8,474.3,867.6,474.3z"/>
<path fill="#FFFFFF" d="M847,476.3l159.9,54.8l0.6,0.2l0.2,0.6c0.2,0.5,0.4,0.9,0.6,1.3c3.3,7.6,7.3,6.1,12.7,4.1
	c2.6-0.9,5.3-1.9,8.1-1.9h0.5c1.2-1.8,2.5-4.9,3.9-8.1c0.7-1.6,1.4-3.1,2.1-4.7L847,476.3z"/>
<path fill="#FFFFFF" d="M832.7,480l114.4,66.6c3.5-3.3,7-2,9.8-0.9c3.6,1.4,6,2.3,8.9-4.8c0.3-0.9,0.9-1.2,1.4-1.4
	c0.3-0.1,0.5-0.1,0.8-0.1c1.3,0,2.7,0.8,4.3,1.8c1.6,0.9,3.5,2,4.8,1.9c1.1-0.1,2.8-1.2,4.2-2.2c0.5-0.3,1-0.6,1.4-0.9L832.7,480z"
	/>
<path fill="#FFFFFF" d="M819.9,489.6c0.1,0.2,0.2,0.4,0.2,0.5c1,2.4,2.2,5.1,2.8,7.4l20.3,27.9l28.4,39l8.7-2.3
	c7-1.9,12.8-3.4,18.7-4.8l-76.8-70.7c-0.6,0.8-1.2,1.6-1.9,2.4C820.2,489.2,820.1,489.4,819.9,489.6z"/>
<path fill="#FFFFFF" d="M755.2,1399.7l-177.7,18.9c0.2-17.5,4-35.6,8.6-53.1l166.8,11v0C753.2,1384.2,754.1,1391.9,755.2,1399.7z"/>
<path fill="#FFFFFF" d="M763.3,1192.7c-1.4,5.5-2.4,11.3-2.8,17.5c0,0.1,0,0.1,0,0.2l-158.8-2.6c-1-6.1-2-12.2-3.2-18.3
	L763.3,1192.7z"/>
<path fill="#FFFFFF" d="M547.5,1256.4c0,0.2-0.1,0.5-0.1,0.8c-0.5,2.9-1.1,5.8-1.8,8.9c-0.5,2.5-1.1,5.1-1.6,7.7
	c-5.9,0.3-16.8,0.7-24,0.3c-6.8-0.4-15-3-19.7-4.6c0.6-5.5,1.2-11,1.9-16.5c4.8,1.1,13.6,3,20.2,3.5
	C529.5,1256.8,541.7,1256.6,547.5,1256.4z"/>
<path fill="#FFFFFF" d="M862,1190c-5.3,0.9-16.6,2.7-26,2.7c-8.9,0-20.3-0.7-26.3-1.1c-0.2-4.7-0.4-9.4-0.6-14.2
	c7,0.7,21.4,1.8,29.3,1.6c7.3-0.2,17-1.2,22.4-1.8C861.2,1181.4,861.6,1185.7,862,1190z"/>
<path fill="#FFFFFF" d="M857.9,1124.6c-13.6,2-41.6-0.5-50.1-1.3l-0.2-12.2h49.9C857.7,1115.6,857.8,1120.1,857.9,1124.6z"/>
<path fill="#FFFFFF" d="M566.5,1104.1l-1.4,17.7c-6.3,0.7-18.6,1.8-25.8,0.8c-6.7-0.9-15.2-3-20.1-4.3l1.9-16.2L566.5,1104.1z"/>
<path fill="#FFFFFF" d="M626.9,873c-5.3,2.7-23.2,12.4-40.8,30.5c-18.8,19.3-40.5,52-38.1,98.7c-3.5,1.9-6.4,4.2-8.6,6.7
	c-7.2,8.6-12.8,20.2-16.5,31.4c-1.5-8.8-2.8-19.6-2.9-31.8c-0.2-19.8,2.6-38.6,8.2-55.8c14.5-44,46.8-75.2,96.2-93
	C625,863.5,625.9,868,626.9,873z"/>
<path fill="#FFFFFF" d="M626.6,880c-0.5,5-1.2,11.4-1.8,17.5c-1.9,1.9-12.5,12.7-22.8,28.8c-18.1,28.4-21.1,51.3-20.2,65.9
	c-9.9,1.6-19.9,4-28.1,7.4c-1.1-34.7,11.1-65.5,36.4-91.6C604.6,893.1,619.5,883.9,626.6,880z"/>
<path fill="#FFFFFF" d="M624,907.2c-0.2,2.3-0.3,4.2-0.3,5.8c-0.3,8.2-11.4,53.7-17,76.6c-5.5,0.3-12,0.8-18.7,1.7
	C585.8,954.6,612.4,920.3,624,907.2z"/>
<path fill="#FFFFFF" d="M533.7,1425.7c-3,15-6.3,31.7-5.6,46.7c-5.4,0.8-13.7,1.9-16.7,1.9c-3.4,0-10.9-2.2-14.8-3.5
	c0.6-18.4-0.4-36.7-1.4-54.5c5.1,1.1,13.7,2.8,18.2,3c4.7,0.2,15.8-0.6,21.8-1.2C534.7,1420.6,534.2,1423.1,533.7,1425.7z"/>
<g>
</g>
<g>
</g>
<g>
</g>
<g>
</g>
<g>
</g>
<g>
</g>
</svg>
