<?xml version="1.0" encoding="utf-8"?>
<!-- Generator: Adobe Illustrator 19.2.1, SVG Export Plug-In . SVG Version: 6.00 Build 0)  -->
<!DOCTYPE svg PUBLIC "-//W3C//DTD SVG 1.0//EN" "http://www.w3.org/TR/2001/REC-SVG-20010904/DTD/svg10.dtd">
<svg version="1.0" xmlns="http://www.w3.org/2000/svg" xmlns:xlink="http://www.w3.org/1999/xlink" x="0px" y="0px" width="512px"
	 height="512px" viewBox="0 0 512 512" enable-background="new 0 0 512 512" xml:space="preserve">
<g id="Layer_1">
</g>
<g id="Layer_2">
	<g>
		<path fill="#FFFFFF" d="M27.3,64.5c1.9,0.1,3.7,2.2,5.7,6.4c1.9,4.2,1.7,6.9-0.5,8.2h-0.4c-2.9,2.9-4.5,4.3-4.7,4.3
			c-3.2,4.3-5,6.4-5.6,6.4c0-0.6-0.3-0.8-0.8-0.8l5.1-8.2c-1.8-4.6-3.1-6.9-3.9-6.9h-0.4c-1.3,0.9-2.6,2.4-3.9,4.7
			c0.6,0.9,1.1,2.7,1.7,5.6c0,2.2-2.4,3.8-7.3,4.7h-0.4C7.3,88.4,5,86.6,5,83.4V83c1.6-4.6,4.2-6.9,7.7-6.9c0.9,0.6,1.8,0.9,2.6,0.9
			C22.5,68.7,26.5,64.5,27.3,64.5z M8,84.7c0.5,1.4,1.7,2.2,3.4,2.2h1.3c2.7,0,4.3-1,4.7-3c0-2.7-1.7-4.5-5.1-5.6
			C9.4,78.3,8,80.4,8,84.7z M12.3,81.7h1.3l0.4,2.2c-0.9,0.3-1.3,0.6-1.3,0.9c-0.5-0.3-1-0.4-1.3-0.4v-1.7
			C11.5,82,11.8,81.7,12.3,81.7z M24.3,71.8c1,3.9,2.3,6.2,3.9,6.9c2.3-1.6,3.5-2.6,3.5-3v-0.4c-2.1-4.9-3.5-7.3-4.3-7.3h-0.4
			C25.2,69,24.3,70.2,24.3,71.8z"/>
		<path fill="#FFFFFF" d="M99,68c5.2,0,8.9,1.6,11,4.9c2.9-2.5,5.5-3.7,7.8-3.7h2.8c1.6,0.2,2.5,0.6,2.5,1.2v0.8
			c0,0.6-0.3,0.8-0.8,0.8c-3.4-1.1-5.2-1.6-5.3-1.6c-3.5,2.2-5.3,4.3-5.3,6.1v2c0,2.4,1.5,3.9,4.5,4.5c4.6,0.6,6.9,1.3,6.9,2v1.2
			h-3.3c-0.6-0.5-2.7-1-6.1-1.6c0-0.7-1.6-1.5-4.9-2.5c-1.2,1.2-4.1,2.5-8.6,3.7c-0.3,0-0.4-0.1-0.4-0.4l-2,0.4l-1.6-0.4v-1.2
			c0.1-0.5,0.3-0.8,0.8-0.8h2c5,0,8.1-1.8,9.4-5.3c-0.5-5.2-2.8-7.8-6.9-7.8v-0.4c-1.9,0.5-3.5,0.8-4.9,0.8l-0.4-0.8
			C96.1,69.7,97.1,69,99,68z M101,74.5l0.4,0.8V77c0,0.3-0.5,0.8-1.6,1.6c-1.6-0.4-2.5-1.4-2.5-2.9C98.4,75,99.6,74.5,101,74.5z
			 M119,75.8h0.4c1,0.5,1.7,1.3,2,2.5c-0.4,1.1-0.8,1.6-1.2,1.6H119c-0.4,0-0.9-0.7-1.6-2C117.9,76.6,118.4,75.9,119,75.8z"/>
		<path fill="#FFFFFF" d="M148.4,62.5l0.9,0.1l0.2,0.1c0.3,0.1,0.7,0.2,1.1,0.3c0.7,0.7,1,1.6,1.1,2.7c0,0.3,0.1,0.6,0.3,0.9
			c0.5,0.4,1.1,0.8,1.9,1.1l0.2,0.2v0.3c-0.9,0.2-1.8,0-2.7-0.6l-0.6-0.1c-0.2,0.1-0.4,0.2-0.5,0.5c0.4,0.4,1,0.8,1.7,1.1l0.7,0.7
			l0.3,0.5c0.1,0.4,0.3,0.9,0.5,1.5l0.5,1.8l0.2,0.4c0.2,0.1,0.4,0.3,0.5,0.5c0.3,0.2,0.5,0.5,0.8,0.8l0.1,0.1
			c0.1,0.1,0.3,0.2,0.4,0.5c0.1,0.2,0.2,0.4,0.3,0.4c0.2,0.3,0.4,0.5,0.5,0.7l0.7,0.9l0.1,0.1c0.3,0.3,0.5,0.6,0.7,0.9l0.3,0.6
			c0.1,0.3,0.3,0.5,0.6,0.7l1.4,1.5c0.5,0.5,0.9,1,1.2,1.5l1,1l0.3,0.3l0.1,0.2c0.1,0.1,0.2,0.2,0.3,0.3l0.3,0.3
			c0.1,0,0.2,0.1,0.3,0.3l0.3,0.4l0.9,0.9l0.2,0.2l0.1,0.1l0.3,0.3l0.2,0.1c0.1,0.3,0.1,0.7,0.1,1.2c-0.2-0.1-0.4-0.1-0.6,0l0.1,0.4
			l0.1,0.5c-0.6,0.5-1.3,1-2.3,1.3l-0.1,0.1c-0.4,0.4-1,0.7-1.7,0.9c-0.2-0.1-0.4-0.3-0.6-0.6c-0.3-1.1-0.8-2.2-1.6-3.3l-0.3-0.7
			l-0.2-0.3l-0.7-0.7l-0.8-0.3L157,86c0,0.2,0,0.4-0.1,0.6c0.1,1-0.1,1.8-0.6,2.5c-0.4-0.1-0.8-0.5-1-1c-0.4-0.5-0.8-0.6-1.3-0.2
			c0,0.4,0,0.9,0.1,1.4v0.9l0.3,0.3c0.2,0,0.5,0,0.9,0.1h1.5l0.2,0.1l0.1,0.2c0,0.8-0.4,1-1.2,0.9l-2.3-0.1l-0.3,0.1l-0.9-0.1
			l-0.3-0.1c-0.3,0.1-0.7,0.2-1.1,0.1l-1.1-0.1l-0.5,0.1H147l-0.4-0.1c-0.3-0.3-0.3-0.6-0.1-0.9c0.4-0.1,1-0.2,1.7-0.1h0.7
			c0.2,0,0.5,0,0.7,0l0.2-0.3c0.7-2.9,0.4-6-0.8-9.2l-0.2-0.5l-0.6-1.9c-2-2.4-2.1-4.5-0.3-6.4c0-1.3-0.6-1.9-1.7-1.8
			c-0.1-0.1-0.3-0.2-0.4-0.5c0.2-0.9,0.8-1.5,1.9-1.9l0.3-0.3l-0.7-0.5c-2.5,1.1-3.7,0.3-3.7-2.3c-0.8-0.4-0.9-0.9-0.5-1.4
			c0.6,0,1.2,0.2,1.7,0.6c0.2,0.5,0.2,1.1,0.2,1.7l0.1,0.4l0.1,0.1l0.3,0.1l0.3-0.3l0.1-0.1C145.6,64.4,146.3,63,148.4,62.5z
			 M148.4,63.3c-1.3,0.4-1.7,1.2-1.3,2.5c0.5,1,1.4,1.3,2.5,0.9c0.5-0.4,0.8-1,0.9-1.8C150.2,63.9,149.5,63.3,148.4,63.3z
			 M148.7,69.4c-0.1,0-0.3,0.1-0.5,0.3c0.1,0.1,0.2,0.2,0.3,0.4c0.1,0.4,0.2,1,0.3,1.7v0.4l0.1,0.5c1.3,0.4,2,0.9,2.2,1.5
			c-0.1,0.2-0.3,0.3-0.5,0.3c-2.6-0.9-3.4-0.1-2.4,2.4c0.3,0.2,0.6,0.6,0.9,1l1.3,0.9l0.3,0.1c0.6,0.5,1.3,0.9,2.3,1.1l2,1.2
			c0.3,0.2,0.5,0.3,0.7,0.3l0.2,0.2l0.2,0.1c0,0,0.1,0.1,0.3,0.1l1.1,0.6l0.3,0.2c0.3,0.1,0.7,0.3,1.1,0.6l0.5,0.2
			c0.2,0.1,0.4,0.3,0.7,0.4l0.3,0.1l0.8,0.2c-0.1-0.4-0.4-0.7-0.7-1.1l-0.8-1.1c-0.1-0.1-0.3-0.2-0.4-0.5l-0.3-0.4l-0.1-0.1h-0.7
			l-0.4-1.5c-0.1-0.1-0.3-0.3-0.4-0.5l-0.1-0.1l-0.7-0.9l-0.1-0.1l-0.5-0.6l-0.1-0.1c-0.1-0.2-0.3-0.4-0.6-0.7l-0.2-0.3l-0.3-0.2
			l-2.1-2l-0.2-0.3l-0.1-0.5c0-0.7-0.1-1.3-0.2-1.7l-0.1-0.5l-0.1-0.3c-0.2-0.2-0.4-0.4-0.5-0.6l-0.5-0.5c0,0-0.1,0-0.3,0
			c0.1,0.7-0.2,1.2-0.9,1.4c-0.6-0.4-0.9-1-0.9-1.8L148.7,69.4z M150.4,80.2c-0.1,0.8,0.1,1.5,0.5,2.3c0,0.4,0.1,0.8,0.3,1.2v0.2
			l0.3,1.3l0.1,0.2l0.5,0.1l0.3-0.5c-0.1-0.4-0.2-0.8-0.5-1.3l-0.1-0.3c-0.2-0.2-0.3-0.6-0.5-1l-0.3-0.8l-0.1-0.2
			c0-0.3,0.1-0.6,0.2-0.9C150.9,80.3,150.7,80.2,150.4,80.2z M152,87.2c-0.5,1-0.7,2.1-0.6,3.3c1.3,0.7,1.7-0.3,1.2-2.9
			C152.5,87.4,152.3,87.3,152,87.2z M151.5,80.7c0.1,0.3,0.3,0.6,0.5,0.9l0.6,1.4v0.2c0.3,0.4,0.5,0.8,0.7,1.3
			c0,0.1,0.1,0.3,0.3,0.5l0.1,0.2l0.3,0.7c0.3,0.3,0.7,0.6,1.3,0.8c0.8,0,0.9-0.8,0.5-2.3c0.1-0.2,0.2-0.3,0.5-0.3l0.8,0.4
			c0.3,0.1,0.6,0.3,0.8,0.5c0.3,0.1,0.6,0.3,0.7,0.4l0.2,0.1c0.3,0.3,0.6,0.6,0.9,1.1l0.2,0.2l0.1,0.1l0.4,0.4l0.5,0.7l0.2,0.5
			l0.5,0.8c0.1,0.2,0.3,0.5,0.5,0.7c0.7-0.1,1.3-0.5,1.9-1c-0.3-0.6-0.7-1.3-1.4-2.1l-0.4-0.5l-0.3-0.4l-0.5-0.5l-0.1-0.2l-0.7-0.4
			l-0.4-0.2c-0.2,0-0.4-0.2-0.5-0.3l-0.2-0.1c-0.2-0.2-0.5-0.3-0.9-0.5l-0.5-0.3c0,0-0.1-0.1-0.3-0.2l-0.5-0.3l-0.3-0.1
			c-0.2-0.2-0.5-0.4-0.9-0.5l-0.7-0.4c0,0-0.1-0.1-0.3-0.1l-1.9-0.8l-0.3-0.1l-1.1-0.5H151.5z"/>
		<path fill="#FFFFFF" d="M190.6,63.2h0.3c0.5,0,0.8,0.7,0.9,2.2c-0.2,1.9-0.3,3.1-0.3,3.5c3.8-0.4,7.1-0.6,9.9-0.6
			c1,0,2.8,0.2,5.4,0.6l0.3-0.6v-2.9c0-0.3,0.3-0.6,1-0.9h0.3c0.3,0,0.6,0.3,0.9,0.9v4.1c0,1.3-0.6,1.9-1.9,1.9
			c-1.2-0.4-3.3-0.8-6.4-1c-0.2,2.7-0.3,4.3-0.3,4.8c0,1.7,0.7,2.5,2.2,2.5c2.2,0,3.6,0.5,4.1,1.6c-0.2,0.7-0.6,1.1-1.3,1.3
			c-1.8-0.2-3.2-0.3-4.1-0.3V81c0.2,2.5,1.7,5.3,4.5,8.6v0.9c0,0.4-0.2,0.6-0.6,0.6h-0.3c-1.8,0-3.5-2.8-5.1-8.3h-0.9
			c-2,5.1-3.6,7.7-4.8,7.7c-0.4-0.5-0.6-0.9-0.6-1.3c2.8-3.9,4.2-7,4.2-9.2c-3,0-4.7,0.1-5.1,0.2c-0.8-0.3-1.3-0.6-1.3-1v-0.3
			c0.5-1.1,2.5-1.6,6-1.6h0.3l0.3-3.2V74l-0.3-3.2H196c-0.3,0-2,0.2-5.1,0.6l-1.3-0.3v-0.6c0-1.3,0.1-2.9,0.3-4.8l-0.3-1.9
			L190.6,63.2z"/>
		<path fill="#FFFFFF" d="M247.4,64.1c2.6,0,4.1,2.5,4.6,7.5v2.9c0,0.3-0.1,0.7-0.2,1.2s-0.2,1.3-0.2,2.5l0.4,5l-0.4,2.5
			c0.3,1.1,0.4,2,0.4,2.9c-1,0.8-2,1.3-2.9,1.3h-0.8l-2.5-0.4c-0.9,0.6-1.7,0.8-2.5,0.8h-3.7l-1.3-0.4l-1.2-0.8
			c0-0.4,0.4-0.8,1.2-1.3h9.5c0.4,0,0.8-0.4,1.2-1.2v-1.7c0.1-6.1,0.4-9.1,0.8-9.1c-0.3-0.4-0.4-1.1-0.4-2.1h-0.4
			c-1.5,1.5-2.9,2.4-4.2,2.9c-1.9,0-3.7-1.8-5.4-5.4C239.6,67.7,242.2,65.3,247.4,64.1z M242.9,69.5V72c0.5,1.1,1.4,1.7,2.9,1.7
			c1-0.5,1.7-1.3,2.1-2.5c-0.6-2.5-1.3-3.7-2.1-3.7h-0.8C244.6,67.5,243.9,68.2,242.9,69.5z"/>
		<path fill="#FFFFFF" d="M294.9,63.5h0.6c0.2,0.1,0.3,0.2,0.5,0.5l-0.1,0.7l-0.7,1.3c0,0.2-0.1,0.4-0.3,0.6l-0.1,0.1l-0.2,0.7v0.2
			l-0.5,1.2l-0.1,0.3l-0.8,1.3l-0.1,0.3c0.8,0.1,1.5,0.5,2.1,1.1c0.3,0.4,0.5,1,0.6,1.7l0.3,1.2c0,0.4,0,0.8,0.1,1.3v0.5l-0.1,0.2
			l0.1,0.3l0.3,2.6c0.1,0.2,0.2,0.5,0.2,0.9l0.3,0.9v0.2c0,0.5-0.2,1-0.6,1.3c-0.4,0-0.8-0.2-1.1-0.6l-0.2-2.8l-0.1-0.3l-0.1-0.3
			l-0.1-0.3l-0.1-0.3c-0.1,0.4-0.2,1-0.3,1.7l-0.1,0.3l-0.1,0.3l0.2,1.7v0.3l0.1,0.5v0.5l0.1,0.9l0.1,0.6c0.1,0.3,0.2,0.7,0.3,1.1
			l0.1,0.4l0.1,1.9l0.1,0.1v0.3l0.1,0.4l0.1,0.4v0.8c-0.4,0.6-1,0.8-1.7,0.5c-0.8,0.2-1.5,0.1-2.3-0.3c0-0.2,0.1-0.4,0.2-0.7
			c0.7,0,1.4-0.2,2.1-0.7c0-0.7,0-1.5-0.2-2.6l-0.2-0.7c0-0.2,0-0.4-0.1-0.7l-0.1-0.5l-0.6-0.5c-0.4,0-0.7,0-1.1,0.1
			c-0.4,0.6-0.7,1.4-0.9,2.3l-0.1,0.4l-0.1,0.1c-0.3,0.5-0.6,1.2-0.7,1.9l-0.1,1.1l-0.2,0.5l-0.2,0.3c-0.4,0.1-1,0.1-1.7,0.1
			c0,0-0.1,0.1-0.3,0.1c-0.5,0-0.9,0.1-1.1,0.1c-0.1,0-0.3-0.1-0.5-0.3l-0.7,0.2l-0.5-0.2l-0.8,0.3l-0.5-0.5v-1L284,88l-0.1-3.2
			l0.1-0.3v-1l-0.1-0.6l0.1-0.4V81c0-0.6,0-1.1,0-1.5l-0.1-0.5l-0.1-0.4l-0.1-0.9c0-0.5,0.1-0.9,0.3-1.2c0-0.4,0-0.8,0.1-1.3
			l0.1-0.2v-0.5c0-0.1,0.1-0.3,0-0.5s0-0.4,0-0.7c0-0.2,0-0.4,0.1-0.5c-0.1-0.4-0.2-1-0.1-1.5v-0.2l-0.3-0.3
			c-0.4,0.4-0.7,1.1-0.9,2.3c-0.2,0.1-0.5,0.1-0.7,0.1l-0.3-0.5V71l-0.1-0.2v-1.9l0.3-1.3l0.2-0.5l0.9-0.9c0.6-0.3,1-0.1,1.3,0.5
			l-0.2,0.5c-0.6,0.4-0.9,1-0.9,1.7l0.3,0.5c0.4,0,0.9,0.1,1.3,0.3l0.4,1v1.4l-0.1,0.5v1.5l-0.1,0.7l0.1,0.3c0,0.2,0,0.5,0,0.7
			l0.1,0.3c0.5,0.1,1,0,1.5-0.5c0.3-0.3,0.5-0.6,0.7-0.9c0.7-0.6,1.2-1.4,1.6-2.4c0.2-0.4,0.6-0.7,1-1.1c-1.2-2.2-0.3-4.2,2.7-5.9
			C293.3,64.5,294,63.9,294.9,63.5z M290,73.4l-0.6,0.7l-0.2,0.3l-0.3,0.4l-0.5,1.1c-0.1,0.2-0.3,0.4-0.6,0.7
			c-0.3,0.2-0.7,0.4-1.4,0.7l-0.3,0.3l-0.1,0.1l-0.6,0.5l-0.1,0.1l-0.1,1.9l0.1,0.5l-0.1,0.9c0,0.3,0,0.7,0,1.2
			c0,0.2-0.1,0.4-0.1,0.5c0,0.1,0,0.2,0.1,0.3v3l0.1,0.3V88c0.2,0.4,0.3,0.8,0.5,1.4l0.1,0.5l0.2,0.1c0.9-0.2,1.7-0.6,2.5-1.3
			c0.2-0.4,0.4-0.9,0.5-1.5l0.3-1.1l0.1-0.5l0.3-1.1c0-0.2,0-0.5,0.1-0.7c0.3-0.6,0.4-1.2,0.5-2l0.1-0.3l0.2-0.8v-0.2l0.1-1.1
			c0-0.5,0-1,0.1-1.3V78l0.1-0.2v-1.3l0.1-0.2c-0.2-0.4-0.3-0.8-0.3-1.4c-0.1-0.1-0.2-0.3-0.2-0.5v-0.2l-0.3-0.6L290,73.4z
			 M293.1,66.6c-0.3,0.2-0.6,0.4-0.9,0.7c-0.8,0.4-1.3,1.1-1.6,2.1c1.1,0.8,1.9,0,2.6-2.2C293.3,67,293.2,66.8,293.1,66.6z
			 M292.5,71.9c-0.4,0-0.8,0.2-1.2,0.5c0.1,0.5,0.3,1.1,0.5,1.9l0.3,1.8c0.1,0.2,0.3,0.3,0.5,0.3c0.2-0.2,0.3-0.4,0.3-0.6
			c-0.3-1.1-0.2-2,0.2-2.9c0-0.2,0.1-0.4,0.1-0.7C293,72.1,292.8,72,292.5,71.9z M292.6,77.8c-0.1,0.1-0.3,0.2-0.5,0.5l-0.1,1.1
			l-0.1,0.3l-0.2,1.1V81c0,0.4-0.1,0.8-0.1,1.1v0.5c0.5,0.5,1.1,0.6,1.8,0.3c0-0.5,0-1.2-0.2-2v-0.7c0-0.2,0.1-0.5,0.1-0.8l0.1-0.5
			v-0.8C293.2,77.9,293,77.8,292.6,77.8z M294.4,74.7c0,0.3,0,0.6,0.3,1v1.1l0.1,0.2v0.5l0.1,0.3v-1.1l-0.1-0.5
			C294.8,75.8,294.7,75.2,294.4,74.7z"/>
		<path fill="#FFFFFF" d="M323,67.7h0.8c3.2,3.3,5.7,5.1,7.6,5.3c1.8-1,3-1.5,3.8-1.5c3.2,0,5.3,1.7,6.5,5l-0.4,2.3v0.4
			c0.6,1,1.6,1.8,3.1,2.7h0.4v-5.3c0-1.8-0.1-4.6-0.4-8.4l1.9-0.4c0.3,0.3,0.7,1.6,1.1,3.8l-0.4,0.8V73c0,0.6,0.1,1.1,0.4,1.5
			c-0.3,0.5-0.4,1-0.4,1.5v0.8c0,0.3,0.1,0.4,0.4,0.4c-0.3,0.5-0.4,0.9-0.4,1.1c0.5,2.3,0.8,3.9,0.8,5v1.1c0,1.3-0.4,2.1-1.1,2.3
			c-1,0-3.1-1.7-6.5-5c-2.4,2-4.2,3.1-5.3,3.1c-2.2,0-4.2-1.3-6.1-3.8c-0.2-1-0.2-1.8,0-2.3c0.6-2,1-3,1.1-3c0-1-1.4-2-4.2-3.1
			c0-0.3-0.5-0.4-1.5-0.4c0,0.3-0.1,0.4-0.4,0.4l0.4,1.5l-0.4,2.3c0.3,1.4,0.4,2.4,0.4,3c0,1.2-0.3,3.2-0.8,6.1h-1.1
			c-0.3,0-0.6-0.5-1.1-1.5c0.5-2.5,0.8-3.9,0.8-4.2c0-0.2-0.1-1.8-0.4-4.9c0.2-2.5,0.3-4.1,0.4-4.6v-1.5
			C321.9,68.5,322.3,68.1,323,67.7z M331.1,79.1v1.1c0.6,1.3,1.9,1.9,3.8,1.9h1.1c2-1.4,3-3.2,3-5.3c0-1.5-0.8-2.5-2.3-3
			C333,74.1,331.1,75.9,331.1,79.1z"/>
		<path fill="#FFFFFF" d="M429.8,91.8c0.3-0.2,0.7-0.6,1.2-0.9c0.5-0.4,0.9-0.7,1.4-1.1c0.5-0.4,0.9-0.8,1.3-1.2
			c0.4-0.4,0.8-0.8,1-1.1c0.2-0.3,0.2-0.6,0-0.9c-0.2-0.3-0.5-0.7-0.9-1.1c-0.4-0.4-0.7-0.8-1-1.2c-0.3-0.4-0.4-0.8-0.3-1.2
			c0.1-0.5,0.3-0.9,0.4-1.4c0.2-0.5,0.4-0.9,0.6-1.3c0.4-0.7,0.7-1.3,0.7-1.8c0-0.5-0.1-0.9-0.3-1.2s-0.5-0.6-0.8-0.9
			c-0.3-0.3-0.6-0.5-0.9-0.8c-0.3-0.3-0.5-0.6-0.6-1c-0.1-0.4,0-0.9,0.2-1.5c0-0.1,0.1-0.2,0.3-0.5c0.2-0.3,0.3-0.5,0.5-0.9
			c0.2-0.3,0.4-0.6,0.5-0.9s0.3-0.4,0.3-0.5c0.1-0.2,0.1-0.4-0.1-0.7c-0.2-0.2-0.4-0.5-0.7-0.8c-0.3-0.3-0.6-0.6-0.9-1
			c-0.3-0.3-0.6-0.7-0.8-1.1c-0.2-0.4-0.3-0.8-0.3-1.2c0-0.4,0.2-0.9,0.6-1.3c0.5-0.7,1.2-1.2,2-1.5s1.5-0.6,2.3-0.6s1.6,0,2.3,0.2
			c0.7,0.2,1.4,0.5,1.9,0.9c0.5,0.4,0.9,0.9,1,1.4c0.2,0.6,0.1,1.2-0.2,1.9c0,0.1-0.2,0.3-0.4,0.6c-0.2,0.3-0.4,0.7-0.7,1
			c-0.2,0.4-0.5,0.7-0.7,1c-0.2,0.3-0.4,0.5-0.4,0.6c0,0-0.1,0.1-0.1,0.3c0,0.1,0,0.2,0.1,0.3c0.1,0.1,0.2,0.3,0.4,0.6
			c0.2,0.3,0.4,0.7,0.7,1c0.2,0.4,0.5,0.7,0.7,1c0.2,0.3,0.4,0.5,0.4,0.6c0.2,0.4,0.3,0.7,0.3,1c-0.1,0.3-0.2,0.5-0.4,0.8
			c-0.2,0.3-0.4,0.5-0.6,0.8c-0.2,0.3-0.4,0.6-0.5,0.9c-0.1,0.4-0.2,0.8-0.1,1.3c0.1,0.5,0.3,1.1,0.7,1.8c0.5,0.8,0.7,1.5,0.5,2.2
			c-0.1,0.7-0.3,1.3-0.6,1.9c-0.3,0.6-0.6,1.1-0.9,1.6s-0.3,1-0.1,1.4c0.2,0.1,0.4,0.4,0.9,0.7c0.4,0.4,0.9,0.7,1.3,1.2
			c0.5,0.4,0.9,0.8,1.3,1.2c0.4,0.4,0.7,0.6,0.9,0.8c0.2,0.1,0.4,0.3,0.5,0.4c0.2,0.2,0.2,0.4,0,0.6h-3.8c-0.3,0-0.5-0.2-0.7-0.5
			c-0.2-0.4-0.5-0.7-0.7-1.2c-0.2-0.4-0.5-0.8-0.7-1.2c-0.3-0.4-0.6-0.5-0.9-0.5c-0.4,0-0.8,0.2-1.2,0.7c-0.5,0.5-1,1.4-1.7,2.6
			h-4.4V91.8z M434.2,66.5c0.3,0.7,0.6,1.1,1,1.3c0.3,0.2,0.6,0.3,0.9,0.3c0.3,0,0.5-0.2,0.8-0.4c0.2-0.2,0.4-0.5,0.6-0.9
			c0.1-0.3,0.2-0.7,0.2-1.1c0-0.4,0-0.7-0.2-1c-0.2-0.3-0.5-0.6-1-0.6c-0.5-0.1-0.9-0.1-1.4,0.1c-0.4,0.1-0.8,0.4-1,0.8
			C433.8,65.5,433.9,66,434.2,66.5z M435.8,75.8c0.3,0.3,0.6,0.5,0.9,0.5c0.2,0,0.5-0.1,0.6-0.3c0.2-0.2,0.3-0.5,0.4-0.8
			c0.1-0.3,0.1-0.7,0.1-1c0-0.4,0-0.7-0.1-1c-0.1-0.3-0.1-0.6-0.2-0.7c-0.3-0.6-0.7-0.8-1.1-0.7c-0.4,0.1-0.7,0.4-1,0.8
			c-0.2,0.4-0.4,1-0.3,1.6C435.1,74.8,435.3,75.4,435.8,75.8z M436.4,84.6c0,0,0.1,0.1,0.2,0.3c0.1,0.1,0.2,0.2,0.3,0.3
			c0.4-0.2,0.7-0.6,0.9-1.1s0.4-1,0.4-1.5c0-0.5,0-1-0.2-1.4c-0.2-0.4-0.5-0.8-1-0.9c-0.5,0.4-0.9,0.7-1.1,1
			c-0.2,0.3-0.4,0.6-0.4,0.9c0,0.3,0.1,0.7,0.2,1.1C435.8,83.6,436,84.1,436.4,84.6z"/>
		<path fill="#FFFFFF" d="M487.8,88.4c-0.3-0.2-0.4-0.5-0.5-0.9c-0.1-0.4-0.1-0.8-0.1-1.2c0-0.4,0.1-0.8,0.2-1.3s0.2-0.7,0.3-1
			c0-0.2,0.1-0.4,0.3-0.8c0.1-0.4,0.3-0.8,0.4-1.2c0.1-0.4,0.3-0.8,0.4-1.2s0.2-0.6,0.3-0.8c0,0,0.1-0.2,0.2-0.5s0.2-0.4,0.2-0.5
			c0.1-0.4,0.3-0.8,0.4-1.1s0.3-0.8,0.4-1.1c0,0,0,0,0-0.1s0-0.1,0-0.1c-0.1,0-0.2,0.1-0.3,0.1c-0.1,0-0.2,0.1-0.3,0.1
			c-0.1,0.1-0.3,0.2-0.5,0.5c-0.2,0.2-0.5,0.5-0.7,0.7c-0.3,0.2-0.5,0.5-0.7,0.7c-0.2,0.2-0.4,0.4-0.5,0.5c-1,0.9-2,1.8-3.1,2.7
			c-1.1,0.9-2.2,1.8-3.4,2.5c-1.2,0.8-2.4,1.5-3.7,2.1c-1.3,0.6-2.6,1-3.9,1.3c0,0-0.2,0-0.4,0.1c-0.2,0-0.4,0-0.4,0
			c-0.5,0-1,0-1.7,0.1c-0.6,0-1.2-0.1-1.8-0.3c-0.9-0.3-1.6-0.7-2.1-1.3c-0.5-0.6-1-1.3-1.2-2.2c-0.2-0.9-0.3-1.7,0-2.6
			c0.2-0.9,0.7-1.6,1.5-2.1c0.5-0.4,1-0.6,1.6-0.7c0.6-0.1,1.2,0,1.8,0.1c0.3,0,0.7,0.2,1.1,0.4s0.6,0.5,0.7,0.8
			c0.2,0.6,0.3,1.1,0.2,1.5c-0.1,0.4-0.3,0.7-0.5,1c-0.3,0.2-0.5,0.4-0.9,0.5c-0.4,0.1-0.7,0-1-0.1c-0.3-0.1-0.6-0.4-0.8-0.7
			c-0.2-0.3-0.3-0.8-0.2-1.4c-0.5,0.1-0.9,0.3-1.2,0.7s-0.4,0.7-0.5,1.1c0,0.4,0,0.8,0.2,1.3c0.2,0.4,0.4,0.8,0.8,1.1
			c0.4,0.3,0.9,0.6,1.3,0.7c0.5,0.2,1,0.3,1.5,0.4h0.1c1-0.1,1.9-0.2,2.8-0.5c0.9-0.3,1.7-0.6,2.6-1c0.8-0.4,1.6-0.9,2.4-1.4
			c0.8-0.5,1.6-1.1,2.4-1.6c0.7-0.5,1.5-1.1,2.2-1.7c0.7-0.6,1.4-1.2,2.1-1.9h-0.6c0,0-0.1,0-0.2,0c-0.1,0-0.2,0-0.3,0
			c-0.1,0-0.2,0-0.3,0s-0.2,0-0.2,0c-0.2,0-0.4,0-0.8,0c-0.4,0-0.8,0-1.2,0s-0.8,0-1.2,0c-0.4,0-0.6,0-0.8,0c-0.1,0-0.4,0-0.7-0.1
			c-0.4,0-0.6-0.1-0.7-0.1c-0.1,0-0.3-0.1-0.5-0.1c-0.2-0.1-0.5-0.1-0.8-0.2c-0.3-0.1-0.5-0.1-0.8-0.2c-0.2-0.1-0.4-0.1-0.5-0.2
			c-0.1,0-0.5-0.1-1-0.3c-0.5-0.2-1.1-0.4-1.7-0.6s-1.2-0.4-1.7-0.5c-0.5-0.2-0.9-0.3-1-0.3c-0.7-0.2-1.3-0.4-2-0.5s-1.4-0.2-2-0.3
			v-1.8l0.2-0.1c0,0,0.3-0.1,0.9-0.2c0.6-0.2,1.2-0.3,2-0.6c0.8-0.2,1.5-0.4,2.3-0.7c0.8-0.2,1.4-0.4,1.9-0.5
			c1.6-0.4,3.2-0.8,4.8-1.1c1.6-0.3,3.2-0.4,4.8-0.3c1,0,2,0.2,3.1,0.5c1,0.3,2,0.6,3,0.9c0.1,0,0.3,0.1,0.7,0.2
			c0.4,0.1,0.7,0.2,1.1,0.4c0.4,0.1,0.8,0.3,1.1,0.4c0.4,0.1,0.6,0.2,0.7,0.2c0.6,0.2,1.2,0.3,1.9,0.2c0.6,0,1.3-0.1,1.9-0.1
			c0,0,0.1,0,0.3-0.1s0.2-0.1,0.2,0c0,0,0.1,0.1,0.1,0.1s0.1,0.1,0.1,0.1s0,0,0.1,0.1c0.1,0.1,0.2,0.2,0.3,0.4
			c0.1,0.1,0.2,0.3,0.3,0.5c0.1,0.2,0.2,0.4,0.4,0.6v0.1l-3.1,0.5c-0.3,0-0.6,0.2-0.9,0.3c-0.3,0.2-0.6,0.3-0.8,0.4
			c-0.3,0.2-0.6,0.4-0.9,0.7c-0.3,0.3-0.5,0.6-0.6,0.9c-0.1,0.3-0.2,0.6-0.2,1.1c0,0.4,0,0.8,0.1,1.2c0.1,0.4,0.2,0.7,0.4,1
			c0.2,0.3,0.5,0.5,0.9,0.6c0.2,0,0.4,0.1,0.7,0.1c0.3,0,0.5,0.1,0.7,0.1c0.1,0.1,0,0.3-0.1,0.4s-0.2,0.2-0.3,0.3
			c-0.4,0.5-0.9,1-1.5,1.7s-1.2,1.4-1.8,2.1c-0.6,0.7-1.1,1.2-1.5,1.7c-0.4,0.5-0.7,0.7-0.7,0.8l-0.6,0.6c0,0-0.1,0-0.1-0.1
			C488,88.5,488,88.4,487.8,88.4C487.9,88.4,487.9,88.4,487.8,88.4z M466.8,71c0-0.1,0.1-0.3,0.1-0.5c0-0.2,0.1-0.4,0.1-0.6
			c0-0.2,0.1-0.4,0.1-0.5c0-0.1,0.1-0.2,0.1-0.3l0.1-0.2c0.7,0,1.4,0,2.1,0c0.7-0.1,1.4-0.2,2.1-0.5c1.7-0.6,3.3-1.1,4.9-1.6
			c1.6-0.5,3.3-0.8,5.1-0.9c1.5-0.1,2.9,0,4.3,0.3c1.4,0.3,2.8,0.7,4.3,1.1c0,0,0.2,0.1,0.4,0.2c0.2,0.1,0.5,0.2,0.8,0.3
			s0.5,0.2,0.8,0.3c0.2,0.1,0.4,0.1,0.5,0.2c0.8,0.3,1.7,0.4,2.5,0.4c0.9,0,1.7,0,2.6-0.2c0.1,0,0.2,0.1,0.3,0.3
			c0.1,0.2,0.2,0.4,0.3,0.6c0.1,0.2,0.2,0.4,0.3,0.6c0.1,0.2,0.1,0.3,0.1,0.4c-0.8,0.3-1.5,0.5-2.3,0.5s-1.4,0-2.1-0.1
			c-0.7-0.1-1.4-0.3-2.1-0.5c-0.7-0.2-1.4-0.5-2.2-0.7c-2.5-0.7-5-1.1-7.4-1.2c-2.4-0.1-4.9,0.3-7.3,1.2c-0.7,0.2-1.4,0.5-2,0.7
			c-0.7,0.2-1.4,0.5-2.1,0.7s-1.4,0.4-2.1,0.5c-0.7,0.1-1.4,0.1-2.2,0.1V71z M480.2,76.1c1.2,0.1,2.5,0.1,3.7,0
			c1.2-0.1,2.4-0.3,3.6-0.5c0,0,0.1,0,0.2-0.1c0.1,0,0.1,0,0.2,0c0.8-0.2,1.6-0.5,2.4-0.7c0.8-0.2,1.6-0.6,2.2-1.1
			c0-0.1-0.1-0.1-0.3-0.2c-0.1,0-0.2,0-0.2-0.1c-0.1,0-0.3-0.1-0.6-0.2c-0.3-0.1-0.5-0.2-0.8-0.2c-0.2-0.1-0.5-0.2-0.7-0.2
			c-0.2-0.1-0.3-0.1-0.3-0.1c-0.7-0.3-1.5-0.6-2.3-0.9c-0.8-0.3-1.6-0.4-2.4-0.3c0.3,0.6,0.2,1.2-0.1,1.6c-0.3,0.5-0.8,0.8-1.4,1
			s-1.2,0.2-1.8,0.1c-0.6-0.1-1.1-0.5-1.5-1.1c-0.3-0.5-0.4-1.1-0.2-1.7c-0.3,0-0.4-0.1-0.6,0c-0.1,0-0.3,0.1-0.6,0.1
			c-0.4,0.1-0.9,0.2-1.4,0.3s-1,0.2-1.4,0.4c-0.1,0-0.4,0.1-0.8,0.2c-0.4,0.1-0.8,0.2-1.3,0.4c-0.5,0.1-0.9,0.3-1.3,0.4
			c-0.4,0.1-0.7,0.2-0.7,0.2c-0.1,0-0.2,0.1-0.3,0.1c-0.1,0-0.2,0.1-0.3,0.1c0.3,0.2,0.6,0.3,0.9,0.4c0.3,0.1,0.6,0.2,0.9,0.3
			c1.2,0.5,2.4,0.8,3.5,1.1C477.7,75.8,478.9,76,480.2,76.1z"/>
		<path fill="#FFFFFF" d="M372.1,85.3c0-0.6,0-1.1,0-1.6c0-0.5,0.1-1,0.3-1.5c0.2-0.5,0.4-0.9,0.7-1.2c0.3-0.4,0.8-0.7,1.4-0.9V68.5
			h-3v-1h3.1v-2.4c0,0,0.1,0,0.2,0c0.1,0,0.2,0,0.3,0c0.1,0,0.2,0,0.3,0.1c0.1,0,0.2,0.1,0.2,0.2c0,0,0,0.1,0,0.3c0,0.1,0,0.3,0,0.4
			c0,0.1,0,0.3,0,0.4c0,0.1,0,0.2,0,0.3c0,0.1,0,0.3,0.1,0.5c0,0.2,0.1,0.3,0.1,0.3h2.2c0.2,0,0.4,0.1,0.4,0.3
			c0.1,0.2,0.1,0.4,0.1,0.6h-2.9v11.2c0,0.2,0.1,0.4,0.3,0.5c0.2,0.2,0.5,0.3,0.7,0.5c0.3,0.2,0.5,0.4,0.8,0.6
			c0.3,0.2,0.4,0.5,0.5,0.8c0.1,0.3,0.1,0.6,0.1,0.8c0,0.2,0.1,0.5,0.1,0.7c0,0.2,0,0.5,0,0.7c0,0.3,0,0.5,0,0.9c0,0.5,0,1,0,1.7
			c0,0.6-0.1,1.2-0.3,1.8c-0.2,0.6-0.5,1-0.8,1.4c-0.4,0.4-0.9,0.6-1.6,0.6c-0.8,0-1.3-0.2-1.8-0.5c-0.4-0.3-0.7-0.8-1-1.3
			c-0.2-0.5-0.3-1.1-0.4-1.7C372.2,86.5,372.1,85.9,372.1,85.3z M373.1,85.1c0,0.3,0,0.7,0,1.2c0,0.5,0.1,1,0.2,1.5
			c0.1,0.5,0.3,0.9,0.6,1.3c0.3,0.4,0.6,0.5,1.1,0.5c0.5,0,0.9-0.2,1.2-0.5c0.3-0.3,0.5-0.7,0.6-1.1c0.1-0.4,0.2-0.9,0.2-1.4
			c0-0.5,0-0.9,0-1.3c0-0.4,0-0.9,0-1.4c0-0.5-0.1-0.9-0.2-1.4c-0.1-0.4-0.3-0.8-0.6-1c-0.3-0.3-0.7-0.4-1.2-0.4
			c-0.5,0-0.9,0.1-1.1,0.4c-0.3,0.3-0.5,0.6-0.6,1c-0.1,0.4-0.2,0.8-0.2,1.3C373.1,84.3,373.1,84.8,373.1,85.1z M385.4,68
			c0-0.1,0.1-0.2,0.2-0.5c0.1-0.2,0.3-0.5,0.5-0.7c0.2-0.3,0.4-0.6,0.7-0.9c0.3-0.3,0.5-0.6,0.7-0.8c0.2-0.3,0.4-0.5,0.6-0.6
			c0.2-0.2,0.3-0.3,0.4-0.3l0.1,0c0.2,0.1,0.4,0.2,0.5,0.3c0.1,0.1,0.3,0.3,0.4,0.4c0.1,0.2,0.2,0.3,0.3,0.5s0.2,0.4,0.4,0.6
			c0.1,0.1,0.2,0.2,0.3,0.3c0.1,0.1,0.2,0.2,0.3,0.3c0.1,0.1,0.2,0.2,0.4,0.4h0.2c0.1-0.1,0.2-0.3,0.4-0.6c0.2-0.3,0.4-0.6,0.6-0.8
			c0.2-0.3,0.4-0.6,0.6-0.8c0.2-0.3,0.3-0.4,0.4-0.5c0,0,0.1-0.1,0.1-0.1c0.1-0.1,0.1-0.1,0.1-0.1h0.1c0.2,0,0.4,0.1,0.7,0.4
			c0.3,0.3,0.5,0.6,0.8,0.9c0.3,0.3,0.5,0.7,0.8,1c0.3,0.3,0.4,0.5,0.6,0.7c0,0,0.1-0.1,0.1-0.1c0,0,0.1-0.1,0.1-0.1
			c0-0.1,0.2-0.2,0.4-0.5s0.4-0.5,0.6-0.8c0.2-0.3,0.4-0.6,0.6-0.8c0.2-0.3,0.3-0.4,0.4-0.5l0,0c0,0,0,0,0,0c0,0,0,0,0,0
			c0,0,0.1-0.1,0.1-0.1l0.1,0c0.2,0,0.4,0.1,0.6,0.4c0.2,0.3,0.5,0.5,0.7,0.9c0.2,0.3,0.5,0.7,0.7,1c0.2,0.3,0.5,0.6,0.6,0.8
			l2.4-3.2c0.1-0.1,0.2,0.1,0.5,0.3c0.3,0.3,0.5,0.6,0.8,1c0.3,0.4,0.6,0.8,0.9,1.1c0.3,0.4,0.5,0.6,0.6,0.7
			c0.3-0.2,0.5-0.4,0.6-0.8c0.2-0.3,0.3-0.7,0.5-1c0.2-0.3,0.4-0.6,0.6-0.9c0.2-0.3,0.5-0.4,0.8-0.4c0.1,0,0.2,0,0.3,0
			c0,0,0.1,0.1,0.2,0.2c0.1,0.1,0.2,0.4,0.5,0.7c0.2,0.3,0.5,0.7,0.7,1c0.3,0.4,0.5,0.7,0.7,1c0.2,0.3,0.4,0.5,0.5,0.7
			c0,0,0.1,0.1,0.1,0.2c0,0.1,0.1,0.2,0.1,0.2v0.1c0,0,0,0,0,0.1c0,0,0,0,0,0c0,0,0,0,0,0v0c0,0-0.1,0.1-0.3,0.2
			c-0.2,0.1-0.3,0.1-0.3,0.2l-0.2-0.2c-0.1-0.1-0.2-0.3-0.4-0.6c-0.2-0.3-0.4-0.6-0.7-0.9c-0.2-0.3-0.4-0.6-0.6-0.9
			c-0.2-0.3-0.3-0.5-0.4-0.6c-0.2,0.1-0.4,0.4-0.6,0.7c-0.2,0.3-0.4,0.7-0.7,1.1c-0.2,0.4-0.5,0.7-0.7,1c-0.2,0.3-0.5,0.4-0.7,0.4
			h-0.1l-0.2-0.2c0-0.1-0.2-0.2-0.4-0.5c-0.2-0.3-0.4-0.5-0.6-0.8c-0.2-0.3-0.4-0.6-0.6-0.8c-0.2-0.3-0.3-0.4-0.4-0.5
			c0,0-0.1-0.1-0.1-0.1c0-0.1-0.1-0.1-0.1-0.1h0c0,0,0,0-0.1,0c0,0,0,0,0,0c0,0,0,0,0,0c-0.1,0.1-0.2,0.3-0.3,0.5
			c-0.2,0.2-0.3,0.5-0.5,0.7c-0.2,0.3-0.4,0.5-0.5,0.7c-0.2,0.2-0.3,0.4-0.4,0.5c0,0.1-0.1,0.2-0.3,0.3c-0.2,0.1-0.3,0.2-0.3,0.3
			h-0.1h-0.1l-0.2-0.2c-0.1-0.1-0.2-0.2-0.4-0.5c-0.2-0.3-0.4-0.5-0.6-0.8c-0.2-0.3-0.4-0.6-0.6-0.8s-0.3-0.4-0.4-0.5
			c0,0-0.1-0.1-0.1-0.1c0-0.1-0.1-0.1-0.1-0.1h0c0,0,0,0-0.1,0c0,0,0,0,0,0h-0.1c-0.1,0.1-0.2,0.3-0.4,0.5c-0.2,0.2-0.4,0.5-0.5,0.7
			c-0.2,0.3-0.4,0.5-0.5,0.7c-0.2,0.2-0.3,0.4-0.3,0.5c-0.1,0.1-0.2,0.2-0.3,0.3c-0.1,0.1-0.3,0.1-0.4,0.1c-0.1,0-0.3-0.1-0.5-0.4
			c-0.2-0.2-0.5-0.5-0.8-0.8c-0.3-0.3-0.5-0.6-0.8-0.9c-0.2-0.3-0.4-0.5-0.6-0.6c-0.2,0.2-0.4,0.4-0.6,0.8c-0.2,0.3-0.4,0.7-0.6,1
			c-0.2,0.3-0.4,0.6-0.6,0.9c-0.2,0.3-0.4,0.4-0.6,0.4c-0.1,0-0.3-0.1-0.6-0.4c-0.2-0.2-0.5-0.5-0.7-0.8c-0.3-0.3-0.5-0.6-0.8-0.9
			c-0.2-0.3-0.5-0.5-0.6-0.6l-0.1,0c0,0,0,0,0,0c0,0,0,0,0,0h0c-0.2,0.1-0.4,0.3-0.6,0.6c-0.2,0.3-0.4,0.6-0.7,0.9
			c-0.2,0.3-0.4,0.6-0.6,0.8c-0.2,0.2-0.4,0.4-0.5,0.4c-0.2,0-0.4-0.1-0.5-0.2C385.4,68.3,385.4,68.2,385.4,68z M388.8,76.5
			c0,0-0.1,0-0.2,0c-0.1,0-0.1,0-0.2,0h-0.2c0,0-0.1,0-0.2,0.1c-0.1,0-0.2,0.1-0.3,0.1c-0.1,0-0.2,0.1-0.3,0.1
			c-0.1,0-0.2,0.1-0.2,0.1c-0.1,0-0.2,0-0.3,0c-0.1,0-0.3-0.1-0.4-0.1c-0.1-0.1-0.3-0.1-0.4-0.2c-0.1-0.1-0.2-0.2-0.2-0.3v-0.1
			c0,0,0,0,0,0c0.2-0.3,0.4-0.5,0.8-0.6c0.3-0.2,0.6-0.3,0.8-0.4c-0.1-0.1-0.2-0.2-0.3-0.2c-0.1-0.1-0.3-0.1-0.5-0.2
			c-0.2,0-0.3-0.1-0.5-0.1c-0.2,0-0.3-0.1-0.4-0.1c0-0.3,0.1-0.4,0.2-0.6c0.1-0.1,0.3-0.2,0.5-0.2c0.3,0,0.5,0.1,0.8,0.2
			c0.3,0.1,0.4,0.3,0.4,0.6h1.2c0-0.5,0.2-0.9,0.6-1c0.4-0.1,0.9-0.2,1.4-0.2c0,0.3-0.1,0.4-0.2,0.5c-0.1,0.1-0.3,0.2-0.4,0.3
			c-0.2,0.1-0.3,0.2-0.4,0.3c-0.1,0.1-0.2,0.3-0.2,0.5v0.1c0.4,0.3,0.7,0.6,1.1,1c0.4,0.3,0.8,0.7,1.2,1c0.4,0.3,0.9,0.6,1.3,0.8
			c0.5,0.2,0.9,0.3,1.4,0.3c0.6,0,1.2-0.1,1.8-0.3c0.6-0.2,1.2-0.5,1.8-0.8c0.6-0.3,1.2-0.6,1.8-0.9c0.6-0.3,1.2-0.6,1.7-0.8h0.3
			c0.4,0,0.8,0.1,1.3,0.2c0.4,0.1,0.9,0.3,1.4,0.4c0.5,0.2,1,0.3,1.5,0.4c0.5,0.1,1,0.2,1.6,0.2c0.2,0,0.4,0,0.6-0.1
			c0.2-0.1,0.4-0.1,0.6-0.2c0.2-0.1,0.4-0.2,0.6-0.2c0.2-0.1,0.4-0.1,0.6-0.1c0.2,0,0.4,0,0.5,0c0.1,0,0.3,0.1,0.5,0.2
			c0,0,0,0.1,0.1,0.2c0,0.1,0,0.2,0,0.2c0,0.1,0,0.2,0,0.3c0,0.1,0,0.2-0.1,0.2c-0.1,0.1-0.2,0.2-0.5,0.4c-0.2,0.1-0.4,0.2-0.5,0.2
			c-0.1,0-0.2,0-0.3,0c-0.2,0-0.3,0-0.5,0c-0.2,0-0.4,0-0.5,0s-0.3,0-0.3,0c-0.5,0-1,0-1.6,0c-0.6,0-1.1-0.1-1.6-0.2
			c-0.1,0-0.2-0.1-0.5-0.1c-0.2-0.1-0.5-0.2-0.8-0.3c-0.3-0.1-0.5-0.2-0.7-0.3c-0.2-0.1-0.4-0.1-0.4-0.1c-0.1,0-0.3-0.1-0.5-0.1
			c-0.2-0.1-0.3-0.1-0.4-0.1c0,0-0.1,0-0.2,0.1c-0.1,0.1-0.2,0.1-0.3,0.1c-0.6,0.2-1.1,0.5-1.7,0.8c-0.6,0.3-1.2,0.6-1.8,0.8
			c-0.6,0.3-1.2,0.5-1.8,0.7c-0.6,0.2-1.2,0.3-1.8,0.3c-0.8,0-1.4-0.1-1.9-0.4c-0.5-0.3-1-0.6-1.4-0.9c-0.4-0.3-0.8-0.6-1.2-0.9
			C389.8,76.6,389.4,76.5,388.8,76.5z M386.2,84.9c0-0.4,0.2-0.8,0.5-1.1c0.4-0.3,0.8-0.5,1.3-0.7c0.5-0.2,1-0.3,1.5-0.4
			c0.5-0.1,0.9-0.2,1.2-0.3c1.3-0.3,2.6-0.4,3.9-0.5c1.3-0.1,2.6-0.1,4-0.1c0.2,0,0.5,0,0.8,0c0.3,0,0.6,0,1,0c0.3,0,0.6,0,0.8,0
			c0.2,0,0.4,0,0.4,0c0.1,0,0.2,0,0.4,0c0.2,0,0.5,0,0.7,0.1c0.3,0,0.5,0,0.7,0.1c0.2,0,0.4,0,0.5,0.1c0.1,0,0.3,0,0.5,0
			c0.2,0,0.5,0.1,0.8,0.1c0.3,0,0.5,0.1,0.8,0.1c0.2,0,0.4,0.1,0.5,0.1c0.3,0.1,0.6,0.2,1.1,0.3c0.5,0.1,1,0.3,1.5,0.5
			c0.5,0.2,0.9,0.4,1.3,0.7c0.4,0.3,0.6,0.6,0.6,1c0,0.4-0.2,0.7-0.6,1c-0.4,0.3-0.8,0.5-1.3,0.7c-0.5,0.2-1,0.3-1.5,0.5
			c-0.5,0.1-0.9,0.2-1.1,0.2c-1.3,0.3-2.6,0.4-3.9,0.5c-1.3,0.1-2.6,0.1-4,0.1c-0.2,0-0.4,0-0.8,0c-0.3,0-0.6,0-1,0
			c-0.3,0-0.6,0-0.8,0s-0.4,0-0.4,0c-0.1,0-0.2,0-0.4,0c-0.2,0-0.4,0-0.7,0c-0.3,0-0.5,0-0.7-0.1c-0.2,0-0.4,0-0.5-0.1
			c-0.1,0-0.3,0-0.5-0.1c-0.2,0-0.5-0.1-0.8-0.1c-0.3,0-0.5-0.1-0.8-0.1c-0.3,0-0.4-0.1-0.5-0.1c-0.2,0-0.6-0.1-1.1-0.2
			c-0.5-0.1-1-0.3-1.5-0.5c-0.5-0.2-1-0.4-1.4-0.7C386.4,85.5,386.2,85.3,386.2,84.9z M388,84.8c0.4,0.5,1.1,1,2.1,1.2
			c0.9,0.3,1.9,0.5,3,0.6c1.1,0.1,2.1,0.2,3.1,0.2c1,0,1.8,0,2.5,0c0.4,0,0.9,0,1.6,0c0.6,0,1.3,0,2,0c0.7,0,1.5-0.1,2.2-0.1
			c0.8-0.1,1.5-0.2,2.1-0.3c0.7-0.1,1.3-0.3,1.8-0.6c0.5-0.3,0.9-0.6,1.2-0.9c-0.5-0.6-1.2-1-2.1-1.3c-0.9-0.3-1.9-0.5-3-0.6
			c-1.1-0.1-2.1-0.2-3.1-0.2c-1,0-1.8,0-2.5,0c-0.4,0-0.9,0-1.6,0c-0.6,0-1.3,0-2,0c-0.7,0-1.4,0.1-2.2,0.1
			c-0.7,0.1-1.4,0.2-2.1,0.3c-0.7,0.1-1.3,0.3-1.8,0.6C388.7,84.1,388.3,84.4,388,84.8z"/>
		<path fill="#FFFFFF" d="M57.3,61.8c0.2,0,0.4,0,0.6,0.1c0.9,1.2,1,2.6,0.5,4.2l0.1,0.3c0.1,0.2,0.2,0.4,0.3,0.7l0.2,0.5
			c0.1,0.2,0.3,0.4,0.3,0.7l0.1,0.2l0.3,0.7c0.5,0.9,1.7,0.9,3.5,0c-1.6-1.1-1.8-2.4-0.7-4c0.8-0.8,1.8-1.3,3.1-1.4
			c0.7,0.3,1.2,0.8,1.5,1.7c0.1,1.5-0.6,2.6-1.9,3.5c0.4,0.4,0.8,0.8,1.1,1.4c0,0.3,0,0.7,0.1,1.1v0.2c-0.1,0.3-0.1,0.7-0.1,1.1
			l-0.1,0.4l0.1,0.4v1c0,0.3-0.1,0.7-0.2,1.2v0.3c0.3,0.6,0.5,1.2,0.5,1.9c0,0.4-0.2,0.8-0.3,1.3L66,80.3c0.1,0.1,0.1,0.1,0.1,0.3
			c0,0.4,0.1,0.8,0.3,1.3c0,0.3,0,0.5,0.1,0.6c0.3,0.7,0.4,1.4,0.3,2.2l0.2,0.7c0.2,0.2,0.3,0.5,0.4,0.9l0.2,0.4l0.2,0.3l0.3,1v0.2
			l0.1,0.5l0.1,0.5c0.1,0.4,0.2,0.8,0.3,1.2l0.3,1v0.4c-1,0.5-2.1,0.6-3.3,0.5l-0.7,0.1l-0.6-0.3c0-0.2,0.2-0.3,0.3-0.4l1-0.3
			c0.6,0,1.2-0.2,1.7-0.6c0-0.4-0.2-0.8-0.3-1.4l-0.5-1.1l-0.4-1c-0.2-0.2-0.3-0.4-0.3-0.6c-0.2-0.4-0.3-0.8-0.4-1.4L65,84.1
			l-0.1-0.3l-0.3-0.3c-0.6,0-1.1,0.3-1.7,0.7c-0.3,0.6-0.4,1.2-0.5,2.1l-0.1,0.5l-0.5,1.5l-0.2,0.5l-0.1,0.3l-0.3,0.6l-0.6,2.1
			l-0.1,0.2c-1,0.6-2.1,0.7-3.4,0.3L57,92.1l0.2-0.3l0.5-0.1c0.2-0.1,0.4-0.2,0.7-0.3l0.5-0.3c0,0,0.1-0.1,0.3-0.1l0.2-0.2l0.3-0.7
			l0.5-1.2l0.1-0.5l0.1-0.5c0.2-0.4,0.3-0.8,0.3-1.3l0.2-0.8v-0.2l0.7-2.8c0.1-0.3,0.2-0.7,0.3-1.2l0.2-0.5l0.1-0.5l0.1-0.5
			c0.1-0.4,0.2-0.8,0.3-1.1c0-0.2,0.1-0.4,0.1-0.6c0-0.2,0-0.4-0.1-0.6v-1.2l-0.1-0.3l0.1-0.3l-0.5-1.6v-0.2l-0.3-0.8l-0.1-0.5
			l-0.1-0.3c-0.7-0.7-1.6-1-2.8-0.8l-0.8-0.2l-0.3-0.4l-0.7-0.8L57,70.3l-0.3-0.8l-0.5-1l-0.1-0.2c-0.3-0.5-0.6-0.9-0.7-1.3
			c-0.1-0.2-0.3-0.5-0.4-0.8l-0.1-0.1l-0.3-0.4l-0.3-0.4l-0.1-0.2L54,64.7c0-0.4,0.2-0.8,0.5-1.2c-0.2-0.5-0.2-0.9-0.1-1.4
			c1.3-0.1,2,1.3,2,4.2l1.1,2.1l0.1,0.2l0.2-0.1c-0.1-0.3-0.2-0.7-0.3-1.1l-0.2-0.5l-0.1-0.3l-0.1-0.4l-0.1-0.1l-0.3-0.7L56.7,65
			l-0.1-0.5l-0.1-0.2c0-0.3,0.2-0.6,0.5-0.8l-0.2-1.4L57.3,61.8z M63.9,70.5c-0.4,0.1-0.8,0.3-1.2,0.5c0,0.5,0.1,1.1,0.3,1.7V73
			c1.1,2.9,1,6-0.3,9.2c0,0.2,0,0.4,0.1,0.6c0.6,0.1,1.3,0.1,2-0.1l0.3-0.5c-0.5-1.3-0.3-2.6,0.4-3.9c0-0.3-0.2-0.6-0.3-0.9
			l-0.1-0.4l-0.1-0.1c0-0.3,0-0.7,0.1-1.1v-0.8l0.1-0.1v-0.3l0.1-0.3v-0.5l0.1-0.3v-0.6c0-0.5-0.2-1.1-0.3-1.9
			C64.8,70.8,64.4,70.6,63.9,70.5z M65,65.1c-0.7,0.2-1.4,0.7-2,1.4c-0.2,0.7,0,1.1,0.7,1.4c0.9,0,1.6-0.4,2.1-1.2
			C66,65.9,65.7,65.4,65,65.1z"/>
	</g>
	<rect y="24" fill="#FFFFFF" width="512" height="21.6"/>
	<rect y="107.5" fill="#FFFFFF" width="512" height="24.2"/>
	<rect y="159.7" fill="#FFFFFF" width="512" height="49.2"/>
	<rect y="487" fill="#FFFFFF" width="512" height="21.3"/>
</g>
</svg>
