<?xml version="1.0" encoding="utf-8"?>
<!-- Generator: Adobe Illustrator 19.2.1, SVG Export Plug-In . SVG Version: 6.00 Build 0)  -->
<svg version="1.0" xmlns="http://www.w3.org/2000/svg" xmlns:xlink="http://www.w3.org/1999/xlink" x="0px" y="0px" width="512px"
	 height="512px" viewBox="0 0 512 512" enable-background="new 0 0 512 512" xml:space="preserve">
<g id="Layer_1">
</g>
<g id="Layer_2">
	<g>
		<path d="M512,238.2v-55.3H0v55.3c27.3,0,49.4,13.2,49.4,29.4c0,16.2-22.1,29.4-49.4,29.4v55.3h512v-55.3
			c-27.3,0-49.4-13.2-49.4-29.4C462.6,251.3,484.7,238.2,512,238.2z M256,194.8c24.1,13.2,39.6,40,40.2,69.1
			c-10.6,3.2-20.9,7.7-30.4,13.7c-3.4,2.2-6.7,4.4-9.7,6.8c-3-2.4-6.3-4.6-9.7-6.8c-9.5-5.9-19.8-10.5-30.4-13.7
			C216.4,234.7,231.9,208,256,194.8z M229.5,318.9c-0.6,1.7-1.1,3.4-1.5,5.1c-0.9,3.9-1.4,7.8-1.3,11.6
			c-10.2-2.9-20.2-7.3-29.2-12.9c-23.1-14.4-36.4-34.9-34.7-53.1c13.6-3,29.1-2.5,44.3,1.1c1.5,0.4,3,0.8,4.4,1.2
			c1.5,0.4,3,0.9,4.5,1.4c8.9,2.9,17.5,6.8,25.4,11.7c2.7,1.6,5.2,3.4,7.6,5.2c-7.9,7.4-13.9,15.5-17.7,23.9
			C230.7,315.6,230.1,317.2,229.5,318.9z M314.4,322.7c-9,5.6-18.9,9.9-29.2,12.9c-1.5,0.4-2.9,0.8-4.4,1.2c-1.5,0.4-3,0.7-4.5,1
			c-3,0.6-6.1,1.1-9.1,1.5c-3.2,0.4-6.4,0.6-9.6,0.8c-0.6,0-1.1,0-1.7,0c-0.6,0-1.1,0-1.7,0c-3.2-0.1-6.3-0.4-9.6-0.8
			c-3-0.4-6.1-0.9-9.1-1.5c-0.2-1.9-0.2-3.8,0-5.8c0.2-1.7,0.4-3.5,0.8-5.3c0.4-1.6,0.8-3.2,1.4-4.9c3.2-9,9.4-18,18.1-26
			c1.1-1,2.2-2,3.3-2.9c1.1-1,2.3-1.9,3.5-2.8c2.4-1.8,4.9-3.6,7.5-5.2c7.9-4.9,16.5-8.9,25.4-11.7c1.5-0.5,3-1,4.5-1.4
			c1.5-0.4,3-0.8,4.5-1.2c15.2-3.6,30.7-4.1,44.3-1.1c0.1,1,0.1,2.1,0.1,3.1C349.3,290,336.2,309.1,314.4,322.7z"/>
		<rect y="159.8" width="512" height="10.3"/>
	</g>
</g>
</svg>
