<svg id="a0578140-3411-4a4d-8683-a44f40617765" data-name="Layer 2" xmlns="http://www.w3.org/2000/svg" width="4000" height="3900" viewBox="0 0 4000 3900">
  <title>MarbleNormals</title>
  <rect y="2700.9" width="600" height="399.1" fill="#fff"/>
  <rect x="600" y="2700" width="600" height="400" fill="#fff"/>
  <rect x="1200" y="2700" width="600" height="400" fill="#fff"/>
  <rect x="1800" y="2700" width="600" height="400" fill="#fff"/>
  <rect x="2900" y="2800" width="1000" height="200" fill="#fff"/>
  <rect y="3300" width="1000" height="200" fill="#fff"/>
  <rect y="3500" width="1000" height="400" fill="#fff"/>
  <rect x="1000" y="3300" width="1000" height="200" fill="#fff"/>
  <rect x="1000" y="3500" width="1000" height="400" fill="#fff"/>
  <rect x="2000" y="3300" width="1000" height="200" fill="#fff"/>
  <rect x="3000" y="3300" width="1000" height="200" fill="#fff"/>
  <rect x="2000" y="3500" width="1000" height="400" fill="#fff"/>
  <rect x="3000" y="3500" width="1000" height="400" fill="#fff"/>
  <rect x="200" y="1100" width="800" height="800" fill="#fff"/>
  <rect x="400" width="3200" height="1000" fill="#fff"/>
  <rect x="3700" y="400" width="200" height="200" fill="#fff"/>
  <rect x="1200" y="1300" width="2800" height="400" fill="#fff"/>
  <rect x="1200" y="2100" width="2800" height="400" fill="#fff"/>
  <rect x="2400" y="3100" width="800" height="200" fill="#fff"/>
  <rect y="3100" width="800" height="200" fill="#fff"/>
</svg>
