<svg id="27574b39-6c66-42c3-89b3-eb820eb9f988" data-name="Layer 2 copy" xmlns="http://www.w3.org/2000/svg" width="4000" height="3900" viewBox="0 0 4000 3900">
  <title>marble_edges</title>
  <path d="M598,2802.9V3198H2V2802.9H598m2-2H0V3200H600V2800.9h0Z" transform="translate(0 -100)" fill="#fff"/>
  <path d="M1198,2802v396H602V2802h596m2-2H600v400h600V2800h0Z" transform="translate(0 -100)" fill="#fff"/>
  <path d="M1798,2802v396H1202V2802h596m2-2H1200v400h600V2800h0Z" transform="translate(0 -100)" fill="#fff"/>
  <path d="M2398,2802v396H1802V2802h596m2-2H1800v400h600V2800h0Z" transform="translate(0 -100)" fill="#fff"/>
  <path d="M3898,2902v196H2902V2902h996m2-2H2900v200H3900V2900h0Z" transform="translate(0 -100)" fill="#fff"/>
  <path d="M998,3402v196H2V3402H998m2-2H0v200H1000V3400h0Z" transform="translate(0 -100)" fill="#fff"/>
  <path d="M998,3602v396H2V3602H998m2-2H0v400H1000V3600h0Z" transform="translate(0 -100)" fill="#fff"/>
  <path d="M1998,3402v196H1002V3402h996m2-2H1000v200H2000V3400h0Z" transform="translate(0 -100)" fill="#fff"/>
  <path d="M1998,3602v396H1002V3602h996m2-2H1000v400H2000V3600h0Z" transform="translate(0 -100)" fill="#fff"/>
  <path d="M2998,3402v196H2002V3402h996m2-2H2000v200H3000V3400h0Z" transform="translate(0 -100)" fill="#fff"/>
  <path d="M3998,3402v196H3002V3402h996m2-2H3000v200H4000V3400h0Z" transform="translate(0 -100)" fill="#fff"/>
  <path d="M2998,3602v396H2002V3602h996m2-2H2000v400H3000V3600h0Z" transform="translate(0 -100)" fill="#fff"/>
  <path d="M3998,3602v396H3002V3602h996m2-2H3000v400H4000V3600h0Z" transform="translate(0 -100)" fill="#fff"/>
  <path d="M998,1202v796H202V1202H998m2-2H200v800h800V1200h0Z" transform="translate(0 -100)" fill="#fff"/>
  <path d="M3598,102v996H402V102H3598m2-2H400V1100H3600V100h0Z" transform="translate(0 -100)" fill="#fff"/>
  <path d="M3898,502V698H3702V502h196m2-2H3700V700h200V500h0Z" transform="translate(0 -100)" fill="#fff"/>
  <path d="M3998,1402v396H1202V1402H3998m2-2H1200v400H4000V1400h0Z" transform="translate(0 -100)" fill="#fff"/>
  <path d="M3998,2202v396H1202V2202H3998m2-2H1200v400H4000V2200h0Z" transform="translate(0 -100)" fill="#fff"/>
  <path d="M3198,3202v196H2402V3202h796m2-2H2400v200h800V3200h0Z" transform="translate(0 -100)" fill="#fff"/>
  <path d="M798,3202v196H2V3202H798m2-2H0v200H800V3200h0Z" transform="translate(0 -100)" fill="#fff"/>
</svg>
