<?xml version="1.0" encoding="utf-8"?>
<!-- Generator: Adobe Illustrator 19.2.1, SVG Export Plug-In . SVG Version: 6.00 Build 0)  -->
<svg version="1.0" xmlns="http://www.w3.org/2000/svg" xmlns:xlink="http://www.w3.org/1999/xlink" x="0px" y="0px" width="2048px"
	 height="2048px" viewBox="0 0 2048 2048" enable-background="new 0 0 2048 2048" xml:space="preserve">
<g id="FlowerDesign">
</g>
<g id="Layer_2">
	<path fill="#FFFFFF" d="M1844.2,511h-393.8h-851H205.8c-1.1,0-2,0.9-2,2v613.5c0,1.1,0.9,2,2,2h391.8v202.2H410.8c-1.1,0-2,0.9-2,2
		v408.8c0,1.1,0.9,2,2,2h186.8v202.8c0,1.1,0.9,2,2,2H1451c1.1,0,2-0.9,2-2v-202.8h186.2c1.1,0,2-0.9,2-2v-408.8c0-1.1-0.9-2-2-2
		h-186.8v-201.5h391.8c1.1,0,2-0.9,2-2V513C1846.2,511.9,1845.4,511,1844.2,511z M601.5,1739.5v-404.8H1449v404.8H601.5z
		 M1448.5,1330.8h-847v-201.5h847V1330.8z M1448.5,1125.2h-847V515h847V1125.2z M207.8,515h389.8v609.5H207.8V515z M412.8,1334.8
		h184.8v404.8H412.8V1334.8z M1449,1944.2H601.5v-200.8H1449V1944.2z M1637.2,1739.5H1453v-404.8h184.2V1739.5z M1842.2,1125.2
		h-389.8V515h389.8V1125.2z"/>
</g>
</svg>
