<?xml version="1.0" encoding="utf-8"?>
<!-- Generator: Adobe Illustrator 19.2.1, SVG Export Plug-In . SVG Version: 6.00 Build 0)  -->
<svg version="1.0" xmlns="http://www.w3.org/2000/svg" xmlns:xlink="http://www.w3.org/1999/xlink" x="0px" y="0px" width="512px"
	 height="512px" viewBox="0 0 512 512" enable-background="new 0 0 512 512" xml:space="preserve">
<g id="Layer_1">
</g>
<g id="Layer_2">
	<path d="M512,86.1V449h-65.8c-21.2-19.7-38.5-43.5-50.5-70.2c-2.2-4.7-4.1-9.5-5.9-14.5c-2.1-5.8-4-11.7-5.7-17.8
		c-1.7,6-3.6,12-5.7,17.8v0c-1.8,4.9-3.8,9.7-5.9,14.4c-12,26.7-29.3,50.5-50.5,70.2H190.2c-21.2-19.7-38.5-43.5-50.5-70.2
		c-2.2-4.7-4.1-9.5-5.9-14.5c-2.1-5.8-4-11.7-5.7-17.8c-1.7,6-3.6,12-5.7,17.8v0c-1.8,4.9-3.8,9.7-5.9,14.4
		c-12,26.7-29.3,50.5-50.5,70.2H0V86.1c16.9,7,32.8,16,47.3,26.7c2.9,2.1,5.7,4.3,8.5,6.6c2.8,2.3,5.6,4.7,8.3,7.1
		c22,20,39.9,44.5,52.3,71.9c2.2,4.7,4.1,9.5,5.9,14.5c2.2,5.8,4.1,11.7,5.7,17.8c1.7-6,3.6-12,5.7-17.8v0c1.8-4.9,3.8-9.7,5.9-14.4
		c12.4-27.5,30.3-51.9,52.4-71.9c2.7-2.5,5.5-4.9,8.3-7.2c2.8-2.3,5.6-4.5,8.4-6.6c14.5-10.8,30.3-19.8,47.3-26.8
		c16.9,7,32.8,16,47.3,26.7c2.9,2.1,5.7,4.3,8.5,6.6c2.8,2.3,5.6,4.7,8.3,7.1c22,20,39.9,44.5,52.3,71.9c2.2,4.7,4.1,9.5,5.9,14.5
		c2.2,5.8,4.1,11.7,5.7,17.8c1.7-6,3.6-12,5.7-17.8v0c1.8-4.9,3.8-9.7,5.9-14.4c12.4-27.5,30.3-51.9,52.4-71.9
		c2.7-2.5,5.5-4.9,8.3-7.2c2.8-2.3,5.6-4.5,8.4-6.6C479.2,102.1,495.1,93.1,512,86.1z"/>
</g>
</svg>
