<?xml version="1.0" encoding="utf-8"?>
<!-- Generator: Adobe Illustrator 19.2.1, SVG Export Plug-In . SVG Version: 6.00 Build 0)  -->
<svg version="1.0" xmlns="http://www.w3.org/2000/svg" xmlns:xlink="http://www.w3.org/1999/xlink" x="0px" y="0px" width="512px"
	 height="512px" viewBox="0 0 512 512" enable-background="new 0 0 512 512" xml:space="preserve">
<g id="Layer_1">
</g>
<g id="Layer_2">
	<g>
		<path d="M190.2,449h-30c-7-7.8-13.6-16.2-19.6-25c-4.6-6.7-8.8-13.6-12.6-20.7c-3.8,7.1-8,13.9-12.6,20.6
			c-6,8.8-12.6,17.2-19.6,25H65.8c21.2-19.7,38.5-43.5,50.5-70.2c2.1-4.7,4.1-9.5,5.9-14.4v0c2.2-5.8,4.1-11.7,5.7-17.8
			c1.7,6,3.6,12,5.7,17.8c1.8,4.9,3.8,9.7,5.9,14.5C151.7,405.5,169,429.3,190.2,449z"/>
		<path d="M503.9,66.3C483.8,74.6,465,85.5,448,98.6c-17-13.2-35.7-24-55.8-32.3L384,63l-8.1,3.3C355.7,74.6,337,85.5,320,98.6
			c-17-13.2-35.7-24-55.8-32.3L256,63l-8.1,3.3C227.8,74.6,209,85.5,192,98.6c-17-13.2-35.7-24-55.8-32.3L128,63l-8.1,3.3
			C99.7,74.6,81,85.5,64,98.6c-17-13.2-35.7-24-55.8-32.3L0,63v23.1c16.9,7,32.8,16,47.3,26.7c2.9,2.1,5.7,4.3,8.5,6.6
			c2.8,2.3,5.6,4.7,8.3,7.1c22,20,39.9,44.5,52.3,71.9c2.2,4.7,4.1,9.5,5.9,14.5c2.2,5.8,4.1,11.7,5.7,17.8c1.7-6,3.6-12,5.7-17.8v0
			c1.8-4.9,3.8-9.7,5.9-14.4c12.4-27.5,30.3-51.9,52.4-71.9c2.7-2.5,5.5-4.9,8.3-7.2c2.8-2.3,5.6-4.5,8.4-6.6
			c14.5-10.8,30.3-19.8,47.3-26.8c16.9,7,32.8,16,47.3,26.7c2.9,2.1,5.7,4.3,8.5,6.6c2.8,2.3,5.6,4.7,8.3,7.1
			c22,20,39.9,44.5,52.3,71.9c2.2,4.7,4.1,9.5,5.9,14.5c2.2,5.8,4.1,11.7,5.7,17.8c1.7-6,3.6-12,5.7-17.8v0
			c1.8-4.9,3.8-9.7,5.9-14.4c12.4-27.5,30.3-51.9,52.4-71.9c2.7-2.5,5.5-4.9,8.3-7.2c2.8-2.3,5.6-4.5,8.4-6.6
			c14.5-10.8,30.4-19.8,47.3-26.8V63L503.9,66.3z M140.6,153.3c-4.6,6.7-8.8,13.6-12.6,20.6c-3.8-7.1-8-13.9-12.6-20.6
			c-10.1-14.8-21.7-28.4-34.7-40.4c14.5-10.8,30.4-19.8,47.3-26.8c16.9,7,32.8,16,47.3,26.7C162.3,124.9,150.7,138.5,140.6,153.3z
			 M396.6,153.3c-4.6,6.7-8.8,13.6-12.6,20.6c-3.8-7.1-8-13.9-12.6-20.6c-10.1-14.8-21.7-28.4-34.7-40.4
			c14.5-10.8,30.4-19.8,47.3-26.8c16.9,7,32.8,16,47.3,26.7C418.3,124.9,406.7,138.5,396.6,153.3z"/>
		<path d="M446.2,449h-30c-7-7.8-13.6-16.2-19.6-25c-4.6-6.7-8.8-13.6-12.6-20.7c-3.8,7.1-8,13.9-12.6,20.6
			c-6,8.8-12.6,17.2-19.6,25h-29.9c21.2-19.7,38.5-43.5,50.5-70.2c2.1-4.7,4.1-9.5,5.9-14.4v0c2.2-5.8,4.1-11.7,5.7-17.8
			c1.7,6,3.6,12,5.7,17.8c1.8,4.9,3.8,9.7,5.9,14.5C407.7,405.5,425,429.3,446.2,449z"/>
	</g>
</g>
</svg>
