<?xml version="1.0" encoding="utf-8"?>
<!-- Generator: Adobe Illustrator 19.2.1, SVG Export Plug-In . SVG Version: 6.00 Build 0)  -->
<svg version="1.0" xmlns="http://www.w3.org/2000/svg" xmlns:xlink="http://www.w3.org/1999/xlink" x="0px" y="0px" width="512px"
	 height="512px" viewBox="0 0 512 512" enable-background="new 0 0 512 512" xml:space="preserve">
<g id="Layer_1">
</g>
<g id="Layer_2">
	<g>
		<rect y="481" fill="#DCC025" width="512" height="31"/>
	</g>
	<g>
		<rect y="405.3" fill="#DCC025" width="512" height="31"/>
	</g>
	<g>
		<rect y="13.1" fill="#DCC025" width="512" height="15"/>
	</g>
	<path fill="#DCC025" d="M273.9,54.2L273.9,54.2c-0.3-0.1-0.6-0.1-0.9-0.2C273.3,54.1,273.6,54.1,273.9,54.2z M270.4,53.5
		c-1.3-0.2-2.6-0.4-4-0.6C267.8,53.1,269.1,53.3,270.4,53.5z M261,52.5c0.9,0.1,1.8,0.1,2.7,0.2C262.8,52.6,261.9,52.5,261,52.5
		L261,52.5z M203,75.6c-1.4,2.2-2.5,4.5-3.3,6.9C200.5,80.1,201.6,77.8,203,75.6z"/>
	<g>
		<path fill="none" d="M313.4,87.8c0-0.4-0.1-0.7-0.1-1.1c0,0,0,0,0-0.1c0-0.3-0.1-0.7-0.2-1c-0.1-0.4-0.1-0.7-0.2-1.1
			c-0.1-0.3-0.2-0.7-0.3-1c-0.1-0.3-0.2-0.7-0.3-1c-0.8-2.4-1.9-4.7-3.3-6.9c0,0-0.1-0.1-0.1-0.1c-0.4-0.6-0.8-1.2-1.2-1.7
			c-0.2-0.3-0.4-0.6-0.7-0.9c-0.2-0.3-0.5-0.6-0.7-0.9l-29.4,41.3L313.4,87.8z"/>
		<path fill="none" d="M298.9,65c-0.5-0.4-1-0.7-1.5-1.1c-0.1,0-0.1-0.1-0.2-0.1c-0.6-0.4-1.1-0.8-1.7-1.1c0,0,0,0-0.1,0
			c-0.4-0.3-0.9-0.5-1.3-0.8s-0.9-0.5-1.4-0.8c-0.1,0-0.1-0.1-0.2-0.1c-0.5-0.3-1.1-0.6-1.6-0.9c-0.2-0.1-0.4-0.2-0.6-0.3
			c-0.3-0.1-0.5-0.3-0.8-0.4c0,0-0.1,0-0.1-0.1c-0.5-0.2-0.9-0.4-1.4-0.7c-0.6-0.3-1.1-0.5-1.7-0.7c-0.4-0.2-0.7-0.3-1.1-0.5
			c-0.5-0.2-1-0.4-1.6-0.6L269,106.9L298.9,65z"/>
		<path fill="none" d="M337.4,124.7c-0.7,0-1.4,0.1-2.1,0.2c-0.4,0-0.7,0.1-1.1,0.1c-0.4,0-0.7,0.1-1,0.1c-1,0.1-2.1,0.3-3.1,0.5
			c-0.3,0.1-0.7,0.1-1,0.2c-0.3,0.1-0.7,0.1-1,0.2c-0.2,0-0.5,0.1-0.7,0.1v0l10.1,34.8V124.7z"/>
		<path fill="none" d="M355.4,126.1c-0.2-0.1-0.5-0.1-0.7-0.1c-0.3-0.1-0.7-0.1-1-0.2c-0.3-0.1-0.7-0.1-1-0.2
			c-1-0.2-2.1-0.3-3.1-0.5c-0.3,0-0.7-0.1-1-0.1c-0.4,0-0.7-0.1-1.1-0.1c-0.7-0.1-1.4-0.1-2.1-0.2v36.1L355.4,126.1L355.4,126.1z"/>
		<path fill="none" d="M318.6,128.7c-0.3,0.1-0.6,0.2-0.9,0.4c-0.5,0.2-0.9,0.4-1.3,0.6c-0.4,0.2-0.8,0.3-1.1,0.5c0,0-0.1,0-0.1,0
			c-0.2,0.1-0.4,0.2-0.6,0.3c-0.2,0.1-0.3,0.2-0.5,0.2c-0.4,0.2-0.9,0.4-1.3,0.7c0,0-0.1,0.1-0.1,0.1c-0.4,0.2-0.7,0.4-1.1,0.6
			c-0.4,0.2-0.7,0.4-1.1,0.6c0,0,0,0,0,0c-0.5,0.3-0.9,0.6-1.3,0.9c0,0-0.1,0.1-0.1,0.1c-0.4,0.3-0.8,0.6-1.2,0.9l23.4,32.8
			l-11.4-39.1C319.4,128.4,319,128.6,318.6,128.7z"/>
		<path fill="none" d="M215.6,152.4c0-0.3-0.1-0.6-0.1-0.8c0,0,0,0,0-0.1c0-0.3-0.1-0.5-0.1-0.8c0-0.3-0.1-0.5-0.2-0.8
			c-0.1-0.3-0.1-0.5-0.2-0.8c-0.1-0.3-0.1-0.5-0.2-0.8c-0.6-1.9-1.5-3.7-2.6-5.4c0,0,0-0.1-0.1-0.1c-0.3-0.5-0.6-0.9-0.9-1.4
			c-0.2-0.2-0.4-0.5-0.5-0.7c-0.2-0.2-0.4-0.5-0.6-0.7L187,172.3L215.6,152.4z"/>
		<path fill="none" d="M273.9,54.2c-0.3-0.1-0.6-0.1-0.9-0.2c-0.4-0.1-0.9-0.2-1.3-0.2c-0.4-0.1-0.8-0.2-1.3-0.2
			c-1.3-0.2-2.6-0.4-4-0.6c-0.4-0.1-0.9-0.1-1.3-0.2c-0.4,0-0.9-0.1-1.4-0.1c-0.9-0.1-1.8-0.2-2.7-0.2v46.2L273.9,54.2L273.9,54.2z"
			/>
		<path fill="none" d="M251,52.5c-0.9,0-1.8,0.1-2.7,0.2c-0.5,0-0.9,0.1-1.4,0.1c-0.4,0-0.9,0.1-1.3,0.2c-1.3,0.2-2.7,0.3-4,0.6
			c-0.4,0.1-0.9,0.1-1.3,0.2c-0.4,0.1-0.9,0.2-1.3,0.2c-0.3,0.1-0.6,0.1-0.9,0.2v0L251,98.6V52.5z"/>
		<path fill="none" d="M205,72.8c-0.2,0.3-0.5,0.6-0.7,0.9c-0.4,0.6-0.8,1.1-1.2,1.7c0,0-0.1,0.1-0.1,0.1c-1.4,2.2-2.5,4.5-3.3,6.9
			c-0.1,0.3-0.2,0.7-0.3,1c-0.1,0.3-0.2,0.7-0.3,1c-0.1,0.4-0.2,0.7-0.2,1.1c-0.1,0.3-0.1,0.6-0.2,1c0,0,0,0.1,0,0.1
			c-0.1,0.4-0.1,0.7-0.1,1.1l36.5,25.4l-29.4-41.3C205.5,72.2,205.2,72.5,205,72.8z"/>
		<path fill="none" d="M226.9,57.5c-0.4,0.2-0.8,0.3-1.1,0.5c-0.6,0.2-1.2,0.5-1.7,0.7c-0.5,0.2-1,0.4-1.4,0.7c-0.1,0-0.1,0-0.1,0.1
			c-0.3,0.1-0.5,0.2-0.8,0.4c-0.2,0.1-0.4,0.2-0.6,0.3c-0.6,0.3-1.1,0.6-1.6,0.9c-0.1,0-0.1,0.1-0.2,0.1c-0.5,0.2-0.9,0.5-1.4,0.8
			c-0.5,0.3-0.9,0.5-1.3,0.8c0,0,0,0-0.1,0c-0.6,0.4-1.1,0.7-1.7,1.1c-0.1,0-0.1,0.1-0.2,0.1c-0.5,0.4-1,0.7-1.5,1.1l29.9,41.9
			L228.5,57C228,57.1,227.4,57.3,226.9,57.5z"/>
		<path fill="none" d="M469.5,65c-0.5-0.4-1-0.7-1.5-1.1c-0.1,0-0.1-0.1-0.2-0.1c-0.6-0.4-1.1-0.8-1.7-1.1c0,0,0,0-0.1,0
			c-0.4-0.3-0.9-0.5-1.3-0.8s-0.9-0.5-1.4-0.8c-0.1,0-0.1-0.1-0.2-0.1c-0.5-0.3-1.1-0.6-1.6-0.9c-0.2-0.1-0.4-0.2-0.6-0.3
			c-0.3-0.1-0.5-0.3-0.8-0.4c0,0-0.1,0-0.1-0.1c-0.5-0.2-0.9-0.4-1.4-0.7c-0.6-0.3-1.1-0.5-1.7-0.7c-0.4-0.2-0.7-0.3-1.1-0.5
			c-0.5-0.2-1-0.4-1.6-0.6l-14.5,49.9L469.5,65z"/>
		<path fill="none" d="M444.6,54.2c-0.3-0.1-0.6-0.1-0.9-0.2c-0.4-0.1-0.9-0.2-1.3-0.2c-0.4-0.1-0.8-0.2-1.3-0.2
			c-1.3-0.2-2.6-0.4-4-0.6c-0.4-0.1-0.9-0.1-1.3-0.2c-0.4,0-0.9-0.1-1.4-0.1c-0.9-0.1-1.8-0.2-2.7-0.2v46.2L444.6,54.2L444.6,54.2z"
			/>
		<path fill="none" d="M484,87.8c0-0.4-0.1-0.7-0.1-1.1c0,0,0,0,0-0.1c0-0.3-0.1-0.7-0.2-1c-0.1-0.4-0.1-0.7-0.2-1.1
			c-0.1-0.3-0.2-0.7-0.3-1c-0.1-0.3-0.2-0.7-0.3-1c-0.8-2.4-1.9-4.7-3.3-6.9c0,0-0.1-0.1-0.1-0.1c-0.4-0.6-0.8-1.2-1.2-1.7
			c-0.2-0.3-0.4-0.6-0.7-0.9c-0.2-0.3-0.5-0.6-0.7-0.9l-29.4,41.3L484,87.8z"/>
		<path fill="none" d="M386.2,152.4c0-0.3-0.1-0.6-0.1-0.8c0,0,0,0,0-0.1c0-0.3-0.1-0.5-0.1-0.8c0-0.3-0.1-0.5-0.2-0.8
			c-0.1-0.3-0.1-0.5-0.2-0.8c-0.1-0.3-0.1-0.5-0.2-0.8c-0.6-1.9-1.5-3.7-2.6-5.4c0,0,0-0.1-0.1-0.1c-0.3-0.5-0.6-0.9-0.9-1.4
			c-0.2-0.2-0.4-0.5-0.5-0.7c-0.2-0.2-0.4-0.5-0.6-0.7l-23.1,32.3L386.2,152.4z"/>
		<path fill="none" d="M421.7,52.5c-0.9,0-1.8,0.1-2.7,0.2c-0.5,0-0.9,0.1-1.4,0.1c-0.4,0-0.9,0.1-1.3,0.2c-1.3,0.2-2.7,0.3-4,0.6
			c-0.4,0.1-0.9,0.1-1.3,0.2c-0.4,0.1-0.9,0.2-1.3,0.2c-0.3,0.1-0.6,0.1-0.9,0.2v0l12.9,44.4V52.5z"/>
		<path fill="none" d="M375.7,72.8c-0.2,0.3-0.5,0.6-0.7,0.9c-0.4,0.6-0.8,1.1-1.2,1.7c0,0-0.1,0.1-0.1,0.1
			c-1.4,2.2-2.5,4.5-3.3,6.9c-0.1,0.3-0.2,0.7-0.3,1c-0.1,0.3-0.2,0.7-0.3,1c-0.1,0.4-0.2,0.7-0.2,1.1c-0.1,0.3-0.1,0.6-0.2,1
			c0,0,0,0.1,0,0.1c-0.1,0.4-0.1,0.7-0.1,1.1l36.5,25.4l-29.4-41.3C376.1,72.2,375.9,72.5,375.7,72.8z"/>
		<path fill="none" d="M374.9,134.6c-0.4-0.3-0.8-0.6-1.2-0.9c0,0-0.1-0.1-0.1-0.1c-0.4-0.3-0.9-0.6-1.3-0.9c0,0,0,0,0,0
			c-0.3-0.2-0.7-0.4-1.1-0.6c-0.4-0.2-0.7-0.4-1.1-0.6c0,0-0.1-0.1-0.1-0.1c-0.4-0.2-0.9-0.5-1.3-0.7c-0.2-0.1-0.3-0.2-0.5-0.2
			c-0.2-0.1-0.4-0.2-0.6-0.3c0,0-0.1,0-0.1,0c-0.4-0.2-0.7-0.3-1.1-0.5c-0.4-0.2-0.9-0.4-1.3-0.6c-0.3-0.1-0.6-0.2-0.9-0.4
			c-0.4-0.2-0.8-0.3-1.2-0.5l-11.4,39.1L374.9,134.6z"/>
		<path fill="none" d="M397.6,57.5c-0.4,0.2-0.8,0.3-1.1,0.5c-0.6,0.2-1.2,0.5-1.7,0.7c-0.5,0.2-1,0.4-1.4,0.7c-0.1,0-0.1,0-0.1,0.1
			c-0.3,0.1-0.5,0.2-0.8,0.4c-0.2,0.1-0.4,0.2-0.6,0.3c-0.6,0.3-1.1,0.6-1.6,0.9c-0.1,0-0.1,0.1-0.2,0.1c-0.5,0.2-0.9,0.5-1.4,0.8
			c-0.5,0.3-0.9,0.5-1.3,0.8c0,0,0,0-0.1,0c-0.6,0.4-1.1,0.7-1.7,1.1c-0.1,0-0.1,0.1-0.2,0.1c-0.5,0.4-1,0.7-1.5,1.1l29.9,41.9
			L399.1,57C398.6,57.1,398.1,57.3,397.6,57.5z"/>
		<path fill="none" d="M301.4,140.6c-0.2,0.2-0.4,0.5-0.5,0.7c-0.3,0.4-0.6,0.9-0.9,1.4c0,0,0,0.1-0.1,0.1c-1.1,1.7-2,3.6-2.6,5.4
			c-0.1,0.3-0.2,0.5-0.2,0.8c-0.1,0.3-0.1,0.5-0.2,0.8c-0.1,0.3-0.1,0.5-0.2,0.8c-0.1,0.3-0.1,0.5-0.1,0.8c0,0,0,0,0,0.1
			c0,0.3-0.1,0.6-0.1,0.8l28.6,19.9L302,139.9C301.8,140.2,301.6,140.4,301.4,140.6z"/>
		<path fill="none" d="M14,126.1c-0.2-0.1-0.5-0.1-0.7-0.1c-0.3-0.1-0.7-0.1-1-0.2c-0.3-0.1-0.7-0.1-1-0.2c-1-0.2-2.1-0.3-3.1-0.5
			c-0.3,0-0.7-0.1-1-0.1c-0.4,0-0.7-0.1-1.1-0.1c-0.7-0.1-1.4-0.1-2.1-0.2v36.1L14,126.1L14,126.1z"/>
		<path fill="none" d="M80.3,52.5c-0.9,0-1.8,0.1-2.7,0.2c-0.5,0-0.9,0.1-1.4,0.1c-0.4,0-0.9,0.1-1.3,0.2c-1.3,0.2-2.7,0.3-4,0.6
			c-0.4,0.1-0.9,0.1-1.3,0.2c-0.4,0.1-0.9,0.2-1.3,0.2c-0.3,0.1-0.6,0.1-0.9,0.2v0l12.9,44.4V52.5z"/>
		<path fill="none" d="M33.6,134.6c-0.4-0.3-0.8-0.6-1.2-0.9c0,0-0.1-0.1-0.1-0.1c-0.4-0.3-0.9-0.6-1.3-0.9c0,0,0,0,0,0
			c-0.3-0.2-0.7-0.4-1.1-0.6c-0.4-0.2-0.7-0.4-1.1-0.6c0,0-0.1-0.1-0.1-0.1c-0.4-0.2-0.9-0.5-1.3-0.7c-0.2-0.1-0.3-0.2-0.5-0.2
			c-0.2-0.1-0.4-0.2-0.6-0.3c0,0-0.1,0-0.1,0c-0.4-0.2-0.7-0.3-1.1-0.5c-0.4-0.2-0.9-0.4-1.3-0.6c-0.3-0.1-0.6-0.2-0.9-0.4
			c-0.4-0.2-0.8-0.3-1.2-0.5l-11.4,39.1L33.6,134.6z"/>
		<path fill="none" d="M44.9,152.4c0-0.3-0.1-0.6-0.1-0.8c0,0,0,0,0-0.1c0-0.3-0.1-0.5-0.1-0.8c0-0.3-0.1-0.5-0.2-0.8
			c-0.1-0.3-0.1-0.5-0.2-0.8c-0.1-0.3-0.1-0.5-0.2-0.8c-0.6-1.9-1.5-3.7-2.6-5.4c0,0,0-0.1-0.1-0.1c-0.3-0.5-0.6-0.9-0.9-1.4
			c-0.2-0.2-0.4-0.5-0.5-0.7c-0.2-0.2-0.4-0.5-0.6-0.7l-23.1,32.3L44.9,152.4z"/>
		<path fill="none" d="M472.1,140.6c-0.2,0.2-0.4,0.5-0.5,0.7c-0.3,0.4-0.6,0.9-0.9,1.4c0,0,0,0.1-0.1,0.1c-1.1,1.7-2,3.6-2.6,5.4
			c-0.1,0.3-0.2,0.5-0.2,0.8c-0.1,0.3-0.1,0.5-0.2,0.8c-0.1,0.3-0.1,0.5-0.2,0.8c-0.1,0.3-0.1,0.5-0.1,0.8c0,0,0,0,0,0.1
			c0,0.3-0.1,0.6-0.1,0.8l28.6,19.9l-23.1-32.3C472.5,140.2,472.3,140.4,472.1,140.6z"/>
		<path fill="none" d="M204.2,134.6c-0.4-0.3-0.8-0.6-1.2-0.9c0,0-0.1-0.1-0.1-0.1c-0.4-0.3-0.9-0.6-1.3-0.9c0,0,0,0,0,0
			c-0.3-0.2-0.7-0.4-1.1-0.6c-0.4-0.2-0.7-0.4-1.1-0.6c0,0-0.1-0.1-0.1-0.1c-0.4-0.2-0.9-0.5-1.3-0.7c-0.2-0.1-0.3-0.2-0.5-0.2
			c-0.2-0.1-0.4-0.2-0.6-0.3c0,0-0.1,0-0.1,0c-0.4-0.2-0.7-0.3-1.1-0.5c-0.4-0.2-0.9-0.4-1.3-0.6c-0.3-0.1-0.6-0.2-0.9-0.4
			c-0.4-0.2-0.8-0.3-1.2-0.5l-11.4,39.1L204.2,134.6z"/>
		<path fill="none" d="M489.2,128.7c-0.3,0.1-0.6,0.2-0.9,0.4c-0.5,0.2-0.9,0.4-1.3,0.6c-0.4,0.2-0.8,0.3-1.1,0.5c0,0-0.1,0-0.1,0
			c-0.2,0.1-0.4,0.2-0.6,0.3c-0.2,0.1-0.3,0.2-0.5,0.2c-0.4,0.2-0.9,0.4-1.3,0.7c0,0-0.1,0-0.1,0.1c-0.4,0.2-0.7,0.4-1.1,0.6
			c-0.4,0.2-0.7,0.4-1.1,0.6c0,0,0,0,0,0c-0.5,0.3-0.9,0.6-1.3,0.9c0,0-0.1,0.1-0.1,0.1c-0.4,0.3-0.8,0.6-1.2,0.9l23.4,32.8
			l-11.4-39.1C490.1,128.4,489.6,128.6,489.2,128.7z"/>
		<path fill="none" d="M508.1,124.7c-0.7,0-1.4,0.1-2.1,0.2c-0.4,0-0.7,0.1-1.1,0.1c-0.4,0-0.7,0.1-1,0.1c-1,0.1-2.1,0.3-3.1,0.5
			c-0.3,0.1-0.7,0.1-1,0.2c-0.3,0.1-0.7,0.1-1,0.2c-0.2,0-0.5,0.1-0.7,0.1v0l10.1,34.8V124.7z"/>
		<path fill="none" d="M128.2,65c-0.5-0.4-1-0.7-1.5-1.1c-0.1,0-0.1-0.1-0.2-0.1c-0.6-0.4-1.1-0.8-1.7-1.1c0,0,0,0-0.1,0
			c-0.4-0.3-0.9-0.5-1.3-0.8s-0.9-0.5-1.4-0.8c-0.1,0-0.1-0.1-0.2-0.1c-0.5-0.3-1.1-0.6-1.6-0.9c-0.2-0.1-0.4-0.2-0.6-0.3
			c-0.3-0.1-0.5-0.3-0.8-0.4c0,0-0.1,0-0.1-0.1c-0.5-0.2-0.9-0.4-1.4-0.7c-0.6-0.3-1.1-0.5-1.7-0.7c-0.4-0.2-0.7-0.3-1.1-0.5
			c-0.5-0.2-1-0.4-1.6-0.6l-14.5,49.9L128.2,65z"/>
		<path fill="none" d="M130.8,140.6c-0.2,0.2-0.4,0.5-0.5,0.7c-0.3,0.4-0.6,0.9-0.9,1.4c0,0,0,0.1-0.1,0.1c-1.1,1.7-2,3.6-2.6,5.4
			c-0.1,0.3-0.2,0.5-0.2,0.8c-0.1,0.3-0.1,0.5-0.2,0.8c-0.1,0.3-0.1,0.5-0.2,0.8c-0.1,0.3-0.1,0.5-0.1,0.8c0,0,0,0,0,0.1
			c0,0.3-0.1,0.6-0.1,0.8l28.6,19.9l-23.1-32.3C131.1,140.2,130.9,140.4,130.8,140.6z"/>
		<path fill="none" d="M147.9,128.7c-0.3,0.1-0.6,0.2-0.9,0.4c-0.5,0.2-0.9,0.4-1.3,0.6c-0.4,0.2-0.8,0.3-1.1,0.5c0,0-0.1,0-0.1,0
			c-0.2,0.1-0.4,0.2-0.6,0.3c-0.2,0.1-0.3,0.2-0.5,0.2c-0.4,0.2-0.9,0.4-1.3,0.7c0,0-0.1,0.1-0.1,0.1c-0.4,0.2-0.7,0.4-1.1,0.6
			c-0.4,0.2-0.7,0.4-1.1,0.6c0,0,0,0,0,0c-0.5,0.3-0.9,0.6-1.3,0.9c0,0-0.1,0.1-0.1,0.1c-0.4,0.3-0.8,0.6-1.2,0.9l23.4,32.8
			l-11.4-39.1C148.7,128.4,148.3,128.6,147.9,128.7z"/>
		<path fill="none" d="M56.3,57.5c-0.4,0.2-0.8,0.3-1.1,0.5c-0.6,0.2-1.2,0.5-1.7,0.7c-0.5,0.2-1,0.4-1.4,0.7c-0.1,0-0.1,0-0.1,0.1
			c-0.3,0.1-0.5,0.2-0.8,0.4c-0.2,0.1-0.4,0.2-0.6,0.3c-0.6,0.3-1.1,0.6-1.6,0.9c-0.1,0-0.1,0.1-0.2,0.1c-0.5,0.2-0.9,0.5-1.4,0.8
			c-0.5,0.3-0.9,0.5-1.3,0.8c0,0,0,0-0.1,0c-0.6,0.4-1.1,0.7-1.7,1.1c-0.1,0-0.1,0.1-0.2,0.1c-0.5,0.4-1,0.7-1.5,1.1l29.9,41.9
			L57.8,57C57.3,57.1,56.8,57.3,56.3,57.5z"/>
		<path fill="none" d="M166.8,124.7c-0.7,0-1.4,0.1-2.1,0.2c-0.4,0-0.7,0.1-1.1,0.1c-0.4,0-0.7,0.1-1,0.1c-1,0.1-2.1,0.3-3.1,0.5
			c-0.3,0.1-0.7,0.1-1,0.2c-0.3,0.1-0.7,0.1-1,0.2c-0.2,0-0.5,0.1-0.7,0.1v0l10.1,34.8V124.7z"/>
		<path fill="none" d="M103.2,54.2c-0.3-0.1-0.6-0.1-0.9-0.2c-0.4-0.1-0.9-0.2-1.3-0.2c-0.4-0.1-0.8-0.2-1.3-0.2
			c-1.3-0.2-2.6-0.4-4-0.6c-0.4-0.1-0.9-0.1-1.3-0.2c-0.4,0-0.9-0.1-1.4-0.1c-0.9-0.1-1.8-0.2-2.7-0.2v46.2L103.2,54.2L103.2,54.2z"
			/>
		<path fill="none" d="M34.3,72.8c-0.2,0.3-0.5,0.6-0.7,0.9c-0.4,0.6-0.8,1.1-1.2,1.7c0,0-0.1,0.1-0.1,0.1c-1.4,2.2-2.5,4.5-3.3,6.9
			c-0.1,0.3-0.2,0.7-0.3,1c-0.1,0.3-0.2,0.7-0.3,1c-0.1,0.4-0.2,0.7-0.2,1.1c-0.1,0.3-0.1,0.6-0.2,1c0,0,0,0.1,0,0.1
			C28.1,87,28,87.4,28,87.8l36.5,25.4L35.1,71.9C34.8,72.2,34.6,72.5,34.3,72.8z"/>
		<path fill="none" d="M142.7,87.8c0-0.4-0.1-0.7-0.1-1.1c0,0,0,0,0-0.1c0-0.3-0.1-0.7-0.2-1c-0.1-0.4-0.1-0.7-0.2-1.1
			c-0.1-0.3-0.2-0.7-0.3-1c-0.1-0.3-0.2-0.7-0.3-1c-0.8-2.4-1.9-4.7-3.3-6.9c0,0-0.1-0.1-0.1-0.1c-0.4-0.6-0.8-1.2-1.2-1.7
			c-0.2-0.3-0.4-0.6-0.7-0.9c-0.2-0.3-0.5-0.6-0.7-0.9l-29.4,41.3L142.7,87.8z"/>
		<path fill="none" d="M184.7,126.1c-0.2-0.1-0.5-0.1-0.7-0.1c-0.3-0.1-0.7-0.1-1-0.2c-0.3-0.1-0.7-0.1-1-0.2
			c-1-0.2-2.1-0.3-3.1-0.5c-0.3,0-0.7-0.1-1-0.1c-0.4,0-0.7-0.1-1.1-0.1c-0.7-0.1-1.4-0.1-2.1-0.2v36.1L184.7,126.1L184.7,126.1z"/>
		<path fill="#DCC025" d="M475.2,127.3c-10.3,7.1-16,16.7-16,27v2l48.9,34v194.7h-76.4V136.4l62.5-43.5v-2.6
			c0-13.2-7.3-25.4-20.5-34.5c-12.6-8.7-29.3-13.5-47-13.5s-34.4,4.8-47,13.5c-13.2,9.1-20.5,21.3-20.5,34.5v2.6l62.5,43.5v248.7
			h-76.4V190.4l48.9-34v-2c0-10.3-5.7-19.9-16-27c-9.9-6.8-22.9-10.5-36.8-10.5c-13.8,0-26.9,3.7-36.8,10.5c-10.3,7.1-16,16.7-16,27
			v2l48.9,34v194.7H261V136.4l62.5-43.5v-2.6c0-13.2-7.3-25.4-20.5-34.5c-12.6-8.7-29.3-13.5-47-13.5s-34.4,4.8-47,13.5
			c-13.2,9.1-20.5,21.3-20.5,34.5v2.6l62.5,43.5v248.7h-76.4V190.4l48.9-34v-2c0-10.3-5.7-19.9-16-27c-9.9-6.8-22.9-10.5-36.8-10.5
			c-13.8,0-26.9,3.7-36.8,10.5c-10.3,7.1-16,16.7-16,27v2l48.9,34v194.7H90.3V136.4l62.5-43.5v-2.6c0-13.2-7.3-25.4-20.5-34.5
			c-12.6-8.7-29.3-13.5-47-13.5s-34.4,4.8-47,13.5c-13.2,9.1-20.5,21.3-20.5,34.5v2.6l62.5,43.5v248.7H3.9V190.4l48.9-34v-2
			c0-10.3-5.7-19.9-16-27c-9.9-6.8-22.9-10.5-36.8-10.5v268.3v0v10h512v-10v0V116.8C498.2,116.8,485.1,120.5,475.2,127.3z
			 M476.9,71.9c0.3,0.3,0.5,0.6,0.7,0.9c0.2,0.3,0.5,0.6,0.7,0.9c0.4,0.6,0.8,1.1,1.2,1.7c0,0,0.1,0.1,0.1,0.1
			c1.4,2.2,2.5,4.5,3.3,6.9c0.1,0.3,0.2,0.7,0.3,1c0.1,0.3,0.2,0.7,0.3,1c0.1,0.4,0.2,0.7,0.2,1.1c0.1,0.3,0.1,0.6,0.2,1
			c0,0,0,0,0,0.1c0.1,0.4,0.1,0.7,0.1,1.1l-36.5,25.4L476.9,71.9z M455.7,57.5c0.4,0.2,0.8,0.3,1.1,0.5c0.6,0.2,1.2,0.5,1.7,0.7
			c0.5,0.2,1,0.4,1.4,0.7c0.1,0,0.1,0,0.1,0.1c0.3,0.1,0.5,0.2,0.8,0.4c0.2,0.1,0.4,0.2,0.6,0.3c0.6,0.3,1.1,0.6,1.6,0.9
			c0.1,0,0.1,0.1,0.2,0.1c0.5,0.3,1,0.5,1.4,0.8s0.9,0.5,1.3,0.8c0,0,0,0,0.1,0c0.6,0.4,1.1,0.7,1.7,1.1c0.1,0,0.1,0.1,0.2,0.1
			c0.5,0.4,1,0.7,1.5,1.1l-29.9,41.9L454.2,57C454.7,57.1,455.2,57.3,455.7,57.5z M431.7,52.5c0.9,0,1.8,0.1,2.7,0.2
			c0.5,0,0.9,0.1,1.4,0.1c0.4,0,0.9,0.1,1.3,0.2c1.3,0.2,2.7,0.3,4,0.6c0.4,0.1,0.9,0.1,1.3,0.2c0.4,0.1,0.9,0.2,1.3,0.2
			c0.3,0.1,0.6,0.1,0.9,0.2v0l-12.9,44.4V52.5z M369.3,87.8c0-0.4,0.1-0.7,0.1-1.1c0,0,0,0,0-0.1c0-0.3,0.1-0.7,0.2-1
			c0.1-0.4,0.1-0.7,0.2-1.1c0.1-0.3,0.2-0.7,0.3-1c0.1-0.3,0.2-0.7,0.3-1c0.8-2.4,1.9-4.7,3.3-6.9c0,0,0.1-0.1,0.1-0.1
			c0.4-0.6,0.8-1.2,1.2-1.7c0.2-0.3,0.4-0.6,0.7-0.9c0.2-0.3,0.5-0.6,0.7-0.9l29.4,41.3L369.3,87.8z M383.8,65
			c0.5-0.4,1-0.7,1.5-1.1c0.1,0,0.1-0.1,0.2-0.1c0.6-0.4,1.1-0.8,1.7-1.1c0,0,0,0,0.1,0c0.4-0.3,0.9-0.5,1.3-0.8
			c0.5-0.3,0.9-0.5,1.4-0.8c0.1,0,0.1-0.1,0.2-0.1c0.5-0.3,1.1-0.6,1.6-0.9c0.2-0.1,0.4-0.2,0.6-0.3c0.3-0.1,0.5-0.3,0.8-0.4
			c0,0,0.1,0,0.1-0.1c0.5-0.2,0.9-0.4,1.4-0.7c0.6-0.2,1.1-0.5,1.7-0.7c0.4-0.2,0.7-0.3,1.1-0.5c0.5-0.2,1-0.4,1.6-0.6l14.5,49.9
			L383.8,65z M408.8,54.2L408.8,54.2c0.3-0.1,0.6-0.1,0.9-0.2c0.4-0.1,0.9-0.2,1.3-0.2c0.4-0.1,0.8-0.2,1.3-0.2
			c1.3-0.2,2.6-0.4,4-0.6c0.4-0.1,0.9-0.1,1.3-0.2c0.4,0,0.9-0.1,1.4-0.1c0.9-0.1,1.8-0.2,2.7-0.2v46.2L408.8,54.2z M380.7,139.9
			c0.2,0.2,0.4,0.5,0.6,0.7c0.2,0.2,0.4,0.5,0.5,0.7c0.3,0.4,0.6,0.9,0.9,1.4c0,0,0,0.1,0.1,0.1c1.1,1.7,2,3.6,2.6,5.4
			c0.1,0.3,0.2,0.5,0.2,0.8c0.1,0.3,0.1,0.5,0.2,0.8c0.1,0.3,0.1,0.5,0.2,0.8c0.1,0.3,0.1,0.5,0.1,0.8c0,0,0,0,0,0.1
			c0,0.3,0.1,0.6,0.1,0.8l-28.6,19.9L380.7,139.9z M364.1,128.7c0.3,0.1,0.6,0.2,0.9,0.4c0.5,0.2,0.9,0.4,1.3,0.6
			c0.4,0.2,0.8,0.3,1.1,0.5c0,0,0.1,0,0.1,0c0.2,0.1,0.4,0.2,0.6,0.3c0.2,0.1,0.3,0.2,0.5,0.2c0.4,0.2,0.9,0.4,1.3,0.7
			c0,0,0.1,0,0.1,0.1c0.4,0.2,0.7,0.4,1.1,0.6c0.4,0.2,0.7,0.4,1.1,0.6c0,0,0,0,0,0c0.5,0.3,0.9,0.6,1.3,0.9c0,0,0.1,0.1,0.1,0.1
			c0.4,0.3,0.8,0.6,1.2,0.9l-23.4,32.8l11.4-39.1C363.3,128.4,363.7,128.6,364.1,128.7z M345.2,124.7c0.7,0,1.4,0.1,2.1,0.2
			c0.4,0,0.7,0.1,1.1,0.1c0.4,0,0.7,0.1,1,0.1c1,0.1,2.1,0.3,3.1,0.5c0.3,0.1,0.7,0.1,1,0.2c0.3,0.1,0.7,0.1,1,0.2
			c0.2,0,0.5,0.1,0.7,0.1v0l-10.1,34.8V124.7z M296.4,152.4c0-0.3,0.1-0.6,0.1-0.8c0,0,0,0,0-0.1c0-0.3,0.1-0.5,0.1-0.8
			c0-0.3,0.1-0.5,0.2-0.8c0.1-0.3,0.1-0.5,0.2-0.8c0.1-0.3,0.1-0.5,0.2-0.8c0.6-1.9,1.5-3.7,2.6-5.4c0,0,0-0.1,0.1-0.1
			c0.3-0.5,0.6-0.9,0.9-1.4c0.2-0.2,0.4-0.5,0.5-0.7c0.2-0.2,0.4-0.5,0.6-0.7l23.1,32.3L296.4,152.4z M307.8,134.6
			c0.4-0.3,0.8-0.6,1.2-0.9c0,0,0.1-0.1,0.1-0.1c0.4-0.3,0.9-0.6,1.3-0.9c0,0,0,0,0,0c0.3-0.2,0.7-0.4,1.1-0.6
			c0.4-0.2,0.7-0.4,1.1-0.6c0,0,0.1-0.1,0.1-0.1c0.4-0.2,0.9-0.5,1.3-0.7c0.2-0.1,0.3-0.2,0.5-0.2c0.2-0.1,0.4-0.2,0.6-0.3
			c0,0,0.1,0,0.1,0c0.4-0.2,0.7-0.3,1.1-0.5c0.4-0.2,0.9-0.4,1.3-0.6c0.3-0.1,0.6-0.2,0.9-0.4c0.4-0.2,0.8-0.3,1.2-0.5l11.4,39.1
			L307.8,134.6z M327.3,126.1L327.3,126.1c0.2-0.1,0.5-0.1,0.7-0.2c0.3-0.1,0.7-0.1,1-0.2c0.3-0.1,0.7-0.1,1-0.2
			c1-0.2,2.1-0.3,3.1-0.5c0.3,0,0.7-0.1,1-0.1c0.4,0,0.7-0.1,1.1-0.1c0.7-0.1,1.4-0.1,2.1-0.2v36.1L327.3,126.1z M306.3,71.9
			c0.3,0.3,0.5,0.6,0.7,0.9c0.2,0.3,0.5,0.6,0.7,0.9c0.4,0.6,0.8,1.1,1.2,1.7c0,0,0.1,0.1,0.1,0.1c1.4,2.2,2.5,4.5,3.3,6.9
			c0.1,0.3,0.2,0.7,0.3,1c0.1,0.3,0.2,0.7,0.3,1c0.1,0.4,0.2,0.7,0.2,1.1c0.1,0.3,0.1,0.6,0.2,1c0,0,0,0,0,0.1
			c0.1,0.4,0.1,0.7,0.1,1.1l-36.5,25.4L306.3,71.9z M285.1,57.5c0.4,0.2,0.8,0.3,1.1,0.5c0.6,0.2,1.2,0.5,1.7,0.7
			c0.5,0.2,1,0.4,1.4,0.7c0.1,0,0.1,0,0.1,0.1c0.3,0.1,0.5,0.2,0.8,0.4c0.2,0.1,0.4,0.2,0.6,0.3c0.6,0.3,1.1,0.6,1.6,0.9
			c0.1,0,0.1,0.1,0.2,0.1c0.5,0.3,1,0.5,1.4,0.8s0.9,0.5,1.3,0.8c0,0,0,0,0.1,0c0.6,0.4,1.1,0.7,1.7,1.1c0.1,0,0.1,0.1,0.2,0.1
			c0.5,0.4,1,0.7,1.5,1.1L269,106.9L283.5,57C284,57.1,284.6,57.3,285.1,57.5z M261,52.5c0.9,0,1.8,0.1,2.7,0.2
			c0.5,0,0.9,0.1,1.4,0.1c0.4,0,0.9,0.1,1.3,0.2c1.3,0.2,2.7,0.3,4,0.6c0.4,0.1,0.9,0.1,1.3,0.2c0.4,0.1,0.9,0.2,1.3,0.2
			c0.3,0.1,0.6,0.1,0.9,0.2v0L261,98.6V52.5z M198.6,87.8c0-0.4,0.1-0.7,0.1-1.1c0,0,0,0,0-0.1c0-0.3,0.1-0.7,0.2-1
			c0.1-0.4,0.1-0.7,0.2-1.1c0.1-0.3,0.2-0.7,0.3-1c0.1-0.3,0.2-0.7,0.3-1c0.8-2.4,1.9-4.7,3.3-6.9c0,0,0.1-0.1,0.1-0.1
			c0.4-0.6,0.8-1.2,1.2-1.7c0.2-0.3,0.4-0.6,0.7-0.9c0.2-0.3,0.5-0.6,0.7-0.9l29.4,41.3L198.6,87.8z M213.1,65
			c0.5-0.4,1-0.7,1.5-1.1c0.1,0,0.1-0.1,0.2-0.1c0.6-0.4,1.1-0.8,1.7-1.1c0,0,0,0,0.1,0c0.4-0.3,0.9-0.5,1.3-0.8
			c0.5-0.3,0.9-0.5,1.4-0.8c0.1,0,0.1-0.1,0.2-0.1c0.5-0.3,1.1-0.6,1.6-0.9c0.2-0.1,0.4-0.2,0.6-0.3c0.3-0.1,0.5-0.3,0.8-0.4
			c0,0,0.1,0,0.1-0.1c0.5-0.2,0.9-0.4,1.4-0.7c0.6-0.2,1.1-0.5,1.7-0.7c0.4-0.2,0.7-0.3,1.1-0.5c0.5-0.2,1-0.4,1.6-0.6l14.5,49.9
			L213.1,65z M238.1,54.2L238.1,54.2c0.3-0.1,0.6-0.1,0.9-0.2c0.4-0.1,0.9-0.2,1.3-0.2c0.4-0.1,0.8-0.2,1.3-0.2
			c1.3-0.2,2.6-0.4,4-0.6c0.4-0.1,0.9-0.1,1.3-0.2c0.4,0,0.9-0.1,1.4-0.1c0.9-0.1,1.8-0.2,2.7-0.2v46.2L238.1,54.2z M210,139.9
			c0.2,0.2,0.4,0.5,0.6,0.7c0.2,0.2,0.4,0.5,0.5,0.7c0.3,0.4,0.6,0.9,0.9,1.4c0,0,0,0.1,0.1,0.1c1.1,1.7,2,3.6,2.6,5.4
			c0.1,0.3,0.2,0.5,0.2,0.8c0.1,0.3,0.1,0.5,0.2,0.8c0.1,0.3,0.1,0.5,0.2,0.8c0.1,0.3,0.1,0.5,0.1,0.8c0,0,0,0,0,0.1
			c0,0.3,0.1,0.6,0.1,0.8L187,172.3L210,139.9z M193.4,128.7c0.3,0.1,0.6,0.2,0.9,0.4c0.5,0.2,0.9,0.4,1.3,0.6
			c0.4,0.2,0.8,0.3,1.1,0.5c0,0,0.1,0,0.1,0c0.2,0.1,0.4,0.2,0.6,0.3c0.2,0.1,0.3,0.2,0.5,0.2c0.4,0.2,0.9,0.4,1.3,0.7
			c0,0,0.1,0,0.1,0.1c0.4,0.2,0.7,0.4,1.1,0.6c0.4,0.2,0.7,0.4,1.1,0.6c0,0,0,0,0,0c0.5,0.3,0.9,0.6,1.3,0.9c0,0,0.1,0.1,0.1,0.1
			c0.4,0.3,0.8,0.6,1.2,0.9l-23.4,32.8l11.4-39.1C192.6,128.4,193,128.6,193.4,128.7z M174.6,124.7c0.7,0,1.4,0.1,2.1,0.2
			c0.4,0,0.7,0.1,1.1,0.1c0.4,0,0.7,0.1,1,0.1c1,0.1,2.1,0.3,3.1,0.5c0.3,0.1,0.7,0.1,1,0.2c0.3,0.1,0.7,0.1,1,0.2
			c0.2,0,0.5,0.1,0.7,0.1v0l-10.1,34.8V124.7z M125.8,152.4c0-0.3,0.1-0.6,0.1-0.8c0,0,0,0,0-0.1c0-0.3,0.1-0.5,0.1-0.8
			c0-0.3,0.1-0.5,0.2-0.8c0.1-0.3,0.1-0.5,0.2-0.8c0.1-0.3,0.1-0.5,0.2-0.8c0.6-1.9,1.5-3.7,2.6-5.4c0,0,0-0.1,0.1-0.1
			c0.3-0.5,0.6-0.9,0.9-1.4c0.2-0.2,0.4-0.5,0.5-0.7c0.2-0.2,0.4-0.5,0.6-0.7l23.1,32.3L125.8,152.4z M137.1,134.6
			c0.4-0.3,0.8-0.6,1.2-0.9c0,0,0.1-0.1,0.1-0.1c0.4-0.3,0.9-0.6,1.3-0.9c0,0,0,0,0,0c0.3-0.2,0.7-0.4,1.1-0.6
			c0.4-0.2,0.7-0.4,1.1-0.6c0,0,0.1-0.1,0.1-0.1c0.4-0.2,0.9-0.5,1.3-0.7c0.2-0.1,0.3-0.2,0.5-0.2c0.2-0.1,0.4-0.2,0.6-0.3
			c0,0,0.1,0,0.1,0c0.4-0.2,0.7-0.3,1.1-0.5c0.4-0.2,0.9-0.4,1.3-0.6c0.3-0.1,0.6-0.2,0.9-0.4c0.4-0.2,0.8-0.3,1.2-0.5l11.4,39.1
			L137.1,134.6z M156.6,126.1L156.6,126.1c0.2-0.1,0.5-0.1,0.7-0.2c0.3-0.1,0.7-0.1,1-0.2c0.3-0.1,0.7-0.1,1-0.2
			c1-0.2,2.1-0.3,3.1-0.5c0.3,0,0.7-0.1,1-0.1c0.4,0,0.7-0.1,1.1-0.1c0.7-0.1,1.4-0.1,2.1-0.2v36.1L156.6,126.1z M135.6,71.9
			c0.3,0.3,0.5,0.6,0.7,0.9c0.2,0.3,0.5,0.6,0.7,0.9c0.4,0.6,0.8,1.1,1.2,1.7c0,0,0.1,0.1,0.1,0.1c1.4,2.2,2.5,4.5,3.3,6.9
			c0.1,0.3,0.2,0.7,0.3,1c0.1,0.3,0.2,0.7,0.3,1c0.1,0.4,0.2,0.7,0.2,1.1c0.1,0.3,0.1,0.6,0.2,1c0,0,0,0,0,0.1
			c0.1,0.4,0.1,0.7,0.1,1.1l-36.5,25.4L135.6,71.9z M114.4,57.5c0.4,0.2,0.8,0.3,1.1,0.5c0.6,0.2,1.2,0.5,1.7,0.7
			c0.5,0.2,1,0.4,1.4,0.7c0.1,0,0.1,0,0.1,0.1c0.3,0.1,0.5,0.2,0.8,0.4c0.2,0.1,0.4,0.2,0.6,0.3c0.6,0.3,1.1,0.6,1.6,0.9
			c0.1,0,0.1,0.1,0.2,0.1c0.5,0.3,1,0.5,1.4,0.8s0.9,0.5,1.3,0.8c0,0,0,0,0.1,0c0.6,0.4,1.1,0.7,1.7,1.1c0.1,0,0.1,0.1,0.2,0.1
			c0.5,0.4,1,0.7,1.5,1.1l-29.9,41.9L112.9,57C113.4,57.1,113.9,57.3,114.4,57.5z M90.3,52.5c0.9,0,1.8,0.1,2.7,0.2
			c0.5,0,0.9,0.1,1.4,0.1c0.4,0,0.9,0.1,1.3,0.2c1.3,0.2,2.7,0.3,4,0.6c0.4,0.1,0.9,0.1,1.3,0.2c0.4,0.1,0.9,0.2,1.3,0.2
			c0.3,0.1,0.6,0.1,0.9,0.2v0L90.3,98.6V52.5z M28,87.8c0-0.4,0.1-0.7,0.1-1.1c0,0,0,0,0-0.1c0-0.3,0.1-0.7,0.2-1
			c0.1-0.4,0.1-0.7,0.2-1.1c0.1-0.3,0.2-0.7,0.3-1c0.1-0.3,0.2-0.7,0.3-1c0.8-2.4,1.9-4.7,3.3-6.9c0,0,0.1-0.1,0.1-0.1
			c0.4-0.6,0.8-1.2,1.2-1.7c0.2-0.3,0.4-0.6,0.7-0.9c0.2-0.3,0.5-0.6,0.7-0.9l29.4,41.3L28,87.8z M42.5,65c0.5-0.4,1-0.7,1.5-1.1
			c0.1,0,0.1-0.1,0.2-0.1c0.6-0.4,1.1-0.8,1.7-1.1c0,0,0,0,0.1,0c0.4-0.3,0.9-0.5,1.3-0.8c0.5-0.3,0.9-0.5,1.4-0.8
			c0.1,0,0.1-0.1,0.2-0.1c0.5-0.3,1.1-0.6,1.6-0.9c0.2-0.1,0.4-0.2,0.6-0.3c0.3-0.1,0.5-0.3,0.8-0.4c0,0,0.1,0,0.1-0.1
			c0.5-0.2,0.9-0.4,1.4-0.7c0.6-0.2,1.1-0.5,1.7-0.7c0.4-0.2,0.7-0.3,1.1-0.5c0.5-0.2,1-0.4,1.6-0.6l14.5,49.9L42.5,65z M67.4,54.2
			L67.4,54.2c0.3-0.1,0.6-0.1,0.9-0.2c0.4-0.1,0.9-0.2,1.3-0.2c0.4-0.1,0.8-0.2,1.3-0.2c1.3-0.2,2.6-0.4,4-0.6
			c0.4-0.1,0.9-0.1,1.3-0.2c0.4,0,0.9-0.1,1.4-0.1c0.9-0.1,1.8-0.2,2.7-0.2v46.2L67.4,54.2z M39.3,139.9c0.2,0.2,0.4,0.5,0.6,0.7
			c0.2,0.2,0.4,0.5,0.5,0.7c0.3,0.4,0.6,0.9,0.9,1.4c0,0,0,0.1,0.1,0.1c1.1,1.7,2,3.6,2.6,5.4c0.1,0.3,0.2,0.5,0.2,0.8
			c0.1,0.3,0.1,0.5,0.2,0.8c0.1,0.3,0.1,0.5,0.2,0.8c0.1,0.3,0.1,0.5,0.1,0.8c0,0,0,0,0,0.1c0,0.3,0.1,0.6,0.1,0.8l-28.6,19.9
			L39.3,139.9z M22.8,128.7c0.3,0.1,0.6,0.2,0.9,0.4c0.5,0.2,0.9,0.4,1.3,0.6c0.4,0.2,0.8,0.3,1.1,0.5c0,0,0.1,0,0.1,0
			c0.2,0.1,0.4,0.2,0.6,0.3c0.2,0.1,0.3,0.2,0.5,0.2c0.4,0.2,0.9,0.4,1.3,0.7c0,0,0.1,0,0.1,0.1c0.4,0.2,0.7,0.4,1.1,0.6
			c0.4,0.2,0.7,0.4,1.1,0.6c0,0,0,0,0,0c0.5,0.3,0.9,0.6,1.3,0.9c0,0,0.1,0.1,0.1,0.1c0.4,0.3,0.8,0.6,1.2,0.9l-23.4,32.8l11.4-39.1
			C21.9,128.4,22.4,128.6,22.8,128.7z M3.9,124.7c0.7,0,1.4,0.1,2.1,0.2c0.4,0,0.7,0.1,1.1,0.1c0.4,0,0.7,0.1,1,0.1
			c1,0.1,2.1,0.3,3.1,0.5c0.3,0.1,0.7,0.1,1,0.2c0.3,0.1,0.7,0.1,1,0.2c0.2,0,0.5,0.1,0.7,0.1v0L3.9,160.9V124.7z M467.1,152.4
			c0-0.3,0.1-0.6,0.1-0.8c0,0,0,0,0-0.1c0-0.3,0.1-0.5,0.1-0.8c0-0.3,0.1-0.5,0.2-0.8c0.1-0.3,0.1-0.5,0.2-0.8
			c0.1-0.3,0.1-0.5,0.2-0.8c0.6-1.9,1.5-3.7,2.6-5.4c0,0,0-0.1,0.1-0.1c0.3-0.5,0.6-0.9,0.9-1.4c0.2-0.2,0.4-0.5,0.5-0.7
			c0.2-0.2,0.4-0.5,0.6-0.7l23.1,32.3L467.1,152.4z M478.4,134.6c0.4-0.3,0.8-0.6,1.2-0.9c0,0,0.1-0.1,0.1-0.1
			c0.4-0.3,0.9-0.6,1.3-0.9c0,0,0,0,0,0c0.3-0.2,0.7-0.4,1.1-0.6c0.4-0.2,0.7-0.4,1.1-0.6c0,0,0.1-0.1,0.1-0.1
			c0.4-0.2,0.9-0.5,1.3-0.7c0.2-0.1,0.3-0.2,0.5-0.2c0.2-0.1,0.4-0.2,0.6-0.3c0,0,0.1,0,0.1,0c0.4-0.2,0.7-0.3,1.1-0.5
			c0.4-0.2,0.9-0.4,1.3-0.6c0.3-0.1,0.6-0.2,0.9-0.4c0.4-0.2,0.8-0.3,1.2-0.5l11.4,39.1L478.4,134.6z M498,126.1L498,126.1
			c0.2-0.1,0.5-0.1,0.7-0.2c0.3-0.1,0.7-0.1,1-0.2c0.3-0.1,0.7-0.1,1-0.2c1-0.2,2.1-0.3,3.1-0.5c0.3,0,0.7-0.1,1-0.1
			c0.4,0,0.7-0.1,1.1-0.1c0.7-0.1,1.4-0.1,2.1-0.2v36.1L498,126.1z"/>
	</g>
</g>
</svg>
