<?xml version="1.0" encoding="utf-8"?>
<!-- Generator: Adobe Illustrator 19.2.1, SVG Export Plug-In . SVG Version: 6.00 Build 0)  -->
<!DOCTYPE svg PUBLIC "-//W3C//DTD SVG 1.1 Basic//EN" "http://www.w3.org/Graphics/SVG/1.1/DTD/svg11-basic.dtd">
<svg version="1.1" baseProfile="basic" xmlns="http://www.w3.org/2000/svg" xmlns:xlink="http://www.w3.org/1999/xlink" x="0px"
	 y="0px" viewBox="0 0 1024 1024" xml:space="preserve">
<g id="OldStuff" display="none">
	<g display="inline">
		<path fill="#231F20" d="M-120.7,204.9c-5.9,0-10.7,4.8-10.7,10.7s4.8,10.7,10.7,10.7c5.9,0,10.7-4.8,10.7-10.7
			S-114.8,204.9-120.7,204.9z"/>
		<path fill="#231F20" d="M-120.7,199c-9.2,0-16.6,7.4-16.6,16.6s7.4,16.6,16.6,16.6c9.2,0,16.6-7.4,16.6-16.6S-111.5,199-120.7,199
			z M-120.7,229.3c-7.6,0-13.7-6.2-13.7-13.7c0-7.6,6.2-13.7,13.7-13.7c7.6,0,13.7,6.2,13.7,13.7
			C-106.9,223.1-113.1,229.3-120.7,229.3z"/>
	</g>
	<g display="inline">
		<path fill="#FFFFFF" d="M-164.6,204.9c-5.9,0-10.7,4.8-10.7,10.7s4.8,10.7,10.7,10.7V204.9z"/>
		<path fill="#FFFFFF" d="M-164.6,229.3c-7.6,0-13.7-6.2-13.7-13.7c0-7.6,6.2-13.7,13.7-13.7l0-2.9c-9.2,0-16.6,7.4-16.6,16.6
			c0,9.2,7.4,16.6,16.6,16.6L-164.6,229.3z"/>
	</g>
	<g display="inline">
		<path fill="#FFFFFF" d="M-220.3,215.6c0-5.9-4.8-10.7-10.7-10.7v21.4C-225.1,226.2-220.3,221.4-220.3,215.6z"/>
		<path fill="#FFFFFF" d="M-231,199l0,2.9c7.6,0,13.7,6.2,13.7,13.7c0,7.6-6.2,13.7-13.7,13.7l0,2.9c9.2,0,16.6-7.4,16.6-16.6
			S-221.8,199-231,199z"/>
	</g>
	<path display="inline" fill="#231F20" d="M951.4,328.9c-10.5,5-38.4,20.6-38.4,43.7v445.1c0,7.7,6.3,14,14,14h66.4
		c7.7,0,14-6.3,14-14V401.8c0-6.8-5.5-12.2-12.2-12.2h-40.9c-3.8,0-6.9-3.1-6.9-6.9v-22.3c0-3.8,3.1-6.9,6.9-6.9h27.5
		c10.3,0,16-11.9,9.5-19.9l-53.3-86c-7-8.6-0.9-21.4,10.2-21.4h75.8V144H0v82.3h75.8c11.1,0,17.2,12.8,10.2,21.4l-53.4,85.5
		c-6.5,7.9-0.9,19.8,9.3,20l27.9,0.4c3.7,0.1,6.8,3.1,6.8,6.9v22.4c0,3.8-3.1,6.9-6.9,6.9H28.8c-6.8,0-12.2,5.5-12.2,12.2v415.8
		c0,7.7,6.3,14,14,14H97c7.7,0,14-6.3,14-14V372.6c0-23.1-27.9-38.7-38.4-43.7c-2-1-2.7-3.5-1.4-5.4l53.8-74.7
		c1.5-2.1,4.6-2.1,6.1,0l53.8,74.7c1.3,1.8,0.7,4.4-1.4,5.4c-10.5,5-38.4,20.6-38.4,43.7v445.1c0,7.7,6.3,14,14,14h66.4
		c7.7,0,14-6.3,14-14V401.8c0-6.8-5.5-12.2-12.2-12.2h-40.9c-3.8,0-6.9-3.1-6.9-6.9v-22.3c0-3.8,3.1-6.9,6.9-6.9h27.5
		c10.3,0,16-11.9,9.5-19.9l-53.3-86c-7-8.6-0.9-21.4,10.2-21.4h151.6c11.1,0,17.2,12.8,10.2,21.4l-53.4,85.5
		c-6.5,7.9-0.9,19.8,9.3,20l27.9,0.4c3.7,0.1,6.8,3.1,6.8,6.9v22.4c0,3.8-3.1,6.9-6.9,6.9h-40.9c-6.8,0-12.2,5.5-12.2,12.2v415.8
		c0,7.7,6.3,14,14,14H353c7.7,0,14-6.3,14-14V372.6c0-23.1-27.9-38.7-38.4-43.7c-2-1-2.7-3.5-1.4-5.4l53.8-74.7
		c1.5-2.1,4.6-2.1,6.1,0l53.8,74.7c1.3,1.8,0.7,4.4-1.4,5.4c-10.5,5-38.4,20.6-38.4,43.7v445.1c0,7.7,6.3,14,14,14h66.4
		c7.7,0,14-6.3,14-14V401.8c0-6.8-5.5-12.2-12.2-12.2h-40.9c-3.8,0-6.9-3.1-6.9-6.9v-22.3c0-3.8,3.1-6.9,6.9-6.9h27.5
		c10.3,0,16-11.9,9.5-19.9l-53.3-86c-7-8.6-0.9-21.4,10.2-21.4h151.6c11.1,0,17.2,12.8,10.2,21.4l-53.4,85.5
		c-6.5,7.9-0.9,19.8,9.3,20l27.9,0.4c3.7,0.1,6.8,3.1,6.8,6.9v22.4c0,3.8-3.1,6.9-6.9,6.9h-40.9c-6.8,0-12.2,5.5-12.2,12.2v415.8
		c0,7.7,6.3,14,14,14H609c7.7,0,14-6.3,14-14V372.6c0-23.1-27.9-38.7-38.4-43.7c-2-1-2.7-3.5-1.4-5.4l53.8-74.7
		c1.5-2.1,4.6-2.1,6.1,0l53.8,74.7c1.3,1.8,0.7,4.4-1.4,5.4c-10.5,5-38.4,20.6-38.4,43.7v445.1c0,7.7,6.3,14,14,14h66.4
		c7.7,0,14-6.3,14-14V401.8c0-6.8-5.5-12.2-12.2-12.2h-40.9c-3.8,0-6.9-3.1-6.9-6.9v-22.3c0-3.8,3.1-6.9,6.9-6.9h27.5
		c10.3,0,16-11.9,9.5-19.9l-53.3-86c-7-8.6-0.9-21.4,10.2-21.4h151.6c11.1,0,17.2,12.8,10.2,21.4l-53.4,85.5
		c-6.5,7.9-0.9,19.8,9.3,20l27.9,0.4c3.7,0.1,6.8,3.1,6.8,6.9v22.4c0,3.8-3.1,6.9-6.9,6.9h-40.9c-6.8,0-12.2,5.5-12.2,12.2v415.8
		c0,7.7,6.3,14,14,14H865c7.7,0,14-6.3,14-14V372.6c0-23.1-27.9-38.7-38.4-43.7c-2-1-2.7-3.5-1.4-5.4l53.8-74.7
		c1.5-2.1,4.6-2.1,6.1,0l53.8,74.7C954.1,325.3,953.4,327.9,951.4,328.9z M951.6,423.9c4.7-5.9,13.3-6.8,19.1-2.1
		c5.9,4.7,6.8,13.3,2.1,19.1c-0.6,0.8-1.4,1.5-2.1,2.1c0,0-0.1,0.1-0.3,0.2c-0.2,0.2-0.4,0.4-0.6,0.7c-0.5,0.6-1.2,1.6-1.7,2.8
		c-0.5,1.2-1,2.8-1,4.6c0,1.8,0,3.9,0,6.2c-0.1,9.3-0.1,22.6-0.2,38.5c0,8-0.1,16.6-0.2,25.7c-0.1,9.1-0.1,18.8-0.1,28.7
		c0,10,0,20.3,0,30.7c0,10.5,0,21.1,0.1,31.7c0.1,21.3,0.3,42.5,0.4,62.4c0.2,19.9,0.4,38.5,0.5,54.5c0.2,15.9,0.3,29.2,0.4,38.5
		c0,2.3,0,4.4,0.2,6.2c0.2,1.8,0.6,3.3,1,4.6c0.4,1.2,0.8,2.2,1.1,2.8c0.3,0.6,0.5,1,0.5,1c3.2,4.7,2,11.1-2.7,14.3
		c-4.7,3.2-11.1,2-14.3-2.7c-2.5-3.6-2.3-8.3,0-11.7c0,0,0.2-0.3,0.5-1c0.3-0.6,0.8-1.6,1.1-2.8c0.4-1.2,0.7-2.8,1-4.6
		c0.2-1.8,0.2-3.9,0.2-6.2c0.1-9.3,0.2-22.6,0.4-38.5c0.2-15.9,0.3-34.5,0.5-54.5c0.1-19.9,0.3-41.2,0.4-62.4
		c0-10.6,0-21.3,0.1-31.7c0-10.5,0-20.8,0-30.7c0-10-0.1-19.6-0.1-28.7c-0.1-9.1-0.1-17.8-0.2-25.7c-0.1-15.9-0.2-29.2-0.2-38.5
		c0-2.3,0-4.4,0-6.2c0-1.8-0.5-3.3-1-4.6c-0.5-1.2-1.2-2.2-1.7-2.8c-0.3-0.3-0.5-0.6-0.6-0.7c-0.2-0.2-0.3-0.2-0.3-0.2
		C947.9,438.3,946.9,429.7,951.6,423.9z M69.7,802.1c-4.7,5.9-13.3,6.8-19.1,2.1s-6.8-13.3-2.1-19.1c0.6-0.8,1.4-1.5,2.1-2.1
		c0,0,0.1-0.1,0.3-0.2c0.2-0.2,0.4-0.4,0.6-0.7c0.5-0.6,1.2-1.6,1.7-2.8c0.5-1.2,1-2.8,1-4.6c0-1.8,0-3.9,0-6.2
		c0.1-9.3,0.1-22.6,0.2-38.5c0-8,0.1-16.6,0.2-25.7c0.1-9.1,0.1-18.8,0.1-28.7c0-10,0-20.3,0-30.7c0-10.5,0-21.1-0.1-31.7
		c-0.1-21.3-0.3-42.5-0.4-62.4c-0.2-19.9-0.4-38.5-0.5-54.5c-0.2-15.9-0.3-29.2-0.4-38.5c0-2.3,0-4.4-0.2-6.2
		c-0.2-1.8-0.6-3.3-1-4.6c-0.4-1.2-0.8-2.2-1.1-2.8c-0.3-0.6-0.5-1-0.5-1c-3.2-4.7-2-11.1,2.7-14.3c4.7-3.2,11.1-2,14.3,2.7
		c2.5,3.6,2.3,8.3,0,11.7c0,0-0.2,0.3-0.5,1c-0.3,0.6-0.8,1.6-1.1,2.8c-0.4,1.2-0.7,2.8-1,4.6c-0.2,1.8-0.2,3.9-0.2,6.2
		c-0.1,9.3-0.2,22.6-0.4,38.5c-0.2,15.9-0.3,34.5-0.5,54.5c-0.1,19.9-0.3,41.2-0.4,62.4c0,10.6,0,21.3-0.1,31.7
		c0,10.5,0,20.8,0,30.7c0,10,0.1,19.6,0.1,28.7c0.1,9.1,0.1,17.8,0.2,25.7c0.1,15.9,0.2,29.2,0.2,38.5c0,2.3,0,4.4,0,6.2
		c0,1.8,0.5,3.3,1,4.6c0.5,1.2,1.2,2.2,1.7,2.8c0.3,0.3,0.5,0.6,0.6,0.7c0.2,0.2,0.3,0.2,0.3,0.2C73.5,787.7,74.4,796.3,69.7,802.1z
		 M180.8,420.2c5.2-7.3,15.4-9,22.8-3.8c7.3,5.2,9,15.4,3.8,22.8c-1.1,1.5-2.4,2.8-3.8,3.8c0,0-0.1,0.1-0.3,0.2
		c-0.2,0.2-0.4,0.4-0.7,0.7c-0.6,0.6-1.3,1.6-1.9,2.8c-0.6,1.2-1.1,2.8-1.1,4.6c0,1.8,0,3.9-0.1,6.2c-0.1,9.3-0.2,22.6-0.3,38.5
		c0,8-0.1,16.6-0.1,25.7c0,9.1-0.1,18.8-0.1,28.7c0,10,0,20.3,0,30.7c0,10.5,0,21.1,0.1,31.7c0.1,10.6,0.1,21.3,0.2,31.7
		c0.1,10.5,0.2,20.8,0.3,30.7c0.2,19.9,0.4,38.5,0.6,54.5c0.2,15.9,0.3,29.2,0.4,38.5c0,2.3,0,4.4,0.2,6.2c0.2,1.8,0.6,3.3,1.1,4.6
		c0.4,1.2,0.9,2.2,1.3,2.8c0.4,0.6,0.6,1,0.6,1c4,5.2,3,12.8-2.2,16.8s-12.8,3-16.8-2.2c-3.4-4.4-3.2-10.4,0-14.6c0,0,0.3-0.3,0.6-1
		c0.4-0.6,0.9-1.6,1.3-2.8c0.4-1.2,0.8-2.8,1.1-4.6c0.3-1.8,0.2-3.9,0.2-6.2c0.1-9.3,0.3-22.6,0.4-38.5c0.2-15.9,0.4-34.5,0.6-54.5
		c0.1-10,0.2-20.3,0.3-30.7c0.1-10.5,0.1-21.1,0.2-31.7c0-10.6,0-21.3,0.1-31.7c0-10.5,0-20.8,0-30.7c0-10-0.1-19.6-0.1-28.7
		c-0.1-9.1-0.1-17.8-0.1-25.7c-0.1-15.9-0.2-29.2-0.3-38.5c0-2.3,0-4.4-0.1-6.2c-0.1-1.8-0.5-3.3-1.1-4.6c-0.6-1.2-1.3-2.2-1.9-2.8
		c-0.3-0.3-0.5-0.6-0.7-0.7c-0.2-0.2-0.3-0.2-0.3-0.2C177.3,437.8,175.6,427.6,180.8,420.2z M323.3,798.8
		c-4.1,4.6-11.2,4.9-15.8,0.8s-4.9-11.2-0.8-15.8c0.2-0.3,0.5-0.5,0.8-0.8c0,0,0.1-0.1,0.2-0.2c0.1-0.2,0.3-0.4,0.6-0.7
		c0.5-0.6,1.1-1.6,1.5-2.8c0.5-1.2,0.8-2.8,0.9-4.6c0-1.8,0-3.9,0-6.2c0.1-9.3,0.1-22.6,0.2-38.5c0-8,0.1-16.6,0.1-25.7
		c0.1-9.1,0.1-18.8,0.1-28.7c0-19.9,0-41.2,0-62.4c-0.1-21.3-0.2-42.5-0.4-62.4c-0.2-19.9-0.3-38.5-0.5-54.5
		c-0.1-15.9-0.3-29.2-0.3-38.5c0-2.3,0-4.4-0.2-6.2c-0.2-1.8-0.5-3.3-0.8-4.6c-0.3-1.2-0.7-2.2-1-2.8c-0.3-0.6-0.5-1-0.5-1
		c-2.5-4.1-1.2-9.5,3-12c4.1-2.5,9.5-1.2,12,3c1.7,2.9,1.6,6.4,0,9.1c0,0-0.2,0.3-0.5,1c-0.3,0.6-0.7,1.6-1,2.8
		c-0.3,1.2-0.7,2.8-0.8,4.6c-0.2,1.8-0.2,3.9-0.2,6.2c-0.1,9.3-0.2,22.6-0.3,38.5c-0.1,15.9-0.3,34.5-0.5,54.5
		c-0.1,19.9-0.2,41.2-0.4,62.4c0,21.3,0,42.5,0,62.4c0,10,0,19.6,0.1,28.7c0.1,9.1,0.1,17.8,0.1,25.7c0.1,15.9,0.2,29.2,0.2,38.5
		c0,2.3,0,4.4,0,6.2c0,1.8,0.4,3.3,0.9,4.6c0.5,1.2,1,2.2,1.5,2.8c0.2,0.3,0.4,0.6,0.6,0.7c0.1,0.2,0.2,0.2,0.2,0.2
		C327.1,787.1,327.4,794.2,323.3,798.8z M438.2,425.6c4.4-5.2,12.2-5.8,17.4-1.4s5.8,12.2,1.4,17.4c-0.4,0.5-0.9,1-1.4,1.4
		c0,0-0.1,0.1-0.2,0.2c-0.2,0.2-0.4,0.4-0.6,0.7c-0.5,0.6-1.1,1.6-1.6,2.8c-0.5,1.2-0.9,2.8-0.9,4.6c0,1.8,0,3.9,0,6.2
		c-0.1,9.3-0.1,22.6-0.2,38.5c-0.1,15.9-0.3,34.5-0.3,54.5c0,10,0,20.3,0,30.7c0,10.5,0,21.1,0.1,31.7c0.1,21.3,0.3,42.5,0.4,62.4
		c0.2,19.9,0.3,38.5,0.5,54.5c0.2,15.9,0.3,29.2,0.4,38.5c0,2.3,0,4.4,0.2,6.2c0.2,1.8,0.5,3.3,0.9,4.6c0.4,1.2,0.8,2.2,1.1,2.8
		c0.3,0.6,0.5,1,0.5,1c2.9,4.4,1.6,10.3-2.8,13.2c-4.4,2.9-10.3,1.6-13.2-2.8c-2.1-3.2-2-7.3,0-10.3c0,0,0.2-0.3,0.5-1
		c0.3-0.6,0.7-1.6,1.1-2.8c0.4-1.2,0.7-2.8,0.9-4.6c0.2-1.8,0.2-3.9,0.2-6.2c0.1-9.3,0.2-22.6,0.4-38.5c0.1-15.9,0.3-34.5,0.5-54.5
		c0.1-19.9,0.2-41.2,0.4-62.4c0-10.6,0-21.3,0.1-31.7c0-10.5,0-20.8,0-30.7c0-19.9-0.2-38.5-0.3-54.5c-0.1-15.9-0.2-29.2-0.2-38.5
		c0-2.3,0-4.4,0-6.2c0-1.8-0.4-3.3-0.9-4.6c-0.5-1.2-1.1-2.2-1.6-2.8c-0.2-0.3-0.5-0.6-0.6-0.7c-0.1-0.2-0.2-0.2-0.2-0.2
		C434.4,438.6,433.8,430.8,438.2,425.6z M580,795.7c-3.6,3.4-9.3,3.3-12.7-0.3c-3.3-3.5-3.3-9,0-12.4c0,0,0.1-0.1,0.2-0.2
		c0.1-0.2,0.3-0.4,0.5-0.7c0.4-0.6,0.9-1.6,1.3-2.8c0.4-1.2,0.7-2.8,0.8-4.6c0-1.8,0-3.9,0-6.2c0-9.3,0.1-22.6,0.2-38.5
		c0-8,0.1-16.6,0.1-25.7c0.1-9.1,0.1-18.8,0.1-28.7c0-19.9,0-41.2,0-62.4c-0.1-21.3-0.2-42.5-0.3-62.4c-0.1-19.9-0.3-38.5-0.4-54.5
		c-0.1-15.9-0.2-29.2-0.3-38.5c0-2.3,0-4.4-0.2-6.2c-0.2-1.8-0.4-3.3-0.7-4.6c-0.6-2.5-1.3-3.8-1.3-3.8c-1.9-3.6-0.5-8,3.1-9.9
		c3.6-1.9,8-0.5,9.9,3.1c1.2,2.2,1.1,4.8,0,6.9c0,0-0.7,1.3-1.3,3.8c-0.3,1.2-0.6,2.8-0.7,4.6c-0.2,1.8-0.1,3.9-0.2,6.2
		c-0.1,9.3-0.2,22.6-0.3,38.5c-0.1,15.9-0.2,34.5-0.4,54.5c-0.1,19.9-0.2,41.2-0.3,62.4c0,21.3,0,42.5,0,62.4c0,10,0,19.6,0.1,28.7
		c0,9.1,0.1,17.8,0.1,25.7c0.1,15.9,0.1,29.2,0.2,38.5c0,2.3,0,4.4,0,6.2c0,1.8,0.4,3.3,0.8,4.6c0.4,1.2,0.9,2.2,1.3,2.8
		c0.2,0.3,0.4,0.6,0.5,0.7c0.1,0.2,0.2,0.2,0.2,0.2C583.7,786.6,583.6,792.3,580,795.7z M698.1,423.9c4.7-5.9,13.3-6.8,19.1-2.1
		c5.9,4.7,6.8,13.3,2.1,19.1c-0.6,0.8-1.4,1.5-2.1,2.1c0,0-0.1,0.1-0.3,0.2c-0.2,0.2-0.4,0.4-0.6,0.7c-0.5,0.6-1.2,1.6-1.7,2.8
		c-0.5,1.2-1,2.8-1,4.6c0,1.8,0,3.9,0,6.2c-0.1,9.3-0.1,22.6-0.2,38.5c0,8-0.1,16.6-0.2,25.7c-0.1,9.1-0.1,18.8-0.1,28.7
		c0,10,0,20.3,0,30.7c0,10.5,0,21.1,0.1,31.7c0.1,21.3,0.3,42.5,0.4,62.4c0.2,19.9,0.4,38.5,0.5,54.5c0.2,15.9,0.3,29.2,0.4,38.5
		c0,2.3,0,4.4,0.2,6.2c0.2,1.8,0.6,3.3,1,4.6c0.4,1.2,0.8,2.2,1.1,2.8c0.3,0.6,0.5,1,0.5,1c3.2,4.7,2,11.1-2.7,14.3
		c-4.7,3.2-11.1,2-14.3-2.7c-2.5-3.6-2.3-8.3,0-11.7c0,0,0.2-0.3,0.5-1c0.3-0.6,0.8-1.6,1.1-2.8c0.4-1.2,0.7-2.8,1-4.6
		c0.2-1.8,0.2-3.9,0.2-6.2c0.1-9.3,0.2-22.6,0.4-38.5c0.2-15.9,0.3-34.5,0.5-54.5c0.1-19.9,0.3-41.2,0.4-62.4
		c0-10.6,0-21.3,0.1-31.7c0-10.5,0-20.8,0-30.7c0-10-0.1-19.6-0.1-28.7c-0.1-9.1-0.1-17.8-0.2-25.7c-0.1-15.9-0.2-29.2-0.2-38.5
		c0-2.3,0-4.4,0-6.2c0-1.8-0.5-3.3-1-4.6c-0.5-1.2-1.2-2.2-1.7-2.8c-0.3-0.3-0.5-0.6-0.6-0.7c-0.2-0.2-0.3-0.2-0.3-0.2
		C694.4,438.3,693.4,429.7,698.1,423.9z M836.9,797.2c-3.9,4-10.2,4.1-14.2,0.2c-4-3.9-4.1-10.2-0.2-14.2c0.1-0.1,0.1-0.1,0.2-0.2
		c0,0,0.1-0.1,0.2-0.2c0.1-0.2,0.3-0.4,0.5-0.7c0.4-0.6,1-1.6,1.4-2.8c0.4-1.2,0.8-2.8,0.8-4.6c0-1.8,0-3.9,0-6.2
		c0-9.3,0.1-22.6,0.2-38.5c0-8,0.1-16.6,0.1-25.7c0.1-9.1,0.1-18.8,0.1-28.7c0-19.9,0-41.2,0-62.4c-0.1-21.3-0.2-42.5-0.3-62.4
		c-0.2-19.9-0.3-38.5-0.4-54.5c-0.1-15.9-0.2-29.2-0.3-38.5c0-2.3,0-4.4-0.2-6.2c-0.2-1.8-0.5-3.3-0.8-4.6c-0.3-1.2-0.7-2.2-0.9-2.8
		c-0.3-0.6-0.5-1-0.5-1c-2.2-3.9-0.8-8.8,3-11c3.9-2.2,8.8-0.8,11,3c1.4,2.5,1.3,5.5,0,7.9c0,0-0.2,0.3-0.5,1
		c-0.3,0.6-0.6,1.6-0.9,2.8c-0.3,1.2-0.6,2.8-0.8,4.6c-0.2,1.8-0.1,3.9-0.2,6.2c-0.1,9.3-0.2,22.6-0.3,38.5
		c-0.1,15.9-0.3,34.5-0.4,54.5c-0.1,19.9-0.2,41.2-0.3,62.4c0,21.3,0,42.5,0,62.4c0,10,0,19.6,0.1,28.7c0,9.1,0.1,17.8,0.1,25.7
		c0.1,15.9,0.2,29.2,0.2,38.5c0,2.3,0,4.4,0,6.2c0,1.8,0.4,3.3,0.8,4.6c0.4,1.2,1,2.2,1.4,2.8c0.2,0.3,0.4,0.6,0.5,0.7
		c0.1,0.2,0.2,0.2,0.2,0.2C840.6,786.9,840.7,793.2,836.9,797.2z"/>
</g>
<g id="Layer_1">
	<g>
		<path fill="none" d="M734.1,200.6c5.9,0,10.7-4.8,10.7-10.7c0-5.9-4.8-10.7-10.7-10.7c-5.9,0-10.7,4.8-10.7,10.7
			C723.4,195.8,728.2,200.6,734.1,200.6z"/>
		<path fill="none" d="M699.9,200.6c5.9,0,10.7-4.8,10.7-10.7c0-5.9-4.8-10.7-10.7-10.7s-10.7,4.8-10.7,10.7
			C689.2,195.8,694,200.6,699.9,200.6z"/>
		<path fill="none" d="M665.7,200.6c5.9,0,10.7-4.8,10.7-10.7c0-5.9-4.8-10.7-10.7-10.7c-5.9,0-10.7,4.8-10.7,10.7
			C655.1,195.8,659.9,200.6,665.7,200.6z"/>
		<path fill="none" d="M699.9,206.6c9.2,0,16.6-7.4,16.6-16.6c0-9.2-7.4-16.6-16.6-16.6c-9.2,0-16.6,7.4-16.6,16.6
			C683.3,199.1,690.7,206.6,699.9,206.6z M699.9,176.2c7.6,0,13.7,6.2,13.7,13.7c0,7.6-6.2,13.7-13.7,13.7
			c-7.6,0-13.7-6.2-13.7-13.7C686.2,182.4,692.3,176.2,699.9,176.2z"/>
		<path fill="none" d="M734.1,206.6c9.2,0,16.6-7.4,16.6-16.6c0-9.2-7.4-16.6-16.6-16.6c-9.2,0-16.6,7.4-16.6,16.6
			C717.5,199.1,724.9,206.6,734.1,206.6z M734.1,176.2c7.6,0,13.7,6.2,13.7,13.7c0,7.6-6.2,13.7-13.7,13.7
			c-7.6,0-13.7-6.2-13.7-13.7C720.3,182.4,726.5,176.2,734.1,176.2z"/>
		<path fill="none" d="M768.2,206.6c9.2,0,16.6-7.4,16.6-16.6c0-9.2-7.4-16.6-16.6-16.6s-16.6,7.4-16.6,16.6
			C751.6,199.1,759.1,206.6,768.2,206.6z M768.2,176.2c7.6,0,13.7,6.2,13.7,13.7c0,7.6-6.2,13.7-13.7,13.7
			c-7.6,0-13.7-6.2-13.7-13.7C754.5,182.4,760.7,176.2,768.2,176.2z"/>
		<path fill="none" d="M802.4,200.6c5.9,0,10.7-4.8,10.7-10.7c0-5.9-4.8-10.7-10.7-10.7c-5.9,0-10.7,4.8-10.7,10.7
			C791.7,195.8,796.5,200.6,802.4,200.6z"/>
		<path fill="none" d="M836.6,206.6c9.2,0,16.6-7.4,16.6-16.6c0-9.2-7.4-16.6-16.6-16.6c-9.2,0-16.6,7.4-16.6,16.6
			C820,199.1,827.4,206.6,836.6,206.6z M836.6,176.2c7.6,0,13.7,6.2,13.7,13.7c0,7.6-6.2,13.7-13.7,13.7c-7.6,0-13.7-6.2-13.7-13.7
			C822.8,182.4,829,176.2,836.6,176.2z"/>
		<path fill="none" d="M768.2,200.6c5.9,0,10.7-4.8,10.7-10.7c0-5.9-4.8-10.7-10.7-10.7c-5.9,0-10.7,4.8-10.7,10.7
			C757.6,195.8,762.4,200.6,768.2,200.6z"/>
		<path fill="none" d="M802.4,206.6c9.2,0,16.6-7.4,16.6-16.6c0-9.2-7.4-16.6-16.6-16.6c-9.2,0-16.6,7.4-16.6,16.6
			C785.8,199.1,793.2,206.6,802.4,206.6z M802.4,176.2c7.6,0,13.7,6.2,13.7,13.7c0,7.6-6.2,13.7-13.7,13.7
			c-7.6,0-13.7-6.2-13.7-13.7C788.7,182.4,794.8,176.2,802.4,176.2z"/>
		<path fill="none" d="M631.6,200.6c5.9,0,10.7-4.8,10.7-10.7c0-5.9-4.8-10.7-10.7-10.7c-5.9,0-10.7,4.8-10.7,10.7
			C620.9,195.8,625.7,200.6,631.6,200.6z"/>
		<path fill="none" d="M665.7,206.6c9.2,0,16.6-7.4,16.6-16.6c0-9.2-7.4-16.6-16.6-16.6c-9.2,0-16.6,7.4-16.6,16.6
			C649.1,199.1,656.6,206.6,665.7,206.6z M665.7,176.2c7.6,0,13.7,6.2,13.7,13.7c0,7.6-6.2,13.7-13.7,13.7
			c-7.6,0-13.7-6.2-13.7-13.7C652,182.4,658.2,176.2,665.7,176.2z"/>
		<path fill="none" d="M494.9,206.6c9.2,0,16.6-7.4,16.6-16.6c0-9.2-7.4-16.6-16.6-16.6c-9.2,0-16.6,7.4-16.6,16.6
			C478.3,199.1,485.7,206.6,494.9,206.6z M494.9,176.2c7.6,0,13.7,6.2,13.7,13.7c0,7.6-6.2,13.7-13.7,13.7
			c-7.6,0-13.7-6.2-13.7-13.7C481.2,182.4,487.3,176.2,494.9,176.2z"/>
		<path fill="none" d="M563.2,200.6c5.9,0,10.7-4.8,10.7-10.7c0-5.9-4.8-10.7-10.7-10.7c-5.9,0-10.7,4.8-10.7,10.7
			C552.6,195.8,557.4,200.6,563.2,200.6z"/>
		<path fill="none" d="M494.9,200.6c5.9,0,10.7-4.8,10.7-10.7c0-5.9-4.8-10.7-10.7-10.7c-5.9,0-10.7,4.8-10.7,10.7
			C484.2,195.8,489,200.6,494.9,200.6z"/>
		<path fill="none" d="M529.1,206.6c9.2,0,16.6-7.4,16.6-16.6c0-9.2-7.4-16.6-16.6-16.6c-9.2,0-16.6,7.4-16.6,16.6
			C512.5,199.1,519.9,206.6,529.1,206.6z M529.1,176.2c7.6,0,13.7,6.2,13.7,13.7c0,7.6-6.2,13.7-13.7,13.7
			c-7.6,0-13.7-6.2-13.7-13.7C515.3,182.4,521.5,176.2,529.1,176.2z"/>
		<path fill="none" d="M563.2,206.6c9.2,0,16.6-7.4,16.6-16.6c0-9.2-7.4-16.6-16.6-16.6c-9.2,0-16.6,7.4-16.6,16.6
			C546.6,199.1,554.1,206.6,563.2,206.6z M563.2,176.2c7.6,0,13.7,6.2,13.7,13.7c0,7.6-6.2,13.7-13.7,13.7
			c-7.6,0-13.7-6.2-13.7-13.7C549.5,182.4,555.7,176.2,563.2,176.2z"/>
		<path fill="none" d="M836.6,200.6c5.9,0,10.7-4.8,10.7-10.7c0-5.9-4.8-10.7-10.7-10.7c-5.9,0-10.7,4.8-10.7,10.7
			C825.9,195.8,830.7,200.6,836.6,200.6z"/>
		<path fill="none" d="M597.4,206.6c9.2,0,16.6-7.4,16.6-16.6c0-9.2-7.4-16.6-16.6-16.6s-16.6,7.4-16.6,16.6
			C580.8,199.1,588.2,206.6,597.4,206.6z M597.4,176.2c7.6,0,13.7,6.2,13.7,13.7c0,7.6-6.2,13.7-13.7,13.7
			c-7.6,0-13.7-6.2-13.7-13.7C583.7,182.4,589.8,176.2,597.4,176.2z"/>
		<path fill="none" d="M631.6,206.6c9.2,0,16.6-7.4,16.6-16.6c0-9.2-7.4-16.6-16.6-16.6c-9.2,0-16.6,7.4-16.6,16.6
			C615,199.1,622.4,206.6,631.6,206.6z M631.6,176.2c7.6,0,13.7,6.2,13.7,13.7c0,7.6-6.2,13.7-13.7,13.7c-7.6,0-13.7-6.2-13.7-13.7
			C617.8,182.4,624,176.2,631.6,176.2z"/>
		<path fill="none" d="M597.4,200.6c5.9,0,10.7-4.8,10.7-10.7c0-5.9-4.8-10.7-10.7-10.7c-5.9,0-10.7,4.8-10.7,10.7
			C586.7,195.8,591.5,200.6,597.4,200.6z"/>
		<path fill="none" d="M529.1,200.6c5.9,0,10.7-4.8,10.7-10.7c0-5.9-4.8-10.7-10.7-10.7s-10.7,4.8-10.7,10.7
			C518.4,195.8,523.2,200.6,529.1,200.6z"/>
		<path fill="none" d="M67.6,783c0,0-0.1-0.1-0.3-0.2c-0.2-0.2-0.4-0.4-0.6-0.7c-0.5-0.6-1.2-1.6-1.7-2.8c-0.5-1.2-1-2.8-1-4.6
			c0-1.8,0-3.9,0-6.2c-0.1-9.3-0.1-22.6-0.2-38.5c0-8-0.1-16.6-0.2-25.7c-0.1-9.1-0.1-18.8-0.1-28.7c0-10,0-20.3,0-30.7
			c0-10.5,0-21.1,0.1-31.7c0.1-21.3,0.3-42.5,0.4-62.4c0.2-19.9,0.4-38.5,0.5-54.5c0.2-15.9,0.3-29.2,0.4-38.5c0-2.3,0-4.4,0.2-6.2
			c0.2-1.8,0.6-3.3,1-4.6c0.4-1.2,0.8-2.2,1.1-2.8c0.3-0.6,0.5-1,0.5-1c2.3-3.4,2.5-8.1,0-11.7c-3.2-4.7-9.6-5.9-14.3-2.7
			c-4.7,3.2-5.9,9.6-2.7,14.3c0,0,0.2,0.3,0.5,1c0.3,0.6,0.8,1.6,1.1,2.8c0.4,1.2,0.7,2.8,1,4.6c0.2,1.8,0.2,3.9,0.2,6.2
			c0.1,9.3,0.2,22.6,0.4,38.5c0.2,15.9,0.3,34.5,0.5,54.5c0.1,19.9,0.3,41.2,0.4,62.4c0,10.6,0,21.3,0.1,31.7c0,10.5,0,20.8,0,30.7
			c0,10-0.1,19.6-0.1,28.7c-0.1,9.1-0.1,17.8-0.2,25.7c-0.1,15.9-0.2,29.2-0.2,38.5c0,2.3,0,4.4,0,6.2c0,1.8-0.5,3.3-1,4.6
			c-0.5,1.2-1.2,2.2-1.7,2.8c-0.3,0.3-0.5,0.6-0.6,0.7c-0.2,0.2-0.3,0.2-0.3,0.2c-0.7,0.6-1.5,1.3-2.1,2.1
			c-4.7,5.9-3.7,14.4,2.1,19.1s14.4,3.7,19.1-2.1S73.5,787.7,67.6,783z"/>
		<path fill="none" d="M1007.4,173.3c-9.2,0-16.6,7.4-16.6,16.6c0,9.2,7.4,16.6,16.6,16.6c9.2,0,16.6-7.4,16.6-16.6
			C1024,180.8,1016.6,173.3,1007.4,173.3z M1007.4,203.7c-7.6,0-13.7-6.2-13.7-13.7c0-7.6,6.2-13.7,13.7-13.7
			c7.6,0,13.7,6.2,13.7,13.7C1021.1,197.5,1015,203.7,1007.4,203.7z"/>
		<path fill="none" d="M184.6,443c0,0,0.1,0.1,0.3,0.2c0.2,0.2,0.4,0.4,0.7,0.7c0.6,0.6,1.3,1.6,1.9,2.8c0.6,1.2,1.1,2.8,1.1,4.6
			c0,1.8,0,3.9,0.1,6.2c0.1,9.3,0.2,22.6,0.3,38.5c0,8,0.1,16.6,0.1,25.7c0,9.1,0.1,18.8,0.1,28.7c0,10,0,20.3,0,30.7
			c0,10.5,0,21.1-0.1,31.7c-0.1,10.6-0.1,21.3-0.2,31.7c-0.1,10.5-0.2,20.8-0.3,30.7c-0.2,19.9-0.4,38.5-0.6,54.5
			c-0.2,15.9-0.3,29.2-0.4,38.5c0,2.3,0,4.4-0.2,6.2c-0.2,1.8-0.6,3.3-1.1,4.6c-0.4,1.2-0.9,2.2-1.3,2.8c-0.4,0.6-0.6,1-0.6,1
			c-3.2,4.2-3.4,10.2,0,14.6c4,5.2,11.5,6.2,16.8,2.2s6.2-11.5,2.2-16.8c0,0-0.3-0.3-0.6-1c-0.4-0.6-0.9-1.6-1.3-2.8
			c-0.4-1.2-0.8-2.8-1.1-4.6c-0.3-1.8-0.2-3.9-0.2-6.2c-0.1-9.3-0.3-22.6-0.4-38.5c-0.2-15.9-0.4-34.5-0.6-54.5
			c-0.1-10-0.2-20.3-0.3-30.7c-0.1-10.5-0.1-21.1-0.2-31.7c0-10.6,0-21.3-0.1-31.7c0-10.5,0-20.8,0-30.7c0-10,0.1-19.6,0.1-28.7
			c0.1-9.1,0.1-17.8,0.1-25.7c0.1-15.9,0.2-29.2,0.3-38.5c0-2.3,0-4.4,0.1-6.2c0.1-1.8,0.5-3.3,1.1-4.6c0.6-1.2,1.3-2.2,1.9-2.8
			c0.3-0.3,0.5-0.6,0.7-0.7c0.2-0.2,0.3-0.2,0.3-0.2c1.4-1,2.7-2.3,3.8-3.8c5.2-7.3,3.6-17.5-3.8-22.8c-7.3-5.2-17.5-3.6-22.8,3.8
			C175.6,427.6,177.3,437.8,184.6,443z"/>
		<path fill="none" d="M580.1,782.8c-0.1-0.2-0.3-0.4-0.5-0.7c-0.4-0.6-0.9-1.6-1.3-2.8c-0.4-1.2-0.7-2.8-0.8-4.6c0-1.8,0-3.9,0-6.2
			c0-9.3-0.1-22.6-0.2-38.5c0-8-0.1-16.6-0.1-25.7c-0.1-9.1-0.1-18.8-0.1-28.7c0-19.9,0-41.2,0-62.4c0.1-21.3,0.2-42.5,0.3-62.4
			c0.1-19.9,0.3-38.5,0.4-54.5c0.1-15.9,0.2-29.2,0.3-38.5c0-2.3,0-4.4,0.2-6.2c0.2-1.8,0.4-3.3,0.7-4.6c0.6-2.5,1.3-3.8,1.3-3.8
			c1.1-2.1,1.2-4.6,0-6.9c-1.9-3.6-6.3-5-9.9-3.1c-3.6,1.9-5,6.3-3.1,9.9c0,0,0.7,1.3,1.3,3.8c0.3,1.2,0.6,2.8,0.7,4.6
			c0.2,1.8,0.1,3.9,0.2,6.2c0.1,9.3,0.2,22.6,0.3,38.5c0.1,15.9,0.2,34.5,0.4,54.5c0.1,19.9,0.2,41.2,0.3,62.4c0,21.3,0,42.5,0,62.4
			c0,10,0,19.6-0.1,28.7c0,9.1-0.1,17.8-0.1,25.7c-0.1,15.9-0.1,29.2-0.2,38.5c0,2.3,0,4.4,0,6.2c0,1.8-0.4,3.3-0.8,4.6
			c-0.4,1.2-0.9,2.2-1.3,2.8c-0.2,0.3-0.4,0.6-0.5,0.7c-0.1,0.2-0.2,0.2-0.2,0.2c-3.3,3.5-3.3,8.9,0,12.4c3.4,3.6,9.1,3.7,12.7,0.3
			s3.7-9.1,0.3-12.7C580.3,783,580.2,782.9,580.1,782.8z"/>
		<path fill="none" d="M322.3,782.8c-0.1-0.2-0.3-0.4-0.6-0.7c-0.5-0.6-1.1-1.6-1.5-2.8c-0.5-1.2-0.8-2.8-0.9-4.6c0-1.8,0-3.9,0-6.2
			c-0.1-9.3-0.1-22.6-0.2-38.5c0-8-0.1-16.6-0.1-25.7c-0.1-9.1-0.1-18.8-0.1-28.7c0-19.9,0-41.2,0-62.4c0.1-21.3,0.2-42.5,0.4-62.4
			c0.2-19.9,0.3-38.5,0.5-54.5c0.1-15.9,0.3-29.2,0.3-38.5c0-2.3,0-4.4,0.2-6.2c0.2-1.8,0.5-3.3,0.8-4.6c0.3-1.2,0.7-2.2,1-2.8
			c0.3-0.6,0.5-1,0.5-1c1.6-2.7,1.7-6.2,0-9.1c-2.5-4.1-7.9-5.5-12-3c-4.1,2.5-5.5,7.9-3,12c0,0,0.2,0.3,0.5,1
			c0.3,0.6,0.7,1.6,1,2.8c0.3,1.2,0.7,2.8,0.8,4.6c0.2,1.8,0.2,3.9,0.2,6.2c0.1,9.3,0.2,22.6,0.3,38.5c0.1,15.9,0.3,34.5,0.5,54.5
			c0.1,19.9,0.2,41.2,0.4,62.4c0,21.3,0,42.5,0,62.4c0,10,0,19.6-0.1,28.7c-0.1,9.1-0.1,17.8-0.1,25.7c-0.1,15.9-0.2,29.2-0.2,38.5
			c0,2.3,0,4.4,0,6.2c0,1.8-0.4,3.3-0.9,4.6c-0.5,1.2-1,2.2-1.5,2.8c-0.2,0.3-0.4,0.6-0.6,0.7c-0.1,0.2-0.2,0.2-0.2,0.2
			c-0.3,0.2-0.5,0.5-0.8,0.8c-4.1,4.6-3.8,11.6,0.8,15.8s11.6,3.8,15.8-0.8s3.8-11.6-0.8-15.8C322.5,783,322.4,782.9,322.3,782.8z"
			/>
		<path fill="none" d="M16.6,200.6c5.9,0,10.7-4.8,10.7-10.7c0-5.9-4.8-10.7-10.7-10.7S5.9,184.1,5.9,190
			C5.9,195.8,10.7,200.6,16.6,200.6z"/>
		<path fill="none" d="M700.3,443c0,0,0.1,0.1,0.3,0.2c0.2,0.2,0.4,0.4,0.6,0.7c0.5,0.6,1.2,1.6,1.7,2.8c0.5,1.2,1,2.8,1,4.6
			c0,1.8,0,3.9,0,6.2c0.1,9.3,0.1,22.6,0.2,38.5c0,8,0.1,16.6,0.2,25.7c0.1,9.1,0.1,18.8,0.1,28.7c0,10,0,20.3,0,30.7
			c0,10.5,0,21.1-0.1,31.7c-0.1,21.3-0.3,42.5-0.4,62.4c-0.2,19.9-0.4,38.5-0.5,54.5c-0.2,15.9-0.3,29.2-0.4,38.5
			c0,2.3,0,4.4-0.2,6.2c-0.2,1.8-0.6,3.3-1,4.6c-0.4,1.2-0.8,2.2-1.1,2.8c-0.3,0.6-0.5,1-0.5,1c-2.3,3.4-2.5,8.1,0,11.7
			c3.2,4.7,9.6,5.9,14.3,2.7c4.7-3.2,5.9-9.6,2.7-14.3c0,0-0.2-0.3-0.5-1c-0.3-0.6-0.8-1.6-1.1-2.8c-0.4-1.2-0.7-2.8-1-4.6
			c-0.2-1.8-0.2-3.9-0.2-6.2c-0.1-9.3-0.2-22.6-0.4-38.5c-0.2-15.9-0.3-34.5-0.5-54.5c-0.1-19.9-0.3-41.2-0.4-62.4
			c0-10.6,0-21.3-0.1-31.7c0-10.5,0-20.8,0-30.7c0-10,0.1-19.6,0.1-28.7c0.1-9.1,0.1-17.8,0.2-25.7c0.1-15.9,0.2-29.2,0.2-38.5
			c0-2.3,0-4.4,0-6.2c0-1.8,0.5-3.3,1-4.6c0.5-1.2,1.2-2.2,1.7-2.8c0.3-0.3,0.5-0.6,0.6-0.7c0.2-0.2,0.3-0.2,0.3-0.2
			c0.7-0.6,1.5-1.3,2.1-2.1c4.7-5.9,3.7-14.4-2.1-19.1c-5.9-4.7-14.4-3.7-19.1,2.1C693.4,429.7,694.4,438.3,700.3,443z"/>
		<path fill="none" d="M1007.4,179.3c-5.9,0-10.7,4.8-10.7,10.7c0,5.9,4.8,10.7,10.7,10.7c5.9,0,10.7-4.8,10.7-10.7
			C1018.1,184.1,1013.3,179.3,1007.4,179.3z"/>
		<path fill="none" d="M16.6,206.6c9.2,0,16.6-7.4,16.6-16.6c0-9.2-7.4-16.6-16.6-16.6C7.4,173.3,0,180.8,0,190
			C0,199.1,7.4,206.6,16.6,206.6z M16.6,176.2c7.6,0,13.7,6.2,13.7,13.7c0,7.6-6.2,13.7-13.7,13.7c-7.6,0-13.7-6.2-13.7-13.7
			C2.9,182.4,9,176.2,16.6,176.2z"/>
		<path fill="none" d="M870.7,206.6c9.2,0,16.6-7.4,16.6-16.6c0-9.2-7.4-16.6-16.6-16.6c-9.2,0-16.6,7.4-16.6,16.6
			C854.1,199.1,861.6,206.6,870.7,206.6z M870.7,176.2c7.6,0,13.7,6.2,13.7,13.7c0,7.6-6.2,13.7-13.7,13.7
			c-7.6,0-13.7-6.2-13.7-13.7C857,182.4,863.2,176.2,870.7,176.2z"/>
		<path fill="none" d="M904.9,206.6c9.2,0,16.6-7.4,16.6-16.6c0-9.2-7.4-16.6-16.6-16.6c-9.2,0-16.6,7.4-16.6,16.6
			C888.3,199.1,895.7,206.6,904.9,206.6z M904.9,176.2c7.6,0,13.7,6.2,13.7,13.7c0,7.6-6.2,13.7-13.7,13.7
			c-7.6,0-13.7-6.2-13.7-13.7C891.2,182.4,897.3,176.2,904.9,176.2z"/>
		<path fill="none" d="M904.9,200.6c5.9,0,10.7-4.8,10.7-10.7c0-5.9-4.8-10.7-10.7-10.7c-5.9,0-10.7,4.8-10.7,10.7
			C894.2,195.8,899,200.6,904.9,200.6z"/>
		<path fill="none" d="M870.7,200.6c5.9,0,10.7-4.8,10.7-10.7c0-5.9-4.8-10.7-10.7-10.7s-10.7,4.8-10.7,10.7
			C860.1,195.8,864.8,200.6,870.7,200.6z"/>
		<path fill="none" d="M939.1,206.6c9.2,0,16.6-7.4,16.6-16.6c0-9.2-7.4-16.6-16.6-16.6s-16.6,7.4-16.6,16.6
			C922.5,199.1,929.9,206.6,939.1,206.6z M939.1,176.2c7.6,0,13.7,6.2,13.7,13.7c0,7.6-6.2,13.7-13.7,13.7
			c-7.6,0-13.7-6.2-13.7-13.7C925.3,182.4,931.5,176.2,939.1,176.2z"/>
		<path fill="none" d="M973.2,200.6c5.9,0,10.7-4.8,10.7-10.7c0-5.9-4.8-10.7-10.7-10.7c-5.9,0-10.7,4.8-10.7,10.7
			C962.6,195.8,967.3,200.6,973.2,200.6z"/>
		<path fill="none" d="M953.7,443c0,0,0.1,0.1,0.3,0.2c0.2,0.2,0.4,0.4,0.6,0.7c0.5,0.6,1.2,1.6,1.7,2.8c0.5,1.2,1,2.8,1,4.6
			c0,1.8,0,3.9,0,6.2c0.1,9.3,0.1,22.6,0.2,38.5c0,8,0.1,16.6,0.2,25.7c0.1,9.1,0.1,18.8,0.1,28.7c0,10,0,20.3,0,30.7
			c0,10.5,0,21.1-0.1,31.7c-0.1,21.3-0.3,42.5-0.4,62.4c-0.2,19.9-0.4,38.5-0.5,54.5c-0.2,15.9-0.3,29.2-0.4,38.5
			c0,2.3,0,4.4-0.2,6.2c-0.2,1.8-0.6,3.3-1,4.6c-0.4,1.2-0.8,2.2-1.1,2.8c-0.3,0.6-0.5,1-0.5,1c-2.3,3.4-2.5,8.1,0,11.7
			c3.2,4.7,9.6,5.9,14.3,2.7c4.7-3.2,5.9-9.6,2.7-14.3c0,0-0.2-0.3-0.5-1c-0.3-0.6-0.8-1.6-1.1-2.8c-0.4-1.2-0.7-2.8-1-4.6
			c-0.2-1.8-0.2-3.9-0.2-6.2c-0.1-9.3-0.2-22.6-0.4-38.5c-0.2-15.9-0.3-34.5-0.5-54.5c-0.1-19.9-0.3-41.2-0.4-62.4
			c0-10.6,0-21.3-0.1-31.7c0-10.5,0-20.8,0-30.7c0-10,0.1-19.6,0.1-28.7c0.1-9.1,0.1-17.8,0.2-25.7c0.1-15.9,0.2-29.2,0.2-38.5
			c0-2.3,0-4.4,0-6.2c0-1.8,0.5-3.3,1-4.6c0.5-1.2,1.2-2.2,1.7-2.8c0.3-0.3,0.5-0.6,0.6-0.7c0.2-0.2,0.3-0.2,0.3-0.2
			c0.7-0.6,1.5-1.3,2.1-2.1c4.7-5.9,3.7-14.4-2.1-19.1c-5.9-4.7-14.4-3.7-19.1,2.1C946.9,429.7,947.9,438.3,953.7,443z"/>
		<path fill="none" d="M939.1,200.6c5.9,0,10.7-4.8,10.7-10.7c0-5.9-4.8-10.7-10.7-10.7c-5.9,0-10.7,4.8-10.7,10.7
			C928.4,195.8,933.2,200.6,939.1,200.6z"/>
		<path fill="none" d="M836.4,782.8c-0.1-0.2-0.3-0.4-0.5-0.7c-0.4-0.6-1-1.6-1.4-2.8c-0.4-1.2-0.8-2.8-0.8-4.6c0-1.8,0-3.9,0-6.2
			c0-9.3-0.1-22.6-0.2-38.5c0-8-0.1-16.6-0.1-25.7c-0.1-9.1-0.1-18.8-0.1-28.7c0-19.9,0-41.2,0-62.4c0.1-21.3,0.2-42.5,0.3-62.4
			c0.2-19.9,0.3-38.5,0.4-54.5c0.1-15.9,0.2-29.2,0.3-38.5c0-2.3,0-4.4,0.2-6.2c0.2-1.8,0.5-3.3,0.8-4.6c0.3-1.2,0.7-2.2,0.9-2.8
			c0.3-0.6,0.5-1,0.5-1c1.3-2.4,1.4-5.4,0-7.9c-2.2-3.9-7.1-5.2-11-3c-3.9,2.2-5.2,7.1-3,11c0,0,0.2,0.3,0.5,1
			c0.3,0.6,0.6,1.6,0.9,2.8c0.3,1.2,0.6,2.8,0.8,4.6c0.2,1.8,0.1,3.9,0.2,6.2c0.1,9.3,0.2,22.6,0.3,38.5c0.1,15.9,0.3,34.5,0.4,54.5
			c0.1,19.9,0.2,41.2,0.3,62.4c0,21.3,0,42.5,0,62.4c0,10,0,19.6-0.1,28.7c0,9.1-0.1,17.8-0.1,25.7c-0.1,15.9-0.2,29.2-0.2,38.5
			c0,2.3,0,4.4,0,6.2c0,1.8-0.4,3.3-0.8,4.6c-0.4,1.2-1,2.2-1.4,2.8c-0.2,0.3-0.4,0.6-0.5,0.7c-0.1,0.2-0.2,0.2-0.2,0.2
			c-0.1,0.1-0.1,0.1-0.2,0.2c-3.9,4-3.8,10.3,0.2,14.2c4,3.9,10.3,3.8,14.2-0.2c3.9-4,3.8-10.3-0.2-14.2
			C836.6,783,836.6,782.9,836.4,782.8z"/>
		<path fill="none" d="M973.2,206.6c9.2,0,16.6-7.4,16.6-16.6c0-9.2-7.4-16.6-16.6-16.6c-9.2,0-16.6,7.4-16.6,16.6
			C956.6,199.1,964.1,206.6,973.2,206.6z M973.2,176.2c7.6,0,13.7,6.2,13.7,13.7c0,7.6-6.2,13.7-13.7,13.7
			c-7.6,0-13.7-6.2-13.7-13.7C959.5,182.4,965.7,176.2,973.2,176.2z"/>
		<path fill="none" d="M439.6,443c0,0,0.1,0.1,0.2,0.2c0.2,0.2,0.4,0.4,0.6,0.7c0.5,0.6,1.1,1.6,1.6,2.8c0.5,1.2,0.9,2.8,0.9,4.6
			c0,1.8,0,3.9,0,6.2c0.1,9.3,0.1,22.6,0.2,38.5c0.1,15.9,0.3,34.5,0.3,54.5c0,10,0,20.3,0,30.7c0,10.5,0,21.1-0.1,31.7
			c-0.1,21.3-0.3,42.5-0.4,62.4c-0.2,19.9-0.3,38.5-0.5,54.5c-0.2,15.9-0.3,29.2-0.4,38.5c0,2.3,0,4.4-0.2,6.2
			c-0.2,1.8-0.5,3.3-0.9,4.6c-0.4,1.2-0.8,2.2-1.1,2.8c-0.3,0.6-0.5,1-0.5,1c-2,3-2.1,7.1,0,10.3c2.9,4.4,8.8,5.7,13.2,2.8
			c4.4-2.9,5.7-8.8,2.8-13.2c0,0-0.2-0.3-0.5-1c-0.3-0.6-0.7-1.6-1.1-2.8c-0.4-1.2-0.7-2.8-0.9-4.6c-0.2-1.8-0.2-3.9-0.2-6.2
			c-0.1-9.3-0.2-22.6-0.4-38.5c-0.1-15.9-0.3-34.5-0.5-54.5c-0.1-19.9-0.2-41.2-0.4-62.4c0-10.6,0-21.3-0.1-31.7
			c0-10.5,0-20.8,0-30.7c0-19.9,0.2-38.5,0.3-54.5c0.1-15.9,0.2-29.2,0.2-38.5c0-2.3,0-4.4,0-6.2c0-1.8,0.4-3.3,0.9-4.6
			c0.5-1.2,1.1-2.2,1.6-2.8c0.2-0.3,0.5-0.6,0.6-0.7c0.1-0.2,0.2-0.2,0.2-0.2c0.5-0.4,1-0.9,1.4-1.4c4.4-5.2,3.8-13-1.4-17.4
			s-13-3.8-17.4,1.4C433.8,430.8,434.4,438.6,439.6,443z"/>
		<path fill="none" d="M221.6,206.6c9.2,0,16.6-7.4,16.6-16.6c0-9.2-7.4-16.6-16.6-16.6c-9.2,0-16.6,7.4-16.6,16.6
			C205,199.1,212.4,206.6,221.6,206.6z M221.6,176.2c7.6,0,13.7,6.2,13.7,13.7c0,7.6-6.2,13.7-13.7,13.7c-7.6,0-13.7-6.2-13.7-13.7
			C207.9,182.4,214,176.2,221.6,176.2z"/>
		<path fill="none" d="M153.3,200.6c5.9,0,10.7-4.8,10.7-10.7c0-5.9-4.8-10.7-10.7-10.7c-5.9,0-10.7,4.8-10.7,10.7
			C142.6,195.8,147.4,200.6,153.3,200.6z"/>
		<path fill="none" d="M221.6,200.6c5.9,0,10.7-4.8,10.7-10.7c0-5.9-4.8-10.7-10.7-10.7c-5.9,0-10.7,4.8-10.7,10.7
			C210.9,195.8,215.7,200.6,221.6,200.6z"/>
		<path fill="none" d="M187.4,206.6c9.2,0,16.6-7.4,16.6-16.6c0-9.2-7.4-16.6-16.6-16.6c-9.2,0-16.6,7.4-16.6,16.6
			C170.8,199.1,178.3,206.6,187.4,206.6z M187.4,176.2c7.6,0,13.7,6.2,13.7,13.7c0,7.6-6.2,13.7-13.7,13.7
			c-7.6,0-13.7-6.2-13.7-13.7C173.7,182.4,179.9,176.2,187.4,176.2z"/>
		<path fill="none" d="M187.4,200.6c5.9,0,10.7-4.8,10.7-10.7c0-5.9-4.8-10.7-10.7-10.7c-5.9,0-10.7,4.8-10.7,10.7
			C176.7,195.8,181.5,200.6,187.4,200.6z"/>
		<path fill="none" d="M289.9,200.6c5.9,0,10.7-4.8,10.7-10.7c0-5.9-4.8-10.7-10.7-10.7c-5.9,0-10.7,4.8-10.7,10.7
			C279.2,195.8,284,200.6,289.9,200.6z"/>
		<path fill="none" d="M289.9,206.6c9.2,0,16.6-7.4,16.6-16.6c0-9.2-7.4-16.6-16.6-16.6c-9.2,0-16.6,7.4-16.6,16.6
			C273.3,199.1,280.8,206.6,289.9,206.6z M289.9,176.2c7.6,0,13.7,6.2,13.7,13.7c0,7.6-6.2,13.7-13.7,13.7
			c-7.6,0-13.7-6.2-13.7-13.7C276.2,182.4,282.3,176.2,289.9,176.2z"/>
		<path fill="none" d="M255.8,200.6c5.9,0,10.7-4.8,10.7-10.7c0-5.9-4.8-10.7-10.7-10.7c-5.9,0-10.7,4.8-10.7,10.7
			C245.1,195.8,249.9,200.6,255.8,200.6z"/>
		<path fill="none" d="M255.8,206.6c9.2,0,16.6-7.4,16.6-16.6c0-9.2-7.4-16.6-16.6-16.6c-9.2,0-16.6,7.4-16.6,16.6
			C239.2,199.1,246.6,206.6,255.8,206.6z M255.8,176.2c7.6,0,13.7,6.2,13.7,13.7c0,7.6-6.2,13.7-13.7,13.7
			c-7.6,0-13.7-6.2-13.7-13.7C242,182.4,248.2,176.2,255.8,176.2z"/>
		<path fill="none" d="M119.1,200.6c5.9,0,10.7-4.8,10.7-10.7c0-5.9-4.8-10.7-10.7-10.7c-5.9,0-10.7,4.8-10.7,10.7
			C108.4,195.8,113.2,200.6,119.1,200.6z"/>
		<path fill="none" d="M50.8,200.6c5.9,0,10.7-4.8,10.7-10.7c0-5.9-4.8-10.7-10.7-10.7c-5.9,0-10.7,4.8-10.7,10.7
			C40.1,195.8,44.9,200.6,50.8,200.6z"/>
		<path fill="none" d="M50.8,206.6c9.2,0,16.6-7.4,16.6-16.6c0-9.2-7.4-16.6-16.6-16.6c-9.2,0-16.6,7.4-16.6,16.6
			C34.2,199.1,41.6,206.6,50.8,206.6z M50.8,176.2c7.6,0,13.7,6.2,13.7,13.7c0,7.6-6.2,13.7-13.7,13.7c-7.6,0-13.7-6.2-13.7-13.7
			C37,182.4,43.2,176.2,50.8,176.2z"/>
		<path fill="none" d="M153.3,206.6c9.2,0,16.6-7.4,16.6-16.6c0-9.2-7.4-16.6-16.6-16.6c-9.2,0-16.6,7.4-16.6,16.6
			C136.7,199.1,144.1,206.6,153.3,206.6z M153.3,176.2c7.6,0,13.7,6.2,13.7,13.7c0,7.6-6.2,13.7-13.7,13.7
			c-7.6,0-13.7-6.2-13.7-13.7C139.5,182.4,145.7,176.2,153.3,176.2z"/>
		<path fill="none" d="M84.9,206.6c9.2,0,16.6-7.4,16.6-16.6c0-9.2-7.4-16.6-16.6-16.6s-16.6,7.4-16.6,16.6
			C68.3,199.1,75.8,206.6,84.9,206.6z M84.9,176.2c7.6,0,13.7,6.2,13.7,13.7c0,7.6-6.2,13.7-13.7,13.7c-7.6,0-13.7-6.2-13.7-13.7
			C71.2,182.4,77.4,176.2,84.9,176.2z"/>
		<path fill="none" d="M324.1,206.6c9.2,0,16.6-7.4,16.6-16.6c0-9.2-7.4-16.6-16.6-16.6c-9.2,0-16.6,7.4-16.6,16.6
			C307.5,199.1,314.9,206.6,324.1,206.6z M324.1,176.2c7.6,0,13.7,6.2,13.7,13.7c0,7.6-6.2,13.7-13.7,13.7
			c-7.6,0-13.7-6.2-13.7-13.7C310.3,182.4,316.5,176.2,324.1,176.2z"/>
		<path fill="none" d="M84.9,200.6c5.9,0,10.7-4.8,10.7-10.7c0-5.9-4.8-10.7-10.7-10.7c-5.9,0-10.7,4.8-10.7,10.7
			C74.3,195.8,79,200.6,84.9,200.6z"/>
		<path fill="none" d="M119.1,206.6c9.2,0,16.6-7.4,16.6-16.6c0-9.2-7.4-16.6-16.6-16.6c-9.2,0-16.6,7.4-16.6,16.6
			C102.5,199.1,109.9,206.6,119.1,206.6z M119.1,176.2c7.6,0,13.7,6.2,13.7,13.7c0,7.6-6.2,13.7-13.7,13.7
			c-7.6,0-13.7-6.2-13.7-13.7C105.4,182.4,111.5,176.2,119.1,176.2z"/>
		<path fill="none" d="M324.1,200.6c5.9,0,10.7-4.8,10.7-10.7c0-5.9-4.8-10.7-10.7-10.7c-5.9,0-10.7,4.8-10.7,10.7
			C313.4,195.8,318.2,200.6,324.1,200.6z"/>
		<path fill="none" d="M426.6,206.6c9.2,0,16.6-7.4,16.6-16.6c0-9.2-7.4-16.6-16.6-16.6c-9.2,0-16.6,7.4-16.6,16.6
			C410,199.1,417.4,206.6,426.6,206.6z M426.6,176.2c7.6,0,13.7,6.2,13.7,13.7c0,7.6-6.2,13.7-13.7,13.7c-7.6,0-13.7-6.2-13.7-13.7
			C412.8,182.4,419,176.2,426.6,176.2z"/>
		<path fill="none" d="M392.4,200.6c5.9,0,10.7-4.8,10.7-10.7c0-5.9-4.8-10.7-10.7-10.7c-5.9,0-10.7,4.8-10.7,10.7
			C381.7,195.8,386.5,200.6,392.4,200.6z"/>
		<path fill="none" d="M392.4,206.6c9.2,0,16.6-7.4,16.6-16.6c0-9.2-7.4-16.6-16.6-16.6s-16.6,7.4-16.6,16.6
			C375.8,199.1,383.3,206.6,392.4,206.6z M392.4,176.2c7.6,0,13.7,6.2,13.7,13.7c0,7.6-6.2,13.7-13.7,13.7
			c-7.6,0-13.7-6.2-13.7-13.7C378.7,182.4,384.8,176.2,392.4,176.2z"/>
		<path fill="none" d="M460.8,200.6c5.9,0,10.7-4.8,10.7-10.7c0-5.9-4.8-10.7-10.7-10.7c-5.9,0-10.7,4.8-10.7,10.7
			C450.1,195.8,454.9,200.6,460.8,200.6z"/>
		<path fill="none" d="M426.6,200.6c5.9,0,10.7-4.8,10.7-10.7c0-5.9-4.8-10.7-10.7-10.7c-5.9,0-10.7,4.8-10.7,10.7
			C415.9,195.8,420.7,200.6,426.6,200.6z"/>
		<path fill="none" d="M358.3,200.6c5.9,0,10.7-4.8,10.7-10.7c0-5.9-4.8-10.7-10.7-10.7c-5.9,0-10.7,4.8-10.7,10.7
			C347.6,195.8,352.4,200.6,358.3,200.6z"/>
		<path fill="none" d="M460.8,206.6c9.2,0,16.6-7.4,16.6-16.6c0-9.2-7.4-16.6-16.6-16.6c-9.2,0-16.6,7.4-16.6,16.6
			C444.1,199.1,451.6,206.6,460.8,206.6z M460.8,176.2c7.6,0,13.7,6.2,13.7,13.7c0,7.6-6.2,13.7-13.7,13.7
			c-7.6,0-13.7-6.2-13.7-13.7C447,182.4,453.2,176.2,460.8,176.2z"/>
		<path fill="none" d="M358.3,206.6c9.2,0,16.6-7.4,16.6-16.6c0-9.2-7.4-16.6-16.6-16.6c-9.2,0-16.6,7.4-16.6,16.6
			C341.7,199.1,349.1,206.6,358.3,206.6z M358.3,176.2c7.6,0,13.7,6.2,13.7,13.7c0,7.6-6.2,13.7-13.7,13.7
			c-7.6,0-13.7-6.2-13.7-13.7C344.5,182.4,350.7,176.2,358.3,176.2z"/>
		<rect y="875.9" fill="#231F20" width="1024" height="106.6"/>
		<rect y="17.7" fill="#231F20" width="1024" height="27.9"/>
		<path fill="#231F20" d="M1007.4,176.2c-7.6,0-13.7,6.2-13.7,13.7c0,7.6,6.2,13.7,13.7,13.7c7.6,0,13.7-6.2,13.7-13.7
			C1021.1,182.4,1015,176.2,1007.4,176.2z M1007.4,200.6c-5.9,0-10.7-4.8-10.7-10.7c0-5.9,4.8-10.7,10.7-10.7
			c5.9,0,10.7,4.8,10.7,10.7C1018.1,195.8,1013.3,200.6,1007.4,200.6z"/>
		<path fill="#231F20" d="M973.2,203.7c7.6,0,13.7-6.2,13.7-13.7c0-7.6-6.2-13.7-13.7-13.7c-7.6,0-13.7,6.2-13.7,13.7
			C959.5,197.5,965.7,203.7,973.2,203.7z M973.2,179.3c5.9,0,10.7,4.8,10.7,10.7c0,5.9-4.8,10.7-10.7,10.7
			c-5.9,0-10.7-4.8-10.7-10.7C962.6,184.1,967.3,179.3,973.2,179.3z"/>
		<path fill="#231F20" d="M939.1,203.7c7.6,0,13.7-6.2,13.7-13.7c0-7.6-6.2-13.7-13.7-13.7c-7.6,0-13.7,6.2-13.7,13.7
			C925.3,197.5,931.5,203.7,939.1,203.7z M939.1,179.3c5.9,0,10.7,4.8,10.7,10.7c0,5.9-4.8,10.7-10.7,10.7
			c-5.9,0-10.7-4.8-10.7-10.7C928.4,184.1,933.2,179.3,939.1,179.3z"/>
		<path fill="#231F20" d="M904.9,203.7c7.6,0,13.7-6.2,13.7-13.7c0-7.6-6.2-13.7-13.7-13.7c-7.6,0-13.7,6.2-13.7,13.7
			C891.2,197.5,897.3,203.7,904.9,203.7z M904.9,179.3c5.9,0,10.7,4.8,10.7,10.7c0,5.9-4.8,10.7-10.7,10.7
			c-5.9,0-10.7-4.8-10.7-10.7C894.2,184.1,899,179.3,904.9,179.3z"/>
		<path fill="#231F20" d="M870.7,203.7c7.6,0,13.7-6.2,13.7-13.7c0-7.6-6.2-13.7-13.7-13.7c-7.6,0-13.7,6.2-13.7,13.7
			C857,197.5,863.2,203.7,870.7,203.7z M870.7,179.3c5.9,0,10.7,4.8,10.7,10.7c0,5.9-4.8,10.7-10.7,10.7s-10.7-4.8-10.7-10.7
			C860.1,184.1,864.8,179.3,870.7,179.3z"/>
		<path fill="#231F20" d="M836.6,203.7c7.6,0,13.7-6.2,13.7-13.7c0-7.6-6.2-13.7-13.7-13.7c-7.6,0-13.7,6.2-13.7,13.7
			C822.8,197.5,829,203.7,836.6,203.7z M836.6,179.3c5.9,0,10.7,4.8,10.7,10.7c0,5.9-4.8,10.7-10.7,10.7c-5.9,0-10.7-4.8-10.7-10.7
			C825.9,184.1,830.7,179.3,836.6,179.3z"/>
		<path fill="#231F20" d="M802.4,203.7c7.6,0,13.7-6.2,13.7-13.7c0-7.6-6.2-13.7-13.7-13.7c-7.6,0-13.7,6.2-13.7,13.7
			C788.7,197.5,794.8,203.7,802.4,203.7z M802.4,179.3c5.9,0,10.7,4.8,10.7,10.7c0,5.9-4.8,10.7-10.7,10.7
			c-5.9,0-10.7-4.8-10.7-10.7C791.7,184.1,796.5,179.3,802.4,179.3z"/>
		<path fill="#231F20" d="M768.2,203.7c7.6,0,13.7-6.2,13.7-13.7c0-7.6-6.2-13.7-13.7-13.7c-7.6,0-13.7,6.2-13.7,13.7
			C754.5,197.5,760.7,203.7,768.2,203.7z M768.2,179.3c5.9,0,10.7,4.8,10.7,10.7c0,5.9-4.8,10.7-10.7,10.7
			c-5.9,0-10.7-4.8-10.7-10.7C757.6,184.1,762.4,179.3,768.2,179.3z"/>
		<path fill="#231F20" d="M734.1,203.7c7.6,0,13.7-6.2,13.7-13.7c0-7.6-6.2-13.7-13.7-13.7c-7.6,0-13.7,6.2-13.7,13.7
			C720.3,197.5,726.5,203.7,734.1,203.7z M734.1,179.3c5.9,0,10.7,4.8,10.7,10.7c0,5.9-4.8,10.7-10.7,10.7
			c-5.9,0-10.7-4.8-10.7-10.7C723.4,184.1,728.2,179.3,734.1,179.3z"/>
		<path fill="#231F20" d="M699.9,203.7c7.6,0,13.7-6.2,13.7-13.7c0-7.6-6.2-13.7-13.7-13.7c-7.6,0-13.7,6.2-13.7,13.7
			C686.2,197.5,692.3,203.7,699.9,203.7z M699.9,179.3c5.9,0,10.7,4.8,10.7,10.7c0,5.9-4.8,10.7-10.7,10.7s-10.7-4.8-10.7-10.7
			C689.2,184.1,694,179.3,699.9,179.3z"/>
		<path fill="#231F20" d="M665.7,203.7c7.6,0,13.7-6.2,13.7-13.7c0-7.6-6.2-13.7-13.7-13.7c-7.6,0-13.7,6.2-13.7,13.7
			C652,197.5,658.2,203.7,665.7,203.7z M665.7,179.3c5.9,0,10.7,4.8,10.7,10.7c0,5.9-4.8,10.7-10.7,10.7c-5.9,0-10.7-4.8-10.7-10.7
			C655.1,184.1,659.9,179.3,665.7,179.3z"/>
		<path fill="#231F20" d="M631.6,203.7c7.6,0,13.7-6.2,13.7-13.7c0-7.6-6.2-13.7-13.7-13.7c-7.6,0-13.7,6.2-13.7,13.7
			C617.8,197.5,624,203.7,631.6,203.7z M631.6,179.3c5.9,0,10.7,4.8,10.7,10.7c0,5.9-4.8,10.7-10.7,10.7c-5.9,0-10.7-4.8-10.7-10.7
			C620.9,184.1,625.7,179.3,631.6,179.3z"/>
		<path fill="#231F20" d="M597.4,203.7c7.6,0,13.7-6.2,13.7-13.7c0-7.6-6.2-13.7-13.7-13.7c-7.6,0-13.7,6.2-13.7,13.7
			C583.7,197.5,589.8,203.7,597.4,203.7z M597.4,179.3c5.9,0,10.7,4.8,10.7,10.7c0,5.9-4.8,10.7-10.7,10.7
			c-5.9,0-10.7-4.8-10.7-10.7C586.7,184.1,591.5,179.3,597.4,179.3z"/>
		<path fill="#231F20" d="M563.2,203.7c7.6,0,13.7-6.2,13.7-13.7c0-7.6-6.2-13.7-13.7-13.7c-7.6,0-13.7,6.2-13.7,13.7
			C549.5,197.5,555.7,203.7,563.2,203.7z M563.2,179.3c5.9,0,10.7,4.8,10.7,10.7c0,5.9-4.8,10.7-10.7,10.7
			c-5.9,0-10.7-4.8-10.7-10.7C552.6,184.1,557.4,179.3,563.2,179.3z"/>
		<path fill="#231F20" d="M529.1,203.7c7.6,0,13.7-6.2,13.7-13.7c0-7.6-6.2-13.7-13.7-13.7c-7.6,0-13.7,6.2-13.7,13.7
			C515.3,197.5,521.5,203.7,529.1,203.7z M529.1,179.3c5.9,0,10.7,4.8,10.7,10.7c0,5.9-4.8,10.7-10.7,10.7s-10.7-4.8-10.7-10.7
			C518.4,184.1,523.2,179.3,529.1,179.3z"/>
		<path fill="#231F20" d="M494.9,203.7c7.6,0,13.7-6.2,13.7-13.7c0-7.6-6.2-13.7-13.7-13.7c-7.6,0-13.7,6.2-13.7,13.7
			C481.2,197.5,487.3,203.7,494.9,203.7z M494.9,179.3c5.9,0,10.7,4.8,10.7,10.7c0,5.9-4.8,10.7-10.7,10.7
			c-5.9,0-10.7-4.8-10.7-10.7C484.2,184.1,489,179.3,494.9,179.3z"/>
		<path fill="#231F20" d="M460.8,203.7c7.6,0,13.7-6.2,13.7-13.7c0-7.6-6.2-13.7-13.7-13.7c-7.6,0-13.7,6.2-13.7,13.7
			C447,197.5,453.2,203.7,460.8,203.7z M460.8,179.3c5.9,0,10.7,4.8,10.7,10.7c0,5.9-4.8,10.7-10.7,10.7c-5.9,0-10.7-4.8-10.7-10.7
			C450.1,184.1,454.9,179.3,460.8,179.3z"/>
		<path fill="#231F20" d="M426.6,203.7c7.6,0,13.7-6.2,13.7-13.7c0-7.6-6.2-13.7-13.7-13.7c-7.6,0-13.7,6.2-13.7,13.7
			C412.8,197.5,419,203.7,426.6,203.7z M426.6,179.3c5.9,0,10.7,4.8,10.7,10.7c0,5.9-4.8,10.7-10.7,10.7c-5.9,0-10.7-4.8-10.7-10.7
			C415.9,184.1,420.7,179.3,426.6,179.3z"/>
		<path fill="#231F20" d="M392.4,203.7c7.6,0,13.7-6.2,13.7-13.7c0-7.6-6.2-13.7-13.7-13.7c-7.6,0-13.7,6.2-13.7,13.7
			C378.7,197.5,384.8,203.7,392.4,203.7z M392.4,179.3c5.9,0,10.7,4.8,10.7,10.7c0,5.9-4.8,10.7-10.7,10.7
			c-5.9,0-10.7-4.8-10.7-10.7C381.7,184.1,386.5,179.3,392.4,179.3z"/>
		<path fill="#231F20" d="M358.3,203.7c7.6,0,13.7-6.2,13.7-13.7c0-7.6-6.2-13.7-13.7-13.7c-7.6,0-13.7,6.2-13.7,13.7
			C344.5,197.5,350.7,203.7,358.3,203.7z M358.3,179.3c5.9,0,10.7,4.8,10.7,10.7c0,5.9-4.8,10.7-10.7,10.7
			c-5.9,0-10.7-4.8-10.7-10.7C347.6,184.1,352.4,179.3,358.3,179.3z"/>
		<path fill="#231F20" d="M324.1,203.7c7.6,0,13.7-6.2,13.7-13.7c0-7.6-6.2-13.7-13.7-13.7c-7.6,0-13.7,6.2-13.7,13.7
			C310.3,197.5,316.5,203.7,324.1,203.7z M324.1,179.3c5.9,0,10.7,4.8,10.7,10.7c0,5.9-4.8,10.7-10.7,10.7
			c-5.9,0-10.7-4.8-10.7-10.7C313.4,184.1,318.2,179.3,324.1,179.3z"/>
		<path fill="#231F20" d="M289.9,203.7c7.6,0,13.7-6.2,13.7-13.7c0-7.6-6.2-13.7-13.7-13.7c-7.6,0-13.7,6.2-13.7,13.7
			C276.2,197.5,282.3,203.7,289.9,203.7z M289.9,179.3c5.9,0,10.7,4.8,10.7,10.7c0,5.9-4.8,10.7-10.7,10.7
			c-5.9,0-10.7-4.8-10.7-10.7C279.2,184.1,284,179.3,289.9,179.3z"/>
		<path fill="#231F20" d="M255.8,203.7c7.6,0,13.7-6.2,13.7-13.7c0-7.6-6.2-13.7-13.7-13.7c-7.6,0-13.7,6.2-13.7,13.7
			C242,197.5,248.2,203.7,255.8,203.7z M255.8,179.3c5.9,0,10.7,4.8,10.7,10.7c0,5.9-4.8,10.7-10.7,10.7c-5.9,0-10.7-4.8-10.7-10.7
			C245.1,184.1,249.9,179.3,255.8,179.3z"/>
		<path fill="#231F20" d="M221.6,203.7c7.6,0,13.7-6.2,13.7-13.7c0-7.6-6.2-13.7-13.7-13.7c-7.6,0-13.7,6.2-13.7,13.7
			C207.9,197.5,214,203.7,221.6,203.7z M221.6,179.3c5.9,0,10.7,4.8,10.7,10.7c0,5.9-4.8,10.7-10.7,10.7c-5.9,0-10.7-4.8-10.7-10.7
			C210.9,184.1,215.7,179.3,221.6,179.3z"/>
		<path fill="#231F20" d="M187.4,203.7c7.6,0,13.7-6.2,13.7-13.7c0-7.6-6.2-13.7-13.7-13.7c-7.6,0-13.7,6.2-13.7,13.7
			C173.7,197.5,179.9,203.7,187.4,203.7z M187.4,179.3c5.9,0,10.7,4.8,10.7,10.7c0,5.9-4.8,10.7-10.7,10.7
			c-5.9,0-10.7-4.8-10.7-10.7C176.7,184.1,181.5,179.3,187.4,179.3z"/>
		<path fill="#231F20" d="M153.3,203.7c7.6,0,13.7-6.2,13.7-13.7c0-7.6-6.2-13.7-13.7-13.7c-7.6,0-13.7,6.2-13.7,13.7
			C139.5,197.5,145.7,203.7,153.3,203.7z M153.3,179.3c5.9,0,10.7,4.8,10.7,10.7c0,5.9-4.8,10.7-10.7,10.7
			c-5.9,0-10.7-4.8-10.7-10.7C142.6,184.1,147.4,179.3,153.3,179.3z"/>
		<path fill="#231F20" d="M119.1,203.7c7.6,0,13.7-6.2,13.7-13.7c0-7.6-6.2-13.7-13.7-13.7c-7.6,0-13.7,6.2-13.7,13.7
			C105.4,197.5,111.5,203.7,119.1,203.7z M119.1,179.3c5.9,0,10.7,4.8,10.7,10.7c0,5.9-4.8,10.7-10.7,10.7
			c-5.9,0-10.7-4.8-10.7-10.7C108.4,184.1,113.2,179.3,119.1,179.3z"/>
		<path fill="#231F20" d="M84.9,203.7c7.6,0,13.7-6.2,13.7-13.7c0-7.6-6.2-13.7-13.7-13.7c-7.6,0-13.7,6.2-13.7,13.7
			C71.2,197.5,77.4,203.7,84.9,203.7z M84.9,179.3c5.9,0,10.7,4.8,10.7,10.7c0,5.9-4.8,10.7-10.7,10.7c-5.9,0-10.7-4.8-10.7-10.7
			C74.3,184.1,79,179.3,84.9,179.3z"/>
		<path fill="#231F20" d="M50.8,203.7c7.6,0,13.7-6.2,13.7-13.7c0-7.6-6.2-13.7-13.7-13.7c-7.6,0-13.7,6.2-13.7,13.7
			C37,197.5,43.2,203.7,50.8,203.7z M50.8,179.3c5.9,0,10.7,4.8,10.7,10.7c0,5.9-4.8,10.7-10.7,10.7c-5.9,0-10.7-4.8-10.7-10.7
			C40.1,184.1,44.9,179.3,50.8,179.3z"/>
		<path fill="#231F20" d="M16.6,203.7c7.6,0,13.7-6.2,13.7-13.7c0-7.6-6.2-13.7-13.7-13.7c-7.6,0-13.7,6.2-13.7,13.7
			C2.9,197.5,9,203.7,16.6,203.7z M16.6,179.3c5.9,0,10.7,4.8,10.7,10.7c0,5.9-4.8,10.7-10.7,10.7S5.9,195.8,5.9,190
			C5.9,184.1,10.7,179.3,16.6,179.3z"/>
		<path fill="#231F20" d="M0,190c0-9.2,7.4-16.6,16.6-16.6c9.2,0,16.6,7.4,16.6,16.6c0,9.2-7.4,16.6-16.6,16.6
			C7.4,206.6,0,199.1,0,190v36.3h75.8c11.1,0,17.2,12.8,10.2,21.4l-53.4,85.5c-6.5,7.9-0.9,19.8,9.3,20l27.9,0.4
			c3.7,0.1,6.8,3.1,6.8,6.9v22.4c0,3.8-3.1,6.9-6.9,6.9H28.8c-6.8,0-12.2,5.5-12.2,12.2v415.8c0,7.7,6.3,14,14,14H97
			c7.7,0,14-6.3,14-14V372.6c0-23.1-27.9-38.7-38.4-43.7c-2-1-2.7-3.5-1.4-5.4l53.8-74.7c1.5-2.1,4.6-2.1,6.1,0l53.8,74.7
			c1.3,1.8,0.7,4.4-1.4,5.4c-10.5,5-38.4,20.6-38.4,43.7v445.1c0,7.7,6.3,14,14,14h66.4c7.7,0,14-6.3,14-14V401.8
			c0-6.8-5.5-12.2-12.2-12.2h-40.9c-3.8,0-6.9-3.1-6.9-6.9v-22.3c0-3.8,3.1-6.9,6.9-6.9h27.5c10.3,0,16-11.9,9.5-19.9l-53.3-86
			c-7-8.6-0.9-21.4,10.2-21.4h151.6c11.1,0,17.2,12.8,10.2,21.4l-53.4,85.5c-6.5,7.9-0.9,19.8,9.3,20l27.9,0.4
			c3.7,0.1,6.8,3.1,6.8,6.9v22.4c0,3.8-3.1,6.9-6.9,6.9h-40.9c-6.8,0-12.2,5.5-12.2,12.2v415.8c0,7.7,6.3,14,14,14H353
			c7.7,0,14-6.3,14-14V372.6c0-23.1-27.9-38.7-38.4-43.7c-2-1-2.7-3.5-1.4-5.4l53.8-74.7c1.5-2.1,4.6-2.1,6.1,0l53.8,74.7
			c1.3,1.8,0.7,4.4-1.4,5.4c-10.5,5-38.4,20.6-38.4,43.7v445.1c0,7.7,6.3,14,14,14h66.4c7.7,0,14-6.3,14-14V401.8
			c0-6.8-5.5-12.2-12.2-12.2h-40.9c-3.8,0-6.9-3.1-6.9-6.9v-22.3c0-3.8,3.1-6.9,6.9-6.9h27.5c10.3,0,16-11.9,9.5-19.9l-53.3-86
			c-7-8.6-0.9-21.4,10.2-21.4h151.6c11.1,0,17.2,12.8,10.2,21.4l-53.4,85.5c-6.5,7.9-0.9,19.8,9.3,20l27.9,0.4
			c3.7,0.1,6.8,3.1,6.8,6.9v22.4c0,3.8-3.1,6.9-6.9,6.9h-40.9c-6.8,0-12.2,5.5-12.2,12.2v415.8c0,7.7,6.3,14,14,14H609
			c7.7,0,14-6.3,14-14V372.6c0-23.1-27.9-38.7-38.4-43.7c-2-1-2.7-3.5-1.4-5.4l53.8-74.7c1.5-2.1,4.6-2.1,6.1,0l53.8,74.7
			c1.3,1.8,0.7,4.4-1.4,5.4c-10.5,5-38.4,20.6-38.4,43.7v445.1c0,7.7,6.3,14,14,14h66.4c7.7,0,14-6.3,14-14V401.8
			c0-6.8-5.5-12.2-12.2-12.2h-40.9c-3.8,0-6.9-3.1-6.9-6.9v-22.3c0-3.8,3.1-6.9,6.9-6.9h27.5c10.3,0,16-11.9,9.5-19.9l-53.3-86
			c-7-8.6-0.9-21.4,10.2-21.4h151.6c11.1,0,17.2,12.8,10.2,21.4l-53.4,85.5c-6.5,7.9-0.9,19.8,9.3,20l27.9,0.4
			c3.7,0.1,6.8,3.1,6.8,6.9v22.4c0,3.8-3.1,6.9-6.9,6.9h-40.9c-6.8,0-12.2,5.5-12.2,12.2v415.8c0,7.7,6.3,14,14,14H865
			c7.7,0,14-6.3,14-14V372.6c0-23.1-27.9-38.7-38.4-43.7c-2-1-2.7-3.5-1.4-5.4l53.8-74.7c1.5-2.1,4.6-2.1,6.1,0l53.8,74.7
			c1.3,1.8,0.7,4.4-1.4,5.4c-10.5,5-38.4,20.6-38.4,43.7v445.1c0,7.7,6.3,14,14,14h66.4c7.7,0,14-6.3,14-14V401.8
			c0-6.8-5.5-12.2-12.2-12.2h-40.9c-3.8,0-6.9-3.1-6.9-6.9v-22.3c0-3.8,3.1-6.9,6.9-6.9h27.5c10.3,0,16-11.9,9.5-19.9l-53.3-86
			c-7-8.6-0.9-21.4,10.2-21.4h75.8V190c0,9.2-7.4,16.6-16.6,16.6c-9.2,0-16.6-7.4-16.6-16.6c0-9.2,7.4-16.6,16.6-16.6
			c9.2,0,16.6,7.4,16.6,16.6v-46H0V190z M69.7,802.1c-4.7,5.9-13.3,6.8-19.1,2.1s-6.8-13.3-2.1-19.1c0.6-0.8,1.4-1.5,2.1-2.1
			c0,0,0.1-0.1,0.3-0.2c0.2-0.2,0.4-0.4,0.6-0.7c0.5-0.6,1.2-1.6,1.7-2.8c0.5-1.2,1-2.8,1-4.6c0-1.8,0-3.9,0-6.2
			c0.1-9.3,0.1-22.6,0.2-38.5c0-8,0.1-16.6,0.2-25.7c0.1-9.1,0.1-18.8,0.1-28.7c0-10,0-20.3,0-30.7c0-10.5,0-21.1-0.1-31.7
			c-0.1-21.3-0.3-42.5-0.4-62.4c-0.2-19.9-0.4-38.5-0.5-54.5c-0.2-15.9-0.3-29.2-0.4-38.5c0-2.3,0-4.4-0.2-6.2
			c-0.2-1.8-0.6-3.3-1-4.6c-0.4-1.2-0.8-2.2-1.1-2.8c-0.3-0.6-0.5-1-0.5-1c-3.2-4.7-2-11.1,2.7-14.3c4.7-3.2,11.1-2,14.3,2.7
			c2.5,3.6,2.3,8.3,0,11.7c0,0-0.2,0.3-0.5,1c-0.3,0.6-0.8,1.6-1.1,2.8c-0.4,1.2-0.7,2.8-1,4.6c-0.2,1.8-0.2,3.9-0.2,6.2
			c-0.1,9.3-0.2,22.6-0.4,38.5c-0.2,15.9-0.3,34.5-0.5,54.5c-0.1,19.9-0.3,41.2-0.4,62.4c0,10.6,0,21.3-0.1,31.7
			c0,10.5,0,20.8,0,30.7c0,10,0.1,19.6,0.1,28.7c0.1,9.1,0.1,17.8,0.2,25.7c0.1,15.9,0.2,29.2,0.2,38.5c0,2.3,0,4.4,0,6.2
			c0,1.8,0.5,3.3,1,4.6c0.5,1.2,1.2,2.2,1.7,2.8c0.3,0.3,0.5,0.6,0.6,0.7c0.2,0.2,0.3,0.2,0.3,0.2C73.5,787.7,74.4,796.3,69.7,802.1
			z M180.8,420.2c5.2-7.3,15.4-9,22.8-3.8c7.3,5.2,9,15.4,3.8,22.8c-1.1,1.5-2.4,2.8-3.8,3.8c0,0-0.1,0.1-0.3,0.2
			c-0.2,0.2-0.4,0.4-0.7,0.7c-0.6,0.6-1.3,1.6-1.9,2.8c-0.6,1.2-1.1,2.8-1.1,4.6c0,1.8,0,3.9-0.1,6.2c-0.1,9.3-0.2,22.6-0.3,38.5
			c0,8-0.1,16.6-0.1,25.7c0,9.1-0.1,18.8-0.1,28.7c0,10,0,20.3,0,30.7c0,10.5,0,21.1,0.1,31.7c0.1,10.6,0.1,21.3,0.2,31.7
			c0.1,10.5,0.2,20.8,0.3,30.7c0.2,19.9,0.4,38.5,0.6,54.5c0.2,15.9,0.3,29.2,0.4,38.5c0,2.3,0,4.4,0.2,6.2c0.2,1.8,0.6,3.3,1.1,4.6
			c0.4,1.2,0.9,2.2,1.3,2.8c0.4,0.6,0.6,1,0.6,1c4,5.2,3,12.8-2.2,16.8s-12.8,3-16.8-2.2c-3.4-4.4-3.2-10.4,0-14.6
			c0,0,0.3-0.3,0.6-1c0.4-0.6,0.9-1.6,1.3-2.8c0.4-1.2,0.8-2.8,1.1-4.6c0.3-1.8,0.2-3.9,0.2-6.2c0.1-9.3,0.3-22.6,0.4-38.5
			c0.2-15.9,0.4-34.5,0.6-54.5c0.1-10,0.2-20.3,0.3-30.7c0.1-10.5,0.1-21.1,0.2-31.7c0-10.6,0-21.3,0.1-31.7c0-10.5,0-20.8,0-30.7
			c0-10-0.1-19.6-0.1-28.7c-0.1-9.1-0.1-17.8-0.1-25.7c-0.1-15.9-0.2-29.2-0.3-38.5c0-2.3,0-4.4-0.1-6.2c-0.1-1.8-0.5-3.3-1.1-4.6
			c-0.6-1.2-1.3-2.2-1.9-2.8c-0.3-0.3-0.5-0.6-0.7-0.7c-0.2-0.2-0.3-0.2-0.3-0.2C177.3,437.8,175.6,427.6,180.8,420.2z M323.3,798.8
			c-4.1,4.6-11.2,4.9-15.8,0.8s-4.9-11.2-0.8-15.8c0.2-0.3,0.5-0.5,0.8-0.8c0,0,0.1-0.1,0.2-0.2c0.1-0.2,0.3-0.4,0.6-0.7
			c0.5-0.6,1.1-1.6,1.5-2.8c0.5-1.2,0.8-2.8,0.9-4.6c0-1.8,0-3.9,0-6.2c0.1-9.3,0.1-22.6,0.2-38.5c0-8,0.1-16.6,0.1-25.7
			c0.1-9.1,0.1-18.8,0.1-28.7c0-19.9,0-41.2,0-62.4c-0.1-21.3-0.2-42.5-0.4-62.4c-0.2-19.9-0.3-38.5-0.5-54.5
			c-0.1-15.9-0.3-29.2-0.3-38.5c0-2.3,0-4.4-0.2-6.2c-0.2-1.8-0.5-3.3-0.8-4.6c-0.3-1.2-0.7-2.2-1-2.8c-0.3-0.6-0.5-1-0.5-1
			c-2.5-4.1-1.2-9.5,3-12c4.1-2.5,9.5-1.2,12,3c1.7,2.9,1.6,6.4,0,9.1c0,0-0.2,0.3-0.5,1c-0.3,0.6-0.7,1.6-1,2.8
			c-0.3,1.2-0.7,2.8-0.8,4.6c-0.2,1.8-0.2,3.9-0.2,6.2c-0.1,9.3-0.2,22.6-0.3,38.5c-0.1,15.9-0.3,34.5-0.5,54.5
			c-0.1,19.9-0.2,41.2-0.4,62.4c0,21.3,0,42.5,0,62.4c0,10,0,19.6,0.1,28.7c0.1,9.1,0.1,17.8,0.1,25.7c0.1,15.9,0.2,29.2,0.2,38.5
			c0,2.3,0,4.4,0,6.2c0,1.8,0.4,3.3,0.9,4.6c0.5,1.2,1,2.2,1.5,2.8c0.2,0.3,0.4,0.6,0.6,0.7c0.1,0.2,0.2,0.2,0.2,0.2
			C327.1,787.1,327.4,794.2,323.3,798.8z M438.2,425.6c4.4-5.2,12.2-5.8,17.4-1.4s5.8,12.2,1.4,17.4c-0.4,0.5-0.9,1-1.4,1.4
			c0,0-0.1,0.1-0.2,0.2c-0.2,0.2-0.4,0.4-0.6,0.7c-0.5,0.6-1.1,1.6-1.6,2.8c-0.5,1.2-0.9,2.8-0.9,4.6c0,1.8,0,3.9,0,6.2
			c-0.1,9.3-0.1,22.6-0.2,38.5c-0.1,15.9-0.3,34.5-0.3,54.5c0,10,0,20.3,0,30.7c0,10.5,0,21.1,0.1,31.7c0.1,21.3,0.3,42.5,0.4,62.4
			c0.2,19.9,0.3,38.5,0.5,54.5c0.2,15.9,0.3,29.2,0.4,38.5c0,2.3,0,4.4,0.2,6.2c0.2,1.8,0.5,3.3,0.9,4.6c0.4,1.2,0.8,2.2,1.1,2.8
			c0.3,0.6,0.5,1,0.5,1c2.9,4.4,1.6,10.3-2.8,13.2c-4.4,2.9-10.3,1.6-13.2-2.8c-2.1-3.2-2-7.3,0-10.3c0,0,0.2-0.3,0.5-1
			c0.3-0.6,0.7-1.6,1.1-2.8c0.4-1.2,0.7-2.8,0.9-4.6c0.2-1.8,0.2-3.9,0.2-6.2c0.1-9.3,0.2-22.6,0.4-38.5c0.1-15.9,0.3-34.5,0.5-54.5
			c0.1-19.9,0.2-41.2,0.4-62.4c0-10.6,0-21.3,0.1-31.7c0-10.5,0-20.8,0-30.7c0-19.9-0.2-38.5-0.3-54.5c-0.1-15.9-0.2-29.2-0.2-38.5
			c0-2.3,0-4.4,0-6.2c0-1.8-0.4-3.3-0.9-4.6c-0.5-1.2-1.1-2.2-1.6-2.8c-0.2-0.3-0.5-0.6-0.6-0.7c-0.1-0.2-0.2-0.2-0.2-0.2
			C434.4,438.6,433.8,430.8,438.2,425.6z M580,795.7c-3.6,3.4-9.3,3.3-12.7-0.3c-3.3-3.5-3.3-9,0-12.4c0,0,0.1-0.1,0.2-0.2
			c0.1-0.2,0.3-0.4,0.5-0.7c0.4-0.6,0.9-1.6,1.3-2.8c0.4-1.2,0.7-2.8,0.8-4.6c0-1.8,0-3.9,0-6.2c0-9.3,0.1-22.6,0.2-38.5
			c0-8,0.1-16.6,0.1-25.7c0.1-9.1,0.1-18.8,0.1-28.7c0-19.9,0-41.2,0-62.4c-0.1-21.3-0.2-42.5-0.3-62.4c-0.1-19.9-0.3-38.5-0.4-54.5
			c-0.1-15.9-0.2-29.2-0.3-38.5c0-2.3,0-4.4-0.2-6.2c-0.2-1.8-0.4-3.3-0.7-4.6c-0.6-2.5-1.3-3.8-1.3-3.8c-1.9-3.6-0.5-8,3.1-9.9
			c3.6-1.9,8-0.5,9.9,3.1c1.2,2.2,1.1,4.8,0,6.9c0,0-0.7,1.3-1.3,3.8c-0.3,1.2-0.6,2.8-0.7,4.6c-0.2,1.8-0.1,3.9-0.2,6.2
			c-0.1,9.3-0.2,22.6-0.3,38.5c-0.1,15.9-0.2,34.5-0.4,54.5c-0.1,19.9-0.2,41.2-0.3,62.4c0,21.3,0,42.5,0,62.4c0,10,0,19.6,0.1,28.7
			c0,9.1,0.1,17.8,0.1,25.7c0.1,15.9,0.1,29.2,0.2,38.5c0,2.3,0,4.4,0,6.2c0,1.8,0.4,3.3,0.8,4.6c0.4,1.2,0.9,2.2,1.3,2.8
			c0.2,0.3,0.4,0.6,0.5,0.7c0.1,0.2,0.2,0.2,0.2,0.2C583.7,786.6,583.6,792.3,580,795.7z M698.1,423.9c4.7-5.9,13.3-6.8,19.1-2.1
			c5.9,4.7,6.8,13.3,2.1,19.1c-0.6,0.8-1.4,1.5-2.1,2.1c0,0-0.1,0.1-0.3,0.2c-0.2,0.2-0.4,0.4-0.6,0.7c-0.5,0.6-1.2,1.6-1.7,2.8
			c-0.5,1.2-1,2.8-1,4.6c0,1.8,0,3.9,0,6.2c-0.1,9.3-0.1,22.6-0.2,38.5c0,8-0.1,16.6-0.2,25.7c-0.1,9.1-0.1,18.8-0.1,28.7
			c0,10,0,20.3,0,30.7c0,10.5,0,21.1,0.1,31.7c0.1,21.3,0.3,42.5,0.4,62.4c0.2,19.9,0.4,38.5,0.5,54.5c0.2,15.9,0.3,29.2,0.4,38.5
			c0,2.3,0,4.4,0.2,6.2c0.2,1.8,0.6,3.3,1,4.6c0.4,1.2,0.8,2.2,1.1,2.8c0.3,0.6,0.5,1,0.5,1c3.2,4.7,2,11.1-2.7,14.3
			c-4.7,3.2-11.1,2-14.3-2.7c-2.5-3.6-2.3-8.3,0-11.7c0,0,0.2-0.3,0.5-1c0.3-0.6,0.8-1.6,1.1-2.8c0.4-1.2,0.7-2.8,1-4.6
			c0.2-1.8,0.2-3.9,0.2-6.2c0.1-9.3,0.2-22.6,0.4-38.5c0.2-15.9,0.3-34.5,0.5-54.5c0.1-19.9,0.3-41.2,0.4-62.4
			c0-10.6,0-21.3,0.1-31.7c0-10.5,0-20.8,0-30.7c0-10-0.1-19.6-0.1-28.7c-0.1-9.1-0.1-17.8-0.2-25.7c-0.1-15.9-0.2-29.2-0.2-38.5
			c0-2.3,0-4.4,0-6.2c0-1.8-0.5-3.3-1-4.6c-0.5-1.2-1.2-2.2-1.7-2.8c-0.3-0.3-0.5-0.6-0.6-0.7c-0.2-0.2-0.3-0.2-0.3-0.2
			C694.4,438.3,693.4,429.7,698.1,423.9z M836.9,797.2c-3.9,4-10.2,4.1-14.2,0.2c-4-3.9-4.1-10.2-0.2-14.2c0.1-0.1,0.1-0.1,0.2-0.2
			c0,0,0.1-0.1,0.2-0.2c0.1-0.2,0.3-0.4,0.5-0.7c0.4-0.6,1-1.6,1.4-2.8c0.4-1.2,0.8-2.8,0.8-4.6c0-1.8,0-3.9,0-6.2
			c0-9.3,0.1-22.6,0.2-38.5c0-8,0.1-16.6,0.1-25.7c0.1-9.1,0.1-18.8,0.1-28.7c0-19.9,0-41.2,0-62.4c-0.1-21.3-0.2-42.5-0.3-62.4
			c-0.2-19.9-0.3-38.5-0.4-54.5c-0.1-15.9-0.2-29.2-0.3-38.5c0-2.3,0-4.4-0.2-6.2c-0.2-1.8-0.5-3.3-0.8-4.6
			c-0.3-1.2-0.7-2.2-0.9-2.8c-0.3-0.6-0.5-1-0.5-1c-2.2-3.9-0.8-8.8,3-11c3.9-2.2,8.8-0.8,11,3c1.4,2.5,1.3,5.5,0,7.9
			c0,0-0.2,0.3-0.5,1c-0.3,0.6-0.6,1.6-0.9,2.8c-0.3,1.2-0.6,2.8-0.8,4.6c-0.2,1.8-0.1,3.9-0.2,6.2c-0.1,9.3-0.2,22.6-0.3,38.5
			c-0.1,15.9-0.3,34.5-0.4,54.5c-0.1,19.9-0.2,41.2-0.3,62.4c0,21.3,0,42.5,0,62.4c0,10,0,19.6,0.1,28.7c0,9.1,0.1,17.8,0.1,25.7
			c0.1,15.9,0.2,29.2,0.2,38.5c0,2.3,0,4.4,0,6.2c0,1.8,0.4,3.3,0.8,4.6c0.4,1.2,1,2.2,1.4,2.8c0.2,0.3,0.4,0.6,0.5,0.7
			c0.1,0.2,0.2,0.2,0.2,0.2C840.6,786.9,840.7,793.2,836.9,797.2z M951.6,423.9c4.7-5.9,13.3-6.8,19.1-2.1
			c5.9,4.7,6.8,13.3,2.1,19.1c-0.6,0.8-1.4,1.5-2.1,2.1c0,0-0.1,0.1-0.3,0.2c-0.2,0.2-0.4,0.4-0.6,0.7c-0.5,0.6-1.2,1.6-1.7,2.8
			c-0.5,1.2-1,2.8-1,4.6c0,1.8,0,3.9,0,6.2c-0.1,9.3-0.1,22.6-0.2,38.5c0,8-0.1,16.6-0.2,25.7c-0.1,9.1-0.1,18.8-0.1,28.7
			c0,10,0,20.3,0,30.7c0,10.5,0,21.1,0.1,31.7c0.1,21.3,0.3,42.5,0.4,62.4c0.2,19.9,0.4,38.5,0.5,54.5c0.2,15.9,0.3,29.2,0.4,38.5
			c0,2.3,0,4.4,0.2,6.2c0.2,1.8,0.6,3.3,1,4.6c0.4,1.2,0.8,2.2,1.1,2.8c0.3,0.6,0.5,1,0.5,1c3.2,4.7,2,11.1-2.7,14.3
			c-4.7,3.2-11.1,2-14.3-2.7c-2.5-3.6-2.3-8.3,0-11.7c0,0,0.2-0.3,0.5-1c0.3-0.6,0.8-1.6,1.1-2.8c0.4-1.2,0.7-2.8,1-4.6
			c0.2-1.8,0.2-3.9,0.2-6.2c0.1-9.3,0.2-22.6,0.4-38.5c0.2-15.9,0.3-34.5,0.5-54.5c0.1-19.9,0.3-41.2,0.4-62.4
			c0-10.6,0-21.3,0.1-31.7c0-10.5,0-20.8,0-30.7c0-10-0.1-19.6-0.1-28.7c-0.1-9.1-0.1-17.8-0.2-25.7c-0.1-15.9-0.2-29.2-0.2-38.5
			c0-2.3,0-4.4,0-6.2c0-1.8-0.5-3.3-1-4.6c-0.5-1.2-1.2-2.2-1.7-2.8c-0.3-0.3-0.5-0.6-0.6-0.7c-0.2-0.2-0.3-0.2-0.3-0.2
			C947.9,438.3,946.9,429.7,951.6,423.9z M973.2,173.3c9.2,0,16.6,7.4,16.6,16.6c0,9.2-7.4,16.6-16.6,16.6
			c-9.2,0-16.6-7.4-16.6-16.6C956.6,180.8,964.1,173.3,973.2,173.3z M939.1,173.3c9.2,0,16.6,7.4,16.6,16.6
			c0,9.2-7.4,16.6-16.6,16.6s-16.6-7.4-16.6-16.6C922.5,180.8,929.9,173.3,939.1,173.3z M904.9,173.3c9.2,0,16.6,7.4,16.6,16.6
			c0,9.2-7.4,16.6-16.6,16.6c-9.2,0-16.6-7.4-16.6-16.6C888.3,180.8,895.7,173.3,904.9,173.3z M870.7,173.3
			c9.2,0,16.6,7.4,16.6,16.6c0,9.2-7.4,16.6-16.6,16.6c-9.2,0-16.6-7.4-16.6-16.6C854.1,180.8,861.6,173.3,870.7,173.3z
			 M836.6,173.3c9.2,0,16.6,7.4,16.6,16.6c0,9.2-7.4,16.6-16.6,16.6c-9.2,0-16.6-7.4-16.6-16.6C820,180.8,827.4,173.3,836.6,173.3z
			 M802.4,173.3c9.2,0,16.6,7.4,16.6,16.6c0,9.2-7.4,16.6-16.6,16.6c-9.2,0-16.6-7.4-16.6-16.6C785.8,180.8,793.2,173.3,802.4,173.3
			z M768.2,173.3c9.2,0,16.6,7.4,16.6,16.6c0,9.2-7.4,16.6-16.6,16.6s-16.6-7.4-16.6-16.6C751.6,180.8,759.1,173.3,768.2,173.3z
			 M734.1,173.3c9.2,0,16.6,7.4,16.6,16.6c0,9.2-7.4,16.6-16.6,16.6c-9.2,0-16.6-7.4-16.6-16.6C717.5,180.8,724.9,173.3,734.1,173.3
			z M699.9,173.3c9.2,0,16.6,7.4,16.6,16.6c0,9.2-7.4,16.6-16.6,16.6c-9.2,0-16.6-7.4-16.6-16.6
			C683.3,180.8,690.7,173.3,699.9,173.3z M665.7,173.3c9.2,0,16.6,7.4,16.6,16.6c0,9.2-7.4,16.6-16.6,16.6
			c-9.2,0-16.6-7.4-16.6-16.6C649.1,180.8,656.6,173.3,665.7,173.3z M631.6,173.3c9.2,0,16.6,7.4,16.6,16.6
			c0,9.2-7.4,16.6-16.6,16.6c-9.2,0-16.6-7.4-16.6-16.6C615,180.8,622.4,173.3,631.6,173.3z M597.4,173.3c9.2,0,16.6,7.4,16.6,16.6
			c0,9.2-7.4,16.6-16.6,16.6s-16.6-7.4-16.6-16.6C580.8,180.8,588.2,173.3,597.4,173.3z M563.2,173.3c9.2,0,16.6,7.4,16.6,16.6
			c0,9.2-7.4,16.6-16.6,16.6c-9.2,0-16.6-7.4-16.6-16.6C546.6,180.8,554.1,173.3,563.2,173.3z M529.1,173.3
			c9.2,0,16.6,7.4,16.6,16.6c0,9.2-7.4,16.6-16.6,16.6c-9.2,0-16.6-7.4-16.6-16.6C512.5,180.8,519.9,173.3,529.1,173.3z
			 M494.9,173.3c9.2,0,16.6,7.4,16.6,16.6c0,9.2-7.4,16.6-16.6,16.6c-9.2,0-16.6-7.4-16.6-16.6C478.3,180.8,485.7,173.3,494.9,173.3
			z M460.8,173.3c9.2,0,16.6,7.4,16.6,16.6c0,9.2-7.4,16.6-16.6,16.6c-9.2,0-16.6-7.4-16.6-16.6
			C444.1,180.8,451.6,173.3,460.8,173.3z M426.6,173.3c9.2,0,16.6,7.4,16.6,16.6c0,9.2-7.4,16.6-16.6,16.6
			c-9.2,0-16.6-7.4-16.6-16.6C410,180.8,417.4,173.3,426.6,173.3z M392.4,173.3c9.2,0,16.6,7.4,16.6,16.6c0,9.2-7.4,16.6-16.6,16.6
			s-16.6-7.4-16.6-16.6C375.8,180.8,383.3,173.3,392.4,173.3z M358.3,173.3c9.2,0,16.6,7.4,16.6,16.6c0,9.2-7.4,16.6-16.6,16.6
			c-9.2,0-16.6-7.4-16.6-16.6C341.7,180.8,349.1,173.3,358.3,173.3z M324.1,173.3c9.2,0,16.6,7.4,16.6,16.6
			c0,9.2-7.4,16.6-16.6,16.6c-9.2,0-16.6-7.4-16.6-16.6C307.5,180.8,314.9,173.3,324.1,173.3z M289.9,173.3
			c9.2,0,16.6,7.4,16.6,16.6c0,9.2-7.4,16.6-16.6,16.6c-9.2,0-16.6-7.4-16.6-16.6C273.3,180.8,280.8,173.3,289.9,173.3z
			 M255.8,173.3c9.2,0,16.6,7.4,16.6,16.6c0,9.2-7.4,16.6-16.6,16.6c-9.2,0-16.6-7.4-16.6-16.6C239.2,180.8,246.6,173.3,255.8,173.3
			z M221.6,173.3c9.2,0,16.6,7.4,16.6,16.6c0,9.2-7.4,16.6-16.6,16.6c-9.2,0-16.6-7.4-16.6-16.6C205,180.8,212.4,173.3,221.6,173.3z
			 M187.4,173.3c9.2,0,16.6,7.4,16.6,16.6c0,9.2-7.4,16.6-16.6,16.6c-9.2,0-16.6-7.4-16.6-16.6C170.8,180.8,178.3,173.3,187.4,173.3
			z M153.3,173.3c9.2,0,16.6,7.4,16.6,16.6c0,9.2-7.4,16.6-16.6,16.6c-9.2,0-16.6-7.4-16.6-16.6
			C136.7,180.8,144.1,173.3,153.3,173.3z M119.1,173.3c9.2,0,16.6,7.4,16.6,16.6c0,9.2-7.4,16.6-16.6,16.6
			c-9.2,0-16.6-7.4-16.6-16.6C102.5,180.8,109.9,173.3,119.1,173.3z M84.9,173.3c9.2,0,16.6,7.4,16.6,16.6c0,9.2-7.4,16.6-16.6,16.6
			s-16.6-7.4-16.6-16.6C68.3,180.8,75.8,173.3,84.9,173.3z M50.8,173.3c9.2,0,16.6,7.4,16.6,16.6c0,9.2-7.4,16.6-16.6,16.6
			c-9.2,0-16.6-7.4-16.6-16.6C34.2,180.8,41.6,173.3,50.8,173.3z"/>
	</g>
	<g>
	</g>
	<g>
	</g>
	<g>
	</g>
	<g>
	</g>
	<g>
	</g>
	<g>
	</g>
</g>
</svg>
